<?xml version="1.0" standalone="no"?>
<!DOCTYPE svg PUBLIC "-//W3C//DTD SVG 1.1//EN" "http://www.w3.org/Graphics/SVG/1.1/DTD/svg11.dtd" >
<svg xmlns="http://www.w3.org/2000/svg">
<metadata></metadata>
<defs>
<font id="stoneinformal-boldregular" horiz-adv-x="1290" >
<font-face units-per-em="2048" ascent="1638" descent="-410" />
<missing-glyph horiz-adv-x="645" />
<glyph horiz-adv-x="0" />
<glyph unicode="&#xd;" horiz-adv-x="645" />
<glyph unicode=" "  horiz-adv-x="645" />
<glyph unicode="&#x09;" horiz-adv-x="645" />
<glyph unicode="&#xa0;" horiz-adv-x="645" />
<glyph unicode="!" horiz-adv-x="757" d="M162 1393q0 59 60.5 85.5t154.5 26.5t154.5 -26.5t60.5 -87.5q0 -16 -15.5 -95t-55.5 -342.5t-72 -492.5h-144q-4 25 -56 382t-69.5 445t-17.5 105zM186 166q0 78 56.5 134t134.5 56q76 0 133 -57t57 -133q0 -78 -56 -134.5t-134 -56.5q-74 0 -132.5 56.5t-58.5 134.5z " />
<glyph unicode="&#x22;" horiz-adv-x="909" d="M139 1384q0 51 24.5 86t88.5 35q63 0 89 -34.5t26 -84.5v-26q-4 -14 -5 -21l-65 -417q-4 -39 -13.5 -51.5t-31.5 -12.5q-33 0 -38 24.5t-7 39.5l-64 417q-4 25 -4 45zM543 1384q0 51 24.5 86t87.5 35t89 -34.5t26 -84.5v-26q-4 -14 -4 -21l-66 -417q-4 -39 -13 -51.5 t-32 -12.5q-33 0 -38 24.5t-7 39.5l-63 417q-4 25 -4 45z" />
<glyph unicode="#" d="M141 399v224h211l33 213h-188v223h221l49 375h160l-52 -375h250l54 375h159l-53 -375h162v-223h-193l-28 -213h170v-224h-201l-51 -399h-158l51 399h-252l-61 -399h-158l58 399h-183zM514 623h252l31 213h-250z" />
<glyph unicode="$" d="M102 1092q0 152 135.5 259t383.5 107l6 70h114l-4 -70q76 0 123 -7t106.5 -30.5t80 -40t18.5 -41.5v-151q0 -6 -12 -23l-80 -51q-18 16 -37 35q-8 12 -35 67.5t-76 87t-100 31.5l-31 -413q475 -319 475 -510q0 -188 -154.5 -312.5t-396.5 -124.5l-14 -159h-119l15 159 q-88 0 -157 10.5t-132.5 30t-78.5 32.5t-15 52v199q-2 23 -2 33q0 25 14 28l80 31q8 2 35.5 -59.5t55.5 -107.5t76 -75.5t134 -37.5l43 524l-143 98q-170 121 -239 184.5t-69 174.5zM481 1163q0 -59 30 -91t75 -64l24 315q-72 -45 -95 -65.5t-28.5 -49t-5.5 -45.5zM631 139 q59 31 101 79t42 114q0 72 -33.5 127t-76.5 90z" />
<glyph unicode="%" horiz-adv-x="2123" d="M78 1040q0 156 107.5 287t303.5 131q197 0 303.5 -130t106.5 -288q0 -215 -113.5 -343t-296.5 -128q-184 0 -297.5 127t-113.5 344zM395 1028q0 -184 24.5 -267t69.5 -83q23 0 58 39t35 311q0 168 -24 245t-69 77t-69.5 -79t-24.5 -243zM596 0l747 1434h170l-745 -1434 h-172zM1223 446q0 156 107.5 287t303.5 131q197 0 303.5 -130t106.5 -288q0 -215 -113.5 -343t-296.5 -128q-184 0 -297.5 127t-113.5 344zM1540 434q0 -184 24.5 -267t69.5 -83q23 0 57.5 39t34.5 311q0 168 -23.5 245t-68.5 77t-69.5 -79t-24.5 -243z" />
<glyph unicode="&#x26;" horiz-adv-x="1744" d="M119 373q0 127 75.5 235.5t256.5 151.5q-106 113 -170 197.5t-64 175.5q0 137 127 231t369 94q68 0 143.5 -11t130.5 -32.5t55 -54.5v-141q-2 -6 -4 -11.5t-8 -7.5l-86 -35q-14 -4 -20 11l-39 75q-18 37 -61.5 68t-102.5 31q-63 0 -104.5 -32t-41.5 -106q0 -82 42 -144 t100 -124l491 -506q25 59 25 140q0 84 -29.5 165.5t-85.5 126.5h-157q-41 0 -41 17q0 10 12 22l94 97q14 14 32.5 18t45.5 4h549q41 0 41 -18q0 -8 -13 -21l-92 -96q-14 -14 -32.5 -18.5t-45.5 -4.5h-168q33 -41 54.5 -110.5t21.5 -143.5q0 -78 -19.5 -146.5t-68.5 -137.5 l182 -182q29 -29 60 -56q35 -35 35 -55v-39h-318q-37 0 -63.5 15.5t-48.5 35.5l-60 68q-66 -55 -184.5 -99.5t-241.5 -44.5q-297 0 -435 129t-138 269zM487 406q0 -109 73 -186t214 -77q57 0 122 25t108 65l-420 433q-55 -70 -76 -134.5t-21 -125.5z" />
<glyph unicode="'" horiz-adv-x="493" d="M133 1384q0 51 24.5 86t88.5 35q63 0 88.5 -34.5t25.5 -84.5v-26q-4 -14 -4 -21l-65 -417q-4 -39 -13.5 -51.5t-31.5 -12.5q-33 0 -38 24.5t-7 39.5l-64 417q-4 25 -4 45z" />
<glyph unicode="(" horiz-adv-x="833" d="M158 567q0 301 147.5 540t454.5 398l43 -73q-195 -117 -253 -325t-58 -544q0 -250 12 -385t78.5 -272t220.5 -242l-49 -86q-285 156 -440.5 399.5t-155.5 589.5z" />
<glyph unicode=")" horiz-adv-x="833" d="M31 -336q150 102 216 239.5t80.5 282t14.5 377.5q0 225 -19.5 377t-87 281t-204.5 211l43 73q309 -162 455.5 -398.5t146.5 -539.5q0 -348 -153.5 -589.5t-442.5 -399.5z" />
<glyph unicode="*" horiz-adv-x="909" d="M66 1065l86 250l237 -148l-65 267h262l-66 -267l238 148l86 -250l-283 -23l213 -174l-213 -163l-106 260l-107 -260l-213 163l213 174z" />
<glyph unicode="+" d="M129 420v196h418v420h196v-420h418v-196h-418v-420h-196v420h-418z" />
<glyph unicode="," horiz-adv-x="645" d="M25 -293q0 12 2 19q88 90 120.5 169.5t32.5 159.5q0 39 -7 81t-13 79q-8 63 40 102t119 39q66 0 104 -49t38 -145q0 -43 -124 -216t-208 -274q-23 -16 -51 -16q-53 0 -53 51z" />
<glyph unicode="-" horiz-adv-x="681" d="M86 393v189h510v-189h-510z" />
<glyph unicode="." horiz-adv-x="645" d="M131 166q0 78 56.5 134t134.5 56q76 0 133 -57t57 -133q0 -78 -56.5 -134.5t-133.5 -56.5q-74 0 -132.5 56.5t-58.5 134.5z" />
<glyph unicode="/" horiz-adv-x="1175" d="M74 -221l835 1726h193l-838 -1726h-190z" />
<glyph unicode="0" d="M41 762q0 266 154.5 481t447.5 215t448.5 -214t155.5 -482q0 -358 -168 -572.5t-436 -214.5q-266 0 -434 214.5t-168 572.5zM442 737q0 -326 53.5 -478.5t147.5 -152.5q45 0 124 69.5t79 561.5q0 303 -53.5 446.5t-149.5 143.5q-94 0 -147.5 -144.5t-53.5 -445.5z" />
<glyph unicode="1" d="M180 1257q0 20 19 27l682 174v-1188q0 -43 14 -67.5t34.5 -41t186.5 -44.5q18 -18 37 -35l-31 -53q-10 -18 -26.5 -23.5t-44.5 -5.5h-23h-715h-41q-29 0 -44 5t-15 20q0 2 4 14l23 57q8 16 84.5 27.5t103.5 30t45.5 43t18.5 73.5v856q0 41 -20.5 58.5t-59.5 17.5 q-29 0 -56.5 -6t-81.5 -25l-45 -16q-25 -6 -32 19l-13 65q-4 12 -4 18z" />
<glyph unicode="2" d="M57 0v201q172 145 344 291q164 176 247 287.5t83 240.5q0 104 -56.5 160.5t-115.5 56.5q-84 0 -137 -39t-90 -102l-60 -105q-8 -25 -24 -14l-78 24q-14 18 -14 27v209q0 31 40 63.5t73.5 60.5t137 62.5t197.5 34.5q199 0 368 -96t169 -266q0 -145 -117 -298t-362 -325 l-316 -211l490 -4q68 0 136 80t138 160l68 -35q20 -10 12 -33l-135 -381q-16 -49 -99 -49h-899z" />
<glyph unicode="3" d="M68 258q-8 23 18 47l70 66q10 10 24 10q12 0 19 -10l110 -148q51 -66 85 -93.5t102 -27.5q123 0 199.5 71t76.5 202q0 184 -134 251.5t-284 67.5v119q147 0 251 85t104 228q0 113 -50.5 153t-111.5 40q-102 0 -169 -63.5t-95 -131.5l-25 -57q-6 -16 -18 -16q-2 0 -15 4 l-55 30q-12 8 -12 23v180q0 25 73.5 71t176 72.5t254.5 26.5q217 0 349 -92t132 -252q0 -100 -125 -202.5t-254 -114.5v-9q201 0 321.5 -108.5t120.5 -265.5q0 -195 -177 -317t-486 -122q-152 0 -255.5 29t-148.5 62z" />
<glyph unicode="4" d="M-10 528q100 150 193 280t222.5 302t239.5 324h399v-805h216q23 0 22 -19q0 -10 -10 -35l-78 -157h-150v-148q0 -45 10.5 -69.5t36 -45t105.5 -27.5t80 -26q0 -6 -6 -16l-31 -53q-12 -25 -20.5 -29t-38.5 -4h-715h-41q-29 0 -44 5t-15 20q0 2 4 14l22 57q8 16 85 27.5 t108.5 34t51 43t19.5 69.5v148h-534q-35 0 -50.5 3t-21.5 13zM242 629h413v567q-139 -158 -218 -270.5t-195 -296.5z" />
<glyph unicode="5" d="M84 258q0 12 8 23l72 88q8 8 22.5 4t22.5 -17l110 -137q37 -45 94.5 -76.5t131.5 -31.5q94 0 167.5 55t73.5 162q0 152 -150.5 257t-424.5 105l223 744h610q35 0 54.5 -7.5t11.5 -25.5l-115 -236h-442l-59 -198q18 2 39.5 2h31.5q248 0 408 -139.5t160 -366.5 q0 -229 -189.5 -358.5t-427.5 -129.5q-102 0 -204.5 30t-155.5 69l-66 159q-6 12 -6 25z" />
<glyph unicode="6" d="M78 592q0 332 264 597t743 265q43 0 43 -29q0 -8 -6 -20l-39 -86q-297 0 -429 -147.5t-177 -352.5q82 35 158 49.5t135 14.5q217 0 329.5 -122t112.5 -302q0 -233 -163.5 -358.5t-393.5 -125.5q-250 0 -413.5 160t-163.5 457zM457 485q0 -368 211 -368q90 0 138 83 t48 197q0 147 -52 239.5t-153 92.5q-84 0 -138 -64.5t-54 -179.5z" />
<glyph unicode="7" d="M186 0q152 229 363 591.5t295 530.5h-365q-82 0 -134 -75.5t-66 -63.5l-29 23q-10 14 -10 28l-2 355q0 29 11 37t46 8h866v-138q-41 -90 -171 -361t-266 -556t-179 -379h-359z" />
<glyph unicode="8" d="M43 377q0 141 108.5 235.5t235.5 130.5q-133 68 -214 159t-81 188q0 184 158 276t391 92q221 0 368.5 -81t147.5 -232q0 -109 -66.5 -184.5t-226.5 -145.5q174 -82 278.5 -176t104.5 -250q0 -168 -171 -291t-431 -123q-287 0 -444.5 107t-157.5 295zM387 348 q0 -115 85 -173t181 -58q78 0 151 54.5t73 152.5q0 76 -43 119.5t-281 203.5q-84 -61 -125 -125.5t-41 -173.5zM440 1161q0 -76 71 -140.5t196 -123.5q61 47 101 110.5t40 151.5q0 74 -54.5 129t-156.5 55q-92 0 -144.5 -54t-52.5 -128z" />
<glyph unicode="9" d="M82 995q0 197 150.5 330t420.5 133q311 0 435 -174t124 -356q0 -205 -102 -424t-320.5 -371.5t-545.5 -152.5q-49 0 -65.5 6t-16.5 22q0 8 6 21l43 94q199 0 374 155.5t214 325.5q-76 -33 -127 -48t-131 -15q-215 0 -337 115.5t-122 338.5zM446 1006q0 -147 50.5 -227.5 t154.5 -80.5q86 0 138.5 69t52.5 210q0 158 -51.5 246t-137.5 88q-100 0 -153.5 -93.5t-53.5 -211.5z" />
<glyph unicode=":" horiz-adv-x="645" d="M131 166q0 78 56.5 134t134.5 56q76 0 133 -57t57 -133q0 -78 -56.5 -134.5t-133.5 -56.5q-74 0 -132.5 56.5t-58.5 134.5zM131 870q0 78 56.5 134.5t134.5 56.5q76 0 133 -57.5t57 -133.5q0 -78 -56.5 -134t-133.5 -56q-74 0 -132.5 56.5t-58.5 133.5z" />
<glyph unicode=";" horiz-adv-x="645" d="M35 -293q0 12 2 19q88 90 120.5 169.5t32.5 159.5q0 39 -7 81t-13 79q-8 63 40 102t120 39q66 0 103.5 -49t37.5 -145q0 -43 -124 -216t-208 -274q-23 -16 -51 -16q-53 0 -53 51zM129 868q0 78 56 134.5t134 56.5q76 0 133.5 -57.5t57.5 -133.5q0 -78 -56.5 -134 t-134.5 -56q-74 0 -132 56.5t-58 133.5z" />
<glyph unicode="&#x3c;" d="M123 463v110l1042 480v-191l-749 -344l749 -344v-190z" />
<glyph unicode="=" d="M129 221v197h1032v-197h-1032zM129 618v197h1032v-197h-1032z" />
<glyph unicode="&#x3e;" d="M123 -16v190l747 344l-747 344v191l1042 -480v-110z" />
<glyph unicode="?" horiz-adv-x="1062" d="M113 1335l67 119q33 23 121 37t191 14q201 0 329.5 -88t128.5 -250q0 -127 -97 -234.5t-157 -170.5q-72 -84 -105.5 -146.5t-43.5 -115.5h-176q-4 37 -4 57q0 55 14 117.5t58 167t70 206t26 169.5q0 51 -27 132t-74 81q-31 0 -65.5 -41t-61.5 -74l-67 -60q-16 -8 -33 -8 q-18 0 -45 19l-27 16q-14 8 -20 22.5t-2 30.5zM279 166q0 78 56 134t134 56q76 0 133 -57t57 -133q0 -78 -56 -134.5t-134 -56.5q-74 0 -132 56.5t-58 134.5z" />
<glyph unicode="@" horiz-adv-x="1705" d="M70 655q0 346 238.5 574.5t588.5 228.5q305 0 521 -169t216 -451q0 -213 -104.5 -384t-312.5 -171q-109 0 -168.5 79.5t-38.5 106.5l4 -4q-43 -39 -86 -76q-90 -68 -168 -67q-92 0 -171 54t-79 230q0 225 107.5 356.5t271.5 131.5q76 0 117 -31t69 -82l23 86h200 l-124 -481q-8 -35 -13.5 -56.5t-5.5 -48.5q0 -41 18.5 -64.5t63.5 -23.5q94 0 163.5 108.5t69.5 334.5q0 223 -160.5 363t-420.5 140q-223 0 -411.5 -164.5t-188.5 -461.5q0 -295 168 -461t391 -166q133 0 253 29.5t210 77.5l61 -99q-102 -53 -246.5 -86t-277.5 -33 q-303 0 -475 110t-237.5 266.5t-65.5 303.5zM762 590q0 -84 21.5 -111.5t64.5 -27.5q51 0 106.5 108.5t55.5 298.5q0 115 -72 115q-61 0 -118.5 -102.5t-57.5 -280.5z" />
<glyph unicode="A" horiz-adv-x="1562" d="M6 25q0 8 6 20l11 31q4 12 11 18t56 19.5t72.5 38t56.5 110.5l313 840q14 41 15 72q0 37 -19 65q-25 29 -38 43t-64 30.5t-51 37.5q0 8 6 20l10 37q8 27 49 27h445q18 0 32.5 -18.5t18.5 -41.5q100 -291 214 -574.5t185.5 -448.5t97 -194.5t64.5 -38.5q39 -8 48 -18 q5 -6 5 -15q0 -6 -2 -13l-18 -43q-8 -20 -16.5 -24.5t-36.5 -4.5h-603q-33 0 -32 25q0 8 2 14l18 47q6 18 51 47t45 72q0 25 -8 51l-67 160h-428l-78 -195q-6 -23 -6 -37q0 -44 51 -70q43 -21 43 -41q0 -4 -2 -7l-12 -25q-6 -12 -11 -25q-10 -16 -30 -16h-334h-31 q-39 0 -39 25zM500 559h334l-166 436z" />
<glyph unicode="B" horiz-adv-x="1546" d="M57 1362l17 45q10 27 35 27h831q180 0 298 -70t118 -225q0 -121 -77 -209t-218 -144q201 -2 300 -124.5t99 -251.5q0 -221 -178 -328t-467 -107q-221 0 -335.5 10.5t-184.5 35t-70 112.5v1036q0 70 -30.5 105t-98.5 47q-41 10 -41 32q0 4 2 9zM657 281q0 -172 140 -172 q192 0 192 283q1 134 -69 219t-197 85h-66v-415zM657 829h70q96 0 159.5 72t63.5 180q0 121 -53 170t-178 49h-62v-471z" />
<glyph unicode="C" horiz-adv-x="1441" d="M74 729q0 305 230.5 517t580.5 212q152 0 287 -36t170.5 -62.5t35.5 -46.5v-154q0 -20 -16 -29l-82 -49q-70 80 -172 154t-227 74q-182 0 -271.5 -149.5t-89.5 -414.5q0 -299 116 -442t331 -143q78 0 178 42t134 90t48 48q18 0 35.5 -13.5t11.5 -23.5l-74 -192 q-8 -18 -17 -37t-35.5 -39.5t-121 -40t-225.5 -19.5q-379 0 -603 208t-224 546z" />
<glyph unicode="D" horiz-adv-x="1726" d="M57 1362l17 45q10 27 35 27h759q416 0 592 -176.5t176 -507.5q0 -326 -220 -550.5t-554 -224.5q-258 0 -376.5 10.5t-189.5 35t-71 112.5v1036q0 70 -30.5 105t-98.5 47q-41 10 -41 32q0 4 2 9zM657 303q0 -104 63.5 -149t143.5 -45q170 0 255 178t85 452q0 299 -97 430 t-290 131h-160v-997z" />
<glyph unicode="E" horiz-adv-x="1347" d="M57 1362l17 45q10 27 35 27h1034q29 0 46 -14.5t13 -37.5v-184q-6 -14 -10 -18l-37 -31q-1 -1 -3 -1q-14 0 -58 68q-50 74 -138 74h-299v-436h473q20 0 28.5 -8t-1.5 -21l-51 -86q-26 -28 -63 -28h-3h-383v-357q0 -129 31 -170t119 -41h166q96 0 162 54q47 55 96 110 l51 -16q12 -4 12 -19v-221q0 -23 -26.5 -37t-67.5 -14h-633q-193 0 -267.5 10t-74.5 131v1028q0 70 -30.5 105t-98.5 47q-41 10 -41 32q0 4 2 9z" />
<glyph unicode="F" horiz-adv-x="1251" d="M74 1362l16 45q10 27 35 27h1034q29 0 47 -14q14 -12 14 -30q0 -4 -1 -8v-184q-6 -14 -11 -18l-37 -31q-1 -1 -3 -1q-14 0 -58 68q-49 74 -137 74h-299v-542h473q20 0 28.5 -8.5t-1.5 -20.5l-52 -86q-23 -29 -65 -29h-383v-358q0 -74 24.5 -96.5t106.5 -43.5 q18 -2 23.5 -14t-1.5 -29l-16 -47q-10 -16 -35 -16h-663q-29 0 -29 23q0 10 2 16l12 39q6 16 13.5 22t40 13.5t61.5 38t29 94.5v923q0 70 -31 105t-98 47q-41 10 -41 32q0 4 2 9z" />
<glyph unicode="G" horiz-adv-x="1587" d="M74 729q0 305 230.5 517t580.5 212q152 0 287 -36t170.5 -62.5t35.5 -46.5v-154q0 -20 -16 -29l-82 -49q-70 82 -172 158t-227 76q-158 0 -259.5 -133t-101.5 -451q0 -264 104.5 -438t264.5 -174q86 0 158.5 76.5t72.5 169.5q0 70 -49 116.5t-129 59.5q-23 0 -22 14l4 16 l16 45q12 29 29 29h467q31 0 38 -11t11 -42v-479q0 -51 -6 -82t-49 -31h-273q-20 0 -28.5 10t-8.5 35v31q-51 -45 -132 -73t-169 -28q-322 0 -533.5 210t-211.5 544z" />
<glyph unicode="H" horiz-adv-x="1785" d="M72 39l12 39q6 16 13 22t40 13.5t61.5 38t28.5 94.5v942q0 74 -24.5 96.5t-106.5 42.5q-18 2 -23 14.5t1 28.5l16 47q10 16 35 17h663q29 0 29 -23q0 -10 -2 -16l-12 -39q-6 -16 -13.5 -22.5t-40 -13.5t-61.5 -38t-29 -94v-340h463v340q0 74 -24.5 96.5t-106.5 42.5 q-18 2 -23 14.5t1 28.5l16 47q10 16 35 17h663q29 0 29 -23q0 -10 -2 -16l-12 -39q-6 -16 -13.5 -22.5t-40 -13.5t-61.5 -38t-29 -94v-942q0 -74 25 -96.5t107 -43.5q18 -2 23 -14t-1 -29l-16 -47q-10 -16 -35 -16h-664q-29 0 -28 23q0 10 2 16l12 39q6 18 13 23t40 12.5 t61.5 38t28.5 94.5v459h-463v-459q0 -74 25 -96.5t107 -43.5q18 -2 23 -14t-1 -29l-16 -47q-10 -16 -35 -16h-664q-28 0 -28 21q0 12 2 18z" />
<glyph unicode="I" horiz-adv-x="890" d="M72 39l12 39q6 16 13 22t40 13.5t61.5 38t28.5 94.5v942q0 74 -24.5 96.5t-106.5 42.5q-18 2 -23 14.5t1 28.5l16 47q10 16 35 17h663q29 0 29 -23q0 -10 -2 -16l-12 -39q-6 -16 -13.5 -22.5t-40 -13.5t-61.5 -38t-29 -94v-942q0 -74 25 -96.5t107 -43.5q18 -2 23 -14 t-1 -29l-16 -47q-10 -16 -35 -16h-664q-28 0 -28 21q0 12 2 18z" />
<glyph unicode="J" horiz-adv-x="890" d="M75 1342q-2 5 -2 12t3 16l16 47q10 16 35 17h664q28 0 28 -21q0 -12 -2 -18l-12 -39q-6 -16 -13.5 -22.5t-40 -13.5t-61 -38t-28.5 -94v-1043q0 -289 -193 -412.5t-379 -123.5v131q76 55 107.5 121.5t31.5 210.5v1116q0 74 -24.5 96.5t-106.5 42.5q-18 2 -23 15z" />
<glyph unicode="K" horiz-adv-x="1613" d="M72 39l12 39q6 16 13 22t40 13.5t61.5 38t28.5 94.5v942q0 74 -24.5 96.5t-106.5 42.5q-18 2 -23 14.5t1 28.5l16 47q10 16 35 17h663q29 0 29 -23q0 -10 -2 -16l-12 -39q-6 -16 -13.5 -22.5t-40 -13.5t-61.5 -38t-29 -94v-416l547 662h281v-66q0 -20 -93.5 -85.5 t-148.5 -131.5l-274 -328q131 -190 287.5 -392t228.5 -277q31 -29 53.5 -51.5t22.5 -32.5v-70h-363q-70 0 -133 68q-53 63 -88 104l-315 504l-5 -430q0 -74 25 -96.5t107 -43.5q18 -2 23 -14t-1 -29l-16 -47q-10 -16 -35 -16h-664q-28 0 -28 21q0 12 2 18z" />
<glyph unicode="L" horiz-adv-x="1349" d="M72 39l12 39q6 16 13 22t40 13.5t61.5 38t28.5 94.5v942q0 74 -24.5 96.5t-106.5 42.5q-18 2 -23 14.5t1 28.5l16 47q10 16 35 17h663q29 0 29 -23q0 -10 -2 -16l-12 -39q-6 -16 -13.5 -22.5t-40 -13.5t-61.5 -38t-29 -94v-834q0 -129 31 -170t119 -41h166q96 0 162 54 q47 55 96 110l51 -16q12 -4 12 -19v-221q0 -23 -26.5 -37t-67.5 -14h-1104q-28 0 -28 21q0 12 2 18z" />
<glyph unicode="M" horiz-adv-x="2162" d="M78 1370l16 47q12 16 35 17h410q51 0 70.5 -13.5t45.5 -70.5l406 -822l448 840q18 39 39 52.5t47 13.5h469q31 0 31 -23q0 -10 -2 -18l-12 -43q-6 -23 -51 -39q-53 -12 -79 -42t-26 -100v-923q0 -74 24.5 -96.5t106.5 -43.5q18 -2 23.5 -14t-0.5 -29l-17 -47 q-10 -16 -34 -16h-664q-29 0 -29 23q0 10 2 16l13 39q6 16 13 22t40 13.5t61.5 38t28.5 94.5v749q-68 -156 -155 -335t-161.5 -322t-117.5 -227t-53.5 -97.5t-20.5 -13.5h-86q-8 0 -20.5 18.5t-75 150.5t-115.5 247.5t-121.5 278.5t-140.5 354l-4 -5l2 -798 q0 -74 24.5 -96.5t106.5 -43.5q18 -2 23.5 -14t-0.5 -29l-17 -47q-10 -16 -35 -16h-403q-29 0 -29 23q0 10 2 16l13 39q6 16 13 22t40 13.5t61.5 38t28.5 94.5v903q-27 72 -64.5 118t-69.5 54q-32 9 -39 21q-4 7 -4 14t3 14z" />
<glyph unicode="N" horiz-adv-x="1669" d="M23 1370l16 47q12 16 35 17h514q33 0 52 -16.5t62 -67.5l625 -828l4 666q0 74 -24.5 96.5t-106.5 42.5q-18 2 -23.5 14.5t1.5 28.5l16 47q10 16 35 17h403q29 0 29 -23q0 -10 -2 -16l-12 -39q-6 -16 -13.5 -22.5t-40 -13.5t-61.5 -38t-29 -94v-1120q0 -68 -55 -68h-238 q-8 0 -22 16.5t-64 75.5l-702 948l-4 -794q0 -74 24.5 -96.5t106.5 -43.5q18 -2 23.5 -14t-1.5 -29l-16 -47q-10 -16 -35 -16h-403q-29 0 -29 23q0 10 2 16l12 39q6 16 13.5 22t40 13.5t61.5 38t29 94.5v938q-29 33 -84.5 72.5t-93.5 55.5q-36 14 -44 28q-4 7 -4 15 q0 7 3 15z" />
<glyph unicode="O" horiz-adv-x="1667" d="M78 709q0 330 232.5 539.5t559.5 209.5q311 0 515 -205.5t204 -507.5q0 -322 -220 -546t-572 -224q-276 0 -497.5 199t-221.5 535zM524 756q0 -311 81 -474t229 -163h24q131 12 208 197.5t77 414.5q0 276 -84 430t-238 154q-135 0 -216 -170t-81 -389z" />
<glyph unicode="P" horiz-adv-x="1501" d="M72 1362l16 45q10 27 35 27h786q229 0 388 -95.5t159 -285.5q0 -225 -201.5 -331t-488.5 -106l-18 58q-6 12 -7 20q0 14 29 15q70 0 137.5 86t67.5 223q0 119 -56.5 200.5t-154.5 81.5h-92v-1054q0 -74 24.5 -96.5t106.5 -43.5q18 -2 23 -14t-1 -29l-16 -47 q-10 -16 -35 -16h-663q-29 0 -29 23q0 10 2 16l12 39q6 16 13.5 22t40 13.5t61.5 38t29 94.5v923q0 70 -31 105t-98 47q-41 10 -41 32q0 4 2 9z" />
<glyph unicode="Q" horiz-adv-x="1669" d="M78 709q0 330 232.5 539.5t559.5 209.5q311 0 515 -205.5t204 -507.5q0 -264 -136 -445t-294 -241q135 -66 338 -132t334 -81v-102l-234 -59q-23 -6 -41 -11.5t-30 -5.5q-27 0 -58 15l-622 292q-322 0 -545 196t-223 538zM524 756q0 -311 81 -474t229 -163h24 q131 12 208 197.5t77 414.5q0 276 -84 430t-238 154q-135 0 -216 -170t-81 -389z" />
<glyph unicode="R" horiz-adv-x="1613" d="M72 1362l16 45q10 27 35 27h924q143 0 271 -91.5t128 -248.5q0 -147 -71.5 -263t-235.5 -169q131 -227 250.5 -384t189.5 -196v-82h-446q-20 0 -30.5 12.5t-27.5 36.5l-336 547h-67v-350q0 -74 24.5 -96.5t106.5 -43.5q18 -2 23 -14t-1 -29l-16 -47q-10 -16 -35 -16h-663 q-29 0 -29 23q0 10 2 16l12 39q6 16 13.5 22t40 13.5t61.5 38t29 94.5v923q0 70 -31 105t-98 47q-41 10 -41 32q0 4 2 9zM672 729h106q96 0 158.5 84t62.5 246q0 129 -51 185t-139 56h-137v-571z" />
<glyph unicode="S" horiz-adv-x="1214" d="M72 1092q0 158 149.5 262t442.5 104q109 0 167 -9t111 -30.5t73.5 -38t18.5 -41.5v-151q0 -6 -12 -23l-80 -51q-18 16 -37 35q-8 12 -41 77.5t-77 91t-99 25.5q-51 0 -102 -35.5t-58.5 -77.5t-7.5 -67q0 -84 56.5 -139t222.5 -165.5t253 -212t87 -234.5q0 -217 -166 -327 t-445 -110q-92 0 -187 10.5t-159.5 30t-80 32.5t-15.5 52v199q-2 23 -2 33q0 25 14 28l80 31h1q8 1 35 -59q28 -62 54.5 -107t72.5 -76.5t99 -31.5q106 0 184 58t78 161q0 129 -138 228.5t-252.5 180t-177 147t-62.5 200.5z" />
<glyph unicode="T" horiz-adv-x="1484" d="M6 1288q0 12 10 25l52 96q16 25 65 25h1303q39 0 39 -19q0 -12 -11 -24l-51 -97q-15 -24 -61 -24h-4h-392v-1024q0 -74 25 -96.5t106 -43.5q18 -2 23.5 -14t-0.5 -29l-16 -47q-10 -16 -35 -16h-664q-29 0 -28 23q0 10 2 16l12 39q6 18 13 23t40 12.5t61.5 38t28.5 94.5 v1024h-479q-39 0 -39 18z" />
<glyph unicode="U" horiz-adv-x="1605" d="M64 1342q-2 6 -2 11q0 8 4 17l16 47q10 16 35 17h663q29 0 29 -23q0 -10 -2 -16l-12 -39q-6 -16 -13.5 -22.5t-40 -13.5t-61.5 -38t-29 -94v-635q0 -246 73 -326t216 -80q104 0 182 102.5t78 313.5v625q0 74 -24.5 96.5t-106.5 42.5q-18 2 -23.5 14.5t1.5 28.5l16 47 q10 16 35 17h426q28 0 28 -21q0 -11 -2 -18l-12 -39q-6 -16 -13 -22.5t-40 -13.5t-61.5 -38t-28.5 -94v-635q0 -338 -171 -458t-364 -120q-358 0 -499.5 155t-141.5 417v641q0 74 -24.5 96.5t-106.5 42.5q-18 3 -24 15z" />
<glyph unicode="V" horiz-adv-x="1593" d="M12 1362l19 45q10 27 53 27h627q33 0 32 -25q0 -8 -2 -14l-18 -45q-6 -16 -51 -45t-45 -72q0 -27 8 -53l274 -779l340 783q16 35 17 65q0 45 -58 71q-50 22 -50 40q0 3 1 6l17 35q8 18 14 25.5t18 7.5h312h26q36 0 36 -25q0 -5 -1 -10l-10 -37q-6 -20 -32 -34.5 t-54.5 -33t-52.5 -69.5q-27 -68 -41 -101l-435 -1042q-12 -33 -26.5 -57.5t-30.5 -24.5h-270q-18 0 -25.5 14.5t-28.5 67.5l-389 1087q-29 78 -55.5 107t-77.5 41q-43 10 -43 35q0 5 2 10z" />
<glyph unicode="W" horiz-adv-x="2269" d="M12 1370l17 45q4 18 32 19h613q25 0 39 -6.5t8 -22.5l-16 -51q-6 -16 -65.5 -51t-59.5 -86q0 -14 6 -37l196 -721l308 893q6 23 17 52.5t26 29.5h256q10 0 20 -32t16 -50l275 -881l198 715q6 25 7 43q0 37 -17.5 55.5t-47.5 34.5t-50.5 28.5t-11.5 28.5l16 33 q12 25 35 25h383q25 0 37 -6q9 -4 9 -14q0 -3 -1 -7l-16 -55q-2 -10 -16.5 -17.5t-53.5 -19.5t-62.5 -40t-37.5 -104l-281 -1089q-10 -37 -25.5 -59.5t-42.5 -22.5h-301q-18 0 -40.5 26.5t-30.5 55.5l-232 811l-274 -811q-10 -35 -22.5 -58.5t-45.5 -23.5h-276 q-18 0 -41 26.5t-31 55.5l-266 1087q-18 76 -40 100.5t-54 42.5t-48 28q-10 7 -11 17q0 6 3 13z" />
<glyph unicode="X" horiz-adv-x="1669" d="M23 31l14 55q4 16 22.5 20t67.5 18.5t104 106.5l381 494l-321 440q-49 66 -94 103t-64 41l4 4q-25 0 -36 15t-3 36l21 51q8 18 37 19h661q41 0 27 -33l-15 -37q-6 -18 -46 -37.5t-51 -26t-20.5 -16.5t-9.5 -24q0 -23 29 -64l172 -238l199 250q14 27 14 45q0 20 -13 33.5 t-47 31t-49.5 29t-7.5 25.5l19 39q8 23 26 23h426q33 0 27 -25l-14 -51q-4 -12 -40 -26.5t-50.5 -20.5t-56.5 -58.5t-56 -70.5l-274 -359l372 -555q39 -57 88.5 -95t94.5 -43t59 -13q9 -5 9 -16q0 -6 -3 -15l-27 -63q-6 -16 -21 -19.5t-32 -3.5h-682q-29 0 -28 23q0 12 2 20 l10 37q4 8 26.5 20.5t44 24.5t32 23.5t10.5 29.5q0 10 -11 31l-233 379l-297 -391q-16 -27 -17 -47q0 -16 10.5 -26.5t30 -19t39.5 -14.5q16 -10 9 -29l-15 -30q-14 -31 -33 -31h-383q-39 0 -39 22q0 4 1 9z" />
<glyph unicode="Y" horiz-adv-x="1517" d="M20 1366l19 47q6 20 37 21h604q31 0 22 -29l-16 -51q-2 -10 -27.5 -26.5t-37 -29t-18.5 -28t-7 -37.5q0 -27 8 -53l242 -480l284 498q23 37 23 64q0 20 -10 32.5t-35 26.5t-45.5 27.5t-11.5 31.5l18 37q8 16 27 17h374q25 0 25 -20q0 -5 -2 -11l-10 -41q-4 -14 -32 -26.5 t-54.5 -25t-55 -47t-55.5 -87.5l-289 -521q-16 -29 -35.5 -92t-19.5 -104v-213q0 -74 24.5 -96.5t106.5 -43.5q18 -2 23.5 -14t-0.5 -29l-17 -47q-10 -16 -35 -16h-663q-29 0 -29 23q0 10 2 16l13 39q6 18 13 23t40 12.5t61.5 38t28.5 94.5v278l-320 647q-35 70 -62.5 98.5 t-57 43t-44.5 23.5q-9 7 -9 17q0 6 3 13z" />
<glyph unicode="Z" horiz-adv-x="1402" d="M49 117l813 1163h-489q-80 0 -140 -129q-31 -51 -59 -100l-37 51q-10 20 -10 31v202q0 98 72 99h1112v-115l-799 -1165h553q109 0 153 86t72 141l51 -25q12 -4 13 -26v-256q0 -74 -94 -74h-1143z" />
<glyph unicode="[" horiz-adv-x="833" d="M199 -395v1900h604v-88h-98q-131 0 -174.5 -22.5t-43.5 -91.5v-1479q0 -80 46.5 -105.5t185.5 -25.5h84v-88h-604z" />
<glyph unicode="\" horiz-adv-x="1214" d="M129 1505h193l761 -1505h-192z" />
<glyph unicode="]" horiz-adv-x="833" d="M31 -307h84q139 0 185 25.5t46 105.5v1479q0 70 -43 92t-174 22h-98v88h604v-1900h-604v88z" />
<glyph unicode="^" d="M145 686l375 748h246l379 -748h-195l-307 606l-305 -606h-193z" />
<glyph unicode="_" horiz-adv-x="1024" d="M0 -205h1024v-102h-1024v102z" />
<glyph unicode="`" horiz-adv-x="872" d="M59 1509q0 49 36 81t81 32q49 0 103 -41q59 -55 90 -82l254 -221q0 -74 -86 -94l-304 155q-111 57 -142.5 92t-31.5 78z" />
<glyph unicode="a" horiz-adv-x="1398" d="M57 451q0 252 185.5 425t498.5 173q137 0 217 -12.5t160 -43.5q82 -37 106.5 -60.5t24.5 -111.5v-579q0 -76 6.5 -99.5t58.5 -35t52 -27.5q-2 -12 -2 -17l-16 -47q-2 -8 -10.5 -12t-20.5 -4h-420q-57 0 -57 63v144q-55 -94 -164 -163t-221 -69q-178 0 -288 141.5 t-110 334.5zM485 535q0 -129 40 -217.5t106 -88.5q61 0 110.5 64.5t74 183.5t24.5 160q0 127 -33 199.5t-113 72.5q-94 0 -151.5 -113.5t-57.5 -260.5z" />
<glyph unicode="b" horiz-adv-x="1388" d="M4 1442l19 47q4 10 14 13t26 3h433q49 0 49 -63v-576q70 88 170 135.5t219 47.5q178 0 287.5 -141.5t109.5 -334.5q0 -252 -187.5 -425t-514.5 -173q-125 0 -214 13.5t-165 42.5q-76 39 -95.5 60.5t-19.5 111.5v1057q0 78 -15.5 99t-59.5 31.5t-55 19.5q-6 5 -6 13t5 19z M545 391q0 -150 30.5 -219.5t108.5 -69.5q98 0 158.5 122t60.5 272q0 133 -41 231t-131 98q-98 0 -142 -132t-44 -302z" />
<glyph unicode="c" horiz-adv-x="1175" d="M57 512q0 217 162 377t498 160q133 0 247 -30q106 -28 106 -69q0 -3 -1 -6v-192q0 -8 -12 -25l-60 -29q-1 -1 -3 -1q-12 -1 -40 47q-30 52 -71 105.5t-156 53.5q-84 0 -163 -97t-79 -282q0 -178 70 -275t184 -97q102 0 162 44t113 128q4 10 50 -14q41 -21 41 -33 q0 -2 -1 -3l-82 -184q-14 -31 -20.5 -41t-26.5 -24q-39 -20 -119 -35t-149 -15q-358 0 -504 175.5t-146 361.5z" />
<glyph unicode="d" horiz-adv-x="1398" d="M57 444q0 258 185.5 433.5t500.5 175.5h95v207q0 72 -23.5 95t-71 34.5t-58.5 20.5t-1 32l18 47q4 12 11.5 14.5t19.5 1.5h455q61 0 61 -63v-1200q0 -76 6.5 -99.5t58.5 -35t52 -27.5q-2 -12 -2 -17l-16 -47q-2 -8 -10.5 -12t-20.5 -4h-420q-57 0 -57 63v162 q-55 -102 -169 -176t-227 -74q-180 0 -283.5 140.5t-103.5 328.5zM485 535q0 -133 37 -219.5t101 -86.5q72 0 144.5 97.5t72.5 322.5q0 113 -33 186.5t-113 73.5q-94 0 -151.5 -113.5t-57.5 -260.5z" />
<glyph unicode="e" horiz-adv-x="1159" d="M57 516q0 211 143.5 372t438.5 161q233 0 348 -123t115 -340q0 -31 -13.5 -56.5t-33.5 -25.5h-570q0 -162 55.5 -259.5t178.5 -97.5q104 0 163.5 44.5t112.5 127.5q6 10 50.5 -12t39.5 -37l-84 -184q-18 -39 -23 -47t-22 -19q-39 -18 -116.5 -31.5t-153.5 -13.5 q-336 0 -482.5 163t-146.5 378zM485 635h222q53 0 53 90q0 111 -37 160t-88 49q-72 0 -111 -88t-39 -211z" />
<glyph unicode="f" horiz-adv-x="909" d="M49 881v143h156v72q0 150 131 250t271.5 129.5t199.5 29.5t91 -4t52 -24l105 -113q6 -12 6 -18q0 -8 -8 -15l-109 -98q-8 -8 -20 -8q-6 0 -13.5 3t-9.5 5l-65 41q-53 35 -90 58.5t-58 23.5q-41 0 -57.5 -40t-16.5 -116v-176h281v-102l-41 -41h-240v-635q0 -74 25 -96.5 t106 -43.5q18 -2 23.5 -14t-0.5 -29l-16 -47q-6 -10 -18.5 -13t-59.5 -3h-578q-29 0 -28 23q0 10 2 16l12 39q6 16 13 22t58.5 16.5t51.5 129.5v635h-156z" />
<glyph unicode="g" horiz-adv-x="1366" d="M57 451q0 252 185.5 425t498.5 173q137 0 217 -12.5t160 -43.5q82 -37 106.5 -60.5t24.5 -111.5v-682q0 -322 -175 -486.5t-507 -164.5q-162 0 -273.5 28.5t-154.5 51t-51 32t-8 23.5q0 12 10 29l47 84q23 43 35 61.5t31 18.5q12 0 51 -24.5t121 -51.5t162 -27 q160 0 231.5 72t71.5 248v174q-55 -94 -164 -163t-221 -69q-178 0 -288 141.5t-110 334.5zM485 535q0 -129 40 -217.5t106 -88.5q61 0 110.5 64.5t74 183.5t24.5 160q0 127 -33 199.5t-113 72.5q-94 0 -151.5 -113.5t-57.5 -260.5z" />
<glyph unicode="h" horiz-adv-x="1474" d="M47 23q0 10 2 16l12 39q6 16 13.5 22t58.5 16.5t51 129.5v1014q0 78 -15 99t-59 31.5t-55.5 19.5t-1.5 32l19 47q4 10 14 13t27 3h432q25 0 37 -6t12 -35v-624q59 76 180 142.5t234 66.5q139 0 211.5 -85t72.5 -266v-452q0 -78 15.5 -99.5t61.5 -32t51 -22.5q2 -5 2 -12 q0 -8 -3 -17l-16 -47q-6 -10 -17.5 -13t-33.5 -3h-553q-23 0 -13 39l11 39q8 25 33.5 33t39 39.5t13.5 95.5v342q0 104 -27 154.5t-86 50.5q-84 0 -130 -113t-46 -344v-90q0 -80 11 -100.5t46 -31t41 -20.5t0 -31l-14 -47q-4 -16 -25 -16h-577q-29 0 -29 23z" />
<glyph unicode="i" horiz-adv-x="776" d="M47 23q0 10 2 16l12 39q6 16 13.5 22t58.5 16.5t51 129.5v532q0 78 -15 99.5t-59 32t-55.5 19.5t-1.5 32l19 47q4 10 14 13.5t27 2.5h432q25 0 37 -6t12 -35v-737q0 -78 15.5 -99.5t61.5 -32t51 -22.5q2 -5 2 -12q0 -8 -3 -17l-16 -47q-6 -10 -17.5 -13t-34.5 -3h-577 q-29 0 -29 23zM184 1346q0 84 57.5 143t141.5 59q82 0 141.5 -59t59.5 -143q0 -78 -59.5 -139.5t-137.5 -61.5q-84 0 -143.5 57.5t-59.5 143.5z" />
<glyph unicode="j" horiz-adv-x="751" d="M47 -367q63 59 88 123t38 130.5t13 142.5v774q0 78 -15 99.5t-59 31.5t-55.5 19.5t-1.5 31.5l19 47q4 10 14 13.5t27 3.5h432q25 0 37 -6.5t12 -34.5v-967q0 -299 -186.5 -426t-362.5 -127v145zM186 1346q0 84 57.5 143t141.5 59q82 0 141.5 -59t59.5 -143 q0 -78 -59.5 -139.5t-137.5 -61.5q-84 0 -143.5 57.5t-59.5 143.5z" />
<glyph unicode="k" horiz-adv-x="1441" d="M49 23q0 10 2 16l12 39q6 16 13.5 22t58.5 16.5t51 129.5v1014q0 78 -15 99t-59 31.5t-55.5 19.5t-1.5 32l19 47q4 10 14 13t27 3h432q25 0 37 -6t12 -35v-835q115 92 209 189t176 206h346q27 0 34 -22.5t7 -59.5t-100.5 -66.5t-139.5 -68.5l-182 -168q33 -43 161 -225.5 t172 -226.5t68.5 -66.5t49.5 -32.5v-88h-453l-344 532l-4 -286q0 -80 11 -100.5t46 -31t41 -20.5t0 -31l-14 -47q-4 -16 -25 -16h-577q-29 0 -29 23z" />
<glyph unicode="l" horiz-adv-x="776" d="M47 23q0 10 2 16l12 39q6 16 13.5 22t58.5 16.5t51 129.5v1014q0 78 -15 99t-59 31.5t-55.5 19.5t-1.5 32l19 47q4 10 14 13t27 3h432q31 0 40 -7t9 -30v-1222q0 -78 15.5 -99.5t61.5 -32t51 -22.5q2 -5 2 -12q0 -8 -3 -17l-16 -47q-6 -10 -17.5 -13t-34.5 -3h-577 q-29 0 -29 23z" />
<glyph unicode="m" horiz-adv-x="2148" d="M47 23q0 10 2 16l12 39q6 16 13.5 22t58.5 16.5t51 129.5v532q0 78 -15 99.5t-59 32t-55.5 19.5t-1.5 32l19 47q4 10 14 13.5t27 2.5h432q23 0 35 -6t12 -35v-147q84 102 197.5 157.5t222.5 55.5q115 0 167 -37t101 -138q92 90 205.5 132.5t202.5 42.5q125 0 201.5 -83 t76.5 -241v-479q0 -78 15.5 -99.5t61.5 -32t51 -22.5q2 -5 2 -12q0 -8 -3 -17l-16 -47q-10 -16 -35 -16h-561q-29 0 -21 39l10 39q8 25 34 33t39 39.5t13 95.5v372q0 76 -23.5 125.5t-80.5 49.5q-84 0 -128 -105.5t-44 -335.5v-106q0 -80 11.5 -100.5t46 -31t40.5 -20.5 t0 -31l-14 -47q-4 -16 -25 -16h-553q-23 0 -12 39l10 39q8 25 34 33t39 39.5t13 95.5v372q0 76 -23.5 125.5t-80.5 49.5q-88 0 -130 -104.5t-42 -336.5v-106q0 -80 11 -100.5t46 -31t41 -20.5t0 -31l-14 -47q-4 -16 -25 -16h-577q-29 0 -29 23z" />
<glyph unicode="n" horiz-adv-x="1474" d="M47 23q0 10 2 16l12 39q6 16 13.5 22t58.5 16.5t51 129.5v532q0 78 -15 99.5t-59 32t-55.5 19.5t-1.5 32l19 47q4 10 14 13.5t27 2.5h432q25 0 37 -6t12 -35v-143q59 76 180 142.5t234 66.5q139 0 211.5 -85t72.5 -266v-452q0 -78 15.5 -99.5t61.5 -32t51 -22.5 q2 -5 2 -12q0 -8 -3 -17l-16 -47q-6 -10 -17.5 -13t-33.5 -3h-553q-23 0 -13 39l11 39q8 25 33.5 33t39 39.5t13.5 95.5v342q0 104 -27 154.5t-86 50.5q-84 0 -130 -113t-46 -344v-90q0 -80 11 -100.5t46 -31t41 -20.5t0 -31l-14 -47q-4 -16 -25 -16h-577q-29 0 -29 23z" />
<glyph unicode="o" horiz-adv-x="1327" d="M57 492q0 207 166 382t473 175q268 0 421 -161t153 -356q0 -211 -165 -384t-468 -173q-264 0 -422 158t-158 359zM485 549q0 -207 56.5 -329t128.5 -122q104 0 138 119t34 270q0 201 -49.5 320t-120.5 119q-78 0 -132.5 -92t-54.5 -285z" />
<glyph unicode="p" horiz-adv-x="1433" d="M20 -489q0 10 3 16l12 39q6 16 13 22t40 13.5t61.5 38t28.5 94.5v1044q0 78 -15.5 99.5t-59.5 32t-55 19.5t-1 32l19 47q4 10 14 13t26 3h433q25 0 37 -6t12 -35v-117q70 88 170 135.5t219 47.5q178 0 287.5 -141.5t109.5 -334.5q0 -250 -184 -424t-496 -174h-106v-241 q0 -72 32.5 -95.5t139.5 -44.5q37 -2 37 -26q0 -6 -6 -17l-23 -47q-12 -16 -45 -16h-674q-29 0 -29 23zM588 391q0 -147 31.5 -220t105.5 -73q100 0 160.5 122t60.5 276q0 133 -41 231t-131 98q-98 0 -142 -132t-44 -302z" />
<glyph unicode="q" horiz-adv-x="1394" d="M57 444q0 258 185.5 431.5t500.5 173.5q137 0 216 -13.5t159 -42.5q78 -33 104.5 -57.5t26.5 -114.5v-1087q0 -74 24.5 -96.5t106.5 -43.5q18 -2 24 -14q2 -6 2 -13t-3 -16l-17 -47q-10 -16 -34 -16h-682q-39 0 -39 23l4 16l16 39q10 25 61.5 34t89.5 39.5t38 94.5v491 q-55 -102 -169 -176t-227 -74q-180 0 -283.5 140.5t-103.5 328.5zM485 535q0 -133 37 -219.5t101 -86.5q59 0 138 114t79 306q0 113 -33 186.5t-113 73.5q-94 0 -151.5 -113.5t-57.5 -260.5z" />
<glyph unicode="r" horiz-adv-x="1062" d="M49 23q0 10 2 16l12 39q6 16 13.5 22t58.5 16.5t51 129.5v532q0 78 -15 99.5t-59 32t-55.5 19.5t-1.5 32l19 47q4 10 14 13.5t27 2.5h432q25 0 37 -6t12 -35v-109q59 78 130 126.5t146 48.5q41 0 71 -19.5t42 -52.5l66 -154q2 -6 2 -11q0 -11 -9 -19l-139 -134 q-6 -6 -20 -6q-25 0 -92.5 32t-83.5 32q-70 0 -91.5 -65.5t-21.5 -225.5v-180q0 -72 33 -95.5t139 -44.5q37 -2 37 -26q0 -6 -6 -17l-23 -47q-12 -16 -45 -16h-653q-29 0 -29 23z" />
<glyph unicode="s" horiz-adv-x="985" d="M72 82v192q0 45 12 50l82 18q12 4 32 -38t48 -99q49 -70 76.5 -91.5t70.5 -21.5q59 0 95 40t36 85q0 41 -21.5 64.5t-134 115.5t-196.5 162q-94 94 -94 199q0 139 116.5 215t333.5 76q63 0 154.5 -13.5t144 -26t52.5 -57.5v-172q-8 -14 -13 -14l-73 -35h-1q-8 1 -48 55 q-42 58 -65.5 84.5t-54 47t-75.5 20.5q-43 0 -76 -24.5t-33 -53.5q0 -51 134.5 -149.5t198 -150.5t108.5 -127t45 -134q0 -150 -137.5 -237t-348.5 -87q-125 0 -198.5 14.5t-107.5 34t-48 31t-14 27.5z" />
<glyph unicode="t" horiz-adv-x="909" d="M8 881v143h174v205l314 94q29 14 61 14q35 0 35 -18v-295h311v-102l-41 -41h-270v-576q0 -74 41 -119t106 -45q18 0 45 4.5t35 8.5q29 14 35 0l31 -88q8 -16 -6 -23l-41 -20q-33 -16 -113 -32t-156 -16q-205 0 -296 79t-91 247v580h-174z" />
<glyph unicode="u" horiz-adv-x="1402" d="M33 961l18 47q4 10 14.5 13t26.5 3h432q25 0 37 -6t12 -35v-547q0 -139 30 -179t79 -40t94 55.5t45 118.5q12 94 16.5 147.5t4.5 149.5v90q0 78 -15.5 99.5t-59.5 32t-55.5 19.5t-0.5 32l18 47q4 10 14.5 13t26.5 3h432q25 0 37 -6t12 -35v-741q0 -76 6.5 -99.5t58.5 -35 t52 -27.5q-2 -12 -2 -17l-16 -47q-2 -8 -10.5 -12t-20.5 -4h-428q-25 0 -37 6t-12 35v98l-78 -57q-61 -47 -140 -77t-149 -30q-156 0 -233.5 85t-77.5 266v452q0 78 -15.5 99.5t-59.5 32t-55 19.5q-6 5 -6 13t5 19z" />
<glyph unicode="v" horiz-adv-x="1249" d="M10 942l19 55q8 27 39 27h587q37 0 37 -23q0 -10 -2 -16l-16 -45q-4 -12 -51.5 -42t-47.5 -73q0 -25 11 -51l145 -348l195 399q6 18 6 31q0 41 -69.5 60.5t-63.5 41.5l12 25q12 27 17.5 34t15.5 7h338q31 0 47 -9q12 -7 12 -24q0 -6 -2 -14l-10 -37q-6 -23 -37 -36 t-46.5 -32.5t-31.5 -52.5t-29 -59l-337 -703q-8 -16 -17.5 -36.5t-23.5 -20.5h-185h-3q-10 0 -18 10q-9 12 -14 31l-323 719q-23 68 -49.5 94.5t-54.5 39.5q-28 14 -42 22q-9 6 -10 16q0 4 2 10z" />
<glyph unicode="w" horiz-adv-x="1943" d="M10 942l19 55q8 27 39 27h596q69 0 69 -22q0 -11 -8 -25l-20 -37q-6 -8 -84 -37t-78 -80q0 -27 14 -57l125 -356l274 577q8 20 14.5 28.5t18.5 8.5h185q16 0 30 -33l213 -581l168 391q12 29 12 45q0 53 -86 73.5t-86 30.5q0 6 9 15l45 49q4 4 12 6t18 4h400q16 0 23 -3 q4 -2 4 -7q0 -3 -1 -6l-26 -74q-4 -12 -35 -26.5t-45 -26t-37 -48t-39 -73.5l-319 -727q-14 -33 -31 -33h-184q-10 0 -17.5 9t-15.5 28l-219 581l-273 -585q-14 -33 -30 -33h-185q-10 0 -17 9t-16 28l-282 723q-23 68 -49.5 94.5t-54.5 39.5q-28 14 -42 22q-9 6 -10 16 q0 4 2 10z" />
<glyph unicode="x" horiz-adv-x="1327" d="M6 18l4 17l10 33q6 16 49.5 25t69 31.5t41 38t33.5 38.5l246 274l-221 303q-27 37 -48.5 57.5t-54.5 45.5q-41 25 -63.5 39t-10.5 38l21 43q8 16 33.5 19.5t44.5 3.5h461q59 0 59 -20q0 -6 -6 -17l-12 -31q-4 -10 -33 -21t-29 -30q0 -25 31 -69l100 -146l148 170 q27 33 26 49q0 14 -48 28.5t-36 33.5l13 20q6 12 12 25q8 8 24 8h324h27q35 0 34 -20l-4 -17l-10 -31q-6 -18 -51 -32.5t-65.5 -29.5t-69.5 -71l-236 -250l273 -364q27 -35 58.5 -56.5t66 -26.5t64.5 -11q22 -4 22 -19q0 -5 -3 -12l-22 -57q-12 -27 -29 -27h-549 q-45 0 -45 28q0 5 2 11l9 31q2 8 24.5 24.5t22.5 34.5q0 16 -21 45l-131 182l-149 -180q-23 -29 -23 -47q1 -20 57 -41q48 -17 48 -32q0 -3 -2 -5l-13 -20q-16 -31 -41 -31h-389q-43 0 -43 18z" />
<glyph unicode="y" horiz-adv-x="1249" d="M10 942l19 55q8 27 39 27h587q37 0 37 -23q0 -10 -2 -16l-16 -45q-4 -12 -51.5 -42t-47.5 -73q0 -25 11 -51l147 -356l193 407q6 18 6 31q0 41 -69.5 60.5t-63.5 41.5l12 25q12 27 17.5 34t15.5 7h338q31 0 47 -9q12 -7 12 -24q0 -6 -2 -14l-10 -37q-6 -23 -37 -36 t-46.5 -32.5t-31.5 -52.5t-29 -59l-524 -1125q-35 -76 -70.5 -111.5t-99.5 -35.5h-121q-29 0 -42 5t-23 32l-25 65q-10 29 33 39l100 43q41 14 67 39t54 78l88 178l-358 793q-23 68 -49.5 94.5t-55 39.5t-41.5 22q-10 5 -10 16q0 4 2 10z" />
<glyph unicode="z" horiz-adv-x="1138" d="M37 76l618 819h-252q-80 0 -135 -81q-51 -75 -62 -75h-1l-37 31q-8 8 -9 11t-1 7v185q-4 23 12 37t47 14h858v-96l-565 -791h303q88 0 141 47q41 51 84 103l52 -17q12 -4 12 -16v-207q0 -23 -25.5 -35t-68.5 -12h-936z" />
<glyph unicode="{" horiz-adv-x="833" d="M164 543q90 31 122.5 87t32.5 169v395q0 193 90.5 252t346.5 59q-96 -29 -133 -93t-37 -185v-396q0 -129 -32 -192.5t-134 -91.5q102 -31 134 -101.5t32 -207.5v-371q0 -123 36.5 -188.5t133.5 -84.5h-31q-244 0 -325 65t-81 265v361q0 121 -29.5 175t-125.5 83z" />
<glyph unicode="|" horiz-adv-x="872" d="M338 0v1505h197v-1505h-197z" />
<glyph unicode="}" horiz-adv-x="833" d="M78 -410q96 29 133 93.5t37 185.5v395q0 129 31.5 192.5t134.5 92.5q-102 31 -134 101.5t-32 207.5v371q0 123 -37 188.5t-133 83.5h31q244 0 324.5 -64.5t80.5 -265.5v-360q0 -121 29.5 -175t126.5 -83q-90 -31 -123 -87t-33 -169v-395q0 -193 -90 -252.5t-346 -59.5z " />
<glyph unicode="~" d="M137 438q74 119 138.5 176.5t160.5 57.5q49 0 100.5 -15.5t115 -43t115.5 -47t75 -19.5q74 0 109.5 33.5t64.5 87.5l135 -74q-76 -117 -134.5 -170t-146.5 -53q-53 0 -96 14t-113.5 49t-109.5 48.5t-94 13.5q-90 0 -152 -78q-31 -45 -37 -53z" />
<glyph unicode="&#xa1;" horiz-adv-x="757" d="M162 -367q0 17 2 25q29 150 67.5 413t73.5 492h144q4 -25 56 -382t69.5 -445t17.5 -105q0 -59 -60.5 -85.5t-154.5 -26.5t-154.5 26.5t-60.5 87.5zM186 858q0 78 56.5 134.5t134.5 56.5q76 0 133 -57.5t57 -133.5q0 -78 -56 -134t-134 -56q-74 0 -132.5 56t-58.5 134z " />
<glyph unicode="&#xa2;" d="M125 512q0 244 168 390.5t483 146.5l17 -2l28 141l137 -21l-26 -131q29 -4 50.5 -7t88 -21.5t57.5 -63.5v-192q0 -8 -12 -25l-59 -29q-12 -6 -43 46.5t-53.5 81t-61.5 48.5l-147 -718l47 -4q102 0 161.5 44t112.5 128q4 10 50 -13.5t40 -36.5l-82 -184q-14 -31 -20 -41 t-27 -24q-39 -20 -118.5 -35t-149.5 -15q-37 0 -51 5l-41 -197l-127 24l37 187q-227 41 -343 181t-116 337zM528 524q0 -109 23.5 -184.5t77.5 -124.5l135 686q-102 -12 -169 -114.5t-67 -262.5z" />
<glyph unicode="&#xa3;" d="M-12 0v66q51 8 104 82.5t72 177.5q23 182 45 366h-211v144h217l21 94q45 258 215 393t364 135q121 0 180.5 -11t116.5 -30.5t78 -77.5l33 -116q6 -20 -17 -25l-106 -10q-23 -4 -29 10q-47 49 -92 100q-55 49 -127 50q-82 0 -130 -79t-63 -196l-26 -237h307v-144h-315 l-21 -106q-35 -152 -87 -243t-120 -142l13 -21q66 20 139.5 41t142.5 21q41 0 125 -6.5t129 -6.5q74 0 95.5 8.5t27.5 45.5l-10 110q0 33 8 37l125 47q25 8 33 -6l61 -111q8 -14 8 -30q0 -12 -2 -21.5t-12 -32.5q-23 -63 -130.5 -182t-191.5 -119q-53 0 -189 17.5t-200.5 24 t-106.5 8.5t-128 2q-80 0 -154 -3.5t-192 -23.5z" />
<glyph unicode="&#xa4;" d="M82 305l135 135q-33 41 -55.5 114t-22.5 157t20.5 162.5t53.5 125.5l-125 125l145 150l129 -131q45 31 129 54.5t162 23.5q82 0 155 -21.5t118 -56.5l129 131l149 -146l-121 -120q31 -53 51.5 -130t20.5 -163q0 -84 -22.5 -160t-59.5 -111l135 -135l-145 -153l-129 129 q-43 -33 -123 -56.5t-160 -23.5q-90 0 -165.5 22.5t-123.5 63.5l-129 -131zM354 711q0 -121 87 -206t210 -85q121 0 205 86t84 209q0 121 -83 206t-204 85q-123 0 -211 -86t-88 -209z" />
<glyph unicode="&#xa5;" d="M-41 1366l18 47q4 20 33 21h563q29 0 21 -29l-14 -51q-2 -10 -28 -28.5t-41 -35t-15 -59.5q0 -20 6 -51l233 -498l266 516q14 31 15 55q0 25 -11.5 39.5t-33 28.5t-42 27.5t-11.5 31.5l18 37q8 16 25 17h348q29 0 20 -31l-8 -41q-4 -14 -29.5 -26.5t-49 -24t-52.5 -49 t-53 -86.5l-191 -379h184v-111h-249l-15 -29q-18 -39 -26 -96h290v-110h-309l-4 -41v-164q0 -74 22.5 -96.5t100.5 -43.5q37 -6 21 -43l-17 -47q-6 -16 -31 -16h-618q-12 0 -22.5 5t-2.5 34l11 39q6 23 42.5 33t64.5 40.5t28 94.5v205h-314v110h291l-49 125h-242v111h183 l-168 374q-31 68 -57.5 98.5t-54.5 44t-41 23t-5 29.5z" />
<glyph unicode="&#xa6;" horiz-adv-x="872" d="M338 0v602h197v-602h-197zM338 903v602h197v-602h-197z" />
<glyph unicode="&#xa7;" horiz-adv-x="1327" d="M98 559q0 127 103.5 207t240.5 80q47 0 95 -12l4 4q-131 102 -213 179t-82 189q0 123 132 187.5t318 64.5q84 0 191.5 -20.5t150.5 -44.5l86 -148q14 -25 -47 -57l-59 -31q-23 -12 -39 -12q-14 0 -27 12l-123 133q-33 31 -66.5 50.5t-74.5 19.5q-115 0 -115 -90 q0 -63 80 -132t135 -114l91 -72q164 -129 256 -224t92 -202q0 -115 -98.5 -177t-245.5 -62q-74 0 -152 18l-4 -4q197 -109 275.5 -188.5t78.5 -198.5q0 -61 -44 -115.5t-113.5 -89.5t-155.5 -45t-199 -10q-98 0 -217 18.5t-162 42.5l-84 150q-14 23 23 45l98 57q25 14 43 15 q14 0 23 -11l137 -151q47 -49 74.5 -61.5t81.5 -12.5q152 0 151 115q0 82 -98 156.5t-231.5 160.5t-221.5 174t-88 207zM424 631q0 -47 28.5 -81t78 -71t89 -57.5t97.5 -20.5q63 0 111.5 32t48.5 67q0 49 -17.5 75.5t-60.5 67.5q-47 51 -107.5 76.5t-122.5 25.5 q-74 -10 -109.5 -40.5t-35.5 -73.5z" />
<glyph unicode="&#xa8;" horiz-adv-x="1024" d="M129 1278q0 53 41 94t92 41q55 0 95 -40t40 -95q0 -53 -40 -93t-95 -40q-53 0 -93 40t-40 93zM625 1278q0 53 41 94t92 41q55 0 95 -40t40 -95q0 -53 -40 -93t-95 -40q-53 0 -93 40t-40 93z" />
<glyph unicode="&#xa9;" horiz-adv-x="1593" d="M55 717q0 305 218.5 523t523.5 218t523 -218t218 -523q0 -307 -217 -524.5t-524 -217.5t-524.5 217.5t-217.5 524.5zM207 717q0 -244 173 -417t417 -173q242 0 415.5 172t173.5 418q0 242 -174 416t-415 174q-242 0 -416 -174t-174 -416zM356 735q0 174 137.5 293 t354.5 119q96 0 171 -21.5t116 -62.5l4 -14v-66l-9 -16l-81 -47q-51 61 -95.5 97t-97.5 36q-86 0 -137 -87t-51 -223q0 -170 58 -245.5t175 -75.5q41 0 93.5 32.5t74.5 84.5q8 12 30.5 1.5t39.5 -18.5l-47 -129q-8 -18 -12.5 -26.5t-20 -21.5t-81 -25.5t-151.5 -12.5 q-209 0 -340 119t-131 309z" />
<glyph unicode="&#xaa;" horiz-adv-x="948" d="M35 604v109h854v-109h-854zM35 1100q0 152 119.5 255t324.5 103q88 0 142.5 -7t106.5 -27.5t66.5 -33t14.5 -67.5v-348q0 -45 18.5 -60.5t79.5 -27.5l3 -6t-3 -13l-10 -28q-10 -10 -20 -11h-297q-37 0 -37 39v86q-37 -55 -106.5 -97t-143.5 -42q-115 0 -186.5 84 t-71.5 201zM311 1151q0 -80 25.5 -132t71.5 -52q39 0 71.5 41t48 109.5t15.5 94.5q0 76 -20.5 120t-73.5 44q-61 0 -99.5 -69.5t-38.5 -155.5z" />
<glyph unicode="&#xab;" horiz-adv-x="1062" d="M102 487l332 314q18 16 41 34.5t45 18.5q29 0 29 -39q0 -20 -62.5 -151.5t-93.5 -176.5q27 -45 84.5 -166.5t71.5 -162.5q0 -39 -35 -39q-16 0 -25.5 6t-70.5 65zM516 487l332 314q18 16 40.5 34.5t45.5 18.5q29 0 29 -39q0 -20 -62.5 -151.5t-93.5 -176.5 q27 -45 84 -166.5t72 -162.5q0 -39 -35 -39q-16 0 -25.5 6t-71.5 65z" />
<glyph unicode="&#xac;" d="M129 618v197h1032v-594h-196v397h-836z" />
<glyph unicode="&#xad;" horiz-adv-x="681" d="M86 393v189h510v-189h-510z" />
<glyph unicode="&#xae;" horiz-adv-x="1593" d="M55 717q0 305 218.5 523t523.5 218t523 -218t218 -523q0 -307 -217 -524.5t-524 -217.5t-524.5 217.5t-217.5 524.5zM207 717q0 -244 173 -417t417 -173q242 0 415.5 172t173.5 418q0 242 -174 416t-415 174q-242 0 -416 -174t-174 -416zM393 1077l10 27q6 16 19 16h545 q80 0 151.5 -51t71.5 -139q0 -86 -38 -149.5t-134 -90.5q47 -82 98 -156.5t87 -106.5t36 -38q0 -4 -6 -14l-16 -21q-23 -27 -41 -26h-193q-16 0 -33 28l-182 293h-12v-178q0 -43 11 -56.5t44 -20.5t25 -29l-9 -27q-4 -10 -18 -10h-395q-23 0 -13 22l7 25q0 8 21.5 16 t37.5 25.5t16 54.5v494q0 41 -16 61.5t-53 26.5q-25 10 -21 24zM756 723h49q45 0 75.5 48t30.5 134q0 78 -24.5 110t-65.5 32h-65v-324z" />
<glyph unicode="&#xb0;" horiz-adv-x="796" d="M104 1163q0 119 86 207t209 88q121 0 207 -86t86 -209q0 -121 -86 -207t-207 -86q-119 0 -207 86t-88 207zM254 1163q0 -57 45 -100t100 -43q57 0 100.5 43t43.5 100t-42 101.5t-102 44.5q-59 0 -102 -43.5t-43 -102.5z" />
<glyph unicode="&#xb1;" d="M129 0v197h1032v-197h-1032zM129 698v197h418v420h196v-420h418v-197h-418v-419h-196v419h-418z" />
<glyph unicode="&#xb2;" horiz-adv-x="872" d="M53 584v141q113 84 228 168q106 106 150 158.5t44 124.5q0 57 -31.5 90.5t-62.5 33.5q-51 0 -80 -17t-53 -58l-43 -68q0 -6 -15 -8l-65 10l-8 19v137q0 20 24.5 38.5t48 38t97 43t131.5 23.5q129 0 254 -58.5t125 -160.5q0 -121 -114 -221t-232 -160l-199 -90l321 -4 q53 0 115 79t76 70l51 -24q8 -14 8 -19l-100 -258q-6 -20 -17.5 -24t-39.5 -4h-613z" />
<glyph unicode="&#xb3;" horiz-adv-x="872" d="M49 754q-2 16 17 30l51 50q4 4 14 4t14 -7l72 -98q20 -29 41 -55q27 -27 70 -27q82 0 131 39t49 117q0 111 -88 154t-176 43v75q90 0 156.5 48.5t66.5 132.5q0 68 -28.5 88t-67.5 20q-63 0 -109.5 -41t-62.5 -78l-15 -28q-6 -14 -24 -9l-43 23q-8 8 -8 14v107 q0 14 49 41.5t128 44t189 16.5q115 -4 227.5 -38t112.5 -179q0 -49 -90 -109.5t-170 -60.5q141 -4 221 -72.5t80 -160.5q0 -117 -121 -193t-354 -76q-117 0 -185.5 18.5t-99.5 41.5z" />
<glyph unicode="&#xb4;" horiz-adv-x="872" d="M258 1260v18l246 221q45 39 90 80q55 43 102 43t82 -30.5t35 -82.5q0 -41 -31.5 -76.5t-142.5 -93.5l-299 -147q-82 8 -82 68z" />
<glyph unicode="&#xb5;" horiz-adv-x="1478" d="M37 961l18 47q4 12 11.5 14t19.5 2h465q27 0 38 -4t11 -31v-553q0 -139 29.5 -179t79.5 -40q49 0 94 55.5t45 118.5q12 94 16 147.5t4 149.5v90q0 47 -20.5 83t-59 47.5t-50 20.5t-1.5 32l19 47q4 8 3 12t5 4h465q27 0 38 -4t11 -31v-776q0 -37 6 -51.5t24.5 -32.5 t78 -29.5t59.5 -31.5q0 -8 -6 -21l-13 -29q-6 -12 -20 -15t-41 -3h-448q-25 0 -37.5 6t-12.5 35v98l-77 -73q-57 -43 -106.5 -67t-94.5 -24q-121 0 -168 70q-6 -10 -6 -20q0 -18 10 -39t20 -39l95 -213q23 -49 22 -74q0 -45 -47 -55.5t-135 -25.5t-129 -15t-46 22.5 t-10.5 70.5t-5.5 138v983q0 72 -23.5 95.5t-70.5 35t-58 20.5t-1 32z" />
<glyph unicode="&#xb6;" horiz-adv-x="1478" d="M51 1018q0 219 118 317.5t382 98.5h790q39 0 27 -31l-12 -33q-6 -18 -45 -26.5t-69 -34t-30 -74.5v-1385q0 -57 25 -76.5t84 -30.5t45 -40l-16 -37q-10 -14 -35 -14h-361v1675h-102v-1675h-430q-39 0 -27 31l13 32q6 18 38 27q74 12 111 42t37 66v725q-281 0 -412 118 t-131 325zM414 1024q0 -319 180 -319v622q-92 -8 -136 -86t-44 -217z" />
<glyph unicode="&#xb8;" horiz-adv-x="681" d="M143 -391q0 27 33 41q27 -6 52.5 -11.5t41.5 -5.5q41 0 62.5 21.5t21.5 64.5q0 31 -14 50.5t-25.5 22.5t-27.5 3q-12 0 -28.5 -3l-27.5 -5l-14 10l98 223h91l-66 -153l59 6q59 0 106.5 -36t47.5 -105q0 -78 -80 -125t-184 -47q-37 0 -76 7t-63 17q-6 12 -7 25z" />
<glyph unicode="&#xb9;" horiz-adv-x="872" d="M96 1327q-8 20 8 27l514 104v-694q0 -27 7.5 -42t23 -28.5t117.5 -27.5q12 -10 25 -19l-15 -33q-10 -23 -22.5 -26.5t-42.5 -3.5h-531h-28q-35 0 -35 22l4 17l10 28q4 8 55.5 16.5t63.5 17.5t26.5 32.5t14.5 46.5v485q0 45 -49 45q-16 0 -29.5 -2t-58.5 -16l-29 -8 q-16 -6 -21 10z" />
<glyph unicode="&#xba;" horiz-adv-x="872" d="M43 604v109h786v-109h-786zM43 1124q0 125 106.5 229.5t305.5 104.5q174 0 274 -96t100 -213q0 -125 -108.5 -229.5t-304.5 -104.5q-172 0 -272.5 94.5t-100.5 214.5zM319 1159q0 -123 37 -196.5t84 -73.5q68 0 90.5 72.5t22.5 160.5q0 125 -32 193.5t-81 68.5 q-63 0 -92 -70.5t-29 -154.5z" />
<glyph unicode="&#xbb;" horiz-adv-x="1062" d="M102 158q0 20 62.5 151t93.5 176q-27 45 -84 167t-72 163q0 39 35 39q20 0 47 -25.5t49 -46.5l316 -297l-332 -313q-20 -18 -41.5 -35.5t-44.5 -17.5q-29 0 -29 39zM516 158q0 20 62.5 151t93.5 176q-27 45 -84.5 167t-71.5 163q0 39 35 39q20 0 47 -25.5t49 -46.5 l316 -297l-332 -313q-20 -18 -42 -35.5t-44 -17.5q-29 0 -29 39z" />
<glyph unicode="&#xbc;" horiz-adv-x="2199" d="M96 1327q-8 20 8 27l514 104v-694q0 -27 7.5 -42t23 -28.5t117.5 -27.5q12 -10 25 -19l-15 -33q-10 -23 -22.5 -26.5t-42.5 -3.5h-531h-28q-35 0 -35 22l4 17l10 28q4 8 55.5 16.5t63.5 17.5t26.5 32.5t14.5 46.5v485q0 45 -49 45q-16 0 -29.5 -2t-58.5 -16l-29 -8 q-16 -6 -21 10zM637 0l747 1434h170l-745 -1434h-172zM1194 324q98 137 206.5 274t207.5 262h340v-463h163q6 0 4.5 -9t-12.5 -30l-57 -108h-98v-70q0 -27 7 -42t22.5 -28.5t117.5 -27.5q12 -10 25 -19l-15 -32q-10 -23 -22 -27t-43 -4h-531h-28q-35 0 -35 23l4 16l10 29 q4 8 55.5 16t63.5 17.5t26.5 33t14.5 45.5v70h-334q-41 0 -45 10zM1372 397h248v305q-63 -59 -115.5 -124.5t-132.5 -180.5z" />
<glyph unicode="&#xbd;" horiz-adv-x="2199" d="M117 1327q-8 20 8 27l514 104v-694q0 -27 7 -42t22.5 -28.5t117.5 -27.5q12 -10 25 -19l-14 -33q-10 -23 -22.5 -26.5t-43.5 -3.5h-530h-29q-35 0 -35 22l4 17l11 28q4 8 55 16.5t63.5 17.5t26.5 32.5t14 46.5v485q0 45 -49 45q-16 0 -29.5 -2t-58.5 -16l-29 -8 q-16 -6 -20 10zM672 0l747 1434h170l-745 -1434h-172zM1319 0v141q113 84 227 168q106 106 150.5 158.5t44.5 124.5q0 57 -32 91t-62 34q-51 0 -80 -17.5t-54 -58.5l-43 -68q0 -6 -14 -8l-65 10l-9 19v137q0 20 25 38.5t49.5 39t101 42t158.5 21.5q137 0 241.5 -57 t104.5 -160q0 -121 -113.5 -221t-232.5 -160l-157 -90l280 -4q53 0 114.5 79t76.5 71l51 -25q8 -14 8 -18l-100 -258q-6 -20 -17.5 -24.5t-40.5 -4.5h-612z" />
<glyph unicode="&#xbe;" horiz-adv-x="2199" d="M82 754q-2 16 16 30l52 50q4 4 14 4t14 -7l72 -98q20 -29 41 -55q27 -27 69 -27q82 0 131.5 39t49.5 117q0 111 -88 154t-177 43v75q90 0 157 48.5t67 132.5q0 68 -29 88t-68 20q-63 0 -109 -41t-63 -78l-14 -28q-6 -14 -24 -9l-43 23q-8 8 -9 14v107q0 14 49.5 41.5 t128 44t189.5 16.5q115 -4 227.5 -38t112.5 -179q0 -49 -90 -109.5t-170 -60.5q141 -4 221 -72.5t80 -160.5q0 -117 -121 -193t-354 -76q-117 0 -185.5 18.5t-99.5 41.5zM643 0l748 1434h170l-746 -1434h-172zM1190 324q98 137 206.5 274t207.5 262h340v-463h163q6 0 4 -9 t-12 -30l-57 -108h-98v-70q0 -27 7 -42t22.5 -28.5t117.5 -27.5q12 -10 25 -19l-15 -32q-10 -23 -22.5 -27t-42.5 -4h-531h-28q-35 0 -35 23l4 16l10 29q4 8 55.5 16t63.5 17.5t26.5 33t14.5 45.5v70h-334q-41 0 -45 10zM1368 397h248v305q-63 -59 -115.5 -124.5 t-132.5 -180.5z" />
<glyph unicode="&#xbf;" horiz-adv-x="1062" d="M111 -143q0 127 96 233.5t158 171.5q72 84 105.5 146.5t43.5 115.5h176q4 -37 4 -57q0 -55 -14 -117.5t-58 -167t-70 -206t-26 -169.5q0 -51 27 -132t74 -81q31 0 64.5 41t62.5 74l67 60q16 8 33 8q18 0 45 -19l27 -16q14 -8 20 -22.5t2 -30.5l-67 -119q-33 -23 -121 -37 t-191 -14q-201 0 -329.5 88t-128.5 250zM401 858q0 78 56.5 134.5t134.5 56.5q76 0 133 -57.5t57 -133.5q0 -78 -56 -134t-134 -56q-74 0 -132.5 56t-58.5 134z" />
<glyph unicode="&#xc0;" horiz-adv-x="1562" d="M6 25q0 8 6 20l11 31q4 12 11 18t56 19.5t72.5 38t56.5 110.5l313 840q14 41 15 72q0 37 -19 65q-25 29 -38 43t-64 30.5t-51 37.5q0 8 6 20l10 37q8 27 49 27h445q18 0 32.5 -18.5t18.5 -41.5q100 -291 214 -574.5t185.5 -448.5t97 -194.5t64.5 -38.5t48 -18.5t3 -27.5 l-18 -43q-8 -20 -16.5 -24.5t-36.5 -4.5h-603q-33 0 -32 25q0 8 2 14l18 47q6 18 51 47t45 72q0 25 -8 51l-67 160h-428l-78 -195q-6 -23 -6 -37q0 -45 51 -70.5t41 -47.5l-12 -25q-6 -12 -11 -25q-10 -16 -30 -16h-334h-31q-39 0 -39 25zM405 1919q0 49 36 81t81 32 q49 0 103 -41q59 -55 90 -82l254 -221q0 -74 -86 -94l-304 155q-111 57 -142.5 92t-31.5 78zM500 559h334l-166 436z" />
<glyph unicode="&#xc1;" horiz-adv-x="1562" d="M6 25q0 8 6 20l11 31q4 12 11 18t56 19.5t72.5 38t56.5 110.5l313 840q14 41 15 72q0 37 -19 65q-25 29 -38 43t-64 30.5t-51 37.5q0 8 6 20l10 37q8 27 49 27h445q18 0 32.5 -18.5t18.5 -41.5q100 -291 214 -574.5t185.5 -448.5t97 -194.5t64.5 -38.5t48 -18.5t3 -27.5 l-18 -43q-8 -20 -16.5 -24.5t-36.5 -4.5h-603q-33 0 -32 25q0 8 2 14l18 47q6 18 51 47t45 72q0 25 -8 51l-67 160h-428l-78 -195q-6 -23 -6 -37q0 -45 51 -70.5t41 -47.5l-12 -25q-6 -12 -11 -25q-10 -16 -30 -16h-334h-31q-39 0 -39 25zM500 559h334l-166 436zM563 1670 v18l246 221q45 39 90 80q55 43 102 43t82 -30.5t35 -82.5q0 -41 -31.5 -76.5t-142.5 -93.5l-299 -147q-82 8 -82 68z" />
<glyph unicode="&#xc2;" horiz-adv-x="1562" d="M6 25q0 8 6 20l11 31q4 12 11 18t56 19.5t72.5 38t56.5 110.5l313 840q14 41 15 72q0 37 -19 65q-25 29 -38 43t-64 30.5t-51 37.5q0 8 6 20l10 37q8 27 49 27h445q18 0 32.5 -18.5t18.5 -41.5q100 -291 214 -574.5t185.5 -448.5t97 -194.5t64.5 -38.5t48 -18.5t3 -27.5 l-18 -43q-8 -20 -16.5 -24.5t-36.5 -4.5h-603q-33 0 -32 25q0 8 2 14l18 47q6 18 51 47t45 72q0 25 -8 51l-67 160h-428l-78 -195q-6 -23 -6 -37q0 -45 51 -70.5t41 -47.5l-12 -25q-6 -12 -11 -25q-10 -16 -30 -16h-334h-31q-39 0 -39 25zM332 1610l321 313h172l322 -313 q-12 -25 -51 -24q-14 0 -35 3t-33 5l-289 151l-288 -151q-18 -4 -35 -6t-33 -2q-39 0 -51 24zM500 559h334l-166 436z" />
<glyph unicode="&#xc3;" horiz-adv-x="1562" d="M6 25q0 8 6 20l11 31q4 12 11 18t56 19.5t72.5 38t56.5 110.5l313 840q14 41 15 72q0 37 -19 65q-25 29 -38 43t-64 30.5t-51 37.5q0 8 6 20l10 37q8 27 49 27h445q18 0 32.5 -18.5t18.5 -41.5q100 -291 214 -574.5t185.5 -448.5t97 -194.5t64.5 -38.5t48 -18.5t3 -27.5 l-18 -43q-8 -20 -16.5 -24.5t-36.5 -4.5h-603q-33 0 -32 25q0 8 2 14l18 47q6 18 51 47t45 72q0 25 -8 51l-67 160h-428l-78 -195q-6 -23 -6 -37q0 -45 51 -70.5t41 -47.5l-12 -25q-6 -12 -11 -25q-10 -16 -30 -16h-334h-31q-39 0 -39 25zM330 1631q23 90 94.5 160.5 t169.5 70.5q136 0 195 -51q57 -25 91 -37t87 -12t93 28.5t48 65.5q43 14 66 14q33 0 57 -26q0 -92 -83 -177.5t-197 -85.5q-78 0 -124 15.5t-102.5 54.5t-148.5 39q-43 0 -74 -27.5t-53 -64.5q-27 -10 -49 -10q-43 0 -70 43zM500 559h334l-166 436z" />
<glyph unicode="&#xc4;" horiz-adv-x="1562" d="M6 25q0 8 6 20l11 31q4 12 11 18t56 19.5t72.5 38t56.5 110.5l313 840q14 41 15 72q0 37 -19 65q-25 29 -38 43t-64 30.5t-51 37.5q0 8 6 20l10 37q8 27 49 27h445q18 0 32.5 -18.5t18.5 -41.5q100 -291 214 -574.5t185.5 -448.5t97 -194.5t64.5 -38.5t48 -18.5t3 -27.5 l-18 -43q-8 -20 -16.5 -24.5t-36.5 -4.5h-603q-33 0 -32 25q0 8 2 14l18 47q6 18 51 47t45 72q0 25 -8 51l-67 160h-428l-78 -195q-6 -23 -6 -37q0 -45 51 -70.5t41 -47.5l-12 -25q-6 -12 -11 -25q-10 -16 -30 -16h-334h-31q-39 0 -39 25zM358 1688q0 53 41 94t92 41 q55 0 95 -40t40 -95q0 -53 -40 -93t-95 -40q-53 0 -93 40t-40 93zM500 559h334l-166 436zM854 1688q0 53 41 94t92 41q55 0 95 -40t40 -95q0 -53 -40 -93t-95 -40q-53 0 -93 40t-40 93z" />
<glyph unicode="&#xc5;" horiz-adv-x="1562" d="M6 25q0 8 6 20l11 31q4 12 11 18t56 19.5t72.5 38t56.5 110.5l313 840q14 41 15 72q0 37 -19 65q-25 29 -38 43t-64 30.5t-51 37.5q0 8 6 20l10 37q8 27 49 27h445q18 0 32.5 -18.5t18.5 -41.5q100 -291 214 -574.5t185.5 -448.5t97 -194.5t64.5 -38.5t48 -18.5t3 -27.5 l-18 -43q-8 -20 -16.5 -24.5t-36.5 -4.5h-603q-33 0 -32 25q0 8 2 14l18 47q6 18 51 47t45 72q0 25 -8 51l-67 160h-428l-78 -195q-6 -23 -6 -37q0 -45 51 -70.5t41 -47.5l-12 -25q-6 -12 -11 -25q-10 -16 -30 -16h-334h-31q-39 0 -39 25zM500 559h334l-166 436zM575 1764 q0 84 61.5 145.5t147.5 61.5q84 0 143.5 -61.5t59.5 -145.5t-59.5 -143.5t-147.5 -59.5q-80 0 -142.5 60.5t-62.5 142.5zM692 1766q0 -35 26.5 -61.5t61.5 -26.5q37 0 63.5 26.5t26.5 61.5t-26.5 61.5t-63.5 26.5q-35 0 -61.5 -24.5t-26.5 -63.5z" />
<glyph unicode="&#xc6;" horiz-adv-x="2121" d="M6 25q0 8 6 20l11 31q4 12 11 18t55 19.5t69.5 35t74.5 113.5l480 840q55 92 55 141q0 23 -15.5 38t-66.5 31.5t-51 37.5q0 8 6 20l10 37q8 27 49 27h1217q29 0 46 -14.5t13 -37.5v-184q-6 -14 -10 -18l-37 -31q-12 -8 -61 66.5t-137 74.5h-299v-436h473q20 0 28.5 -8 t-2.5 -21l-51 -86q-27 -29 -65 -28h-383v-357q0 -129 30.5 -170t118.5 -41h166q96 0 162 54q47 55 96 110l51 -16q12 -4 12 -19v-221q0 -23 -26.5 -37t-67.5 -14h-1030q-57 0 -72.5 7t-7.5 32l19 47q4 14 60 54t56 116v160h-493l-119 -195q-14 -23 -14 -43q0 -27 60.5 -59.5 t49.5 -52.5l-12 -25q-6 -12 -10 -25q-10 -16 -31 -16h-354h-31q-39 0 -39 25zM592 559h407v725z" />
<glyph unicode="&#xc7;" horiz-adv-x="1441" d="M74 729q0 305 230.5 517t580.5 212q152 0 287 -36t170.5 -62.5t35.5 -46.5v-154q0 -20 -16 -29l-82 -49q-70 80 -172 154t-227 74q-182 0 -271.5 -149.5t-89.5 -414.5q0 -299 116 -442t331 -143q78 0 178 42t134 90t48 48q18 0 35.5 -13.5t11.5 -23.5l-74 -192 q-8 -18 -17 -37t-35.5 -39.5t-121 -40t-225.5 -19.5q-379 0 -603 208t-224 546zM524 -391q0 27 33 41q27 -6 52.5 -11.5t41.5 -5.5q41 0 62.5 21.5t21.5 64.5q0 31 -14 50.5t-25.5 22.5t-27.5 3q-12 0 -28.5 -3l-27.5 -5l-14 10l98 223h91l-66 -153l59 6q59 0 106.5 -36 t47.5 -105q0 -78 -80 -125t-184 -47q-37 0 -76 7t-63 17q-6 12 -7 25z" />
<glyph unicode="&#xc8;" horiz-adv-x="1347" d="M57 1362l17 45q10 27 35 27h1034q29 0 46 -14.5t13 -37.5v-184q-6 -14 -10 -18l-37 -31q-12 -8 -61.5 66.5t-137.5 74.5h-299v-436h473q20 0 28.5 -8t-1.5 -21l-51 -86q-27 -29 -66 -28h-383v-357q0 -129 31 -170t119 -41h166q96 0 162 54q47 55 96 110l51 -16 q12 -4 12 -19v-221q0 -23 -26.5 -37t-67.5 -14h-633q-193 0 -267.5 10t-74.5 131v1028q0 70 -30.5 105t-98.5 47q-49 12 -39 41zM297 1919q0 49 36 81t81 32q49 0 103 -41q59 -55 90 -82l254 -221q0 -74 -86 -94l-304 155q-111 57 -142.5 92t-31.5 78z" />
<glyph unicode="&#xc9;" horiz-adv-x="1347" d="M57 1362l17 45q10 27 35 27h1034q29 0 46 -14.5t13 -37.5v-184q-6 -14 -10 -18l-37 -31q-12 -8 -61.5 66.5t-137.5 74.5h-299v-436h473q20 0 28.5 -8t-1.5 -21l-51 -86q-27 -29 -66 -28h-383v-357q0 -129 31 -170t119 -41h166q96 0 162 54q47 55 96 110l51 -16 q12 -4 12 -19v-221q0 -23 -26.5 -37t-67.5 -14h-633q-193 0 -267.5 10t-74.5 131v1028q0 70 -30.5 105t-98.5 47q-49 12 -39 41zM496 1670v18l246 221q45 39 90 80q55 43 102 43t82 -30.5t35 -82.5q0 -41 -31.5 -76.5t-142.5 -93.5l-299 -147q-82 8 -82 68z" />
<glyph unicode="&#xca;" horiz-adv-x="1347" d="M57 1362l17 45q10 27 35 27h1034q29 0 46 -14.5t13 -37.5v-184q-6 -14 -10 -18l-37 -31q-12 -8 -61.5 66.5t-137.5 74.5h-299v-436h473q20 0 28.5 -8t-1.5 -21l-51 -86q-27 -29 -66 -28h-383v-357q0 -129 31 -170t119 -41h166q96 0 162 54q47 55 96 110l51 -16 q12 -4 12 -19v-221q0 -23 -26.5 -37t-67.5 -14h-633q-193 0 -267.5 10t-74.5 131v1028q0 70 -30.5 105t-98.5 47q-49 12 -39 41zM264 1610l321 313h172l322 -313q-12 -25 -51 -24q-14 0 -35 3t-33 5l-289 151l-288 -151q-18 -4 -35 -6t-33 -2q-39 0 -51 24z" />
<glyph unicode="&#xcb;" horiz-adv-x="1347" d="M57 1362l17 45q10 27 35 27h1034q29 0 46 -14.5t13 -37.5v-184q-6 -14 -10 -18l-37 -31q-12 -8 -61.5 66.5t-137.5 74.5h-299v-436h473q20 0 28.5 -8t-1.5 -21l-51 -86q-27 -29 -66 -28h-383v-357q0 -129 31 -170t119 -41h166q96 0 162 54q47 55 96 110l51 -16 q12 -4 12 -19v-221q0 -23 -26.5 -37t-67.5 -14h-633q-193 0 -267.5 10t-74.5 131v1028q0 70 -30.5 105t-98.5 47q-49 12 -39 41zM291 1688q0 53 41 94t92 41q55 0 95 -40t40 -95q0 -53 -40 -93t-95 -40q-53 0 -93 40t-40 93zM787 1688q0 53 41 94t92 41q55 0 95 -40t40 -95 q0 -53 -40 -93t-95 -40q-53 0 -93 40t-40 93z" />
<glyph unicode="&#xcc;" horiz-adv-x="890" d="M69 1919q0 49 36 81t81 32q49 0 103 -41q59 -55 90 -82l254 -221q0 -74 -86 -94l-304 155q-111 57 -142.5 92t-31.5 78zM70 23q0 10 2 16l12 39q6 16 13 22t40 13.5t61.5 38t28.5 94.5v942q0 74 -24.5 96.5t-106.5 42.5q-18 2 -23 14.5t1 28.5l16 47q10 16 35 17h663 q29 0 29 -23q0 -10 -2 -16l-12 -39q-6 -16 -13.5 -22.5t-40 -13.5t-61.5 -38t-29 -94v-942q0 -74 25 -96.5t107 -43.5q18 -2 23 -14t-1 -29l-16 -47q-10 -16 -35 -16h-664q-29 0 -28 23z" />
<glyph unicode="&#xcd;" horiz-adv-x="890" d="M70 23q0 10 2 16l12 39q6 16 13 22t40 13.5t61.5 38t28.5 94.5v942q0 74 -24.5 96.5t-106.5 42.5q-18 2 -23 14.5t1 28.5l16 47q10 16 35 17h663q29 0 29 -23q0 -10 -2 -16l-12 -39q-6 -16 -13.5 -22.5t-40 -13.5t-61.5 -38t-29 -94v-942q0 -74 25 -96.5t107 -43.5 q18 -2 23 -14t-1 -29l-16 -47q-10 -16 -35 -16h-664q-29 0 -28 23zM268 1670v18l246 221q45 39 90 80q55 43 102 43t82 -30.5t35 -82.5q0 -41 -31.5 -76.5t-142.5 -93.5l-299 -147q-82 8 -82 68z" />
<glyph unicode="&#xce;" horiz-adv-x="890" d="M37 1610l321 313h172l322 -313q-12 -25 -51 -24q-14 0 -35 3t-33 5l-289 151l-288 -151q-18 -4 -35 -6t-33 -2q-39 0 -51 24zM70 23q0 10 2 16l12 39q6 16 13 22t40 13.5t61.5 38t28.5 94.5v942q0 74 -24.5 96.5t-106.5 42.5q-18 2 -23 14.5t1 28.5l16 47q10 16 35 17 h663q29 0 29 -23q0 -10 -2 -16l-12 -39q-6 -16 -13.5 -22.5t-40 -13.5t-61.5 -38t-29 -94v-942q0 -74 25 -96.5t107 -43.5q18 -2 23 -14t-1 -29l-16 -47q-10 -16 -35 -16h-664q-29 0 -28 23z" />
<glyph unicode="&#xcf;" horiz-adv-x="890" d="M63 1688q0 53 41 94t92 41q55 0 95 -40t40 -95q0 -53 -40 -93t-95 -40q-53 0 -93 40t-40 93zM70 23q0 10 2 16l12 39q6 16 13 22t40 13.5t61.5 38t28.5 94.5v942q0 74 -24.5 96.5t-106.5 42.5q-18 2 -23 14.5t1 28.5l16 47q10 16 35 17h663q29 0 29 -23q0 -10 -2 -16 l-12 -39q-6 -16 -13.5 -22.5t-40 -13.5t-61.5 -38t-29 -94v-942q0 -74 25 -96.5t107 -43.5q18 -2 23 -14t-1 -29l-16 -47q-10 -16 -35 -16h-664q-29 0 -28 23zM559 1688q0 53 41 94t92 41q55 0 95 -40t40 -95q0 -53 -40 -93t-95 -40q-53 0 -93 40t-40 93z" />
<glyph unicode="&#xd0;" horiz-adv-x="1736" d="M4 688v143h244v338q0 70 -31 105t-98 47q-49 12 -39 41l16 45q10 27 35 27h760q416 0 592 -176.5t176 -507.5q0 -326 -220 -550.5t-554 -224.5q-258 0 -377 10.5t-189.5 35t-70.5 112.5v555h-244zM680 303q0 -104 63.5 -149t143.5 -45q172 0 256 175t84 455 q0 299 -97.5 430t-289.5 131h-160v-469h287v-143h-287v-385z" />
<glyph unicode="&#xd1;" horiz-adv-x="1669" d="M23 1370l16 47q12 16 35 17h514q33 0 52 -16.5t62 -67.5l625 -828l4 666q0 74 -24.5 96.5t-106.5 42.5q-18 2 -23.5 14.5t1.5 28.5l16 47q10 16 35 17h403q29 0 29 -23q0 -10 -2 -16l-12 -39q-6 -16 -13.5 -22.5t-40 -13.5t-61.5 -38t-29 -94v-1120q0 -68 -55 -68h-238 q-8 0 -22 16.5t-64 75.5l-702 948l-4 -794q0 -74 24.5 -96.5t106.5 -43.5q18 -2 23.5 -14t-1.5 -29l-16 -47q-10 -16 -35 -16h-403q-29 0 -29 23q0 10 2 16l12 39q6 16 13.5 22t40 13.5t61.5 38t29 94.5v938q-29 33 -84.5 72.5t-93 55t-45 29t-0.5 29.5zM383 1631 q23 90 94.5 160.5t169.5 70.5q136 0 195 -51q57 -25 91 -37t87 -12t93 28.5t48 65.5q43 14 66 14q33 0 57 -26q0 -92 -83 -177.5t-197 -85.5q-78 0 -124 15.5t-102.5 54.5t-148.5 39q-43 0 -74 -27.5t-53 -64.5q-27 -10 -49 -10q-43 0 -70 43z" />
<glyph unicode="&#xd2;" horiz-adv-x="1667" d="M78 709q0 330 232.5 539.5t559.5 209.5q311 0 515 -205.5t204 -507.5q0 -322 -220 -546t-572 -224q-276 0 -497.5 199t-221.5 535zM456 1919q0 49 36 81t81 32q49 0 103 -41q59 -55 90 -82l254 -221q0 -74 -86 -94l-304 155q-111 57 -142.5 92t-31.5 78zM524 756 q0 -311 81 -474t229 -163h24q131 12 208 197.5t77 414.5q0 276 -84 430t-238 154q-135 0 -216 -170t-81 -389z" />
<glyph unicode="&#xd3;" horiz-adv-x="1667" d="M78 709q0 330 232.5 539.5t559.5 209.5q311 0 515 -205.5t204 -507.5q0 -322 -220 -546t-572 -224q-276 0 -497.5 199t-221.5 535zM524 756q0 -311 81 -474t229 -163h24q131 12 208 197.5t77 414.5q0 276 -84 430t-238 154q-135 0 -216 -170t-81 -389zM655 1670v18 l246 221q45 39 90 80q55 43 102 43t82 -30.5t35 -82.5q0 -41 -31.5 -76.5t-142.5 -93.5l-299 -147q-82 8 -82 68z" />
<glyph unicode="&#xd4;" horiz-adv-x="1667" d="M78 709q0 330 232.5 539.5t559.5 209.5q311 0 515 -205.5t204 -507.5q0 -322 -220 -546t-572 -224q-276 0 -497.5 199t-221.5 535zM424 1610l321 313h172l322 -313q-12 -25 -51 -24q-14 0 -35 3t-33 5l-289 151l-288 -151q-18 -4 -35 -6t-33 -2q-39 0 -51 24zM524 756 q0 -311 81 -474t229 -163h24q131 12 208 197.5t77 414.5q0 276 -84 430t-238 154q-135 0 -216 -170t-81 -389z" />
<glyph unicode="&#xd5;" horiz-adv-x="1667" d="M78 709q0 330 232.5 539.5t559.5 209.5q311 0 515 -205.5t204 -507.5q0 -322 -220 -546t-572 -224q-276 0 -497.5 199t-221.5 535zM381 1631q23 90 94.5 160.5t169.5 70.5q136 0 195 -51q57 -25 91 -37t87 -12t93 28.5t48 65.5q43 14 66 14q33 0 57 -26q0 -92 -83 -177.5 t-197 -85.5q-78 0 -124 15.5t-102.5 54.5t-148.5 39q-43 0 -74 -27.5t-53 -64.5q-27 -10 -49 -10q-43 0 -70 43zM524 756q0 -311 81 -474t229 -163h24q131 12 208 197.5t77 414.5q0 276 -84 430t-238 154q-135 0 -216 -170t-81 -389z" />
<glyph unicode="&#xd6;" horiz-adv-x="1667" d="M78 709q0 330 232.5 539.5t559.5 209.5q311 0 515 -205.5t204 -507.5q0 -322 -220 -546t-572 -224q-276 0 -497.5 199t-221.5 535zM451 1688q0 53 41 94t92 41q55 0 95 -40t40 -95q0 -53 -40 -93t-95 -40q-53 0 -93 40t-40 93zM524 756q0 -311 81 -474t229 -163h24 q131 12 208 197.5t77 414.5q0 276 -84 430t-238 154q-135 0 -216 -170t-81 -389zM947 1688q0 53 41 94t92 41q55 0 95 -40t40 -95q0 -53 -40 -93t-95 -40q-53 0 -93 40t-40 93z" />
<glyph unicode="&#xd7;" d="M209 223l295 295l-295 295l139 139l295 -295l295 295l139 -139l-295 -295l295 -295l-139 -139l-295 295l-295 -295z" />
<glyph unicode="&#xd8;" horiz-adv-x="1667" d="M68 82l170 162q-76 92 -118 208.5t-42 256.5q0 330 232.5 539.5t559.5 209.5q139 0 255 -42t212 -122l168 160l107 -106l-170 -162q147 -186 147 -441q0 -322 -220 -546t-572 -224q-119 0 -239 42t-220 126l-168 -159zM498 754q0 -141 20 -242l594 567q-94 236 -291 236 q-137 0 -230 -172t-93 -389zM559 352q41 -113 113.5 -173t161.5 -60h24q133 12 222 203.5t89 410.5q0 109 -14 182z" />
<glyph unicode="&#xd9;" horiz-adv-x="1605" d="M64.5 1341.5q-5.5 12.5 1.5 28.5l16 47q10 16 35 17h663q29 0 29 -23q0 -10 -2 -16l-12 -39q-6 -16 -13.5 -22.5t-40 -13.5t-61.5 -38t-29 -94v-635q0 -246 73 -326t216 -80q104 0 182 102.5t78 313.5v625q0 74 -24.5 96.5t-106.5 42.5q-18 2 -23.5 14.5t1.5 28.5l16 47 q10 16 35 17h426q29 0 28 -23q0 -10 -2 -16l-12 -39q-6 -16 -13 -22.5t-40 -13.5t-61.5 -38t-28.5 -94v-635q0 -338 -171 -458t-364 -120q-358 0 -499.5 155t-141.5 417v641q0 74 -24.5 96.5t-106.5 42.5q-18 2 -23.5 14.5zM450 1919q0 49 36 81t81 32q49 0 103 -41 q59 -55 90 -82l254 -221q0 -74 -86 -94l-304 155q-111 57 -142.5 92t-31.5 78z" />
<glyph unicode="&#xda;" horiz-adv-x="1605" d="M64.5 1341.5q-5.5 12.5 1.5 28.5l16 47q10 16 35 17h663q29 0 29 -23q0 -10 -2 -16l-12 -39q-6 -16 -13.5 -22.5t-40 -13.5t-61.5 -38t-29 -94v-635q0 -246 73 -326t216 -80q104 0 182 102.5t78 313.5v625q0 74 -24.5 96.5t-106.5 42.5q-18 2 -23.5 14.5t1.5 28.5l16 47 q10 16 35 17h426q29 0 28 -23q0 -10 -2 -16l-12 -39q-6 -16 -13 -22.5t-40 -13.5t-61.5 -38t-28.5 -94v-635q0 -338 -171 -458t-364 -120q-358 0 -499.5 155t-141.5 417v641q0 74 -24.5 96.5t-106.5 42.5q-18 2 -23.5 14.5zM625 1670v18l246 221q45 39 90 80q55 43 102 43 t82 -30.5t35 -82.5q0 -41 -31.5 -76.5t-142.5 -93.5l-299 -147q-82 8 -82 68z" />
<glyph unicode="&#xdb;" horiz-adv-x="1605" d="M64.5 1341.5q-5.5 12.5 1.5 28.5l16 47q10 16 35 17h663q29 0 29 -23q0 -10 -2 -16l-12 -39q-6 -16 -13.5 -22.5t-40 -13.5t-61.5 -38t-29 -94v-635q0 -246 73 -326t216 -80q104 0 182 102.5t78 313.5v625q0 74 -24.5 96.5t-106.5 42.5q-18 2 -23.5 14.5t1.5 28.5l16 47 q10 16 35 17h426q29 0 28 -23q0 -10 -2 -16l-12 -39q-6 -16 -13 -22.5t-40 -13.5t-61.5 -38t-28.5 -94v-635q0 -338 -171 -458t-364 -120q-358 0 -499.5 155t-141.5 417v641q0 74 -24.5 96.5t-106.5 42.5q-18 2 -23.5 14.5zM393 1610l321 313h172l322 -313q-12 -25 -51 -24 q-14 0 -35 3t-33 5l-289 151l-288 -151q-18 -4 -35 -6t-33 -2q-39 0 -51 24z" />
<glyph unicode="&#xdc;" horiz-adv-x="1605" d="M64.5 1341.5q-5.5 12.5 1.5 28.5l16 47q10 16 35 17h663q29 0 29 -23q0 -10 -2 -16l-12 -39q-6 -16 -13.5 -22.5t-40 -13.5t-61.5 -38t-29 -94v-635q0 -246 73 -326t216 -80q104 0 182 102.5t78 313.5v625q0 74 -24.5 96.5t-106.5 42.5q-18 2 -23.5 14.5t1.5 28.5l16 47 q10 16 35 17h426q29 0 28 -23q0 -10 -2 -16l-12 -39q-6 -16 -13 -22.5t-40 -13.5t-61.5 -38t-28.5 -94v-635q0 -338 -171 -458t-364 -120q-358 0 -499.5 155t-141.5 417v641q0 74 -24.5 96.5t-106.5 42.5q-18 2 -23.5 14.5zM444 1688q0 53 41 94t92 41q55 0 95 -40t40 -95 q0 -53 -40 -93t-95 -40q-53 0 -93 40t-40 93zM940 1688q0 53 41 94t92 41q55 0 95 -40t40 -95q0 -53 -40 -93t-95 -40q-53 0 -93 40t-40 93z" />
<glyph unicode="&#xdd;" horiz-adv-x="1517" d="M20 1366l19 47q6 20 37 21h604q31 0 22 -29l-16 -51q-2 -10 -27.5 -26.5t-37 -29t-18.5 -28t-7 -37.5q0 -27 8 -53l242 -480l284 498q23 37 23 64q0 20 -10 32.5t-35 26.5t-45.5 27.5t-11.5 31.5l18 37q8 16 27 17h374q31 0 23 -31l-10 -41q-4 -14 -32 -26.5t-54.5 -25 t-55 -47t-55.5 -87.5l-289 -521q-16 -29 -35.5 -92t-19.5 -104v-213q0 -74 24.5 -96.5t106.5 -43.5q18 -2 23.5 -14t-0.5 -29l-17 -47q-10 -16 -35 -16h-663q-29 0 -29 23q0 10 2 16l13 39q6 18 13 23t40 12.5t61.5 38t28.5 94.5v278l-320 647q-35 70 -62.5 98.5t-57 43 t-44 24t-6.5 29.5zM606 1670v18l246 221q45 39 90 80q55 43 102 43t82 -30.5t35 -82.5q0 -41 -31.5 -76.5t-142.5 -93.5l-299 -147q-82 8 -82 68z" />
<glyph unicode="&#xde;" horiz-adv-x="1423" d="M74 23q0 10 2 16l12 39q6 16 13.5 22t40 13.5t61 38t28.5 94.5l-2 942q0 74 -24.5 96.5t-106.5 42.5q-18 2 -23 14.5t1 28.5l16 47q10 16 35 17h664q29 0 28 -23q0 -10 -2 -16l-12 -39q-6 -16 -13.5 -22.5t-40 -13.5t-61 -38t-28.5 -94v-62h161q268 0 410.5 -79.5 t142.5 -255.5q0 -174 -140 -274.5t-398 -100.5h-176l2 -170q0 -74 24.5 -96.5t106.5 -43.5q18 -2 23 -14t-1 -29l-16 -47q-10 -16 -35 -16h-664q-29 0 -28 23zM662 539h114q80 0 131 56t51 187q0 127 -45 174.5t-149 47.5h-102v-465z" />
<glyph unicode="&#xdf;" horiz-adv-x="1624" d="M47 23q0 10 2 16l12 39q6 16 13.5 22t58.5 16.5t51 129.5v618h-118v82l118 68v129q0 131 179.5 252t447.5 121q248 0 362.5 -96.5t114.5 -215.5q0 -88 -74.5 -188.5t-74.5 -163.5q0 -57 151.5 -173t220 -183.5t68.5 -182.5q0 -172 -140.5 -255t-314.5 -83 q-123 0 -211 10.5t-116 30.5l-52 183q-4 14 11 34l59 52q25 20 33 4l74 -119q16 -31 49 -54.5t88 -23.5q63 0 106 24.5t43 78.5q0 104 -219 249.5t-219 280.5q0 104 126 252.5t126 222.5q0 84 -46 136.5t-153 52.5q-94 0 -161.5 -59.5t-67.5 -170.5v-913q0 -80 11 -100.5 t46 -31t41 -20.5t0 -31l-14 -47q-4 -16 -25 -16h-577q-29 0 -29 23z" />
<glyph unicode="&#xe0;" horiz-adv-x="1398" d="M57 451q0 252 185.5 425t498.5 173q137 0 217 -12.5t160 -43.5q82 -37 106.5 -60.5t24.5 -111.5v-579q0 -76 6.5 -99.5t58.5 -35t52 -27.5q-2 -12 -2 -17l-16 -47q-2 -8 -10.5 -12t-20.5 -4h-420q-57 0 -57 63v144q-55 -94 -164 -163t-221 -69q-178 0 -288 141.5 t-110 334.5zM323 1509q0 49 36 81t81 32q49 0 103 -41q59 -55 90 -82l254 -221q0 -74 -86 -94l-304 155q-111 57 -142.5 92t-31.5 78zM485 535q0 -129 40 -217.5t106 -88.5q61 0 110.5 64.5t74 183.5t24.5 160q0 127 -33 199.5t-113 72.5q-94 0 -151.5 -113.5t-57.5 -260.5z " />
<glyph unicode="&#xe1;" horiz-adv-x="1398" d="M57 451q0 252 185.5 425t498.5 173q137 0 217 -12.5t160 -43.5q82 -37 106.5 -60.5t24.5 -111.5v-579q0 -76 6.5 -99.5t58.5 -35t52 -27.5q-2 -12 -2 -17l-16 -47q-2 -8 -10.5 -12t-20.5 -4h-420q-57 0 -57 63v144q-55 -94 -164 -163t-221 -69q-178 0 -288 141.5 t-110 334.5zM485 535q0 -129 40 -217.5t106 -88.5q61 0 110.5 64.5t74 183.5t24.5 160q0 127 -33 199.5t-113 72.5q-94 0 -151.5 -113.5t-57.5 -260.5zM522 1260v18l246 221q45 39 90 80q55 43 102 43t82 -30.5t35 -82.5q0 -41 -31.5 -76.5t-142.5 -93.5l-299 -147 q-82 8 -82 68z" />
<glyph unicode="&#xe2;" horiz-adv-x="1398" d="M57 451q0 252 185.5 425t498.5 173q137 0 217 -12.5t160 -43.5q82 -37 106.5 -60.5t24.5 -111.5v-579q0 -76 6.5 -99.5t58.5 -35t52 -27.5q-2 -12 -2 -17l-16 -47q-2 -8 -10.5 -12t-20.5 -4h-420q-57 0 -57 63v144q-55 -94 -164 -163t-221 -69q-178 0 -288 141.5 t-110 334.5zM291 1200l321 313h172l322 -313q-12 -25 -51 -24q-14 0 -35 3t-33 5l-289 151l-288 -151q-18 -4 -35 -6t-33 -2q-39 0 -51 24zM485 535q0 -129 40 -217.5t106 -88.5q61 0 110.5 64.5t74 183.5t24.5 160q0 127 -33 199.5t-113 72.5q-94 0 -151.5 -113.5 t-57.5 -260.5z" />
<glyph unicode="&#xe3;" horiz-adv-x="1398" d="M57 451q0 252 185.5 425t498.5 173q137 0 217 -12.5t160 -43.5q82 -37 106.5 -60.5t24.5 -111.5v-579q0 -76 6.5 -99.5t58.5 -35t52 -27.5q-2 -12 -2 -17l-16 -47q-2 -8 -10.5 -12t-20.5 -4h-420q-57 0 -57 63v144q-55 -94 -164 -163t-221 -69q-178 0 -288 141.5 t-110 334.5zM248 1221q23 90 94.5 160.5t169.5 70.5q136 0 195 -51q57 -25 91 -37t87 -12t93 28.5t48 65.5q43 14 66 14q33 0 57 -26q0 -92 -83 -177.5t-197 -85.5q-78 0 -124 15.5t-102.5 54.5t-148.5 39q-43 0 -74 -27.5t-53 -64.5q-27 -10 -49 -10q-43 0 -70 43zM485 535 q0 -129 40 -217.5t106 -88.5q61 0 110.5 64.5t74 183.5t24.5 160q0 127 -33 199.5t-113 72.5q-94 0 -151.5 -113.5t-57.5 -260.5z" />
<glyph unicode="&#xe4;" horiz-adv-x="1398" d="M57 451q0 252 185.5 425t498.5 173q137 0 217 -12.5t160 -43.5q82 -37 106.5 -60.5t24.5 -111.5v-579q0 -76 6.5 -99.5t58.5 -35t52 -27.5q-2 -12 -2 -17l-16 -47q-2 -8 -10.5 -12t-20.5 -4h-420q-57 0 -57 63v144q-55 -94 -164 -163t-221 -69q-178 0 -288 141.5 t-110 334.5zM317 1278q0 53 41 94t92 41q55 0 95 -40t40 -95q0 -53 -40 -93t-95 -40q-53 0 -93 40t-40 93zM485 535q0 -129 40 -217.5t106 -88.5q61 0 110.5 64.5t74 183.5t24.5 160q0 127 -33 199.5t-113 72.5q-94 0 -151.5 -113.5t-57.5 -260.5zM813 1278q0 53 41 94 t92 41q55 0 95 -40t40 -95q0 -53 -40 -93t-95 -40q-53 0 -93 40t-40 93z" />
<glyph unicode="&#xe5;" horiz-adv-x="1398" d="M57 451q0 252 185.5 425t498.5 173q137 0 217 -12.5t160 -43.5q82 -37 106.5 -60.5t24.5 -111.5v-579q0 -76 6.5 -99.5t58.5 -35t52 -27.5q-2 -12 -2 -17l-16 -47q-2 -8 -10.5 -12t-20.5 -4h-420q-57 0 -57 63v144q-55 -94 -164 -163t-221 -69q-178 0 -288 141.5 t-110 334.5zM485 535q0 -129 40 -217.5t106 -88.5q61 0 110.5 64.5t74 183.5t24.5 160q0 127 -33 199.5t-113 72.5q-94 0 -151.5 -113.5t-57.5 -260.5zM493 1354q0 84 61.5 145.5t147.5 61.5q84 0 143.5 -61.5t59.5 -145.5t-59.5 -143.5t-147.5 -59.5q-80 0 -142.5 60.5 t-62.5 142.5zM610 1356q0 -35 26.5 -61.5t61.5 -26.5q37 0 63.5 26.5t26.5 61.5t-26.5 61.5t-63.5 26.5q-35 0 -61.5 -24.5t-26.5 -63.5z" />
<glyph unicode="&#xe6;" horiz-adv-x="1835" d="M57 266q0 156 91.5 227.5t240.5 124.5l344 123q0 88 -42 140.5t-120 52.5t-128 -42t-71.5 -117t-66.5 -64l-110 34q-31 18 -31 41q0 12 2 21l20 80q18 63 24.5 71.5t115 49.5t311.5 41q113 0 194.5 -21.5t145.5 -64.5q63 41 145 63.5t193 22.5q233 0 348 -123t115 -340 q0 -31 -13.5 -56.5t-33.5 -25.5h-570q0 -162 55.5 -259.5t178.5 -97.5q104 0 163.5 44.5t112.5 127.5q6 10 50 -12t40 -37l-84 -184q-18 -39 -23 -47t-22 -19q-39 -18 -116.5 -31.5t-153.5 -13.5q-166 0 -300 52.5t-198 156.5q-92 -98 -215 -153.5t-223 -55.5 q-170 0 -269.5 79t-99.5 212zM457 334q0 -70 27.5 -113t88.5 -43q74 0 121 67.5t47 131.5v235q-135 -39 -209.5 -111.5t-74.5 -166.5zM1161 635h221q53 0 54 90q0 111 -37 160t-88 49q-72 0 -111 -88t-39 -211z" />
<glyph unicode="&#xe7;" horiz-adv-x="1175" d="M57 512q0 217 162 377t498 160q133 0 246.5 -30t105.5 -75v-192q0 -8 -12 -25l-60 -29q-12 -6 -42.5 46.5t-71.5 105.5t-156 53q-84 0 -163 -97t-79 -282q0 -178 70 -275t184 -97q102 0 162 44t113 128q4 10 50 -13.5t40 -36.5l-82 -184q-14 -31 -20.5 -41t-26.5 -24 q-39 -20 -119 -35t-149 -15q-358 0 -504 175.5t-146 361.5zM391 -391q0 27 33 41q27 -6 52.5 -11.5t41.5 -5.5q41 0 62.5 21.5t21.5 64.5q0 31 -14 50.5t-25.5 22.5t-27.5 3q-12 0 -28.5 -3l-27.5 -5l-14 10l98 223h91l-66 -153l59 6q59 0 106.5 -36t47.5 -105 q0 -78 -80 -125t-184 -47q-37 0 -76 7t-63 17q-6 12 -7 25z" />
<glyph unicode="&#xe8;" horiz-adv-x="1159" d="M57 516q0 211 143.5 372t438.5 161q233 0 348 -123t115 -340q0 -31 -13.5 -56.5t-33.5 -25.5h-570q0 -162 55.5 -259.5t178.5 -97.5q104 0 163.5 44.5t112.5 127.5q6 10 50.5 -12t39.5 -37l-84 -184q-18 -39 -23 -47t-22 -19q-39 -18 -116.5 -31.5t-153.5 -13.5 q-336 0 -482.5 163t-146.5 378zM252 1509q0 49 36 81t81 32q49 0 103 -41q59 -55 90 -82l254 -221q0 -74 -86 -94l-304 155q-111 57 -142.5 92t-31.5 78zM485 635h222q53 0 53 90q0 111 -37 160t-88 49q-72 0 -111 -88t-39 -211z" />
<glyph unicode="&#xe9;" horiz-adv-x="1159" d="M57 516q0 211 143.5 372t438.5 161q233 0 348 -123t115 -340q0 -31 -13.5 -56.5t-33.5 -25.5h-570q0 -162 55.5 -259.5t178.5 -97.5q104 0 163.5 44.5t112.5 127.5q6 10 50.5 -12t39.5 -37l-84 -184q-18 -39 -23 -47t-22 -19q-39 -18 -116.5 -31.5t-153.5 -13.5 q-336 0 -482.5 163t-146.5 378zM401 1260v18l246 221q45 39 90 80q55 43 102 43t82 -30.5t35 -82.5q0 -41 -31.5 -76.5t-142.5 -93.5l-299 -147q-82 8 -82 68zM485 635h222q53 0 53 90q0 111 -37 160t-88 49q-72 0 -111 -88t-39 -211z" />
<glyph unicode="&#xea;" horiz-adv-x="1159" d="M57 516q0 211 143.5 372t438.5 161q233 0 348 -123t115 -340q0 -31 -13.5 -56.5t-33.5 -25.5h-570q0 -162 55.5 -259.5t178.5 -97.5q104 0 163.5 44.5t112.5 127.5q6 10 50.5 -12t39.5 -37l-84 -184q-18 -39 -23 -47t-22 -19q-39 -18 -116.5 -31.5t-153.5 -13.5 q-336 0 -482.5 163t-146.5 378zM170 1200l321 313h172l322 -313q-12 -25 -51 -24q-14 0 -35 3t-33 5l-289 151l-288 -151q-18 -4 -35 -6t-33 -2q-39 0 -51 24zM485 635h222q53 0 53 90q0 111 -37 160t-88 49q-72 0 -111 -88t-39 -211z" />
<glyph unicode="&#xeb;" horiz-adv-x="1159" d="M57 516q0 211 143.5 372t438.5 161q233 0 348 -123t115 -340q0 -31 -13.5 -56.5t-33.5 -25.5h-570q0 -162 55.5 -259.5t178.5 -97.5q104 0 163.5 44.5t112.5 127.5q6 10 50.5 -12t39.5 -37l-84 -184q-18 -39 -23 -47t-22 -19q-39 -18 -116.5 -31.5t-153.5 -13.5 q-336 0 -482.5 163t-146.5 378zM197 1278q0 53 41 94t92 41q55 0 95 -40t40 -95q0 -53 -40 -93t-95 -40q-53 0 -93 40t-40 93zM485 635h222q53 0 53 90q0 111 -37 160t-88 49q-72 0 -111 -88t-39 -211zM693 1278q0 53 41 94t92 41q55 0 95 -40t40 -95q0 -53 -40 -93t-95 -40 q-53 0 -93 40t-40 93z" />
<glyph unicode="&#xec;" horiz-adv-x="776" d="M12 1509q0 49 36 81t81 32q49 0 103 -41q59 -55 90 -82l254 -221q0 -74 -86 -94l-304 155q-111 57 -142.5 92t-31.5 78zM47 23q0 10 2 16l12 39q6 16 13.5 22t58.5 16.5t51 129.5v532q0 78 -15 99.5t-59 32t-55.5 19.5t-1.5 32l19 47q4 10 14 13t27 3h432q25 0 37 -6 t12 -35v-737q0 -78 15.5 -99.5t61.5 -32t51 -22.5t-1 -29l-16 -47q-6 -10 -17.5 -13t-34.5 -3h-577q-29 0 -29 23z" />
<glyph unicode="&#xed;" horiz-adv-x="776" d="M47 23q0 10 2 16l12 39q6 16 13.5 22t58.5 16.5t51 129.5v532q0 78 -15 99.5t-59 32t-55.5 19.5t-1.5 32l19 47q4 10 14 13t27 3h432q25 0 37 -6t12 -35v-737q0 -78 15.5 -99.5t61.5 -32t51 -22.5t-1 -29l-16 -47q-6 -10 -17.5 -13t-34.5 -3h-577q-29 0 -29 23zM180 1260 v18l246 221q45 39 90 80q55 43 102 43t82 -30.5t35 -82.5q0 -41 -31.5 -76.5t-142.5 -93.5l-299 -147q-82 8 -82 68z" />
<glyph unicode="&#xee;" horiz-adv-x="776" d="M-20 1200l321 313h172l322 -313q-12 -25 -51 -24q-14 0 -35 3t-33 5l-289 151l-288 -151q-18 -4 -35 -6t-33 -2q-39 0 -51 24zM47 23q0 10 2 16l12 39q6 16 13.5 22t58.5 16.5t51 129.5v532q0 78 -15 99.5t-59 32t-55.5 19.5t-1.5 32l19 47q4 10 14 13t27 3h432 q25 0 37 -6t12 -35v-737q0 -78 15.5 -99.5t61.5 -32t51 -22.5t-1 -29l-16 -47q-6 -10 -17.5 -13t-34.5 -3h-577q-29 0 -29 23z" />
<glyph unicode="&#xef;" horiz-adv-x="776" d="M6 1278q0 53 41 94t92 41q55 0 95 -40t40 -95q0 -53 -40 -93t-95 -40q-53 0 -93 40t-40 93zM47 23q0 10 2 16l12 39q6 16 13.5 22t58.5 16.5t51 129.5v532q0 78 -15 99.5t-59 32t-55.5 19.5t-1.5 32l19 47q4 10 14 13t27 3h432q25 0 37 -6t12 -35v-737q0 -78 15.5 -99.5 t61.5 -32t51 -22.5t-1 -29l-16 -47q-6 -10 -17.5 -13t-34.5 -3h-577q-29 0 -29 23zM502 1278q0 53 41 94t92 41q55 0 95 -40t40 -95q0 -53 -40 -93t-95 -40q-53 0 -93 40t-40 93z" />
<glyph unicode="&#xf1;" horiz-adv-x="1474" d="M47 23q0 10 2 16l12 39q6 16 13.5 22t58.5 16.5t51 129.5v532q0 78 -15 99.5t-59 32t-55.5 19.5t-1.5 32l19 47q4 10 14 13t27 3h432q25 0 37 -6t12 -35v-143q59 76 180 142.5t234 66.5q139 0 211.5 -85t72.5 -266v-452q0 -78 15.5 -99.5t61.5 -32t51 -22.5t-1 -29 l-16 -47q-6 -10 -17.5 -13t-33.5 -3h-553q-23 0 -13 39l11 39q8 25 33.5 33t39 39.5t13.5 95.5v342q0 104 -27 154.5t-86 50.5q-84 0 -130 -113t-46 -344v-90q0 -80 11 -100.5t46 -31t41 -20.5t0 -31l-14 -47q-4 -16 -25 -16h-577q-29 0 -29 23zM285 1221q23 90 94.5 160.5 t169.5 70.5q136 0 195 -51q57 -25 91 -37t87 -12t93 28.5t48 65.5q43 14 66 14q33 0 57 -26q0 -92 -83 -177.5t-197 -85.5q-78 0 -124 15.5t-102.5 54.5t-148.5 39q-43 0 -74 -27.5t-53 -64.5q-27 -10 -49 -10q-43 0 -70 43z" />
<glyph unicode="&#xf2;" horiz-adv-x="1327" d="M57 492q0 207 166 382t473 175q268 0 421 -161t153 -356q0 -211 -165 -384t-468 -173q-264 0 -422 158t-158 359zM286 1509q0 49 36 81t81 32q49 0 103 -41q59 -55 90 -82l254 -221q0 -74 -86 -94l-304 155q-111 57 -142.5 92t-31.5 78zM485 549q0 -207 56.5 -329 t128.5 -122q104 0 138 119t34 270q0 201 -49.5 320t-120.5 119q-78 0 -132.5 -92t-54.5 -285z" />
<glyph unicode="&#xf3;" horiz-adv-x="1327" d="M57 492q0 207 166 382t473 175q268 0 421 -161t153 -356q0 -211 -165 -384t-468 -173q-264 0 -422 158t-158 359zM485 549q0 -207 56.5 -329t128.5 -122q104 0 138 119t34 270q0 201 -49.5 320t-120.5 119q-78 0 -132.5 -92t-54.5 -285zM485 1260v18l246 221q45 39 90 80 q55 43 102 43t82 -30.5t35 -82.5q0 -41 -31.5 -76.5t-142.5 -93.5l-299 -147q-82 8 -82 68z" />
<glyph unicode="&#xf4;" horiz-adv-x="1327" d="M57 492q0 207 166 382t473 175q268 0 421 -161t153 -356q0 -211 -165 -384t-468 -173q-264 0 -422 158t-158 359zM254 1200l321 313h172l322 -313q-12 -25 -51 -24q-14 0 -35 3t-33 5l-289 151l-288 -151q-18 -4 -35 -6t-33 -2q-39 0 -51 24zM485 549q0 -207 56.5 -329 t128.5 -122q104 0 138 119t34 270q0 201 -49.5 320t-120.5 119q-78 0 -132.5 -92t-54.5 -285z" />
<glyph unicode="&#xf5;" horiz-adv-x="1327" d="M57 492q0 207 166 382t473 175q268 0 421 -161t153 -356q0 -211 -165 -384t-468 -173q-264 0 -422 158t-158 359zM211 1221q23 90 94.5 160.5t169.5 70.5q136 0 195 -51q57 -25 91 -37t87 -12t93 28.5t48 65.5q43 14 66 14q33 0 57 -26q0 -92 -83 -177.5t-197 -85.5 q-78 0 -124 15.5t-102.5 54.5t-148.5 39q-43 0 -74 -27.5t-53 -64.5q-27 -10 -49 -10q-43 0 -70 43zM485 549q0 -207 56.5 -329t128.5 -122q104 0 138 119t34 270q0 201 -49.5 320t-120.5 119q-78 0 -132.5 -92t-54.5 -285z" />
<glyph unicode="&#xf6;" horiz-adv-x="1327" d="M57 492q0 207 166 382t473 175q268 0 421 -161t153 -356q0 -211 -165 -384t-468 -173q-264 0 -422 158t-158 359zM281 1278q0 53 41 94t92 41q55 0 95 -40t40 -95q0 -53 -40 -93t-95 -40q-53 0 -93 40t-40 93zM485 549q0 -207 56.5 -329t128.5 -122q104 0 138 119t34 270 q0 201 -49.5 320t-120.5 119q-78 0 -132.5 -92t-54.5 -285zM777 1278q0 53 41 94t92 41q55 0 95 -40t40 -95q0 -53 -40 -93t-95 -40q-53 0 -93 40t-40 93z" />
<glyph unicode="&#xf7;" d="M129 420v196h1032v-196h-1032zM455 55q0 78 57 133.5t135 55.5q74 0 131.5 -57.5t57.5 -131.5q0 -76 -56.5 -134t-130.5 -58q-78 0 -136 56t-58 136zM455 985q0 78 57 133.5t135 55.5q74 0 131.5 -57.5t57.5 -131.5q0 -76 -56.5 -134t-130.5 -58q-78 0 -136 56t-58 136z " />
<glyph unicode="&#xf8;" horiz-adv-x="1327" d="M55 82l117 100q-115 143 -115 310q0 207 166 382t473 175q109 0 200 -30t165 -87l129 108l94 -98l-127 -102q53 -70 83 -151t30 -157q0 -211 -165 -384t-468 -173q-117 0 -206 28t-163 85l-123 -104zM485 549l7 -96l325 274q-47 199 -145 199q-78 0 -132.5 -92.5 t-54.5 -284.5zM516 297q53 -199 154 -199q104 0 138 119t34 270v31q0 12 -2 28.5t-2 22.5z" />
<glyph unicode="&#xf9;" horiz-adv-x="1402" d="M33 961l18 47q4 10 14.5 13t26.5 3h432q25 0 37 -6t12 -35v-547q0 -139 30 -179t79 -40t94 55.5t45 118.5q12 94 16.5 147.5t4.5 149.5v90q0 78 -15.5 99.5t-59.5 32t-55.5 19.5t-0.5 32l18 47q4 10 14.5 13t26.5 3h432q25 0 37 -6t12 -35v-741q0 -76 6.5 -99.5t58.5 -35 t52 -27.5q-2 -12 -2 -17l-16 -47q-2 -8 -10.5 -12t-20.5 -4h-428q-25 0 -37 6t-12 35v98l-78 -57q-61 -47 -140 -77t-149 -30q-156 0 -233.5 85t-77.5 266v452q0 78 -15.5 99.5t-59.5 32t-55 19.5t-1 32zM325 1509q0 49 36 81t81 32q49 0 103 -41q59 -55 90 -82l254 -221 q0 -74 -86 -94l-304 155q-111 57 -142.5 92t-31.5 78z" />
<glyph unicode="&#xfa;" horiz-adv-x="1402" d="M33 961l18 47q4 10 14.5 13t26.5 3h432q25 0 37 -6t12 -35v-547q0 -139 30 -179t79 -40t94 55.5t45 118.5q12 94 16.5 147.5t4.5 149.5v90q0 78 -15.5 99.5t-59.5 32t-55.5 19.5t-0.5 32l18 47q4 10 14.5 13t26.5 3h432q25 0 37 -6t12 -35v-741q0 -76 6.5 -99.5t58.5 -35 t52 -27.5q-2 -12 -2 -17l-16 -47q-2 -8 -10.5 -12t-20.5 -4h-428q-25 0 -37 6t-12 35v98l-78 -57q-61 -47 -140 -77t-149 -30q-156 0 -233.5 85t-77.5 266v452q0 78 -15.5 99.5t-59.5 32t-55 19.5t-1 32zM524 1260v18l246 221q45 39 90 80q55 43 102 43t82 -30.5t35 -82.5 q0 -41 -31.5 -76.5t-142.5 -93.5l-299 -147q-82 8 -82 68z" />
<glyph unicode="&#xfb;" horiz-adv-x="1402" d="M33 961l18 47q4 10 14.5 13t26.5 3h432q25 0 37 -6t12 -35v-547q0 -139 30 -179t79 -40t94 55.5t45 118.5q12 94 16.5 147.5t4.5 149.5v90q0 78 -15.5 99.5t-59.5 32t-55.5 19.5t-0.5 32l18 47q4 10 14.5 13t26.5 3h432q25 0 37 -6t12 -35v-741q0 -76 6.5 -99.5t58.5 -35 t52 -27.5q-2 -12 -2 -17l-16 -47q-2 -8 -10.5 -12t-20.5 -4h-428q-25 0 -37 6t-12 35v98l-78 -57q-61 -47 -140 -77t-149 -30q-156 0 -233.5 85t-77.5 266v452q0 78 -15.5 99.5t-59.5 32t-55 19.5t-1 32zM293 1200l321 313h172l322 -313q-12 -25 -51 -24q-14 0 -35 3t-33 5 l-289 151l-288 -151q-18 -4 -35 -6t-33 -2q-39 0 -51 24z" />
<glyph unicode="&#xfc;" horiz-adv-x="1402" d="M33 961l18 47q4 10 14.5 13t26.5 3h432q25 0 37 -6t12 -35v-547q0 -139 30 -179t79 -40t94 55.5t45 118.5q12 94 16.5 147.5t4.5 149.5v90q0 78 -15.5 99.5t-59.5 32t-55.5 19.5t-0.5 32l18 47q4 10 14.5 13t26.5 3h432q25 0 37 -6t12 -35v-741q0 -76 6.5 -99.5t58.5 -35 t52 -27.5q-2 -12 -2 -17l-16 -47q-2 -8 -10.5 -12t-20.5 -4h-428q-25 0 -37 6t-12 35v98l-78 -57q-61 -47 -140 -77t-149 -30q-156 0 -233.5 85t-77.5 266v452q0 78 -15.5 99.5t-59.5 32t-55 19.5t-1 32zM319 1278q0 53 41 94t92 41q55 0 95 -40t40 -95q0 -53 -40 -93 t-95 -40q-53 0 -93 40t-40 93zM815 1278q0 53 41 94t92 41q55 0 95 -40t40 -95q0 -53 -40 -93t-95 -40q-53 0 -93 40t-40 93z" />
<glyph unicode="&#xfd;" horiz-adv-x="1249" d="M10 942l19 55q8 27 39 27h587q37 0 37 -23q0 -10 -2 -16l-16 -45q-4 -12 -51.5 -42t-47.5 -73q0 -25 11 -51l147 -356l193 407q6 18 6 31q0 41 -69.5 60.5t-63.5 41.5l12 25q12 27 17.5 34t15.5 7h338q31 0 47 -9t10 -38l-10 -37q-6 -23 -37 -36t-46.5 -32.5t-31.5 -52.5 t-29 -59l-524 -1125q-35 -76 -70.5 -111.5t-99.5 -35.5h-121q-29 0 -42 5t-23 32l-25 65q-10 29 33 39l100 43q41 14 67 39t54 78l88 178l-358 793q-23 68 -49.5 94.5t-55 39.5t-42 21.5t-7.5 26.5zM446 1260v18l246 221q45 39 90 80q55 43 102 43t82 -30.5t35 -82.5 q0 -41 -31.5 -76.5t-142.5 -93.5l-299 -147q-82 8 -82 68z" />
<glyph unicode="&#xfe;" horiz-adv-x="1435" d="M23 -489q0 10 2 16l12 39q6 16 13 22t40 13.5t61.5 38t28.5 94.5v1526q0 78 -15 99t-59.5 31.5t-55.5 19.5t-1 32l19 47q4 10 14 13t27 3h432q31 0 40 -7t9 -30v-602q70 88 170 135.5t219 47.5q178 0 287.5 -141.5t109.5 -334.5q0 -252 -189.5 -425t-520.5 -173h-76v-241 q0 -72 32.5 -95.5t139.5 -44.5q37 -2 37 -26q0 -6 -6 -17l-23 -47q-12 -16 -45 -16h-674q-29 0 -28 23zM590 391q0 -147 31.5 -220t105.5 -73q100 0 160.5 122t60.5 276q0 133 -41 231t-131 98q-98 0 -142 -132t-44 -302z" />
<glyph unicode="&#xff;" horiz-adv-x="1249" d="M10 942l19 55q8 27 39 27h587q37 0 37 -23q0 -10 -2 -16l-16 -45q-4 -12 -51.5 -42t-47.5 -73q0 -25 11 -51l147 -356l193 407q6 18 6 31q0 41 -69.5 60.5t-63.5 41.5l12 25q12 27 17.5 34t15.5 7h338q31 0 47 -9t10 -38l-10 -37q-6 -23 -37 -36t-46.5 -32.5t-31.5 -52.5 t-29 -59l-524 -1125q-35 -76 -70.5 -111.5t-99.5 -35.5h-121q-29 0 -42 5t-23 32l-25 65q-10 29 33 39l100 43q41 14 67 39t54 78l88 178l-358 793q-23 68 -49.5 94.5t-55 39.5t-42 21.5t-7.5 26.5zM242 1278q0 53 41 94t92 41q55 0 95 -40t40 -95q0 -53 -40 -93t-95 -40 q-53 0 -93 40t-40 93zM738 1278q0 53 41 94t92 41q55 0 95 -40t40 -95q0 -53 -40 -93t-95 -40q-53 0 -93 40t-40 93z" />
<glyph unicode="&#x152;" horiz-adv-x="2308" d="M78 709q0 330 232.5 539.5t559.5 209.5q127 0 417 -12t325 -12h493q29 0 46.5 -14.5t13.5 -37.5v-184q-6 -14 -11 -18l-36 -31q-12 -8 -61.5 66.5t-137.5 74.5h-299v-436h473q20 0 28.5 -8t-1.5 -21l-52 -86q-27 -29 -65 -28h-383v-357q0 -129 30.5 -170t118.5 -41h166 q96 0 162 54q47 55 96 110l52 -16q12 -4 12 -19v-221q0 -23 -26.5 -37t-67.5 -14h-650q-78 0 -321.5 -12.5t-394.5 -12.5q-276 0 -497.5 199t-221.5 535zM526 631q0 -238 96.5 -388.5t264.5 -150.5q119 0 210 35t91 127v958q0 57 -94.5 95.5t-198.5 38.5q-193 0 -281 -195 t-88 -520z" />
<glyph unicode="&#x153;" horiz-adv-x="1937" d="M57 492q0 207 166 382t473 175q109 0 193 -26t158 -77q147 102 370 103q233 0 348 -123t115 -340q0 -31 -13.5 -56.5t-33.5 -25.5h-586q0 -162 55.5 -259.5t178.5 -97.5q104 0 163.5 44.5t112.5 127.5q6 10 50 -12t40 -37l-84 -184q-18 -39 -23 -47t-22 -19 q-39 -18 -116.5 -31.5t-153.5 -13.5q-238 0 -404 123q-80 -59 -179 -91t-228 -32q-264 0 -422 158t-158 359zM485 549q0 -207 56.5 -329t128.5 -122q104 0 138 119t34 270q0 201 -49.5 320t-120.5 119q-78 0 -132.5 -92t-54.5 -285zM1247 635h238q53 0 53 90q0 111 -37 160 t-88 49q-76 0 -121 -88t-45 -211z" />
<glyph unicode="&#x178;" horiz-adv-x="1517" d="M20 1366l19 47q6 20 37 21h604q31 0 22 -29l-16 -51q-2 -10 -27.5 -26.5t-37 -29t-18.5 -28t-7 -37.5q0 -27 8 -53l242 -480l284 498q23 37 23 64q0 20 -10 32.5t-35 26.5t-45.5 27.5t-11.5 31.5l18 37q8 16 27 17h374q31 0 23 -31l-10 -41q-4 -14 -32 -26.5t-54.5 -25 t-55 -47t-55.5 -87.5l-289 -521q-16 -29 -35.5 -92t-19.5 -104v-213q0 -74 24.5 -96.5t106.5 -43.5q18 -2 23.5 -14t-0.5 -29l-17 -47q-10 -16 -35 -16h-663q-29 0 -29 23q0 10 2 16l13 39q6 18 13 23t40 12.5t61.5 38t28.5 94.5v278l-320 647q-35 70 -62.5 98.5t-57 43 t-44 24t-6.5 29.5zM401 1688q0 53 41 94t92 41q55 0 95 -40t40 -95q0 -53 -40 -93t-95 -40q-53 0 -93 40t-40 93zM897 1688q0 53 41 94t92 41q55 0 95 -40t40 -95q0 -53 -40 -93t-95 -40q-53 0 -93 40t-40 93z" />
<glyph unicode="&#x2000;" horiz-adv-x="1016" />
<glyph unicode="&#x2001;" horiz-adv-x="2032" />
<glyph unicode="&#x2002;" horiz-adv-x="1016" />
<glyph unicode="&#x2003;" horiz-adv-x="2032" />
<glyph unicode="&#x2004;" horiz-adv-x="677" />
<glyph unicode="&#x2005;" horiz-adv-x="508" />
<glyph unicode="&#x2006;" horiz-adv-x="338" />
<glyph unicode="&#x2007;" horiz-adv-x="338" />
<glyph unicode="&#x2008;" horiz-adv-x="254" />
<glyph unicode="&#x2009;" horiz-adv-x="406" />
<glyph unicode="&#x200a;" horiz-adv-x="112" />
<glyph unicode="&#x2010;" horiz-adv-x="681" d="M86 393v189h510v-189h-510z" />
<glyph unicode="&#x2011;" horiz-adv-x="681" d="M86 393v189h510v-189h-510z" />
<glyph unicode="&#x2012;" horiz-adv-x="681" d="M86 393v189h510v-189h-510z" />
<glyph unicode="&#x2013;" horiz-adv-x="1024" d="M0 389v197h1024v-197h-1024z" />
<glyph unicode="&#x2014;" horiz-adv-x="2048" d="M0 389v197h2048v-197h-2048z" />
<glyph unicode="&#x2018;" horiz-adv-x="681" d="M86 977q0 76 104.5 220t227.5 292q25 16 53 16q33 0 45 -21.5t4 -47.5q-88 -90 -120.5 -170t-32.5 -160q0 -39 7 -82t13 -78q0 -53 -49 -98t-105 -45q-66 0 -106.5 53t-40.5 121z" />
<glyph unicode="&#x2019;" horiz-adv-x="681" d="M160 872q88 90 120.5 170t32.5 160q0 39 -7 81t-13 79q0 53 49 98t104 45q66 0 107 -53t41 -121q0 -76 -104.5 -220t-227.5 -292q-25 -16 -53 -16q-33 0 -45 21.5t-4 47.5z" />
<glyph unicode="&#x201a;" horiz-adv-x="681" d="M104 -276q88 90 121 169.5t33 159.5q0 39 -7 81t-13 79q0 53 49 98t104 45q66 0 107 -53t41 -121q0 -76 -104.5 -220t-227.5 -292q-25 -16 -53 -16q-33 0 -45.5 21.5t-4.5 48.5z" />
<glyph unicode="&#x201c;" horiz-adv-x="1251" d="M152 977q0 76 104 220t227 292q25 16 54 16q33 0 45 -21.5t4 -47.5q-88 -90 -121 -170t-33 -160q0 -39 7 -82t14 -78q0 -53 -49.5 -98t-104.5 -45q-66 0 -106.5 53t-40.5 121zM645 977q0 76 104.5 220t227.5 292q25 16 53 16q33 0 45 -21.5t4 -47.5q-88 -90 -120.5 -170 t-32.5 -160q0 -39 7 -82t13 -78q0 -53 -49 -98t-104 -45q-66 0 -107 53t-41 121z" />
<glyph unicode="&#x201d;" horiz-adv-x="1251" d="M170 872q88 90 121 170t33 160q0 39 -7.5 81t-13.5 79q0 53 49 98t105 45q66 0 106.5 -53t40.5 -121q0 -76 -104.5 -220t-227.5 -292q-25 -16 -53 -16q-33 0 -45 21.5t-4 47.5zM664 872q88 90 120.5 170t32.5 160q0 39 -7 81t-13 79q0 53 49 98t104 45q66 0 107 -53 t41 -121q0 -76 -104.5 -220t-227.5 -292q-25 -16 -53 -16q-33 0 -45.5 21.5t-3.5 47.5z" />
<glyph unicode="&#x201e;" horiz-adv-x="1251" d="M109 -276q88 90 120.5 169.5t32.5 159.5q0 39 -7 81t-13 79q0 53 49 98t104 45q66 0 107 -53t41 -121q0 -76 -104.5 -220t-227.5 -292q-25 -16 -53 -16q-33 0 -45.5 21.5t-3.5 48.5zM602 -276q88 90 121 169.5t33 159.5q0 39 -7.5 81t-13.5 79q0 53 49.5 98t104.5 45 q66 0 106.5 -53t40.5 -121q0 -76 -104.5 -220t-226.5 -292q-25 -16 -54 -16q-33 0 -45 21.5t-4 48.5z" />
<glyph unicode="&#x2022;" horiz-adv-x="1062" d="M172 717q0 152 103.5 255t254.5 103q150 0 254.5 -104.5t104.5 -253.5q0 -150 -104.5 -254.5t-254.5 -104.5q-152 0 -255 103.5t-103 255.5z" />
<glyph unicode="&#x2026;" horiz-adv-x="2048" d="M152 164q0 78 57 135t133 57t133 -57t57 -135q0 -76 -56 -132.5t-134 -56.5q-76 0 -133 55.5t-57 133.5zM834 164q0 78 57 135t133 57t133 -57t57 -135q0 -76 -56 -132.5t-134 -56.5q-76 0 -133 55.5t-57 133.5zM1516 164q0 78 57 135t133 57t133 -57t57 -135 q0 -76 -56 -132.5t-134 -56.5q-76 0 -133 55.5t-57 133.5z" />
<glyph unicode="&#x202f;" horiz-adv-x="406" />
<glyph unicode="&#x2039;" horiz-adv-x="606" d="M80 487l332 314q18 16 40.5 34.5t45.5 18.5q29 0 28 -39q0 -20 -62.5 -151.5t-92.5 -176.5q27 -45 84 -166.5t71 -162.5q0 -39 -34 -39q-16 0 -25.5 6t-71.5 65z" />
<glyph unicode="&#x203a;" horiz-adv-x="606" d="M80 158q0 20 62.5 151t93.5 176q-27 45 -84.5 167t-71.5 163q0 39 35 39q20 0 46.5 -25.5t49.5 -46.5l315 -297l-331 -313q-20 -18 -42 -35.5t-44 -17.5q-29 0 -29 39z" />
<glyph unicode="&#x205f;" horiz-adv-x="508" />
<glyph unicode="&#x2122;" horiz-adv-x="2426" d="M55 1358l47 61q10 14 37 15h850q35 0 27 -29l-47 -62q-10 -14 -37 -14h-234v-573q0 -43 15.5 -57.5t52.5 -23.5t25 -30l-9 -29q-6 -10 -22 -10h-449q-23 0 -16 23l8 26q4 16 23 17q27 8 45 27.5t18 56.5v573h-307q-35 0 -27 29zM1096 1395l12 28q12 10 20 11h277 q33 0 43 -6.5t29 -43.5l227 -426l260 439q16 37 51 37h330q25 0 18 -25l-8 -29q-2 -10 -13 -15t-30.5 -9t-35 -21.5t-15.5 -62.5v-516q0 -43 15.5 -57.5t52 -23.5t24.5 -30l-8 -29q-6 -10 -21 -10h-450q-23 0 -16 23l8 26q4 16 24 17q25 8 43.5 27.5t18.5 56.5v389 l-279 -514q-12 -25 -22 -25h-62q-4 0 -13 11.5t-15 25.5l-250 502l-4 -389q0 -45 15 -58.5t52 -22.5t29 -30l-12 -29q-2 -10 -21 -10h-246q-23 0 -16 23l6 26q4 16 25 17q27 8 45 27.5t18 56.5v499q-39 98 -84 109q-29 10 -22 31z" />
<glyph unicode="&#x25fc;" horiz-adv-x="1024" d="M0 0v1024h1024v-1024h-1024z" />
</font>
</defs>
</svg>
