<?xml version="1.0" standalone="no"?>
<!DOCTYPE svg PUBLIC "-//W3C//DTD SVG 1.1//EN" "http://www.w3.org/Graphics/SVG/1.1/DTD/svg11.dtd" >
<svg xmlns="http://www.w3.org/2000/svg">
<metadata></metadata>
<defs>
<font id="stoneinformal-italicregular" horiz-adv-x="1175" >
<font-face units-per-em="2048" ascent="1638" descent="-410" />
<missing-glyph horiz-adv-x="569" />
<glyph horiz-adv-x="0" />
<glyph unicode="&#xd;" horiz-adv-x="569" />
<glyph unicode=" "  horiz-adv-x="569" />
<glyph unicode="&#x09;" horiz-adv-x="569" />
<glyph unicode="&#xa0;" horiz-adv-x="569" />
<glyph unicode="!" horiz-adv-x="645" d="M96 82q0 68 41 108.5t111 40.5q53 0 81.5 -32.5t28.5 -73.5q0 -68 -41 -109t-110 -41q-53 0 -82 33t-29 74zM252 399q49 256 88 526.5t66 524.5q0 55 118 55q63 0 86 -14t13 -41q-66 -201 -148 -503t-112.5 -433t-73.5 -131q-16 0 -27.5 4t-9.5 12z" />
<glyph unicode="&#x22;" horiz-adv-x="757" d="M283 891q2 25 2 31l39 417q0 57 26.5 111.5t89.5 54.5q37 0 51.5 -19.5t14.5 -53.5q0 -20 -5 -46t-14 -47l-137 -417q-8 -33 -15 -48.5t-30 -15.5t-22 33zM584 891q2 25 2 31l39 417q0 57 26.5 111.5t89.5 54.5q37 0 51.5 -19.5t14.5 -53.5q0 -20 -5 -46t-14 -47 l-137 -417q-8 -33 -15 -48.5t-30 -15.5t-22 33z" />
<glyph unicode="#" d="M100 463l25 117h235l107 301h-223l24 116h240l156 437h120l-155 -437h272l152 437h121l-152 -437h197l-23 -116h-215l-104 -301h202l-24 -117h-221l-158 -463h-123l160 463h-273l-164 -463h-120l161 463h-217zM481 580h273l106 301h-270z" />
<glyph unicode="$" d="M123 70q0 6 4 30l35 203q2 16 6 36.5t16 25.5l52 18q14 4 25 -71.5t22 -100.5q10 -43 41.5 -70.5t76.5 -40.5l177 609q-86 111 -170 221q-72 104 -72 209q0 141 121 230t327 89l31 -2l21 72l110 -12l-20 -70q20 -4 44.5 -12.5t74 -30t36.5 -64.5l-28 -155q-2 -4 -15 -23 l-47 -37q-10 8 -16 14.5t-37 106.5q-12 49 -49 80l-160 -506q125 -131 177 -252t52 -202q0 -143 -122.5 -266.5t-358.5 -123.5h-8l-47 -147l-98 16l41 136q-51 0 -80 7t-79 25.5t-66.5 29.5t-16.5 28zM502 82q133 0 193.5 85t60.5 165q0 63 -24.5 124.5t-76.5 145.5z M539 1167q0 -61 25.5 -117.5t86.5 -131.5l135 444l-36 4q-90 0 -150.5 -53t-60.5 -146z" />
<glyph unicode="%" horiz-adv-x="1857" d="M178 918q0 180 118 360t308 180q145 0 201.5 -106.5t56.5 -208.5q0 -215 -122 -394.5t-304 -179.5q-117 0 -187.5 83.5t-70.5 265.5zM340 879q0 -86 24.5 -146.5t92.5 -60.5q117 0 180 174t63 315q0 76 -26.5 135.5t-93.5 59.5q-104 0 -172 -148.5t-68 -328.5zM344 0 l1102 1434h149l-1099 -1434h-152zM1085 324q0 180 118 360t308 180q145 0 201.5 -106.5t56.5 -208.5q0 -215 -121.5 -394.5t-304.5 -179.5q-117 0 -187.5 83.5t-70.5 265.5zM1247 285q0 -86 24.5 -146.5t92.5 -60.5q117 0 180.5 174t63.5 315q0 76 -27 135.5t-94 59.5 q-104 0 -172 -148.5t-68 -328.5z" />
<glyph unicode="&#x26;" horiz-adv-x="1554" d="M141 373q0 162 115 272.5t295 151.5q-98 141 -120.5 194t-22.5 129q0 156 112.5 247t292.5 91q53 0 110.5 -10t107.5 -36t44 -56l-26 -144l-15 -18l-47 -31q-12 -8 -16 8l-21 76q-18 68 -63 95.5t-109 27.5q-78 0 -133 -53t-55 -148q0 -45 28.5 -121.5t116.5 -189.5 l346 -450q41 72 68 163t27 174q0 86 -31 125h-178q-35 0 -35 15q0 10 14 24l43 43q16 14 33.5 18.5t40.5 4.5h541q33 0 32 -14q0 -10 -14 -25l-43 -43q-14 -14 -31.5 -18.5t-42.5 -4.5h-223q6 -29 6 -65q0 -100 -37 -230.5t-106 -238.5l180 -199q4 -6 38 -40t32 -46l-9 -47 h-157q-53 0 -92 47l-107 137q-80 -94 -196.5 -153.5t-258.5 -59.5q-225 0 -329.5 122t-104.5 276zM346 385q0 -127 77 -215t224 -88q90 0 180.5 55.5t141.5 128.5l-359 459q-127 -35 -195.5 -131t-68.5 -209z" />
<glyph unicode="'" horiz-adv-x="569" d="M338 891q2 25 2 31l39 417q0 57 26.5 111.5t90.5 54.5q37 0 51 -19.5t14 -53.5q0 -20 -5 -46t-13 -47l-137 -417q-8 -33 -15.5 -48.5t-30.5 -15.5t-22 33z" />
<glyph unicode="(" horiz-adv-x="681" d="M133 289q0 412 207 725t508 487q12 8 20.5 3t8.5 -15q0 -14 -100.5 -68.5t-228.5 -281t-191.5 -490.5t-63.5 -461q0 -162 41 -308t149 -247q14 -12 -4 -30.5t-33 -5.5q-156 135 -234.5 321t-78.5 371z" />
<glyph unicode=")" horiz-adv-x="681" d="M-139 -391q0 14 100 68.5t228 280.5t191.5 490.5t63.5 460.5q0 162 -41 308.5t-149 246.5q-14 12 4 30.5t33 6.5q156 -135 234.5 -321.5t78.5 -370.5q0 -412 -207 -725t-508 -487q-12 -8 -20 -3t-8 15z" />
<glyph unicode="*" horiz-adv-x="1024" d="M262 1114l66 160l239 -107l-2 267l193 -9l-60 -258l252 95l45 -148l-282 -72l180 -198l-168 -103l-127 230l-168 -234l-139 107l209 198z" />
<glyph unicode="+" horiz-adv-x="1251" d="M111 451v135h448v450h135v-450h449v-135h-449v-451h-135v451h-448z" />
<glyph unicode="," horiz-adv-x="569" d="M-25 -299q0 10 51.5 60.5t89.5 133t47 188t53 145.5t106 40q23 0 43 -47t20 -94q0 -18 -6 -48t-144.5 -195.5t-199.5 -235.5q-18 -20 -39 8.5t-21 44.5z" />
<glyph unicode="-" horiz-adv-x="681" d="M74 403l35 168h509l-34 -168h-510z" />
<glyph unicode="." horiz-adv-x="569" d="M131 90q0 68 45 109t117 41q49 0 77.5 -33t28.5 -80q0 -66 -41 -109t-112 -43q-59 0 -87 35t-28 80z" />
<glyph unicode="/" horiz-adv-x="681" d="M-109 -221l875 1726h129l-872 -1726h-132z" />
<glyph unicode="0" d="M94 516q0 369 201 655.5t493 286.5q176 0 282 -136t106 -364q0 -340 -195 -661.5t-479 -321.5q-211 0 -309.5 157t-98.5 384zM295 424q0 -162 51 -255t170 -93q145 0 247.5 174t157 403.5t54.5 354.5q0 186 -57.5 268t-149.5 82q-221 0 -347 -328t-126 -606z" />
<glyph unicode="1" d="M209 25l27 36q6 10 75.5 21.5t91 23t48 37t32.5 60.5l185 973q0 63 -43 63q-20 0 -63.5 -16.5t-84.5 -32.5l-43 -14q-25 -6 -26 18l-7 45q-4 33 25 45l475 174l-233 -1255q-2 -8 -2 -25q0 -33 13 -46t29.5 -24.5t145.5 -29.5q12 -10 27 -21l-37 -41q-6 -8 -23.5 -12 t-36.5 -4h-24h-473h-37q-16 0 -35.5 2t-5.5 23z" />
<glyph unicode="2" d="M31 0l24 133q178 156 359 313q203 193 311.5 336.5t138 223t29.5 139.5q0 88 -50 132t-118 44q-115 0 -169 -46t-107 -124l-60 -90q-14 -20 -24 -10l-31 34l-8 23l32 170q4 25 32 45t72 50t120.5 57.5t173.5 27.5q172 0 263 -85t91 -214q0 -98 -52 -196.5t-147.5 -203 t-251.5 -249.5l-360 -346h420q66 0 158 115.5t96 113.5l47 -31q16 -10 4 -32l-141 -279q-14 -29 -45 -40t-78 -11h-729z" />
<glyph unicode="3" d="M117 219q-2 20 14 35l43 27q14 12 24.5 16t14.5 -6l80 -123q23 -39 75 -62.5t121 -23.5q117 0 205 92t88 234q0 145 -110.5 208.5t-239.5 63.5l17 98q176 27 296.5 126.5t120.5 252.5q0 82 -50 132t-120 50q-88 0 -147.5 -35.5t-102.5 -103.5l-36 -59q-6 -10 -12.5 -12.5 t-8.5 -2.5l-53 17q-12 4 -8 18l37 129q4 23 40.5 50.5t70.5 49t104.5 45t154.5 23.5q182 0 260 -88t78 -194q0 -143 -115.5 -257t-277.5 -167q145 -18 230 -112.5t85 -225.5q0 -199 -158.5 -319t-371.5 -120q-94 0 -186.5 30t-124.5 56z" />
<glyph unicode="4" d="M123 504l799 930h116l-164 -873h123q33 0 49.5 -6t4.5 -25l-70 -112h-135l-39 -215q-2 -8 -2 -25q0 -27 8 -41t25.5 -27.5t119.5 -31.5q10 -10 23 -21l-31 -41q-12 -16 -49 -16h-20h-449h-37q-45 0 -45 12q4 8 6 13l25 36q6 10 75.5 21.5t92 23t49.5 37t33 60.5l39 215 h-467q-31 0 -45.5 3t-16.5 13zM324 561h372l105 569l-4 5q-203 -233 -298.5 -350t-174.5 -224z" />
<glyph unicode="5" d="M96 250q-4 29 10 45l44 43q10 14 19 17t13 -9l88 -160q25 -47 83.5 -77.5t144.5 -30.5q133 0 224 103.5t91 240.5q0 145 -115.5 261t-369.5 116l293 635h493q25 0 41 -5.5t16 -17.5q0 -4 -4 -12l-84 -137h-405l-143 -316q283 -35 389 -182.5t106 -304.5 q0 -176 -157.5 -330t-409.5 -154q-92 0 -192.5 36t-143.5 75z" />
<glyph unicode="6" d="M156 451q0 332 297 669.5t692 337.5q2 -6 2 -22q0 -10 -8 -25l-52 -88q-182 0 -373.5 -162t-269.5 -358l5 -4q35 39 108.5 68.5t151.5 29.5q170 0 255 -108.5t85 -299.5q0 -215 -130.5 -364.5t-340.5 -149.5q-213 0 -317.5 139.5t-104.5 336.5zM340 379 q0 -106 61.5 -201.5t178.5 -95.5q125 0 199.5 105.5t74.5 273.5q0 137 -53 225t-183 88q-96 0 -187 -97t-91 -298z" />
<glyph unicode="7" d="M162 0q184 276 313 471t271.5 422t228.5 387h-359q-76 0 -138 -77t-72 -66l-27 24q-6 14 -4 29l35 199q6 27 19 36t44 9h727l-18 -95q-53 -94 -145.5 -244.5t-348.5 -563t-328 -531.5h-198z" />
<glyph unicode="8" d="M152 328q0 172 94 269t246 185q-88 84 -131.5 143.5t-43.5 151.5q0 168 132.5 274.5t308.5 106.5q150 0 255 -74.5t105 -222.5q0 -121 -97 -219t-222 -160q109 -76 181.5 -161.5t72.5 -202.5q0 -184 -136.5 -313.5t-361.5 -129.5q-186 0 -294.5 111t-108.5 242zM340 356 q0 -113 66.5 -191.5t189.5 -78.5q94 0 178 76t84 205q0 98 -76.5 187t-203.5 146q-100 -59 -169 -146t-69 -198zM516 1130q0 -76 50 -154.5t122 -115.5q113 51 185.5 123t72.5 174q0 80 -54 132t-140 52q-96 0 -166 -59t-70 -152z" />
<glyph unicode="9" d="M125 -2q0 10 8 25l51 88q182 0 374 161.5t269 358.5l-4 4q-63 -47 -117.5 -72.5t-142.5 -25.5q-158 0 -249 113.5t-91 299.5q0 193 138.5 350.5t353.5 157.5q201 0 301 -129t100 -319q0 -344 -285.5 -689.5t-637.5 -345.5q-68 0 -68 23zM418 973q0 -117 54 -215.5 t181 -98.5q96 0 187.5 97.5t91.5 298.5q0 106 -61.5 201.5t-176.5 95.5q-102 0 -189 -98.5t-87 -280.5z" />
<glyph unicode=":" horiz-adv-x="569" d="M82 90q0 68 45 109t117 41q49 0 77.5 -33t28.5 -80q0 -66 -41 -109t-112 -43q-59 0 -87 35t-28 80zM240 836q0 68 44.5 108.5t116.5 40.5q49 0 78 -32.5t29 -80.5q0 -66 -41 -108.5t-113 -42.5q-59 0 -86.5 35t-27.5 80z" />
<glyph unicode=";" horiz-adv-x="569" d="M-76 -303q0 10 51.5 60t89 133t47 188.5t53.5 145.5t105 40q23 0 43.5 -47t20.5 -94q0 -18 -6 -48t-144.5 -195.5t-199.5 -235.5q-18 -20 -39 8.5t-21 44.5zM246 803q0 68 45 108.5t117 40.5q49 0 77.5 -32.5t28.5 -79.5q0 -66 -41 -109t-113 -43q-59 0 -86.5 35 t-27.5 80z" />
<glyph unicode="&#x3c;" horiz-adv-x="1251" d="M104 463v110l1043 480v-129l-871 -406l871 -405v-129z" />
<glyph unicode="=" horiz-adv-x="1251" d="M111 252v135h1032v-135h-1032zM111 649v135h1032v-135h-1032z" />
<glyph unicode="&#x3e;" horiz-adv-x="1251" d="M104 -16v129l871 405l-871 406v129l1043 -480v-110z" />
<glyph unicode="?" horiz-adv-x="948" d="M123 82q0 68 41 108.5t110 40.5q53 0 82 -32.5t29 -73.5q0 -68 -41 -109t-108 -41q-55 0 -84 33t-29 74zM221 1296q-12 8 2 27l96 131q27 14 118 32.5t143 18.5q176 0 268 -83t92 -201q0 -162 -78 -244t-228.5 -189.5t-190.5 -174t-72 -207.5h-131q31 131 83 217 t163.5 200.5t171 190.5t59.5 211q0 82 -29 131t-110 49q-47 0 -85 -13.5t-67 -39.5l-117 -92q-16 -16 -28 -7z" />
<glyph unicode="@" horiz-adv-x="1554" d="M147 565q0 182 74 345t203 288t289.5 192.5t335.5 67.5q276 0 409 -148.5t133 -346.5q0 -272 -155.5 -468t-333.5 -196q-80 0 -128 44t-48 99q0 12 2 19l-4 4q-25 -49 -105 -96t-143 -47q-76 0 -126 65.5t-50 177.5q0 184 149.5 356.5t313.5 172.5q66 0 108.5 -33 t52.5 -80l39 86h140l-232 -555q-6 -12 -6 -33q0 -33 19.5 -55.5t68.5 -22.5q92 0 193.5 174.5t101.5 370.5q0 119 -87 253t-345 134q-113 0 -237 -53t-230.5 -154.5t-176 -248t-69.5 -320.5q0 -193 111.5 -329t349.5 -136q119 0 209 25.5t178 70.5l33 -98 q-123 -51 -233.5 -83t-211.5 -32q-336 0 -464 182.5t-128 407.5zM672 569q0 -41 26.5 -73.5t63.5 -32.5t83 26.5t93 94.5q53 86 84 155.5t31 137.5q0 43 -20.5 68.5t-55.5 25.5q-115 0 -210 -124t-95 -278z" />
<glyph unicode="A" horiz-adv-x="1290" d="M-78 16q0 8 8 19l17 26q8 18 61 33t78 35.5t66 89.5l520 946q24 41 24 73q0 26 -14 44t-22.5 29.5t-50.5 25t-42 27.5q0 8 8 18l15 29q12 23 49 23h270q16 0 25.5 -17.5t9.5 -42.5q27 -205 56.5 -396.5t64.5 -387t58.5 -326.5t56.5 -147q38 -11 72 -23q26 -9 25 -23 q0 -5 -3 -10l-29 -45q-6 -10 -17 -13t-30 -3h-371q-25 0 -24 12q0 6 6 17l25 37q37 18 72.5 34.5t35.5 71.5q0 16 -2 27l-35 231h-514l-139 -252q-12 -23 -12 -37q0 -27 45 -47t30 -41l-16 -22q-8 -10 -17.5 -20.5t-25.5 -10.5h-276q-27 0 -42.5 3t-15.5 13zM449 543h438 l-94 639z" />
<glyph unicode="B" horiz-adv-x="1214" d="M168 92q0 12 4 41l203 1084q4 25 4 34q0 72 -59.5 84.5t-67.5 18.5t2 20l20 37q12 23 35 23h473q174 0 268.5 -72t94.5 -205q0 -145 -99.5 -240.5t-218.5 -119.5q125 -20 199 -115.5t74 -235.5q0 -174 -138.5 -322.5t-420.5 -148.5q-106 0 -189.5 11.5t-133.5 32 t-50 73.5zM375 205q0 -74 50 -104.5t144 -30.5q172 0 249 131t77 241q0 111 -71.5 196t-211.5 85h-145l-86 -467q-6 -29 -6 -51zM485 817h129q121 0 225.5 89t104.5 233q0 98 -61.5 151t-173.5 53h-125z" />
<glyph unicode="C" horiz-adv-x="1366" d="M131 610q0 317 225.5 582.5t638.5 265.5q147 0 249 -31.5t137.5 -54t36.5 -30.5v-7q0 -8 -1 -20l-28 -144q-8 -14 -13 -18l-39 -31q-23 82 -108.5 162t-257.5 80q-305 0 -472 -232.5t-167 -496.5q0 -231 133 -392t344 -161q84 0 175 34t171 105q14 14 43 -9.5t14 -43.5 l-71 -102q-10 -12 -20.5 -23.5t-37 -25t-108.5 -28t-176 -14.5q-338 0 -503 187.5t-165 447.5z" />
<glyph unicode="D" horiz-adv-x="1478" d="M168 92q0 12 4 41l201 1084q4 25 4 34q0 72 -59.5 84.5t-67.5 18.5t2 20l22 37q12 23 35 23h570q326 0 447.5 -162t121.5 -416q0 -348 -220 -614.5t-634 -266.5q-133 0 -229.5 11.5t-146.5 32t-50 73.5zM385 246q0 -90 65.5 -133t184.5 -43q258 0 435 190.5t177 587.5 q0 217 -102.5 356t-313.5 139h-243l-197 -1040q-6 -31 -6 -57z" />
<glyph unicode="E" horiz-adv-x="1099" d="M168 70v41q6 23 8 32l201 1074q4 25 4 34q0 72 -59.5 84.5t-67.5 18.5t2 20l20 37q12 23 35 23h729q45 0 45 -39q0 -10 -2 -17l-26 -147l-13 -19l-40 -30q-23 35 -43 69q-37 90 -109 90h-264l-96 -507h426q23 0 22 -15q0 -6 -6 -16l-35 -53q-18 -29 -63 -29h-367 l-78 -420q-12 -68 -12 -111q0 -57 24.5 -77.5t83.5 -20.5h179q86 0 155 60q53 61 109 122l45 -18q12 -2 8 -18l-35 -185q-10 -53 -94 -53h-618q-37 0 -52.5 9t-15.5 61z" />
<glyph unicode="F" horiz-adv-x="1024" d="M37 33l16 33q10 18 41 26q41 6 73 33t42 78l190 1014q4 25 4 34q0 72 -60 84.5t-67.5 18.5t0.5 20l23 37q12 23 35 23h727q45 0 45 -39q0 -10 -2 -17l-27 -147l-12 -19l-39 -30q-23 35 -43 69q-37 90 -109 90h-268l-110 -585h426q25 0 24 -15q0 -6 -6 -16l-33 -53 q-18 -29 -63 -29h-369l-80 -440q-6 -25 -6 -41q0 -31 22.5 -45.5t80.5 -28.5q20 -2 20 -16q0 -8 -6 -19l-23 -37q-12 -16 -34 -16h-394q-24 0 -24 15q0 7 6 18z" />
<glyph unicode="G" horiz-adv-x="1441" d="M131 610q0 317 225.5 582.5t638.5 265.5q147 0 249 -31.5t137.5 -54t36.5 -30.5v-7q0 -8 -1 -20l-26 -144q-8 -14 -13 -18l-41 -31q-23 82 -108.5 162t-257.5 80q-305 0 -472 -232.5t-167 -496.5q0 -225 124 -387t306 -162t284.5 110.5t102.5 221.5q0 35 -8 60.5 t-21 37.5q-16 23 -65 38q-38 12 -38 31q0 5 3 11l20 31q12 18 58 18h229q35 0 35 -31v-22l-90 -479q-10 -55 -24.5 -83t-45.5 -28h-94q-23 0 -23 33q0 12 2.5 25.5t4.5 27.5l10 51l-4 4q-45 -68 -150.5 -118t-193.5 -50q-307 0 -465 199t-158 436z" />
<glyph unicode="H" horiz-adv-x="1554" d="M37 33l16 33q10 18 41 26q43 6 75 33t42 78l190 1028q4 33 5 39q0 35 -20.5 48t-80.5 28q-20 2 -20 16q0 8 6 18l22 37q10 16 33 17h395q25 0 25 -17q0 -6 -6 -16l-17 -33q-10 -18 -41 -27q-41 -6 -72.5 -32.5t-41.5 -77.5l-72 -377h670l69 377q4 33 5 39q0 35 -20.5 48 t-80.5 28q-20 2 -20 16q0 8 6 18l22 37q10 16 35 17h393q25 0 25 -17q0 -6 -6 -16l-17 -33q-10 -18 -41 -27q-41 -6 -72.5 -32.5t-43.5 -77.5l-191 -1028q-4 -33 -4 -39q0 -35 20.5 -48.5t80.5 -27.5q20 -2 20 -16q0 -8 -6 -19l-23 -37q-10 -16 -32 -16h-396q-25 0 -24 16 q0 6 6 17l16 33q10 18 41 26q41 6 74 33t43 78l98 538h-667l-101 -538q-4 -29 -4 -37q0 -35 22.5 -49.5t80.5 -28.5q20 -2 20 -16q0 -8 -6 -19l-25 -37q-10 -16 -34 -16h-394q-24 0 -24 15q0 7 6 18z" />
<glyph unicode="I" horiz-adv-x="681" d="M29 33l16 33q10 18 41 26q41 6 72.5 33t42.5 78l192 1028q4 29 4 37q0 35 -22.5 49t-79.5 29q-20 2 -21 16q0 8 7 18l24 37q10 16 33 17h393q25 0 25 -17q0 -6 -6 -16l-17 -33q-12 -18 -41 -27q-41 -6 -72.5 -32.5t-41.5 -77.5l-191 -1028q-6 -25 -6 -41 q0 -31 22.5 -45.5t79.5 -28.5q20 -2 21 -16q0 -8 -6 -19l-23 -37q-12 -16 -37 -16h-391q-24 0 -24 15q0 7 6 18z" />
<glyph unicode="J" horiz-adv-x="681" d="M-20 -391l18 88q25 6 57.5 34.5t52 59.5t40 93.5t32.5 125.5l230 1221q4 29 4 37q0 35 -22.5 49t-80.5 29q-20 2 -20 16q0 8 6 18l25 37q10 16 32 17h396q22 0 22 -16q0 -7 -6 -17l-16 -33q-10 -18 -39 -27q-43 -6 -75 -32.5t-42 -77.5l-219 -1176q-45 -240 -155.5 -343 t-239.5 -103z" />
<glyph unicode="K" horiz-adv-x="1214" d="M37 33l16 33q10 18 41 26q41 6 73 33t42 78l192 1028q4 29 5 37q0 35 -23 49t-80 29q-20 2 -20 16q0 8 6 18l24 37q10 16 33 17h393q25 0 25 -17q0 -6 -6 -16l-17 -33q-12 -18 -41 -27q-41 -6 -72.5 -32.5t-41.5 -77.5l-86 -455l4 -4l612 662h201l-8 -48 q-4 -25 -96.5 -70.5t-161.5 -117.5l-387 -397q63 -106 159.5 -268t156.5 -258.5t76.5 -120t49.5 -58.5t31 -45l-9 -51h-157q-59 0 -91 46t-77 124l-309 551l-99 -518q-6 -25 -6 -41q0 -31 22.5 -45.5t80.5 -28.5q20 -2 20 -16q0 -8 -6 -19l-23 -37q-12 -16 -37 -16h-391 q-24 0 -24 15q0 7 6 18z" />
<glyph unicode="L" horiz-adv-x="1062" d="M37 33l16 33q10 18 41 26q41 6 73 33t42 78l192 1028q4 29 5 37q0 35 -23 49t-80 29q-20 2 -20 16q0 8 6 18l24 37q10 16 33 17h393q25 0 25 -17q0 -6 -6 -16l-17 -33q-12 -18 -41 -27q-41 -6 -72.5 -32.5t-41.5 -77.5l-172 -930q-12 -72 -13 -113q0 -57 24 -76.5 t83 -19.5h180q86 0 154 60l110 122l45 -18q10 -2 10 -12q0 -3 -1 -6l-35 -185q-12 -53 -97 -53h-819q-24 0 -24 15q0 7 6 18z" />
<glyph unicode="M" horiz-adv-x="1781" d="M37 33l16 33q8 18 41 26q41 6 73 33t42 78l192 1028q-29 45 -70.5 74.5t-69.5 36t-33 15.5t3 23l23 39q14 14 35 15h246q47 0 62 -13.5t28 -68.5l249 -1069l676 1085q25 39 45.5 52.5t46.5 13.5h218q26 0 26 -16v-1q0 -6 -6 -18l-18 -35q-4 -10 -13.5 -16.5t-47.5 -15.5 t-66.5 -32.5t-38.5 -80.5l-191 -1016q-4 -33 -4 -39q0 -53 103 -76q18 -2 18 -16q0 -8 -6 -19l-21 -37q-12 -16 -36 -16h-394q-23 0 -22 14q0 6 6 19l16 33q8 16 39 26q43 8 75 34t40 77l166 878l-4 4l-645 -1040q-12 -18 -23.5 -31.5t-19.5 -13.5h-33q-14 0 -29 66 l-239 1017l-168 -880q-4 -29 -5 -37q0 -35 23 -50.5t61.5 -22.5t38.5 -21q0 -8 -6 -19l-22 -37q-12 -16 -35 -16h-324q-24 0 -24 13q0 7 6 20z" />
<glyph unicode="N" horiz-adv-x="1554" d="M43 16q0 6 6 17l19 33q8 16 38 26q43 6 75 33t42 78l193 1028q-31 47 -72 75.5t-72.5 36t-31.5 23.5q0 4 6 14l22 39q10 14 35 15h223q31 -2 47.5 -20.5t40.5 -63.5l572 -1051l174 932q4 33 4 39q0 35 -20.5 48t-79.5 28q-20 2 -21 16q0 8 6 18l23 37q10 16 33 17h325 q25 0 25 -17q0 -6 -6 -16l-19 -33q-8 -18 -39 -27q-41 -6 -73.5 -33.5t-40.5 -76.5l-220 -1165q-6 -35 -16 -50.5t-37 -15.5h-61q-6 0 -16.5 12.5t-47.5 79.5l-565 1028l-176 -917q-4 -29 -4 -37q0 -37 20.5 -50.5t81.5 -27.5q20 -2 21 -16q0 -8 -6 -19l-23 -37 q-12 -16 -35 -16h-325q-25 0 -25 16z" />
<glyph unicode="O" horiz-adv-x="1517" d="M131 592q0 381 238.5 623.5t578.5 242.5q244 0 396.5 -144t152.5 -427q0 -344 -140 -548t-312.5 -284t-290.5 -80q-150 0 -279 35t-236.5 171t-107.5 411zM332 580q0 -213 105.5 -359.5t287.5 -146.5q276 0 423.5 246.5t147.5 566.5q0 219 -95 348t-298 129 q-254 0 -412.5 -232.5t-158.5 -551.5z" />
<glyph unicode="P" horiz-adv-x="1138" d="M37 33l16 33q10 18 41 26q43 6 75 33t42 78l188 1014q4 25 4 34q0 72 -60 84.5t-67.5 18.5t0.5 20l25 37q12 23 33 23h444q195 0 294 -89.5t99 -252.5q0 -233 -166.5 -356.5t-367.5 -123.5q-33 0 -49 2l-17 50q-10 25 23 24q160 0 268.5 100.5t108.5 274.5 q0 123 -55.5 195.5t-174.5 72.5h-135l-211 -1128q-4 -29 -4 -37q0 -35 22.5 -49.5t80.5 -28.5q20 -2 20 -16q0 -8 -6 -19l-25 -37q-10 -16 -34 -16h-394q-24 0 -24 15q0 7 6 18z" />
<glyph unicode="Q" horiz-adv-x="1517" d="M131 592q0 381 238.5 623.5t578.5 242.5q244 0 396.5 -144t152.5 -427q0 -266 -127 -513t-426 -360q102 -63 282.5 -142t325.5 -126l-4 -39l-149 -45q-31 -10 -47 -10q-23 0 -64 22l-512 301q-262 0 -453.5 114t-191.5 503zM332 580q0 -213 105.5 -359.5t287.5 -146.5 q276 0 423.5 246.5t147.5 566.5q0 219 -95 348t-298 129q-254 0 -412.5 -232.5t-158.5 -551.5z" />
<glyph unicode="R" d="M37 33l16 33q8 18 45 26t69 34t40 77l192 1014q4 25 4 34q0 72 -60 84.5t-69.5 16.5t2.5 22l23 37q12 23 35 23h471q176 0 259 -93.5t83 -238.5q0 -141 -98.5 -264t-235.5 -174q92 -236 182 -404t142 -201v-59h-187q-33 0 -47 17.5t-29 56.5l-225 561h-174l-82 -432 q-4 -29 -4 -37q0 -37 20.5 -50.5t82.5 -27.5q18 -2 18 -16q0 -8 -6 -19l-21 -37q-12 -16 -34 -16h-394q-24 0 -24 13q0 7 6 20zM494 729h127q141 0 236 109.5t95 263.5q0 109 -48 175t-154 66h-144z" />
<glyph unicode="S" horiz-adv-x="985" d="M41 70q0 6 4 30l35 203q2 16 6 36.5t16 25.5l52 18h1q13 1 24 -71q11 -76 22 -101q14 -61 77.5 -95t141.5 -34q133 0 194.5 85t61.5 165q0 96 -55.5 187t-165 219t-155.5 220.5t-46 180.5q0 141 121 230t327 89q84 0 134 -9q52 -9 114 -38q52 -24 51 -58q0 -7 -2 -14 l-28 -155q-2 -4 -15 -23l-47 -37q-10 8 -16 14.5t-37 106.5q-14 61 -65.5 91t-122.5 30q-90 0 -151.5 -51t-61.5 -131q0 -111 89 -220.5t161 -193.5q111 -143 141.5 -224t30.5 -181q0 -143 -123 -266.5t-359 -123.5q-100 0 -159.5 9.5t-110.5 28t-67.5 29.5t-16.5 28z" />
<glyph unicode="T" horiz-adv-x="1167" d="M190 1346q0 8 13 24l71 96q8 14 18 26q6 8 13 7q4 0 8 -2l27 -18q27 -18 79 -31.5t120 -13.5h751q33 0 33 -19q0 -10 -14 -24l-45 -45q-16 -14 -33 -19.5t-43 -5.5h-350l-209 -1118q-4 -33 -4 -39q0 -35 20.5 -48.5t79.5 -27.5q20 -2 20 -16q0 -8 -6 -19l-22 -37 q-12 -16 -35 -16h-393q-25 0 -25 16q0 6 6 17l19 33q8 18 39 26q41 6 72.5 33t41.5 78l211 1118h-405q-57 0 -58 25z" />
<glyph unicode="U" horiz-adv-x="1413" d="M223 387q0 49 4 92t17 105l121 647q4 29 4 37q0 35 -22.5 50t-61.5 22.5t-39 21.5q0 8 6 18l22 37q12 16 35 17h391q25 0 25 -15q0 -6 -6 -18l-17 -33q-10 -18 -45.5 -26.5t-67.5 -34t-40 -76.5l-129 -678q-12 -74 -12 -135q0 -147 70.5 -223t193.5 -76q154 0 259 107.5 t150 346.5l125 658q4 29 4 37q0 37 -20.5 50t-81.5 28q-20 2 -21 16q0 8 7 18l22 37q12 16 35 17h324q24 0 24 -16q0 -7 -6 -17l-18 -33q-8 -16 -39 -27q-43 -8 -75 -33.5t-40 -76.5l-125 -664q-57 -311 -204.5 -451.5t-358.5 -140.5q-207 0 -308.5 105.5t-101.5 306.5z" />
<glyph unicode="V" horiz-adv-x="1300" d="M190 1374l23 37q14 23 51 23h361q39 0 22 -33l-24 -37q-6 -10 -59.5 -38t-53.5 -77q0 -14 2 -22l145 -912l500 918q18 31 19 57q0 33 -43 51.5t-31 36.5l22 31q12 14 17.5 19.5t17.5 5.5h260h25q31 0 31 -13q0 -4 -7 -14l-16 -33q-8 -14 -44 -31.5t-56.5 -30t-44 -44 t-54.5 -86.5l-606 -1102q-18 -33 -34.5 -56.5t-30.5 -23.5h-39q-18 0 -24.5 30.5t-8.5 51.5l-193 1135q-12 70 -29 88q-18 17 -65 31q-36 10 -36 28q0 4 3 10z" />
<glyph unicode="W" horiz-adv-x="1933" d="M164 1380l20 37q10 16 35 17h330q14 0 21.5 -7.5t-1.5 -19.5l-24 -43q-8 -14 -52 -37.5t-44 -75.5q0 -16 2 -24l88 -922l524 1051q41 78 63 78h54q10 0 12 -32t4 -50l96 -1051l455 940q18 43 18 59q0 23 -22.5 36.5t-37.5 23.5t-7 22l22 29q14 23 31 23h279q25 0 35 -4 q5 -2 5 -7t-4 -12l-24 -47q-4 -8 -19.5 -14.5t-60.5 -19.5t-100 -113l-553 -1135q-18 -39 -36 -60.5t-40 -21.5h-45q-18 0 -32.5 26.5t-18.5 55.5l-88 987l-494 -987q-20 -43 -35.5 -62.5t-40.5 -19.5h-45q-18 0 -31.5 24.5t-17.5 57.5l-125 1135q-10 66 -23.5 87t-36 32.5 t-34.5 20.5q-7 5 -7 11t5 12z" />
<glyph unicode="X" horiz-adv-x="1402" d="M-10 27l20 45q8 12 26.5 16t42 11t54.5 31t62 63l452 557l-188 471q-27 63 -52.5 84.5t-64.5 25.5q-33 7 -33 26q0 8 6 19l27 41q10 16 35 17h411q27 0 27 -15q0 -6 -6 -12l-21 -31q-8 -16 -34.5 -26.5t-53.5 -20.5q-35 -18 -48 -30.5t-13 -36.5q0 -16 8 -39l135 -332 l285 340q35 45 35 76q0 18 -19.5 28.5t-38 22.5t-8.5 24l23 33q8 18 26 19h295q21 0 21 -12q0 -4 -2 -9l-21 -43q-6 -8 -20.5 -14t-39 -16.5t-48 -32t-72.5 -78.5l-377 -455l234 -555q27 -63 60.5 -85.5t75.5 -28t52 -11.5t-2 -24l-33 -52q-12 -18 -51 -18h-395 q-25 0 -25 14q0 8 8 23l15 31q4 6 25.5 15t51 23.5t29.5 57.5q0 18 -10 49l-164 428l-338 -424q-27 -33 -42 -60.5t-15 -45.5t17.5 -24.5t33.5 -10.5q14 -8 4 -25l-18 -24q-16 -27 -33 -27h-283q-16 0 -26 5q-6 3 -6 9q0 5 4 13z" />
<glyph unicode="Y" horiz-adv-x="1126" d="M194 1356q-4 4 -4 8q0 5 5 12l22 39q10 18 35 19h344q31 0 16 -27l-22 -41q-4 -8 -27.5 -19.5t-40 -24.5t-25 -28.5t-8.5 -48.5v-18l125 -531l367 541q23 31 23 53q0 14 -7.5 24.5t-25 22t-37.5 25.5q-6 8 2 20l22 33q10 14 23 15h283q22 0 22 -12q0 -5 -6 -15l-16 -35 q-6 -12 -25.5 -21.5t-42 -17.5t-52.5 -33.5t-67 -78.5l-385 -564q-39 -59 -48 -97t-21 -97l-48 -256q-4 -33 -4 -39q0 -53 103 -76q18 -2 18 -16q0 -8 -6 -19l-20 -37q-12 -16 -37 -16h-393q-23 0 -23 14q0 6 6 19l17 33q8 16 38 26q43 8 75 34t40 77l70 370l-160 646 q-14 66 -29.5 84t-42 31.5t-33.5 21.5z" />
<glyph unicode="Z" horiz-adv-x="1214" d="M35 61l969 1272h-426q-74 0 -148 -100q-35 -41 -70 -80l-28 35l-6 20l30 168q6 27 21.5 42.5t42.5 15.5h835l-8 -48l-973 -1284h525q78 0 139 52q47 51 96 104l45 -18q12 -4 8 -17l-34 -174q-4 -23 -28 -36t-60 -13h-910z" />
<glyph unicode="[" horiz-adv-x="681" d="M-2 -395l395 1900h441l-11 -53h-157q-74 0 -102.5 -22.5t-43.5 -92.5l-319 -1548q-8 -35 -8 -65q0 -39 23.5 -52.5t84.5 -13.5h148l-11 -53h-440z" />
<glyph unicode="\" d="M348 1505h148l448 -1505h-147z" />
<glyph unicode="]" horiz-adv-x="681" d="M-66 -395l11 53h149q76 0 107.5 25.5t50.5 105.5l321 1548q6 31 7 52q0 35 -24 49t-81 14h-156l11 53h440l-395 -1900h-441z" />
<glyph unicode="^" d="M195 686l378 748h127l373 -748h-133l-307 606l-305 -606h-133z" />
<glyph unicode="_" horiz-adv-x="1024" d="M-18 -307l18 102h1042l-18 -102h-1042z" />
<glyph unicode="`" horiz-adv-x="720" d="M334 1458q13 72 76 72q20 0 45.5 -19.5t48.5 -44.5l196 -211q16 -16 -3 -39.5t-44 -23.5q-8 0 -18 6l-234 172q-27 23 -53 47q-18 23 -14 41z" />
<glyph unicode="a" horiz-adv-x="1138" d="M88 365q0 254 183.5 469t455.5 215q74 0 135.5 -13.5t122.5 -42.5q31 -20 64 -39q26 -24 26 -73q0 -28 -6 -60l-111 -577q-6 -37 -6 -58q0 -40 35 -40q5 0 10 1q23 4 51.5 10.5t32.5 6.5q14 0 17 -10l8 -45q0 -16 -13.5 -24.5t-45.5 -21.5l-252 -88q-63 0 -64 45 q0 4 4 21l49 221l-4 4q-61 -113 -178 -202t-219 -89q-119 0 -207 100.5t-88 289.5zM285 336q0 -78 28.5 -158t116.5 -80q137 0 290.5 235t153.5 460q0 90 -47 129t-114 39q-174 0 -301 -194t-127 -431z" />
<glyph unicode="b" horiz-adv-x="1120" d="M117 160q0 27 2 43l213 1097q4 29 4 37q0 25 -17.5 42.5t-56.5 34t-35 30.5l11 37q6 24 40 25q1 0 3 -1h206q53 0 54 -41q0 -14 -2 -22l-111 -574l4 -4q82 94 191.5 139.5t193.5 45.5q123 0 202 -96.5t79 -262.5q0 -274 -193.5 -494.5t-462.5 -220.5q-72 0 -133 13.5 t-107 38t-65.5 47t-19.5 86.5zM317 250q0 -72 26 -123t112 -51h30q160 0 288 177t128 406q0 154 -60.5 211.5t-119.5 57.5q-190 0 -297 -241t-107 -413v-24z" />
<glyph unicode="c" horiz-adv-x="909" d="M82 406q0 233 177 438t466 205q106 0 165.5 -16.5t59.5 -57.5q0 -12 -2 -19l-26 -129q-2 -6 -4.5 -12t-14.5 -12l-22 -15q-16 -10 -29.5 25t-25 64.5t-49.5 47t-105 17.5q-162 0 -277.5 -155.5t-115.5 -364.5q0 -141 64.5 -229.5t178.5 -88.5q63 0 104.5 11.5t76 34 t59.5 22.5q27 0 24 -27l-10 -47q-4 -20 -15 -32.5t-60.5 -35t-106.5 -39t-137 -16.5q-152 0 -263.5 116t-111.5 315z" />
<glyph unicode="d" horiz-adv-x="1138" d="M88 365q0 254 185.5 469t447.5 215q72 0 126 -12.5t71 -30.5l57 294q4 29 4 37q0 25 -16.5 42.5t-57.5 34t-37 30.5l13 37q8 24 38 25q1 0 3 -1h223q41 0 41 -37q0 -16 -2 -26l-228 -1198q-6 -35 -6 -56q0 -42 37 -42q5 0 10 1q41 8 82 17q16 0 19 -10l8 -45 q0 -16 -13.5 -24.5t-45.5 -21.5l-252 -88q-64 0 -64 49q0 8 2 17l51 221l-4 4q-61 -113 -178 -202t-219 -89q-119 0 -207 100.5t-88 289.5zM285 336q0 -78 28.5 -158t116.5 -80q137 0 290.5 235t153.5 460q0 90 -47 129t-114 39q-174 0 -301 -194t-127 -431z" />
<glyph unicode="e" horiz-adv-x="948" d="M82 418q0 248 168 439.5t418 191.5q154 0 216 -70t62 -152q0 -147 -190.5 -237t-468.5 -90q-10 -51 -11 -92q0 -131 69 -217.5t192 -86.5q55 0 106 13.5t86 35t62 21.5q33 0 26 -29l-10 -47q-6 -39 -67.5 -63.5t-126 -42t-148.5 -17.5q-174 0 -278.5 121t-104.5 322z M295 598q197 0 341 57t144 168q0 57 -35.5 95t-93.5 38q-135 0 -223 -103t-133 -255z" />
<glyph unicode="f" horiz-adv-x="645" d="M121 938l18 86h193q43 229 177 355t320 126q49 0 73 -3t77 -18q45 -14 45 -43q0 -5 -2 -11l-29 -117q-4 -23 -18 -27l-27 -12q-10 -6 -27.5 19.5t-52 67.5t-94.5 42q-72 0 -132 -62.5t-93 -216.5l-25 -100h299l-8 -43l-49 -43h-266l-183 -938h-184l180 938h-192z" />
<glyph unicode="g" horiz-adv-x="1099" d="M-31 -332l25 68q12 29 29 28q12 0 57 -35.5t120.5 -70.5t137.5 -35q170 0 255 101.5t124 281.5l57 256l-4 4q-61 -113 -178 -202t-219 -89q-119 0 -207 100.5t-88 289.5q0 254 183 469t456 215q135 0 256 -56q31 -20 63 -39q27 -25 27 -75q0 -23 -6 -58l-119 -645 q-72 -381 -200 -534.5t-400 -153.5q-96 0 -155.5 22.5t-139.5 62.5q-74 37 -74 87v8zM274 336q0 -111 37 -174.5t107 -63.5q137 0 290.5 235t153.5 460q0 90 -47 129t-115 39q-172 0 -299 -195t-127 -430z" />
<glyph unicode="h" d="M94 0l250 1300q6 29 6 41q0 25 -15.5 41.5t-55 32t-35.5 29.5l10 37q6 24 40 24h3h223q29 0 35 -9t2 -32l-129 -657l4 -4q72 113 192.5 179.5t239.5 66.5q209 0 209 -195q2 -25 -2 -63.5t-14 -94.5l-90 -452q-6 -35 -6 -56q0 -42 37 -42q5 0 10 1q41 8 82 17q12 0 18 -10 l8 -45q0 -16 -13 -24.5t-46 -21.5l-262 -88q-49 0 -50 48v18l107 547q6 39 13 78t7 71q0 96 -28.5 139.5t-104.5 43.5q-49 0 -102 -30t-124 -110t-107.5 -181t-65.5 -263l-64 -336h-182z" />
<glyph unicode="i" horiz-adv-x="542" d="M109 41l153 778q6 29 6 41q0 25 -15 41.5t-55 31.5t-36 30l10 36q6 25 43 25h223q29 0 35 -9t2 -32l-143 -739q-6 -37 -6 -58q0 -40 35 -40q5 0 10 1q41 8 82 17q16 0 18 -10l8 -45q0 -16 -13 -24.5t-46 -21.5l-260 -88q-52 0 -52 49q0 8 1 17zM291 1329q0 63 38 103.5 t97 40.5q53 0 82 -40t29 -79q0 -68 -38 -108t-96 -40q-55 0 -83.5 38t-28.5 85z" />
<glyph unicode="j" horiz-adv-x="569" d="M-66 -512l17 78q61 49 103 130t63 181l186 942q6 29 6 41q0 25 -15 41.5t-55 31.5t-36 30l10 36q6 25 43 25h223q29 0 35 -9t2 -32l-201 -1038q-39 -203 -154.5 -330t-226.5 -127zM324 1329q0 63 37.5 103.5t97.5 40.5q53 0 81.5 -40t28.5 -79q0 -68 -37.5 -108 t-95.5 -40q-55 0 -83.5 38t-28.5 85z" />
<glyph unicode="k" horiz-adv-x="985" d="M94 0l248 1300q6 23 6 37q0 25 -17.5 43.5t-57.5 34t-35 29.5l12 37q6 24 38 24h3h211q55 0 55 -35q0 -10 -6 -26l-150 -793h41q102 90 242.5 218t189.5 180h173l-25 -86l-53 -21q-33 -14 -68 -34.5t-63 -47.5l-295 -258l209 -293q47 -68 107.5 -150.5t105.5 -131.5 l-23 -39h-151q-55 0 -156 162l-250 391l-109 -541h-182z" />
<glyph unicode="l" horiz-adv-x="542" d="M109 41l243 1259q6 23 6 37q0 25 -17 43.5t-57 34t-36 29.5l12 37q6 24 38 24h3h209q53 0 53 -39q0 -14 -2 -22l-229 -1200q-6 -35 -6 -56q0 -42 37 -42q5 0 10 1q41 8 82 17q12 0 18 -10l8 -45q0 -16 -13 -24.5t-46 -21.5l-266 -88q-48 0 -48 48q0 8 1 18z" />
<glyph unicode="m" horiz-adv-x="1744" d="M100 0l158 825q4 29 4 35q0 29 -14.5 44.5t-54 30.5t-35.5 30l10 34q6 25 43 25h221q29 0 35 -9t2 -32l-39 -182l4 -4q76 113 179.5 182.5t213.5 69.5q92 0 147.5 -57.5t55.5 -145.5q0 -12 -4 -45l4 -4q47 92 165 172t230 80q203 0 203 -211q0 -41 -2 -64.5t-12 -79.5 l-86 -450q-6 -35 -6 -56q0 -42 37 -42q5 0 10 1q41 8 82 17q16 0 18 -10l8 -43q0 -18 -12 -26.5t-47 -21.5l-260 -88q-52 0 -52 50q0 8 1 18l41 201l59 338q16 72 25.5 132t9.5 93q0 113 -113 113q-100 0 -211.5 -133.5t-175.5 -458.5l-63 -328h-181l113 582q16 76 25.5 132 t9.5 91q0 115 -115 115q-98 0 -210.5 -134.5t-174.5 -457.5l-63 -328h-183z" />
<glyph unicode="n" d="M94 0l158 819q4 33 4 39q0 27 -15.5 43.5t-55.5 31.5t-35 30l12 36q6 25 41 25h223q29 0 35 -9t2 -32l-35 -176l4 -4q72 113 192.5 179.5t239.5 66.5q209 0 209 -211q0 -55 -16 -142l-90 -452q-6 -35 -6 -56q0 -42 37 -42q5 0 10 1q41 8 82 17q16 0 18 -10l8 -45 q0 -16 -13 -24.5t-46 -21.5l-260 -88q-53 0 -53 50q0 7 1 16l107 547q22 108 22 174v6q0 80 -31.5 116t-103.5 36q-49 0 -102 -30t-124 -110t-107.5 -181t-65.5 -263l-64 -336h-182z" />
<glyph unicode="o" horiz-adv-x="1062" d="M74 369q0 285 179 482.5t427 197.5q170 0 266 -114t96 -290q0 -238 -163.5 -454t-419.5 -216q-193 0 -289 121t-96 273zM270 412q0 -135 54.5 -229.5t156.5 -94.5q176 0 270.5 195.5t94.5 375.5q0 104 -48 190.5t-163 86.5q-121 0 -243 -147.5t-122 -376.5z" />
<glyph unicode="p" horiz-adv-x="1118" d="M-8 -465q0 12 2 19l248 1265q6 29 6 41q0 25 -15.5 41.5t-55.5 31.5t-36 30l13 36q6 25 41 25h208q39 0 39 -37q0 -16 -2 -26l-18 -91l12 -6q82 94 191.5 139.5t193.5 45.5q123 0 202 -96.5t79 -262.5q0 -272 -188.5 -493.5t-432.5 -221.5q-53 0 -109.5 21.5t-95.5 50.5 l-65 -354q-6 -29 -6 -41q0 -25 15 -41.5t55 -31.5t36 -30l-12 -36q-6 -25 -41 -25h-217q-47 0 -47 47zM319 250q0 -72 26 -123t112 -51h30q160 0 288 177t128 406q0 154 -60.5 211.5t-119.5 57.5q-190 0 -297 -241t-107 -413v-24z" />
<glyph unicode="q" horiz-adv-x="1099" d="M86 365q0 254 183.5 469t455.5 215q74 0 135.5 -13.5t122.5 -42.5q31 -20 64 -39q26 -24 26 -71q0 -27 -6 -62l-215 -1128q-6 -29 -6 -41q0 -25 15.5 -41.5t55 -31.5t35.5 -30l-10 -36q-6 -25 -43 -25h-215q-49 0 -49 47q0 12 2 19l145 708l-4 4q-61 -113 -178 -202 t-219 -89q-119 0 -207 100.5t-88 289.5zM283 336q0 -78 28.5 -158t116.5 -80q137 0 290.5 235t153.5 460q0 90 -47 129t-114 39q-174 0 -301 -194t-127 -431z" />
<glyph unicode="r" horiz-adv-x="720" d="M94 0l156 819q6 29 6 41q0 25 -15.5 41.5t-55.5 31.5t-35 30l10 36q6 25 43 25h223q29 0 35 -9t2 -32l-25 -133l4 -4q61 88 144.5 145.5t140.5 57.5q35 0 49.5 -16.5t20.5 -39.5l14 -119q1 -2 1 -5q0 -7 -9 -13l-35 -39q-8 -10 -20 -10t-39 16.5t-50.5 24.5t-54.5 8 q-88 0 -140 -74.5t-68.5 -156.5t-55.5 -289l-64 -336h-182z" />
<glyph unicode="s" horiz-adv-x="833" d="M57 178q-2 8 -2 14q0 18 13 27l61 43q18 12 31 -4l65 -106q33 -47 74 -68t86 -21q57 0 113.5 38t63.5 83t7 53.5v12.5q0 72 -41 121t-127 124.5t-124.5 126t-38.5 132.5q0 27 15 99.5t128 134t233 61.5q49 0 96.5 -7.5t79.5 -15.5t46 -22q8 -9 9 -20q0 -6 -3 -13l-21 -60 q-16 -53 -22 -72.5t-23 -19.5h-33q-25 0 -36 71t-140 71q-55 0 -99 -30t-49 -57.5t-5 -44.5q0 -55 29.5 -89.5t120.5 -115.5t140.5 -154t49.5 -161v-35q-6 -25 -22.5 -97.5t-142.5 -137t-247 -64.5q-92 0 -155.5 21.5t-94.5 48.5z" />
<glyph unicode="t" horiz-adv-x="681" d="M139 938l17 86h155l39 205l119 92q23 16 49 16q33 0 29 -22l-55 -291h249l-4 -43l-45 -43h-213l-129 -670q-6 -37 -6 -65q0 -88 66 -88q41 0 64.5 7t53.5 21q18 8 21 0l22 -49q6 -14 -20 -26l-29 -19q-43 -29 -96 -51.5t-107 -22.5q-159 0 -159 193q0 51 12 111l125 659 h-158z" />
<glyph unicode="u" horiz-adv-x="1138" d="M127 217q0 51 12 111l99 491q4 33 4 39q0 27 -14.5 42t-54.5 31.5t-36 31.5l10 36q6 25 43 25h216q39 0 38 -37q0 -14 -2 -24l-98 -523q-27 -129 -27 -194q0 -72 30 -103.5t99 -31.5q78 0 200 144t179 439l66 330h186l-149 -780q-6 -35 -6 -56q0 -42 37 -42q5 0 10 1 q41 8 82 17q12 0 18 -10l8 -45q0 -16 -13 -24.5t-46 -21.5l-252 -88q-61 0 -61 48v18l45 209l-5 4q-82 -139 -187 -209t-210 -70q-109 0 -165 64.5t-56 177.5z" />
<glyph unicode="v" horiz-adv-x="909" d="M78 954l26 47q12 23 39 23h201l80 -772l254 379q34 51 58 125q21 63 21 107q0 7 -1 14l-11 112q-2 25 27 35t37 12l43 13q5 1 9 1q9 0 13 -4q8 -8 19 -28l41 -98q6 -12 6 -27q0 -47 -29.5 -100.5t-76.5 -122.5l-455 -670h-94l-95 801q-10 59 -29.5 79.5t-47 35 t-34.5 20.5q-4 3 -4 8q0 4 3 10z" />
<glyph unicode="w" horiz-adv-x="1402" d="M78 956l26 45q12 23 39 23h209l51 -721q119 213 200 363.5t190 357.5h106l74 -721l209 328q43 74 62.5 136t19.5 99l-4 123q0 20 7 29.5t40 17.5l43 13q23 0 41 -31l41 -105q3 -8 3 -19q0 -52 -69 -175q-61 -100 -86 -144l-369 -575h-77l-76 735l-408 -735h-88l-72 805 q-8 57 -29.5 79.5t-48 35t-33.5 18.5q-4 3 -4 8q0 4 3 10z" />
<glyph unicode="x" horiz-adv-x="983" d="M12 27l13 82q2 8 18 13t37 13l31 21q80 31 172 141l184 225l-64 266q-10 47 -31.5 72t-55 42.5t-56 29.5t-10.5 31l31 51q8 10 24 10h213l76 -373l70 92q31 37 67.5 87.5t46.5 76.5l37 86q4 27 37 41l53 15q7 2 13 2q19 0 28 -25l25 -63q1 -3 1 -7q0 -23 -40 -69 q-47 -53 -78 -88l-223 -250l94 -316q8 -31 22.5 -57t29 -38.5t68.5 -30t44 -33.5l-33 -51q-12 -20 -39 -21h-201l-112 416l-279 -346q-25 -31 -54.5 -51.5t-59.5 -20.5h-80q-20 0 -20 20q0 3 1 7z" />
<glyph unicode="y" horiz-adv-x="921" d="M-180 -426q-1 3 -1 6q0 18 36 27l92 22q29 6 79 45t99 113l174 246l-96 768q-10 59 -29.5 79.5t-47.5 35t-35 20.5t-1 18l27 47q12 23 39 23h200l80 -772l256 379q33 51 58 125q21 63 21 107q0 7 -1 14l-10 112q-2 25 26.5 35t36.5 12l43 13q5 1 9 1q8 0 13 -4 q7 -8 19 -28l41 -98q6 -12 6 -27q0 -47 -29.5 -100.5t-76.5 -122.5l-674 -992q-70 -117 -119 -153.5t-100 -36.5h-68q-29 0 -39 3t-14 26z" />
<glyph unicode="z" horiz-adv-x="948" d="M41 76l711 854h-222q-59 0 -112 -53.5t-103 -104.5l-26 31l-6 18l30 154q0 49 60 49h594l-17 -96l-674 -824h283q78 0 137 50q47 51 97 102l43 -16q12 -2 8 -17l-33 -174q-10 -49 -94 -49h-660z" />
<glyph unicode="{" horiz-adv-x="681" d="M117 543q100 31 143 87t66 169l82 395q39 188 127 249.5t262 61.5q-102 -29 -152.5 -93t-75.5 -185l-82 -396q-27 -131 -72.5 -193.5t-154.5 -90.5q68 -23 95.5 -63t27.5 -103q0 -51 -21 -143l-75 -371q-12 -66 -13 -113q0 -135 125 -160q-150 -4 -212 34t-62 147 q0 59 18 149l76 361q8 39 12.5 64.5t4.5 53.5q0 102 -119 140z" />
<glyph unicode="|" horiz-adv-x="569" d="M233 0v1505h136v-1505h-136z" />
<glyph unicode="}" horiz-adv-x="681" d="M-96 -410q102 29 152 93.5t75 185.5l82 395q27 131 73 193.5t154 91.5q-68 23 -95.5 62.5t-27.5 103.5q0 51 21 143l76 371q12 66 12 112q0 135 -125 160q150 4 212 -33.5t62 -146.5q0 -59 -18 -150l-76 -360q-8 -39 -12 -64.5t-4 -54.5q0 -102 119 -139 q-100 -31 -143.5 -87t-65.5 -169l-82 -395q-39 -188 -127 -250t-262 -62z" />
<glyph unicode="~" d="M66 457q59 94 122.5 145t155.5 51q49 0 96 -14t122 -44t127 -48.5t87 -18.5q45 0 86 26t90 103l88 -71q-84 -119 -137 -153t-125 -34q-51 0 -94 14.5t-115 49.5q-76 33 -121 47t-106 14q-66 0 -106.5 -36.5t-85.5 -106.5z" />
<glyph unicode="&#xa1;" horiz-adv-x="645" d="M72 -426q66 201 147.5 503t112 433t74.5 131q16 0 27 -4t9 -12q-49 -256 -88 -526.5t-65 -524.5q0 -55 -119 -55q-63 0 -85.5 14t-12.5 41zM340 899q0 68 41 109t111 41q53 0 81.5 -33t28.5 -74q0 -68 -41 -108.5t-110 -40.5q-53 0 -82 32.5t-29 73.5z" />
<glyph unicode="&#xa2;" d="M176 406q0 233 174 438t457 205l57 127l103 -29l-47 -105q23 0 34 -2t50.5 -13t39.5 -52q0 -12 -2 -19l-26 -129l-4 -12t-15 -12l-22 -15q-16 -10 -29.5 25t-25 65.5t-54.5 47.5l-362 -791q53 -31 112 -31q63 0 104.5 11.5t76 34t59.5 22.5q27 0 25 -27l-11 -47 q-4 -20 -15 -32.5t-60.5 -35t-106.5 -39t-137 -16.5q-31 0 -56.5 4.5t-54.5 16.5l-84 -182l-90 41l84 186q-80 51 -127 146.5t-47 218.5zM371 422q0 -129 55 -213l332 733q-156 0 -271.5 -158.5t-115.5 -361.5z" />
<glyph unicode="&#xa3;" d="M-41 29q4 35 64.5 44t116 82.5t110.5 234.5t112 325h-210l18 92h217l92 260q61 172 184 281.5t289 109.5q84 0 151.5 -29.5t74.5 -85.5l16 -122q0 -10 -16 -15l-66 -18q-14 -2 -22 8q-45 84 -83 139.5t-106 55.5q-80 0 -144.5 -95.5t-105.5 -222.5l-82 -266h308l-19 -90 h-309q-72 -254 -147.5 -380t-163.5 -190q70 14 122 17.5t129 3.5h25q57 0 180 -22.5t164 -22.5q63 0 81.5 40t18.5 97v82q0 29 21 37l63 27q6 4 21 4q10 0 12 -9l49 -145q10 -33 -142.5 -157t-205.5 -124q-133 27 -255 45.5t-232 18.5q-82 0 -160 -9.5t-166 -29.5 q-2 14 -4 29z" />
<glyph unicode="&#xa4;" d="M115 1139l92 92l119 -115q129 104 315 105q174 0 303 -105l115 115l90 -92l-109 -111q51 -63 77 -143t26 -170q0 -88 -25.5 -166t-77.5 -141l113 -115l-88 -92l-115 114q-61 -53 -144 -81.5t-167 -28.5q-188 0 -317 110l-115 -114l-90 92l114 115q-104 129 -104 303 q0 88 25.5 169t78.5 140zM268 711q0 -152 108.5 -258.5t262.5 -106.5q152 0 257 107.5t105 261.5q0 150 -105 257t-255 107q-156 0 -264.5 -106t-108.5 -262z" />
<glyph unicode="&#xa5;" d="M115 369l16 82h322l22 122l-10 41h-301l16 82h264l-129 523q-14 66 -29.5 84t-42 31.5t-33.5 21.5t1 20l22 39q10 18 35 19h344q31 0 17 -27l-23 -41q-4 -8 -27.5 -19.5t-40 -24.5t-24.5 -28.5t-8 -48.5v-18l125 -531l366 541q23 31 23 53q0 14 -7 24.5t-24.5 22 t-38.5 25.5q-6 8 2 20l23 33q10 14 22 15h283q23 0 23 -13q0 -4 -7 -14l-16 -35q-6 -12 -25.5 -21.5t-42 -17.5t-52.5 -33.5t-66 -78.5l-357 -521h310l-17 -82h-344q-16 -31 -23.5 -53t-23.5 -102l-2 -8h362l-16 -82h-360l-31 -166q-4 -33 -4 -39q0 -53 102 -76 q18 -2 19 -16q0 -8 -7 -19l-20 -37q-12 -16 -37 -16h-393q-23 0 -23 14q0 6 7 19l16 33q8 16 39 26q43 8 74.5 34t40.5 77l30 166h-321z" />
<glyph unicode="&#xa6;" horiz-adv-x="569" d="M233 0v602h136v-602h-136zM233 903v602h136v-602h-136z" />
<glyph unicode="&#xa7;" horiz-adv-x="1024" d="M57 -129q-4 12 6.5 26.5t24.5 22.5l25 17q25 14 39 14q18 0 28 -17l88 -98q16 -23 49 -34t91 -11q55 0 107 50t52 102q0 84 -99 181t-196 189q-102 117 -102 238q0 147 100.5 235t231.5 88h30q-154 160 -153 273q0 145 117.5 228t253.5 83q53 0 132 -16.5t107 -34.5 l41 -125q4 -31 -31 -49l-24 -14q-25 -14 -41 -15q-16 0 -25 15l-96 100q-14 20 -51 36.5t-68 16.5q-55 0 -99 -38t-44 -97q0 -53 16.5 -95t53.5 -77l176 -176q61 -61 106 -145.5t45 -145.5q0 -143 -98 -230t-232 -87h-24q72 -72 107.5 -137.5t35.5 -133.5q0 -90 -57 -164.5 t-137 -113.5q-98 -37 -205 -37q-55 0 -133 16.5t-107 34.5zM346 602q0 -84 64.5 -163t140.5 -79q25 1 41 9q78 0 121 38.5t43 129.5q0 96 -56.5 175t-164.5 79q-72 0 -130.5 -52.5t-58.5 -136.5z" />
<glyph unicode="&#xa8;" horiz-adv-x="872" d="M274 1317q10 41 47 73.5t78 32.5q37 0 59.5 -24.5t22.5 -63.5q0 -12 -5 -35.5t-42 -54.5t-80 -31q-39 0 -63.5 31t-16.5 72zM686 1317q10 41 47 73.5t78 32.5q37 0 59.5 -24.5t22.5 -63.5q0 -12 -5 -35.5t-42 -54.5t-80 -31q-39 0 -63.5 31t-16.5 72z" />
<glyph unicode="&#xa9;" horiz-adv-x="1593" d="M96 717q0 307 215 524t527 217q293 0 517 -220t224 -521q0 -303 -223 -522.5t-518 -219.5q-311 0 -526.5 217.5t-215.5 524.5zM203 717q0 -258 186 -446.5t449 -188.5q244 0 439.5 191.5t195.5 443.5q0 254 -195 444.5t-440 190.5q-262 0 -448.5 -188.5t-186.5 -446.5z M387 655q0 180 140.5 330t398.5 150q88 0 152.5 -18.5t87 -31t22.5 -32.5l-14 -109q-4 -27 -13 -33l-37 -16q-14 35 -42.5 100.5t-159.5 65.5q-123 0 -242 -94.5t-119 -298.5q0 -111 57.5 -199t188.5 -88q68 0 114 14.5t99 71.5q12 10 39.5 -19.5t15.5 -41.5l-59 -60 q-20 -20 -53 -35.5t-160 -15.5q-209 0 -312.5 107.5t-103.5 252.5z" />
<glyph unicode="&#xaa;" horiz-adv-x="720" d="M84 637l22 80h685l-23 -80h-684zM137 1047q0 156 130 283.5t335 127.5q92 0 168 -33q20 -12 41 -24q16 -14 16 -47q0 -18 -2 -31l-69 -334q-6 -23 -6 -35q0 -23 30 -22q12 0 37 5t29 -3l4 -33q2 -10 -13.5 -16t-25.5 -11l-195 -59q-59 0 -49 47l31 125l-6 2 q-37 -66 -113 -120t-141 -54q-78 0 -139.5 59.5t-61.5 172.5zM305 1042q0 -66 22.5 -99.5t65.5 -33.5q82 0 173 132t91 257q0 51 -26.5 75t-69.5 24q-98 0 -177 -103.5t-79 -251.5z" />
<glyph unicode="&#xab;" horiz-adv-x="1138" d="M213 487l397 310q27 23 48.5 39t29.5 16q12 0 8 -16q-6 -39 -114.5 -168t-165.5 -181q25 -37 87 -179t58 -167q-4 -18 -18 -18q-10 0 -33 25.5t-29 33.5zM578 487l397 310q27 23 48 39t30 16q12 0 8 -16q-6 -39 -114.5 -168t-166.5 -181q25 -37 87.5 -179t58.5 -167 q-4 -18 -19 -18q-10 0 -32.5 25.5t-28.5 33.5z" />
<glyph unicode="&#xac;" horiz-adv-x="1251" d="M111 649v135h1032v-555h-135v420h-897z" />
<glyph unicode="&#xad;" horiz-adv-x="681" d="M74 403l35 168h509l-34 -168h-510z" />
<glyph unicode="&#xae;" horiz-adv-x="1593" d="M96 717q0 307 215 524t527 217q293 0 517 -220t224 -521q0 -303 -223 -522.5t-518 -219.5q-311 0 -526.5 217.5t-215.5 524.5zM203 717q0 -258 186 -446.5t449 -188.5q244 0 439.5 191.5t195.5 443.5q0 254 -195 444.5t-440 190.5q-262 0 -448.5 -188.5t-186.5 -446.5z M414 352q-4 4 4 15l10 18q8 10 32.5 14t47 18.5t29.5 43.5l135 559q14 57 -34 65.5t-53 11.5t1 11l16 20q8 12 25 13h329q125 0 183.5 -51.5t58.5 -133.5q0 -78 -69.5 -145.5t-165.5 -95.5q43 -88 100 -201t94 -133v-33h-143q-18 0 -23.5 7t-9.5 22l-133 321h-123l-57 -237 q-2 -6 -2 -13.5v-9.5q0 -23 20.5 -30t45 -10t13.5 -21l-14 -21l-12 -6t-12 -2h-277q-12 0 -16 4zM741 766h86q113 0 170.5 62.5t57.5 142.5q0 47 -34 76.5t-116 29.5h-90z" />
<glyph unicode="&#xb0;" horiz-adv-x="757" d="M233 1163q0 119 86.5 207t206.5 88q121 0 207 -86t86 -209q0 -121 -86 -207t-207 -86t-207 86t-86 207zM332 1163q0 -80 59.5 -137t134.5 -57q78 0 136.5 58t58.5 136t-57.5 137.5t-137.5 59.5t-137 -57.5t-57 -139.5z" />
<glyph unicode="&#xb1;" horiz-adv-x="1251" d="M111 0v135h1032v-135h-1032zM111 659v136h448v450h135v-450h449v-136h-449v-450h-135v450h-448z" />
<glyph unicode="&#xb2;" horiz-adv-x="909" d="M152 584l18 92q23 16 113 87t182 146.5t169 175t77 179.5q0 49 -29 75.5t-72 26.5q-70 0 -102.5 -26.5t-69.5 -77.5l-39 -54q-2 -4 -14 -6l-39 25l-6 14l22 102q4 16 25 31t50.5 32t80.5 34.5t127 17.5q119 0 183.5 -55t64.5 -131q0 -88 -69.5 -167t-237.5 -212 l-236 -188l271 -5q41 0 100 70t63 68l45 -29q4 -14 2 -18l-98 -181q-8 -16 -28.5 -21t-57.5 -5h-495z" />
<glyph unicode="&#xb3;" horiz-adv-x="909" d="M199 729q0 14 10 23l37 20q23 16 28 6l54 -82q31 -55 127 -55q72 0 126 49t54 131q0 86 -73 126t-156 40l12 66q117 16 194.5 72.5t77.5 146.5q0 45 -28.5 73.5t-71.5 28.5q-51 0 -83 -21.5t-63 -66.5l-28 -41q-2 -4 -15 -6l-34 18l-7 13l17 92q2 23 44 45.5t89 36.5 t115 14q123 0 181 -53t58 -123q0 -84 -75.5 -149.5t-190.5 -96.5q102 -14 158.5 -70.5t56.5 -134.5q0 -115 -106.5 -188.5t-264.5 -73.5q-74 0 -136 18.5t-85 37.5z" />
<glyph unicode="&#xb4;" horiz-adv-x="720" d="M412 1223q0 20 16 30l309 246q33 25 60.5 44.5t60.5 19.5q14 0 28.5 -22.5t10.5 -41.5q-6 -31 -39 -57.5t-55 -40.5l-320 -211q-12 -10 -30 -10q-41 0 -41 43z" />
<glyph unicode="&#xb5;" horiz-adv-x="1138" d="M-47 -410q0 10 23.5 85t78 279t88.5 374l99 491q4 33 4 39q0 27 -14.5 42t-54.5 31.5t-36 31.5l11 36q6 25 43 25h215q39 0 39 -37q0 -14 -3 -24l-98 -523q-27 -129 -26 -194q0 -72 29.5 -103.5t99.5 -31.5q78 0 199.5 144t178.5 439l66 330h186l-149 -780q-6 -35 -6 -56 q0 -47 47 -41q41 8 82 17q12 0 18 -10l8 -45q0 -16 -13 -24.5t-46 -21.5l-252 -88q-16 -4 -20 -4q-23 0 -34 20.5t-7 49.5l45 209l-4 4l-70 -102q-31 -55 -135.5 -116t-192.5 -61q-45 0 -90 18.5t-51 18.5q-14 0 -27.5 -30.5t-18.5 -75.5t-5 -115v-86t2 -86 q2 -18 -25.5 -32.5t-74 -19.5t-68.5 -5q-41 0 -41 28z" />
<glyph unicode="&#xb6;" d="M162 -346l12 53q119 14 142.5 23.5t33.5 36t19.5 60.5t19.5 87l139 661q-184 0 -272 82t-88 234q0 59 29.5 205.5t153.5 242t358 95.5h538l-12 -54q-119 -14 -142.5 -23t-36 -39t-21.5 -70t-17 -74l-262 -1260q-12 -59 -17.5 -87t-5.5 -63q0 -29 33 -37t121 -20l-10 -53 h-295l352 1694h-123l-352 -1694h-297zM336 889q0 -119 56.5 -171t154.5 -52l141 682q-158 0 -227.5 -61.5t-97 -198t-27.5 -199.5z" />
<glyph unicode="&#xb8;" horiz-adv-x="681" d="M45 -397q0 18 16.5 36.5t30.5 12.5q16 -6 54 -13.5t57 -7.5q119 0 129 47.5t10 59.5q0 57 -59 57q-8 2 -25 2q-20 0 -40.5 -5t-29.5 -5l-12 10l139 223h74l-94 -153l61 6q63 0 104.5 -27.5t41.5 -83.5q0 -10 -10.5 -59t-99.5 -96t-193 -47q-41 0 -77 8t-56.5 15t-20.5 20 z" />
<glyph unicode="&#xb9;" horiz-adv-x="909" d="M240 584q-10 4 0 16l18 27q4 4 38 10t65.5 19.5t46 23.5t18.5 33l113 547q0 49 -35 49q-18 0 -43 -7.5t-51 -15.5l-27 -10q-16 -4 -16 12l-7 39q-4 18 17 25l364 106l-145 -745q-8 -37 25 -51q27 -8 34 -10.5t72 -16.5l12 -12l-24 -31q-4 -4 -21.5 -6t-31.5 -2h-379h-43z " />
<glyph unicode="&#xba;" horiz-adv-x="720" d="M94 637l23 80h645l-23 -80h-645zM180 1057q0 174 120 287.5t286 113.5q119 0 187.5 -71t68.5 -177q0 -154 -113 -274.5t-283 -120.5q-131 0 -198.5 71.5t-67.5 170.5zM348 1071q0 -78 31 -130t94 -52q96 0 148.5 112.5t52.5 231.5q0 70 -29 110.5t-92 40.5 q-72 0 -138.5 -92t-66.5 -221z" />
<glyph unicode="&#xbb;" horiz-adv-x="1138" d="M150 139q6 39 114.5 168t165.5 180q-25 37 -87 179.5t-58 167.5q4 18 18 18q10 0 32.5 -25.5t29.5 -33.5l268 -306l-397 -309q-27 -23 -48.5 -39t-29.5 -16q-12 0 -8 16zM514 139q6 39 114.5 168t166.5 180q-25 37 -87.5 179.5t-58.5 167.5q4 18 19 18q10 0 32.5 -25.5 t28.5 -33.5l268 -306l-397 -309q-27 -23 -48.5 -39t-29.5 -16q-12 0 -8 16z" />
<glyph unicode="&#xbc;" horiz-adv-x="1857" d="M188 584q-10 4 0 16l19 27q4 4 38 10t65.5 19.5t46 23.5t18.5 33l112 547q0 49 -34 49q-18 0 -43 -7.5t-52 -15.5l-26 -10q-16 -4 -17 12l-6 39q-4 18 17 25l364 106l-145 -745q-8 -37 24 -51q27 -8 34 -10.5t73 -16.5l12 -12l-24 -31q-4 -4 -21.5 -6t-32.5 -2h-379h-43z M430 0l936 1434h123l-936 -1434h-123zM1069 303q100 109 242.5 260.5t281.5 296.5h131l-102 -512h80q23 0 33 -4t2 -18l-49 -78h-86l-23 -119q-4 -23 5 -36t29.5 -20t74.5 -22q4 -6 10 -12l-21 -27q-8 -12 -43 -12h-364h-43q-10 4 0 16l18 27q4 4 38 10t65.5 19.5t46 23.5 t18.5 33l25 119h-318q-37 0 -39 12zM1223 348h235l66 328l-4 4q-86 -92 -168 -183t-129 -149z" />
<glyph unicode="&#xbd;" horiz-adv-x="1857" d="M168 584q-10 4 0 16l18 27q4 4 38 10t66 19.5t46 23.5t18 33l113 547q0 49 -35 49q-18 0 -42.5 -7.5t-51.5 -15.5l-27 -10q-16 -4 -16 12l-6 39q-4 18 16 25l365 106l-146 -745q-8 -37 25 -51q27 -8 34 -10.5t72 -16.5q6 -6 13 -12l-25 -31q-4 -4 -21.5 -6t-31.5 -2h-379 h-43zM410 0l936 1434h122l-936 -1434h-122zM1032 0l19 92q23 16 112.5 87t182 146.5t169 175t76.5 179.5q0 49 -28.5 75.5t-71.5 26.5q-70 0 -102.5 -26.5t-69.5 -77.5l-39 -53q-2 -4 -14 -7l-39 25l-6 14l22 103q4 16 24.5 30.5t49.5 31t82 36t127 19.5q119 0 183.5 -56.5 t64.5 -132.5q0 -88 -70 -167t-238 -212l-235 -188l270 -4q41 0 100.5 69.5t63.5 67.5l45 -29q4 -14 2 -18l-98 -180q-8 -16 -28.5 -21.5t-57.5 -5.5h-496z" />
<glyph unicode="&#xbe;" horiz-adv-x="1857" d="M158 729q0 14 10 23l37 20q23 16 28 6l54 -82q31 -55 127 -55q72 0 126 49t54 131q0 86 -72.5 126t-156.5 40l12 66q117 16 194.5 72.5t77.5 146.5q0 45 -28.5 73.5t-71.5 28.5q-51 0 -83 -21.5t-63 -66.5l-28 -41q-2 -4 -15 -6l-34 18l-7 13l17 92q2 23 44 45.5t89 36.5 t115 14q123 0 181 -53t58 -123q0 -84 -75.5 -149.5t-190.5 -96.5q102 -14 158.5 -70.5t56.5 -134.5q0 -115 -106.5 -188.5t-264.5 -73.5q-74 0 -136 18.5t-85 37.5zM492 0l935 1434h123l-936 -1434h-122zM1090 303q100 109 242.5 260.5t281.5 296.5h131l-103 -512h80 q23 0 33 -4t2 -18l-49 -78h-86l-23 -119q-4 -23 5.5 -36t30 -20t73.5 -22q4 -6 10 -12l-20 -27q-8 -12 -43 -12h-365h-43q-10 4 0 16l19 27q4 4 37.5 10t65.5 19.5t46.5 23.5t18.5 33l24 119h-317q-37 0 -39 12zM1243 348h236l65 328l-4 4q-86 -92 -168 -183t-129 -149z" />
<glyph unicode="&#xbf;" horiz-adv-x="948" d="M23 -197q0 162 77.5 244t228 189.5t190.5 174t73 207.5h131q-31 -131 -83 -217t-163.5 -200.5t-171 -190.5t-59.5 -211q0 -82 28.5 -131t110.5 -49q47 0 85 13.5t67 39.5l116 92q16 16 29 7l59 -43q12 -8 -2 -27l-96 -131q-27 -14 -118 -32.5t-142 -18.5q-176 0 -268 83 t-92 201zM578 899q0 68 40.5 109t108.5 41q55 0 84 -33t29 -74q0 -68 -41 -108.5t-111 -40.5q-53 0 -81.5 32.5t-28.5 73.5z" />
<glyph unicode="&#xc0;" horiz-adv-x="1290" d="M-78 16q0 8 8 19l17 26q8 18 61 33t78 35.5t66 89.5l520 946q25 43 24 76q0 23 -14 41t-22.5 29.5t-50.5 25t-42 27.5q0 8 8 18l15 29q12 23 49 23h270q16 0 25.5 -17.5t9.5 -42.5q27 -205 56.5 -396.5t64.5 -387t58.5 -326.5t56.5 -147q37 -12 71.5 -23.5t22.5 -32.5 l-29 -45q-6 -10 -17 -13t-30 -3h-371q-25 0 -24 12q0 6 6 17l25 37q37 18 72.5 34.5t35.5 71.5q0 16 -2 27l-35 231h-514l-139 -252q-12 -23 -12 -37q0 -27 45 -47t30 -41l-16 -22q-8 -10 -17.5 -20.5t-25.5 -10.5h-276q-27 0 -42.5 3t-15.5 13zM449 543h438l-94 639z M619 1841q13 72 76 72q20 0 45.5 -19.5t48.5 -44.5l196 -211q16 -16 -3 -39.5t-44 -23.5q-8 0 -18 6l-234 172q-27 23 -53 47q-18 23 -14 41z" />
<glyph unicode="&#xc1;" horiz-adv-x="1290" d="M-78 16q0 8 8 19l17 26q8 18 61 33t78 35.5t66 89.5l520 946q25 43 24 76q0 23 -14 41t-22.5 29.5t-50.5 25t-42 27.5q0 8 8 18l15 29q12 23 49 23h270q16 0 25.5 -17.5t9.5 -42.5q27 -205 56.5 -396.5t64.5 -387t58.5 -326.5t56.5 -147q37 -12 71.5 -23.5t22.5 -32.5 l-29 -45q-6 -10 -17 -13t-30 -3h-371q-25 0 -24 12q0 6 6 17l25 37q37 18 72.5 34.5t35.5 71.5q0 16 -2 27l-35 231h-514l-139 -252q-12 -23 -12 -37q0 -27 45 -47t30 -41l-16 -22q-8 -10 -17.5 -20.5t-25.5 -10.5h-276q-27 0 -42.5 3t-15.5 13zM449 543h438l-94 639z M697 1606q0 20 16 30l309 246q33 25 60.5 44.5t60.5 19.5q14 0 28.5 -22.5t10.5 -41.5q-6 -31 -39 -57.5t-55 -40.5l-320 -211q-12 -10 -30 -10q-41 0 -41 43z" />
<glyph unicode="&#xc2;" horiz-adv-x="1290" d="M-78 16q0 8 8 19l17 26q8 18 61 33t78 35.5t66 89.5l520 946q25 43 24 76q0 23 -14 41t-22.5 29.5t-50.5 25t-42 27.5q0 8 8 18l15 29q12 23 49 23h270q16 0 25.5 -17.5t9.5 -42.5q27 -205 56.5 -396.5t64.5 -387t58.5 -326.5t56.5 -147q37 -12 71.5 -23.5t22.5 -32.5 l-29 -45q-6 -10 -17 -13t-30 -3h-371q-25 0 -24 12q0 6 6 17l25 37q37 18 72.5 34.5t35.5 71.5q0 16 -2 27l-35 231h-514l-139 -252q-12 -23 -12 -37q0 -27 45 -47t30 -41l-16 -22q-8 -10 -17.5 -20.5t-25.5 -10.5h-276q-27 0 -42.5 3t-15.5 13zM449 543h438l-94 639z M539 1579l268 287h119l156 -283q8 -14 -4.5 -21.5t-36.5 -7.5q-29 0 -44.5 7.5t-23.5 17.5l-129 174l-207 -190q-20 -16 -59 -17q-25 0 -38 9.5t-1 23.5z" />
<glyph unicode="&#xc3;" horiz-adv-x="1290" d="M-78 16q0 8 8 19l17 26q8 18 61 33t78 35.5t66 89.5l520 946q25 43 24 76q0 23 -14 41t-22.5 29.5t-50.5 25t-42 27.5q0 8 8 18l15 29q12 23 49 23h270q16 0 25.5 -17.5t9.5 -42.5q27 -205 56.5 -396.5t64.5 -387t58.5 -326.5t56.5 -147q37 -12 71.5 -23.5t22.5 -32.5 l-29 -45q-6 -10 -17 -13t-30 -3h-371q-25 0 -24 12q0 6 6 17l25 37q37 18 72.5 34.5t35.5 71.5q0 16 -2 27l-35 231h-514l-139 -252q-12 -23 -12 -37q0 -27 45 -47t30 -41l-16 -22q-8 -10 -17.5 -20.5t-25.5 -10.5h-276q-27 0 -42.5 3t-15.5 13zM449 543h438l-94 639z M451 1626q43 76 108.5 125t132.5 49q29 0 48.5 -7t89.5 -48q39 -25 68.5 -41t51.5 -16q39 0 67 26.5t48.5 57t36.5 30.5q14 0 34.5 -13t20.5 -38q0 -10 -31.5 -52t-84 -85t-109.5 -43q-35 0 -57.5 11t-64.5 42t-66.5 45t-75.5 14q-41 0 -69.5 -27.5t-52.5 -60t-40 -32.5 q-27 0 -48.5 19.5t-6.5 43.5z" />
<glyph unicode="&#xc4;" horiz-adv-x="1290" d="M-78 16q0 8 8 19l17 26q8 18 61 33t78 35.5t66 89.5l520 946q25 43 24 76q0 23 -14 41t-22.5 29.5t-50.5 25t-42 27.5q0 8 8 18l15 29q12 23 49 23h270q16 0 25.5 -17.5t9.5 -42.5q27 -205 56.5 -396.5t64.5 -387t58.5 -326.5t56.5 -147q37 -12 71.5 -23.5t22.5 -32.5 l-29 -45q-6 -10 -17 -13t-30 -3h-371q-25 0 -24 12q0 6 6 17l25 37q37 18 72.5 34.5t35.5 71.5q0 16 -2 27l-35 231h-514l-139 -252q-12 -23 -12 -37q0 -27 45 -47t30 -41l-16 -22q-8 -10 -17.5 -20.5t-25.5 -10.5h-276q-27 0 -42.5 3t-15.5 13zM449 543h438l-94 639z M514 1700q10 41 47 73.5t78 32.5q37 0 59.5 -24.5t22.5 -63.5q0 -12 -5 -35.5t-42 -54.5t-80 -31q-39 0 -63.5 31t-16.5 72zM926 1700q10 41 47 73.5t78 32.5q37 0 59.5 -24.5t22.5 -63.5q0 -12 -5 -35.5t-42 -54.5t-80 -31q-39 0 -63.5 31t-16.5 72z" />
<glyph unicode="&#xc5;" horiz-adv-x="1290" d="M-78 16q0 8 8 19l17 26q8 18 61 33t78 35.5t66 89.5l520 946q25 43 24 76q0 23 -14 41t-22.5 29.5t-50.5 25t-42 27.5q0 8 8 18l15 29q12 23 49 23h270q16 0 25.5 -17.5t9.5 -42.5q27 -205 56.5 -396.5t64.5 -387t58.5 -326.5t56.5 -147q37 -12 71.5 -23.5t22.5 -32.5 l-29 -45q-6 -10 -17 -13t-30 -3h-371q-25 0 -24 12q0 6 6 17l25 37q37 18 72.5 34.5t35.5 71.5q0 16 -2 27l-35 231h-514l-139 -252q-12 -23 -12 -37q0 -27 45 -47t30 -41l-16 -22q-8 -10 -17.5 -20.5t-25.5 -10.5h-276q-27 0 -42.5 3t-15.5 13zM449 543h438l-94 639z M653 1737q0 82 59.5 143.5t145.5 61.5q84 0 143.5 -59.5t59.5 -145.5q0 -84 -59.5 -143.5t-143.5 -59.5q-82 0 -143.5 59.5t-61.5 143.5zM735 1737q0 -47 37 -84t86 -37q47 0 84 37t37 84q0 49 -35 86t-86 37q-49 0 -86 -37t-37 -86z" />
<glyph unicode="&#xc6;" horiz-adv-x="1669" d="M-82 14q0 10 8 21l17 26q8 18 52 30.5t79 42.5t108 138l598 893q29 41 29 74q0 20 -16.5 40.5t-24.5 32t-50 25t-42 27.5q0 8 8 18l14 29q12 23 50 23h886q45 0 45 -39q0 -10 -2 -17l-26 -147l-13 -19l-41 -30q-23 35 -43 69q-37 90 -108 90h-264l-97 -507h426 q23 0 23 -15q0 -6 -6 -16l-35 -53q-18 -29 -63 -29h-367l-78 -420q-12 -68 -12 -111q0 -57 24.5 -77.5t83.5 -20.5h148q86 0 155 60q53 61 109 122l45 -18q12 -2 8 -18l-35 -185q-10 -53 -94 -53h-588q-37 0 -52 9t-15 61v41q6 23 8 32l51 287h-403l-170 -252 q-14 -23 -15 -39q0 -25 46.5 -46t31.5 -40l-16 -22q-8 -10 -17.5 -20.5t-25.5 -10.5h-293q-41 0 -41 14zM485 543h357l139 719l-4 4z" />
<glyph unicode="&#xc7;" horiz-adv-x="1366" d="M131 610q0 317 225.5 582.5t638.5 265.5q147 0 249 -31.5t137.5 -54t36.5 -31t-1 -26.5l-28 -144q-8 -14 -13 -18l-39 -31q-23 82 -108.5 162t-257.5 80q-305 0 -472 -232.5t-167 -496.5q0 -231 133 -392t344 -161q84 0 175 34t171 105q14 14 43 -9.5t14 -43.5l-71 -102 q-10 -12 -20.5 -23.5t-37 -25t-108.5 -28t-176 -14.5q-338 0 -503 187.5t-165 447.5zM387 -397q0 18 16.5 36.5t30.5 12.5q16 -6 54 -13.5t57 -7.5q119 0 129 47.5t10 59.5q0 57 -59 57q-8 2 -25 2q-20 0 -40.5 -5t-29.5 -5l-12 10l139 223h74l-94 -153l61 6 q63 0 104.5 -27.5t41.5 -83.5q0 -10 -10.5 -59t-99.5 -96t-193 -47q-41 0 -77 8t-56.5 15t-20.5 20z" />
<glyph unicode="&#xc8;" horiz-adv-x="1099" d="M168 70v41q6 23 8 32l201 1074q4 25 4 34q0 72 -59.5 84.5t-67.5 18.5t2 20l20 37q12 23 35 23h729q45 0 45 -39q0 -10 -2 -17l-26 -147l-13 -19l-40 -30q-23 35 -43 69q-37 90 -109 90h-264l-96 -507h426q23 0 22 -15q0 -6 -6 -16l-35 -53q-18 -29 -63 -29h-367 l-78 -420q-12 -68 -12 -111q0 -57 24.5 -77.5t83.5 -20.5h179q86 0 155 60q53 61 109 122l45 -18q12 -2 8 -18l-35 -185q-10 -53 -94 -53h-618q-37 0 -52.5 9t-15.5 61zM524 1841q13 72 76 72q20 0 45.5 -19.5t48.5 -44.5l196 -211q16 -16 -3 -39.5t-44 -23.5q-8 0 -18 6 l-234 172q-27 23 -53 47q-18 23 -14 41z" />
<glyph unicode="&#xc9;" horiz-adv-x="1099" d="M168 70v41q6 23 8 32l201 1074q4 25 4 34q0 72 -59.5 84.5t-67.5 18.5t2 20l20 37q12 23 35 23h729q45 0 45 -39q0 -10 -2 -17l-26 -147l-13 -19l-40 -30q-23 35 -43 69q-37 90 -109 90h-264l-96 -507h426q23 0 22 -15q0 -6 -6 -16l-35 -53q-18 -29 -63 -29h-367 l-78 -420q-12 -68 -12 -111q0 -57 24.5 -77.5t83.5 -20.5h179q86 0 155 60q53 61 109 122l45 -18q12 -2 8 -18l-35 -185q-10 -53 -94 -53h-618q-37 0 -52.5 9t-15.5 61zM602 1606q0 20 16 30l309 246q33 25 60.5 44.5t60.5 19.5q14 0 28.5 -22.5t10.5 -41.5 q-6 -31 -39 -57.5t-55 -40.5l-320 -211q-12 -10 -30 -10q-41 0 -41 43z" />
<glyph unicode="&#xca;" horiz-adv-x="1099" d="M168 70v41q6 23 8 32l201 1074q4 25 4 34q0 72 -59.5 84.5t-67.5 18.5t2 20l20 37q12 23 35 23h729q45 0 45 -39q0 -10 -2 -17l-26 -147l-13 -19l-40 -30q-23 35 -43 69q-37 90 -109 90h-264l-96 -507h426q23 0 22 -15q0 -6 -6 -16l-35 -53q-18 -29 -63 -29h-367 l-78 -420q-12 -68 -12 -111q0 -57 24.5 -77.5t83.5 -20.5h179q86 0 155 60q53 61 109 122l45 -18q12 -2 8 -18l-35 -185q-10 -53 -94 -53h-618q-37 0 -52.5 9t-15.5 61zM475 1579l268 287h119l156 -283q8 -14 -4.5 -21.5t-36.5 -7.5q-29 0 -44.5 7.5t-23.5 17.5l-129 174 l-207 -190q-20 -16 -59 -17q-25 0 -38 9.5t-1 23.5z" />
<glyph unicode="&#xcb;" horiz-adv-x="1099" d="M168 70v41q6 23 8 32l201 1074q4 25 4 34q0 72 -59.5 84.5t-67.5 18.5t2 20l20 37q12 23 35 23h729q45 0 45 -39q0 -10 -2 -17l-26 -147l-13 -19l-40 -30q-23 35 -43 69q-37 90 -109 90h-264l-96 -507h426q23 0 22 -15q0 -6 -6 -16l-35 -53q-18 -29 -63 -29h-367 l-78 -420q-12 -68 -12 -111q0 -57 24.5 -77.5t83.5 -20.5h179q86 0 155 60q53 61 109 122l45 -18q12 -2 8 -18l-35 -185q-10 -53 -94 -53h-618q-37 0 -52.5 9t-15.5 61zM419 1700q10 41 47 73.5t78 32.5q37 0 59.5 -24.5t22.5 -63.5q0 -12 -5 -35.5t-42 -54.5t-80 -31 q-39 0 -63.5 31t-16.5 72zM831 1700q10 41 47 73.5t78 32.5q37 0 59.5 -24.5t22.5 -63.5q0 -12 -5 -35.5t-42 -54.5t-80 -31q-39 0 -63.5 31t-16.5 72z" />
<glyph unicode="&#xcc;" horiz-adv-x="681" d="M23 16q0 6 6 17l16 33q10 18 41 26q41 6 72.5 33t42.5 78l192 1028q4 29 4 37q0 35 -22.5 49t-79.5 29q-20 2 -21 16q0 8 7 18l24 37q10 16 33 17h393q25 0 25 -17q0 -6 -6 -16l-17 -33q-12 -18 -41 -27q-41 -6 -72.5 -32.5t-41.5 -77.5l-191 -1028q-6 -25 -6 -41 q0 -31 22.5 -45.5t79.5 -28.5q20 -2 21 -16q0 -8 -6 -19l-23 -37q-12 -16 -37 -16h-391q-25 0 -24 16zM316 1841q13 72 76 72q20 0 45.5 -19.5t48.5 -44.5l196 -211q16 -16 -3 -39.5t-44 -23.5q-8 0 -18 6l-234 172q-27 23 -53 47q-18 23 -14 41z" />
<glyph unicode="&#xcd;" horiz-adv-x="681" d="M23 16q0 6 6 17l16 33q10 18 41 26q41 6 72.5 33t42.5 78l192 1028q4 29 4 37q0 35 -22.5 49t-79.5 29q-20 2 -21 16q0 8 7 18l24 37q10 16 33 17h393q25 0 25 -17q0 -6 -6 -16l-17 -33q-12 -18 -41 -27q-41 -6 -72.5 -32.5t-41.5 -77.5l-191 -1028q-6 -25 -6 -41 q0 -31 22.5 -45.5t79.5 -28.5q20 -2 21 -16q0 -8 -6 -19l-23 -37q-12 -16 -37 -16h-391q-25 0 -24 16zM394 1606q0 20 16 30l309 246q33 25 60.5 44.5t60.5 19.5q14 0 28.5 -22.5t10.5 -41.5q-6 -31 -39 -57.5t-55 -40.5l-320 -211q-12 -10 -30 -10q-41 0 -41 43z" />
<glyph unicode="&#xce;" horiz-adv-x="681" d="M23 16q0 6 6 17l16 33q10 18 41 26q41 6 72.5 33t42.5 78l192 1028q4 29 4 37q0 35 -22.5 49t-79.5 29q-20 2 -21 16q0 8 7 18l24 37q10 16 33 17h393q25 0 25 -17q0 -6 -6 -16l-17 -33q-12 -18 -41 -27q-41 -6 -72.5 -32.5t-41.5 -77.5l-191 -1028q-6 -25 -6 -41 q0 -31 22.5 -45.5t79.5 -28.5q20 -2 21 -16q0 -8 -6 -19l-23 -37q-12 -16 -37 -16h-391q-25 0 -24 16zM266 1579l268 287h119l156 -283q8 -14 -4.5 -21.5t-36.5 -7.5q-29 0 -44.5 7.5t-23.5 17.5l-129 174l-207 -190q-20 -16 -59 -17q-25 0 -38 9.5t-1 23.5z" />
<glyph unicode="&#xcf;" horiz-adv-x="681" d="M23 16q0 6 6 17l16 33q10 18 41 26q41 6 72.5 33t42.5 78l192 1028q4 29 4 37q0 35 -22.5 49t-79.5 29q-20 2 -21 16q0 8 7 18l24 37q10 16 33 17h393q25 0 25 -17q0 -6 -6 -16l-17 -33q-12 -18 -41 -27q-41 -6 -72.5 -32.5t-41.5 -77.5l-191 -1028q-6 -25 -6 -41 q0 -31 22.5 -45.5t79.5 -28.5q20 -2 21 -16q0 -8 -6 -19l-23 -37q-12 -16 -37 -16h-391q-25 0 -24 16zM262 1700q10 41 47 73.5t78 32.5q37 0 59.5 -24.5t22.5 -63.5q0 -12 -5 -35.5t-42 -54.5t-80 -31q-39 0 -63.5 31t-16.5 72zM674 1700q10 41 47 73.5t78 32.5 q37 0 59.5 -24.5t22.5 -63.5q0 -12 -5 -35.5t-42 -54.5t-80 -31q-39 0 -63.5 31t-16.5 72z" />
<glyph unicode="&#xd0;" horiz-adv-x="1517" d="M49 713l25 98h225l76 406q4 25 4 34q0 72 -59.5 84.5t-67.5 18.5t2 20l22 37q12 23 35 23h570q326 0 447.5 -162t121.5 -416q0 -348 -220 -614.5t-634 -266.5q-133 0 -229.5 11.5t-146.5 32t-50 73.5q0 12 4 41l107 580h-232zM387 246q0 -90 65.5 -133t184.5 -43 q258 0 435 190.5t177 587.5q0 217 -102.5 356t-312.5 139h-244l-101 -532h314l-29 -98h-303l-78 -410q-6 -31 -6 -57z" />
<glyph unicode="&#xd1;" horiz-adv-x="1554" d="M43 16q0 6 6 17l19 33q8 16 38 26q43 6 75 33t42 78l193 1028q-31 47 -72 75.5t-72.5 36t-31.5 23.5q0 4 6 14l22 39q10 14 35 15h223q31 -2 47.5 -20.5t40.5 -63.5l572 -1051l174 932q4 33 4 39q0 35 -20.5 48t-79.5 28q-20 2 -21 16q0 8 6 18l23 37q10 16 33 17h325 q25 0 25 -17q0 -6 -6 -16l-19 -33q-8 -18 -39 -27q-41 -6 -73.5 -33.5t-40.5 -76.5l-220 -1165q-6 -35 -16 -50.5t-37 -15.5h-61q-6 0 -16.5 12.5t-47.5 79.5l-565 1028l-176 -917q-4 -29 -4 -37q0 -37 20.5 -50.5t81.5 -27.5q20 -2 21 -16q0 -8 -6 -19l-23 -37 q-12 -16 -35 -16h-325q-25 0 -25 16zM633 1626q43 76 108.5 125t132.5 49q29 0 48.5 -7t89.5 -48q39 -25 68.5 -41t51.5 -16q39 0 67 26.5t48.5 57t36.5 30.5q14 0 34.5 -13t20.5 -38q0 -10 -31.5 -52t-84 -85t-109.5 -43q-35 0 -57.5 11t-64.5 42t-66.5 45t-75.5 14 q-41 0 -69.5 -27.5t-52.5 -60t-40 -32.5q-27 0 -48.5 19.5t-6.5 43.5z" />
<glyph unicode="&#xd2;" horiz-adv-x="1517" d="M131 592q0 381 238.5 623.5t578.5 242.5q244 0 396.5 -144t152.5 -427q0 -344 -140 -548t-312.5 -284t-290.5 -80q-150 0 -279 35t-236.5 171t-107.5 411zM332 580q0 -213 105.5 -359.5t287.5 -146.5q276 0 423.5 246.5t147.5 566.5q0 219 -95 348t-298 129 q-254 0 -412.5 -232.5t-158.5 -551.5zM733 1841q13 72 76 72q20 0 45.5 -19.5t48.5 -44.5l196 -211q16 -16 -3 -39.5t-44 -23.5q-8 0 -18 6l-234 172q-27 23 -53 47q-18 23 -14 41z" />
<glyph unicode="&#xd3;" horiz-adv-x="1517" d="M131 592q0 381 238.5 623.5t578.5 242.5q244 0 396.5 -144t152.5 -427q0 -344 -140 -548t-312.5 -284t-290.5 -80q-150 0 -279 35t-236.5 171t-107.5 411zM332 580q0 -213 105.5 -359.5t287.5 -146.5q276 0 423.5 246.5t147.5 566.5q0 219 -95 348t-298 129 q-254 0 -412.5 -232.5t-158.5 -551.5zM811 1606q0 20 16 30l309 246q33 25 60.5 44.5t60.5 19.5q14 0 28.5 -22.5t10.5 -41.5q-6 -31 -39 -57.5t-55 -40.5l-320 -211q-12 -10 -30 -10q-41 0 -41 43z" />
<glyph unicode="&#xd4;" horiz-adv-x="1517" d="M131 592q0 381 238.5 623.5t578.5 242.5q244 0 396.5 -144t152.5 -427q0 -344 -140 -548t-312.5 -284t-290.5 -80q-150 0 -279 35t-236.5 171t-107.5 411zM332 580q0 -213 105.5 -359.5t287.5 -146.5q276 0 423.5 246.5t147.5 566.5q0 219 -95 348t-298 129 q-254 0 -412.5 -232.5t-158.5 -551.5zM684 1579l268 287h119l156 -283q8 -14 -4.5 -21.5t-36.5 -7.5q-29 0 -44.5 7.5t-23.5 17.5l-129 174l-207 -190q-20 -16 -59 -17q-25 0 -38 9.5t-1 23.5z" />
<glyph unicode="&#xd5;" horiz-adv-x="1517" d="M131 592q0 381 238.5 623.5t578.5 242.5q244 0 396.5 -144t152.5 -427q0 -344 -140 -548t-312.5 -284t-290.5 -80q-150 0 -279 35t-236.5 171t-107.5 411zM332 580q0 -213 105.5 -359.5t287.5 -146.5q276 0 423.5 246.5t147.5 566.5q0 219 -95 348t-298 129 q-254 0 -412.5 -232.5t-158.5 -551.5zM615 1626q43 76 108.5 125t132.5 49q29 0 48.5 -7t89.5 -48q39 -25 68.5 -41t51.5 -16q39 0 67 26.5t48.5 57t36.5 30.5q14 0 34.5 -13t20.5 -38q0 -10 -31.5 -52t-84 -85t-109.5 -43q-35 0 -57.5 11t-64.5 42t-66.5 45t-75.5 14 q-41 0 -69.5 -27.5t-52.5 -60t-40 -32.5q-27 0 -48.5 19.5t-6.5 43.5z" />
<glyph unicode="&#xd6;" horiz-adv-x="1517" d="M131 592q0 381 238.5 623.5t578.5 242.5q244 0 396.5 -144t152.5 -427q0 -344 -140 -548t-312.5 -284t-290.5 -80q-150 0 -279 35t-236.5 171t-107.5 411zM332 580q0 -213 105.5 -359.5t287.5 -146.5q276 0 423.5 246.5t147.5 566.5q0 219 -95 348t-298 129 q-254 0 -412.5 -232.5t-158.5 -551.5zM639 1700q10 41 47 73.5t78 32.5q37 0 59.5 -24.5t22.5 -63.5q0 -12 -5 -35.5t-42 -54.5t-80 -31q-39 0 -63.5 31t-16.5 72zM1051 1700q10 41 47 73.5t78 32.5q37 0 59.5 -24.5t22.5 -63.5q0 -12 -5 -35.5t-42 -54.5t-80 -31 q-39 0 -63.5 31t-16.5 72z" />
<glyph unicode="&#xd7;" horiz-adv-x="1251" d="M127 113l403 405l-403 406l94 94l404 -404l403 404l94 -94l-403 -406l403 -405l-94 -95l-403 404l-404 -404z" />
<glyph unicode="&#xd8;" horiz-adv-x="1517" d="M119 45l123 135q-53 70 -82 171.5t-29 240.5q0 381 238.5 623.5t578.5 242.5q211 0 350 -106l103 114l90 -65l-115 -125q57 -68 89 -167t32 -222q0 -344 -140 -548t-312.5 -284t-290.5 -80q-127 0 -233.5 22.5t-205.5 104.5l-118 -131zM332 580q0 -133 47 -246l817 905 q-98 125 -293 125q-254 0 -412.5 -232.5t-158.5 -551.5zM432 231q49 -74 123 -115.5t170 -41.5q276 0 423.5 246.5t147.5 566.5q0 152 -43 252z" />
<glyph unicode="&#xd9;" horiz-adv-x="1413" d="M223 387q0 49 4 92t17 105l121 647q4 29 4 37q0 35 -22.5 50t-61.5 22.5t-39 21.5q0 8 6 18l22 37q12 16 35 17h391q25 0 25 -15q0 -6 -6 -18l-17 -33q-10 -18 -45.5 -26.5t-67.5 -34t-40 -76.5l-129 -678q-12 -74 -12 -135q0 -147 70.5 -223t193.5 -76q154 0 259 107.5 t150 346.5l125 658q4 29 4 37q0 37 -20.5 50t-81.5 28q-20 2 -21 16q0 8 7 18l22 37q12 16 35 17h324q25 0 24 -17q0 -6 -6 -16l-18 -33q-8 -16 -39 -27q-43 -8 -75 -33.5t-40 -76.5l-125 -664q-57 -311 -204.5 -451.5t-358.5 -140.5q-207 0 -308.5 105.5t-101.5 306.5z M680 1841q13 72 76 72q20 0 45.5 -19.5t48.5 -44.5l196 -211q16 -16 -3 -39.5t-44 -23.5q-8 0 -18 6l-234 172q-27 23 -53 47q-18 23 -14 41z" />
<glyph unicode="&#xda;" horiz-adv-x="1413" d="M223 387q0 49 4 92t17 105l121 647q4 29 4 37q0 35 -22.5 50t-61.5 22.5t-39 21.5q0 8 6 18l22 37q12 16 35 17h391q25 0 25 -15q0 -6 -6 -18l-17 -33q-10 -18 -45.5 -26.5t-67.5 -34t-40 -76.5l-129 -678q-12 -74 -12 -135q0 -147 70.5 -223t193.5 -76q154 0 259 107.5 t150 346.5l125 658q4 29 4 37q0 37 -20.5 50t-81.5 28q-20 2 -21 16q0 8 7 18l22 37q12 16 35 17h324q25 0 24 -17q0 -6 -6 -16l-18 -33q-8 -16 -39 -27q-43 -8 -75 -33.5t-40 -76.5l-125 -664q-57 -311 -204.5 -451.5t-358.5 -140.5q-207 0 -308.5 105.5t-101.5 306.5z M758 1606q0 20 16 30l309 246q33 25 60.5 44.5t60.5 19.5q14 0 28.5 -22.5t10.5 -41.5q-6 -31 -39 -57.5t-55 -40.5l-320 -211q-12 -10 -30 -10q-41 0 -41 43z" />
<glyph unicode="&#xdb;" horiz-adv-x="1413" d="M223 387q0 49 4 92t17 105l121 647q4 29 4 37q0 35 -22.5 50t-61.5 22.5t-39 21.5q0 8 6 18l22 37q12 16 35 17h391q25 0 25 -15q0 -6 -6 -18l-17 -33q-10 -18 -45.5 -26.5t-67.5 -34t-40 -76.5l-129 -678q-12 -74 -12 -135q0 -147 70.5 -223t193.5 -76q154 0 259 107.5 t150 346.5l125 658q4 29 4 37q0 37 -20.5 50t-81.5 28q-20 2 -21 16q0 8 7 18l22 37q12 16 35 17h324q25 0 24 -17q0 -6 -6 -16l-18 -33q-8 -16 -39 -27q-43 -8 -75 -33.5t-40 -76.5l-125 -664q-57 -311 -204.5 -451.5t-358.5 -140.5q-207 0 -308.5 105.5t-101.5 306.5z M631 1579l268 287h119l156 -283q8 -14 -4.5 -21.5t-36.5 -7.5q-29 0 -44.5 7.5t-23.5 17.5l-129 174l-207 -190q-20 -16 -59 -17q-25 0 -38 9.5t-1 23.5z" />
<glyph unicode="&#xdc;" horiz-adv-x="1413" d="M223 387q0 49 4 92t17 105l121 647q4 29 4 37q0 35 -22.5 50t-61.5 22.5t-39 21.5q0 8 6 18l22 37q12 16 35 17h391q25 0 25 -15q0 -6 -6 -18l-17 -33q-10 -18 -45.5 -26.5t-67.5 -34t-40 -76.5l-129 -678q-12 -74 -12 -135q0 -147 70.5 -223t193.5 -76q154 0 259 107.5 t150 346.5l125 658q4 29 4 37q0 37 -20.5 50t-81.5 28q-20 2 -21 16q0 8 7 18l22 37q12 16 35 17h324q25 0 24 -17q0 -6 -6 -16l-18 -33q-8 -16 -39 -27q-43 -8 -75 -33.5t-40 -76.5l-125 -664q-57 -311 -204.5 -451.5t-358.5 -140.5q-207 0 -308.5 105.5t-101.5 306.5z M626 1700q10 41 47 73.5t78 32.5q37 0 59.5 -24.5t22.5 -63.5q0 -12 -5 -35.5t-42 -54.5t-80 -31q-39 0 -63.5 31t-16.5 72zM1038 1700q10 41 47 73.5t78 32.5q37 0 59.5 -24.5t22.5 -63.5q0 -12 -5 -35.5t-42 -54.5t-80 -31q-39 0 -63.5 31t-16.5 72z" />
<glyph unicode="&#xdd;" horiz-adv-x="1126" d="M193.5 1356q-7.5 8 1.5 20l22 39q10 18 35 19h344q31 0 16 -27l-22 -41q-4 -8 -27.5 -19.5t-40 -24.5t-25 -28.5t-8.5 -48.5v-18l125 -531l367 541q23 31 23 53q0 14 -7.5 24.5t-25 22t-37.5 25.5q-6 8 2 20l22 33q10 14 23 15h283q23 0 22 -13q0 -4 -6 -14l-16 -35 q-6 -12 -25.5 -21.5t-42 -17.5t-52.5 -33.5t-67 -78.5l-385 -564q-39 -59 -48 -97t-21 -97l-48 -256q-4 -33 -4 -39q0 -53 103 -76q18 -2 18 -16q0 -8 -6 -19l-20 -37q-12 -16 -37 -16h-393q-23 0 -23 14q0 6 6 19l17 33q8 16 38 26q43 8 75 34t40 77l70 370l-160 646 q-14 66 -29.5 84t-42 31.5t-34 21.5zM615 1606q0 20 16 30l309 246q33 25 60.5 44.5t60.5 19.5q14 0 28.5 -22.5t10.5 -41.5q-6 -31 -39 -57.5t-55 -40.5l-320 -211q-12 -10 -30 -10q-41 0 -41 43z" />
<glyph unicode="&#xde;" horiz-adv-x="1138" d="M31 16q0 6 6 17l16 33q10 18 41 26q43 6 75 33t42 78l197 1028q4 29 4 37q0 35 -22.5 49t-80.5 29q-20 2 -20 16q0 8 6 18l24 37q10 16 35 17h394q25 0 24 -17q0 -6 -6 -16l-16 -33q-10 -18 -41 -27q-43 -6 -75 -32.5t-42 -77.5l-8 -103h168q242 0 315.5 -97t73.5 -216 q0 -166 -155 -283.5t-365 -117.5h-181l-45 -211q-4 -29 -4 -37q0 -35 22.5 -49.5t80.5 -28.5q20 -2 20 -16q0 -8 -6 -19l-25 -37q-10 -16 -34 -16h-394q-25 0 -24 16zM461 516h145q125 0 227.5 64.5t102.5 234.5q0 104 -55.5 157.5t-194.5 53.5h-127z" />
<glyph unicode="&#xdf;" horiz-adv-x="1167" d="M76 0l211 1128q29 145 146.5 261t307.5 116q143 0 221 -73.5t78 -169.5q0 -145 -110.5 -284.5t-110.5 -203.5q0 -49 153.5 -196.5t153.5 -288.5q-12 -139 -127.5 -226.5t-283.5 -87.5q-92 0 -155.5 21.5t-94.5 48.5l-33 131q-6 29 10 41l62 43q18 12 31 -4l65 -106 q33 -47 74 -67t84 -20q55 0 115.5 53.5t60.5 151.5q0 86 -151.5 237.5t-151.5 264.5q0 121 129 252t129 235q0 57 -52.5 97.5t-115.5 40.5q-92 0 -157.5 -61.5t-88.5 -182.5l-219 -1151h-180z" />
<glyph unicode="&#xe0;" horiz-adv-x="1138" d="M88 365q0 254 183.5 469t455.5 215q74 0 135.5 -13.5t122.5 -42.5q31 -20 64 -39q27 -25 26 -77q0 -25 -6 -56l-111 -577q-6 -37 -6 -58q0 -45 45 -39q23 4 51.5 10.5t32.5 6.5q14 0 17 -10l8 -45q0 -16 -13.5 -24.5t-45.5 -21.5l-252 -88q-63 0 -64 45q0 4 4 21l49 221 l-4 4q-61 -113 -178 -202t-219 -89q-119 0 -207 100.5t-88 289.5zM285 336q0 -78 28.5 -158t116.5 -80q137 0 290.5 235t153.5 460q0 90 -47 129t-114 39q-174 0 -301 -194t-127 -431zM543 1458q13 72 76 72q20 0 45.5 -19.5t48.5 -44.5l196 -211q16 -16 -3 -39.5t-44 -23.5 q-8 0 -18 6l-234 172q-27 23 -53 47q-18 23 -14 41z" />
<glyph unicode="&#xe1;" horiz-adv-x="1138" d="M88 365q0 254 183.5 469t455.5 215q74 0 135.5 -13.5t122.5 -42.5q31 -20 64 -39q27 -25 26 -77q0 -25 -6 -56l-111 -577q-6 -37 -6 -58q0 -45 45 -39q23 4 51.5 10.5t32.5 6.5q14 0 17 -10l8 -45q0 -16 -13.5 -24.5t-45.5 -21.5l-252 -88q-63 0 -64 45q0 4 4 21l49 221 l-4 4q-61 -113 -178 -202t-219 -89q-119 0 -207 100.5t-88 289.5zM285 336q0 -78 28.5 -158t116.5 -80q137 0 290.5 235t153.5 460q0 90 -47 129t-114 39q-174 0 -301 -194t-127 -431zM559 1223q0 20 16 30l309 246q33 25 60.5 44.5t60.5 19.5q14 0 28.5 -22.5t10.5 -41.5 q-6 -31 -39 -57.5t-55 -40.5l-320 -211q-12 -10 -30 -10q-41 0 -41 43z" />
<glyph unicode="&#xe2;" horiz-adv-x="1138" d="M88 365q0 254 183.5 469t455.5 215q74 0 135.5 -13.5t122.5 -42.5q31 -20 64 -39q27 -25 26 -77q0 -25 -6 -56l-111 -577q-6 -37 -6 -58q0 -45 45 -39q23 4 51.5 10.5t32.5 6.5q14 0 17 -10l8 -45q0 -16 -13.5 -24.5t-45.5 -21.5l-252 -88q-63 0 -64 45q0 4 4 21l49 221 l-4 4q-61 -113 -178 -202t-219 -89q-119 0 -207 100.5t-88 289.5zM285 336q0 -78 28.5 -158t116.5 -80q137 0 290.5 235t153.5 460q0 90 -47 129t-114 39q-174 0 -301 -194t-127 -431zM494 1196l268 287h119l156 -283q8 -14 -4.5 -21.5t-36.5 -7.5q-29 0 -44.5 7.5 t-23.5 17.5l-129 174l-207 -190q-20 -16 -59 -17q-25 0 -38 9.5t-1 23.5z" />
<glyph unicode="&#xe3;" horiz-adv-x="1138" d="M88 365q0 254 183.5 469t455.5 215q74 0 135.5 -13.5t122.5 -42.5q31 -20 64 -39q27 -25 26 -77q0 -25 -6 -56l-111 -577q-6 -37 -6 -58q0 -45 45 -39q23 4 51.5 10.5t32.5 6.5q14 0 17 -10l8 -45q0 -16 -13.5 -24.5t-45.5 -21.5l-252 -88q-63 0 -64 45q0 4 4 21l49 221 l-4 4q-61 -113 -178 -202t-219 -89q-119 0 -207 100.5t-88 289.5zM285 336q0 -78 28.5 -158t116.5 -80q137 0 290.5 235t153.5 460q0 90 -47 129t-114 39q-174 0 -301 -194t-127 -431zM426 1243q43 76 108.5 125t132.5 49q29 0 48.5 -7t89.5 -48q39 -25 68.5 -41t51.5 -16 q39 0 67 26.5t48.5 57t36.5 30.5q14 0 34.5 -13t20.5 -38q0 -10 -31.5 -52t-84 -85t-109.5 -43q-35 0 -57.5 11t-64.5 42t-66.5 45t-75.5 14q-41 0 -69.5 -27.5t-52.5 -60t-40 -32.5q-27 0 -48.5 19.5t-6.5 43.5z" />
<glyph unicode="&#xe4;" horiz-adv-x="1138" d="M88 365q0 254 183.5 469t455.5 215q74 0 135.5 -13.5t122.5 -42.5q31 -20 64 -39q27 -25 26 -77q0 -25 -6 -56l-111 -577q-6 -37 -6 -58q0 -45 45 -39q23 4 51.5 10.5t32.5 6.5q14 0 17 -10l8 -45q0 -16 -13.5 -24.5t-45.5 -21.5l-252 -88q-63 0 -64 45q0 4 4 21l49 221 l-4 4q-61 -113 -178 -202t-219 -89q-119 0 -207 100.5t-88 289.5zM285 336q0 -78 28.5 -158t116.5 -80q137 0 290.5 235t153.5 460q0 90 -47 129t-114 39q-174 0 -301 -194t-127 -431zM407 1317q10 41 47 73.5t78 32.5q37 0 59.5 -24.5t22.5 -63.5q0 -12 -5 -35.5t-42 -54.5 t-80 -31q-39 0 -63.5 31t-16.5 72zM819 1317q10 41 47 73.5t78 32.5q37 0 59.5 -24.5t22.5 -63.5q0 -12 -5 -35.5t-42 -54.5t-80 -31q-39 0 -63.5 31t-16.5 72z" />
<glyph unicode="&#xe5;" horiz-adv-x="1138" d="M88 365q0 254 183.5 469t455.5 215q74 0 135.5 -13.5t122.5 -42.5q31 -20 64 -39q27 -25 26 -77q0 -25 -6 -56l-111 -577q-6 -37 -6 -58q0 -45 45 -39q23 4 51.5 10.5t32.5 6.5q14 0 17 -10l8 -45q0 -16 -13.5 -24.5t-45.5 -21.5l-252 -88q-63 0 -64 45q0 4 4 21l49 221 l-4 4q-61 -113 -178 -202t-219 -89q-119 0 -207 100.5t-88 289.5zM285 336q0 -78 28.5 -158t116.5 -80q137 0 290.5 235t153.5 460q0 90 -47 129t-114 39q-174 0 -301 -194t-127 -431zM577 1354q0 82 59.5 143.5t145.5 61.5q84 0 143.5 -59.5t59.5 -145.5 q0 -84 -59.5 -143.5t-143.5 -59.5q-82 0 -143.5 59.5t-61.5 143.5zM659 1354q0 -47 37 -84t86 -37q47 0 84 37t37 84q0 49 -35 86t-86 37q-49 0 -86 -37t-37 -86z" />
<glyph unicode="&#xe6;" horiz-adv-x="1669" d="M88 365q0 254 183.5 469t455.5 215q74 0 135.5 -13.5t122.5 -42.5q41 -27 41 -63q0 -14 -2 -23q80 70 169 106t196 36q154 0 216 -70t62 -152q0 -147 -190.5 -237t-468.5 -90q-10 -51 -11 -92q0 -131 69 -217.5t191 -86.5q55 0 106.5 13.5t86.5 35t61 21.5q33 0 27 -29 l-10 -47q-6 -39 -67.5 -63.5t-126 -42t-148.5 -17.5q-164 0 -259.5 94.5t-117.5 217.5q-84 -129 -205 -220.5t-221 -91.5q-119 0 -207 100.5t-88 289.5zM285 336q0 -78 28.5 -158t116.5 -80q137 0 290.5 235t153.5 460q0 90 -47 129t-114 39q-174 0 -301 -194t-127 -431z M1016 598q197 0 341 57t144 168q0 57 -35.5 95t-93.5 38q-135 0 -223 -103t-133 -255z" />
<glyph unicode="&#xe7;" horiz-adv-x="909" d="M82 406q0 233 177 438t466 205q106 0 165.5 -16.5t59.5 -57.5q0 -12 -2 -19l-26 -129q-2 -6 -4.5 -12t-14.5 -12l-22 -15q-16 -10 -29.5 25t-25 64.5t-49.5 47t-105 17.5q-162 0 -277.5 -155.5t-115.5 -364.5q0 -141 64.5 -229.5t178.5 -88.5q63 0 104.5 11.5t76 34 t59.5 22.5q27 0 24 -27l-10 -47q-4 -20 -15 -32.5t-60.5 -35t-106.5 -39t-137 -16.5q-152 0 -263.5 116t-111.5 315zM160 -397q0 18 16.5 36.5t30.5 12.5q16 -6 54 -13.5t57 -7.5q119 0 129 47.5t10 59.5q0 57 -59 57q-8 2 -25 2q-20 0 -40.5 -5t-29.5 -5l-12 10l139 223h74 l-94 -153l61 6q63 0 104.5 -27.5t41.5 -83.5q0 -10 -10.5 -59t-99.5 -96t-193 -47q-41 0 -77 8t-56.5 15t-20.5 20z" />
<glyph unicode="&#xe8;" horiz-adv-x="948" d="M82 418q0 248 168 439.5t418 191.5q154 0 216 -70t62 -152q0 -147 -190.5 -237t-468.5 -90q-10 -51 -11 -92q0 -131 69 -217.5t192 -86.5q55 0 106 13.5t86 35t62 21.5q33 0 26 -29l-10 -47q-6 -39 -67.5 -63.5t-126 -42t-148.5 -17.5q-174 0 -278.5 121t-104.5 322z M295 598q197 0 341 57t144 168q0 57 -35.5 95t-93.5 38q-135 0 -223 -103t-133 -255zM449 1458q13 72 76 72q20 0 45.5 -19.5t48.5 -44.5l196 -211q16 -16 -3 -39.5t-44 -23.5q-8 0 -18 6l-234 172q-27 23 -53 47q-18 23 -14 41z" />
<glyph unicode="&#xe9;" horiz-adv-x="948" d="M82 418q0 248 168 439.5t418 191.5q154 0 216 -70t62 -152q0 -147 -190.5 -237t-468.5 -90q-10 -51 -11 -92q0 -131 69 -217.5t192 -86.5q55 0 106 13.5t86 35t62 21.5q33 0 26 -29l-10 -47q-6 -39 -67.5 -63.5t-126 -42t-148.5 -17.5q-174 0 -278.5 121t-104.5 322z M295 598q197 0 341 57t144 168q0 57 -35.5 95t-93.5 38q-135 0 -223 -103t-133 -255zM506 1223q0 20 16 30l309 246q33 25 60.5 44.5t60.5 19.5q14 0 28.5 -22.5t10.5 -41.5q-6 -31 -39 -57.5t-55 -40.5l-320 -211q-12 -10 -30 -10q-41 0 -41 43z" />
<glyph unicode="&#xea;" horiz-adv-x="948" d="M82 418q0 248 168 439.5t418 191.5q154 0 216 -70t62 -152q0 -147 -190.5 -237t-468.5 -90q-10 -51 -11 -92q0 -131 69 -217.5t192 -86.5q55 0 106 13.5t86 35t62 21.5q33 0 26 -29l-10 -47q-6 -39 -67.5 -63.5t-126 -42t-148.5 -17.5q-174 0 -278.5 121t-104.5 322z M295 598q197 0 341 57t144 168q0 57 -35.5 95t-93.5 38q-135 0 -223 -103t-133 -255zM399 1196l268 287h119l156 -283q8 -14 -4.5 -21.5t-36.5 -7.5q-29 0 -44.5 7.5t-23.5 17.5l-129 174l-207 -190q-20 -16 -59 -17q-25 0 -38 9.5t-1 23.5z" />
<glyph unicode="&#xeb;" horiz-adv-x="948" d="M82 418q0 248 168 439.5t418 191.5q154 0 216 -70t62 -152q0 -147 -190.5 -237t-468.5 -90q-10 -51 -11 -92q0 -131 69 -217.5t192 -86.5q55 0 106 13.5t86 35t62 21.5q33 0 26 -29l-10 -47q-6 -39 -67.5 -63.5t-126 -42t-148.5 -17.5q-174 0 -278.5 121t-104.5 322z M295 598q197 0 341 57t144 168q0 57 -35.5 95t-93.5 38q-135 0 -223 -103t-133 -255zM344 1317q10 41 47 73.5t78 32.5q37 0 59.5 -24.5t22.5 -63.5q0 -12 -5 -35.5t-42 -54.5t-80 -31q-39 0 -63.5 31t-16.5 72zM756 1317q10 41 47 73.5t78 32.5q37 0 59.5 -24.5t22.5 -63.5 q0 -12 -5 -35.5t-42 -54.5t-80 -31q-39 0 -63.5 31t-16.5 72z" />
<glyph unicode="&#xec;" horiz-adv-x="542" d="M109 41l153 778q6 29 6 41q0 25 -15 41.5t-55 31.5t-36 30l10 36q6 25 43 25h223q29 0 35 -9t2 -32l-143 -739q-6 -37 -6 -58q0 -45 45 -39q41 8 82 17q16 0 18 -10l8 -45q0 -16 -13 -24.5t-46 -21.5l-260 -88q-61 0 -51 66zM182 1458q13 72 76 72q20 0 45.5 -19.5 t48.5 -44.5l196 -211q16 -16 -3 -39.5t-44 -23.5q-8 0 -18 6l-234 172q-27 23 -53 47q-18 23 -14 41z" />
<glyph unicode="&#xed;" horiz-adv-x="542" d="M109 41l153 778q6 29 6 41q0 25 -15 41.5t-55 31.5t-36 30l10 36q6 25 43 25h223q29 0 35 -9t2 -32l-143 -739q-6 -37 -6 -58q0 -45 45 -39q41 8 82 17q16 0 18 -10l8 -45q0 -16 -13 -24.5t-46 -21.5l-260 -88q-61 0 -51 66zM260 1223q0 20 16 30l309 246 q33 25 60.5 44.5t60.5 19.5q14 0 28.5 -22.5t10.5 -41.5q-6 -31 -39 -57.5t-55 -40.5l-320 -211q-12 -10 -30 -10q-41 0 -41 43z" />
<glyph unicode="&#xee;" horiz-adv-x="542" d="M109 41l153 778q6 29 6 41q0 25 -15 41.5t-55 31.5t-36 30l10 36q6 25 43 25h223q29 0 35 -9t2 -32l-143 -739q-6 -37 -6 -58q0 -45 45 -39q41 8 82 17q16 0 18 -10l8 -45q0 -16 -13 -24.5t-46 -21.5l-260 -88q-61 0 -51 66zM113 1196l268 287h119l156 -283 q8 -14 -4.5 -21.5t-36.5 -7.5q-29 0 -44.5 7.5t-23.5 17.5l-129 174l-207 -190q-20 -16 -59 -17q-25 0 -38 9.5t-1 23.5z" />
<glyph unicode="&#xef;" horiz-adv-x="542" d="M108 1317q10 41 47 73.5t78 32.5q37 0 59.5 -24.5t22.5 -63.5q0 -12 -5 -35.5t-42 -54.5t-80 -31q-39 0 -63.5 31t-16.5 72zM109 41l153 778q6 29 6 41q0 25 -15 41.5t-55 31.5t-36 30l10 36q6 25 43 25h223q29 0 35 -9t2 -32l-143 -739q-6 -37 -6 -58q0 -45 45 -39 q41 8 82 17q16 0 18 -10l8 -45q0 -16 -13 -24.5t-46 -21.5l-260 -88q-61 0 -51 66zM520 1317q10 41 47 73.5t78 32.5q37 0 59.5 -24.5t22.5 -63.5q0 -12 -5 -35.5t-42 -54.5t-80 -31q-39 0 -63.5 31t-16.5 72z" />
<glyph unicode="&#xf1;" d="M94 0l158 819q4 33 4 39q0 27 -15.5 43.5t-55.5 31.5t-35 30l12 36q6 25 41 25h223q29 0 35 -9t2 -32l-35 -176l4 -4q72 113 192.5 179.5t239.5 66.5q209 0 209 -211q0 -55 -16 -142l-90 -452q-6 -35 -6 -56q0 -47 47 -41q41 8 82 17q16 0 18 -10l8 -45q0 -16 -13 -24.5 t-46 -21.5l-260 -88q-61 0 -52 66l107 547q23 113 22 180q0 80 -31.5 116t-103.5 36q-49 0 -102 -30t-124 -110t-107.5 -181t-65.5 -263l-64 -336h-182zM404 1243q43 76 108.5 125t132.5 49q29 0 48.5 -7t89.5 -48q39 -25 68.5 -41t51.5 -16q39 0 67 26.5t48.5 57t36.5 30.5 q14 0 34.5 -13t20.5 -38q0 -10 -31.5 -52t-84 -85t-109.5 -43q-35 0 -57.5 11t-64.5 42t-66.5 45t-75.5 14q-41 0 -69.5 -27.5t-52.5 -60t-40 -32.5q-27 0 -48.5 19.5t-6.5 43.5z" />
<glyph unicode="&#xf2;" horiz-adv-x="1062" d="M74 369q0 285 179 482.5t427 197.5q170 0 266 -114t96 -290q0 -238 -163.5 -454t-419.5 -216q-193 0 -289 121t-96 273zM270 412q0 -135 54.5 -229.5t156.5 -94.5q176 0 270.5 195.5t94.5 375.5q0 104 -48 190.5t-163 86.5q-121 0 -243 -147.5t-122 -376.5zM506 1458 q13 72 76 72q20 0 45.5 -19.5t48.5 -44.5l196 -211q16 -16 -3 -39.5t-44 -23.5q-8 0 -18 6l-234 172q-27 23 -53 47q-18 23 -14 41z" />
<glyph unicode="&#xf3;" horiz-adv-x="1062" d="M74 369q0 285 179 482.5t427 197.5q170 0 266 -114t96 -290q0 -238 -163.5 -454t-419.5 -216q-193 0 -289 121t-96 273zM270 412q0 -135 54.5 -229.5t156.5 -94.5q176 0 270.5 195.5t94.5 375.5q0 104 -48 190.5t-163 86.5q-121 0 -243 -147.5t-122 -376.5zM553 1223 q0 20 16 30l309 246q33 25 60.5 44.5t60.5 19.5q14 0 28.5 -22.5t10.5 -41.5q-6 -31 -39 -57.5t-55 -40.5l-320 -211q-12 -10 -30 -10q-41 0 -41 43z" />
<glyph unicode="&#xf4;" horiz-adv-x="1062" d="M74 369q0 285 179 482.5t427 197.5q170 0 266 -114t96 -290q0 -238 -163.5 -454t-419.5 -216q-193 0 -289 121t-96 273zM270 412q0 -135 54.5 -229.5t156.5 -94.5q176 0 270.5 195.5t94.5 375.5q0 104 -48 190.5t-163 86.5q-121 0 -243 -147.5t-122 -376.5zM395 1196 l268 287h119l156 -283q8 -14 -4.5 -21.5t-36.5 -7.5q-29 0 -44.5 7.5t-23.5 17.5l-129 174l-207 -190q-20 -16 -59 -17q-25 0 -38 9.5t-1 23.5z" />
<glyph unicode="&#xf5;" horiz-adv-x="1062" d="M74 369q0 285 179 482.5t427 197.5q170 0 266 -114t96 -290q0 -238 -163.5 -454t-419.5 -216q-193 0 -289 121t-96 273zM270 412q0 -135 54.5 -229.5t156.5 -94.5q176 0 270.5 195.5t94.5 375.5q0 104 -48 190.5t-163 86.5q-121 0 -243 -147.5t-122 -376.5zM357 1243 q43 76 108.5 125t132.5 49q29 0 48.5 -7t89.5 -48q39 -25 68.5 -41t51.5 -16q39 0 67 26.5t48.5 57t36.5 30.5q14 0 34.5 -13t20.5 -38q0 -10 -31.5 -52t-84 -85t-109.5 -43q-35 0 -57.5 11t-64.5 42t-66.5 45t-75.5 14q-41 0 -69.5 -27.5t-52.5 -60t-40 -32.5 q-27 0 -48.5 19.5t-6.5 43.5z" />
<glyph unicode="&#xf6;" horiz-adv-x="1062" d="M74 369q0 285 179 482.5t427 197.5q170 0 266 -114t96 -290q0 -238 -163.5 -454t-419.5 -216q-193 0 -289 121t-96 273zM270 412q0 -135 54.5 -229.5t156.5 -94.5q176 0 270.5 195.5t94.5 375.5q0 104 -48 190.5t-163 86.5q-121 0 -243 -147.5t-122 -376.5zM370 1317 q10 41 47 73.5t78 32.5q37 0 59.5 -24.5t22.5 -63.5q0 -12 -5 -35.5t-42 -54.5t-80 -31q-39 0 -63.5 31t-16.5 72zM782 1317q10 41 47 73.5t78 32.5q37 0 59.5 -24.5t22.5 -63.5q0 -12 -5 -35.5t-42 -54.5t-80 -31q-39 0 -63.5 31t-16.5 72z" />
<glyph unicode="&#xf7;" horiz-adv-x="1251" d="M111 451v135h1032v-135h-1032zM496 199q0 53 38 91t91 38t92 -37t39 -92q0 -49 -39 -90t-90 -41q-53 0 -92 38.5t-39 92.5zM496 840q0 53 38 91t91 38t92 -37t39 -92q0 -49 -39 -90t-90 -41q-53 0 -92 38.5t-39 92.5z" />
<glyph unicode="&#xf8;" horiz-adv-x="1062" d="M74 369q0 285 179 482.5t427 197.5q70 0 125 -21l133 217l94 -37l-139 -225q72 -55 110.5 -144t38.5 -194q0 -238 -163.5 -454t-419.5 -216q-94 0 -166 33l-109 -176l-90 45l115 184q-68 53 -101.5 137.5t-33.5 170.5zM270 412q0 -113 37 -191l426 690q-41 25 -98 25 q-121 0 -243 -147.5t-122 -376.5zM369 131q49 -43 112 -43q176 0 270.5 195.5t94.5 375.5q0 49 -9.5 94.5t-31.5 86.5z" />
<glyph unicode="&#xf9;" horiz-adv-x="1138" d="M127 217q0 51 12 111l99 491q4 33 4 39q0 27 -14.5 42t-54.5 31.5t-36 31.5l10 36q6 25 43 25h216q39 0 38 -37q0 -14 -2 -24l-98 -523q-27 -129 -27 -194q0 -72 30 -103.5t99 -31.5q78 0 200 144t179 439l66 330h186l-149 -780q-6 -35 -6 -56q0 -47 47 -41q41 8 82 17 q12 0 18 -10l8 -45q0 -16 -13 -24.5t-46 -21.5l-252 -88q-61 0 -61 48v18l45 209l-5 4q-82 -139 -187 -209t-210 -70q-109 0 -165 64.5t-56 177.5zM438 1458q13 72 76 72q20 0 45.5 -19.5t48.5 -44.5l196 -211q16 -16 -3 -39.5t-44 -23.5q-8 0 -18 6l-234 172q-27 23 -53 47 q-18 23 -14 41z" />
<glyph unicode="&#xfa;" horiz-adv-x="1138" d="M127 217q0 51 12 111l99 491q4 33 4 39q0 27 -14.5 42t-54.5 31.5t-36 31.5l10 36q6 25 43 25h216q39 0 38 -37q0 -14 -2 -24l-98 -523q-27 -129 -27 -194q0 -72 30 -103.5t99 -31.5q78 0 200 144t179 439l66 330h186l-149 -780q-6 -35 -6 -56q0 -47 47 -41q41 8 82 17 q12 0 18 -10l8 -45q0 -16 -13 -24.5t-46 -21.5l-252 -88q-61 0 -61 48v18l45 209l-5 4q-82 -139 -187 -209t-210 -70q-109 0 -165 64.5t-56 177.5zM588 1223q0 20 16 30l309 246q33 25 60.5 44.5t60.5 19.5q14 0 28.5 -22.5t10.5 -41.5q-6 -31 -39 -57.5t-55 -40.5 l-320 -211q-12 -10 -30 -10q-41 0 -41 43z" />
<glyph unicode="&#xfb;" horiz-adv-x="1138" d="M127 217q0 51 12 111l99 491q4 33 4 39q0 27 -14.5 42t-54.5 31.5t-36 31.5l10 36q6 25 43 25h216q39 0 38 -37q0 -14 -2 -24l-98 -523q-27 -129 -27 -194q0 -72 30 -103.5t99 -31.5q78 0 200 144t179 439l66 330h186l-149 -780q-6 -35 -6 -56q0 -47 47 -41q41 8 82 17 q12 0 18 -10l8 -45q0 -16 -13 -24.5t-46 -21.5l-252 -88q-61 0 -61 48v18l45 209l-5 4q-82 -139 -187 -209t-210 -70q-109 0 -165 64.5t-56 177.5zM410 1196l268 287h119l156 -283q8 -14 -4.5 -21.5t-36.5 -7.5q-29 0 -44.5 7.5t-23.5 17.5l-129 174l-207 -190 q-20 -16 -59 -17q-25 0 -38 9.5t-1 23.5z" />
<glyph unicode="&#xfc;" horiz-adv-x="1138" d="M127 217q0 51 12 111l99 491q4 33 4 39q0 27 -14.5 42t-54.5 31.5t-36 31.5l10 36q6 25 43 25h216q39 0 38 -37q0 -14 -2 -24l-98 -523q-27 -129 -27 -194q0 -72 30 -103.5t99 -31.5q78 0 200 144t179 439l66 330h186l-149 -780q-6 -35 -6 -56q0 -47 47 -41q41 8 82 17 q12 0 18 -10l8 -45q0 -16 -13 -24.5t-46 -21.5l-252 -88q-61 0 -61 48v18l45 209l-5 4q-82 -139 -187 -209t-210 -70q-109 0 -165 64.5t-56 177.5zM405 1317q10 41 47 73.5t78 32.5q37 0 59.5 -24.5t22.5 -63.5q0 -12 -5 -35.5t-42 -54.5t-80 -31q-39 0 -63.5 31t-16.5 72z M817 1317q10 41 47 73.5t78 32.5q37 0 59.5 -24.5t22.5 -63.5q0 -12 -5 -35.5t-42 -54.5t-80 -31q-39 0 -63.5 31t-16.5 72z" />
<glyph unicode="&#xfd;" horiz-adv-x="921" d="M-180 -426q-6 23 35 33l92 22q29 6 79 45t99 113l174 246l-96 768q-10 59 -29.5 79.5t-47.5 35t-35 20.5t-1 18l27 47q12 23 39 23h200l80 -772l256 379q33 51 57.5 124.5t20.5 121.5l-10 112q-2 25 26.5 35t36.5 12l43 13q14 4 21.5 -3.5t19.5 -27.5l41 -98q6 -12 6 -27 q0 -47 -29.5 -100.5t-76.5 -122.5l-674 -992q-70 -117 -119 -153.5t-100 -36.5h-68q-29 0 -39 3t-14 26zM480 1223q0 20 16 30l309 246q33 25 60.5 44.5t60.5 19.5q14 0 28.5 -22.5t10.5 -41.5q-6 -31 -39 -57.5t-55 -40.5l-320 -211q-12 -10 -30 -10q-41 0 -41 43z" />
<glyph unicode="&#xfe;" horiz-adv-x="1138" d="M29 -465q0 12 2 19l348 1746q4 33 4 39q0 27 -15.5 43.5t-55.5 32t-36 29.5l13 37q6 25 41 24h209q39 0 39 -37q0 -16 -3 -26l-102 -574l4 -4q82 94 191.5 139.5t193.5 45.5q123 0 202 -96.5t79 -262.5q0 -272 -188.5 -493.5t-432.5 -221.5q-53 0 -109.5 21.5 t-101.5 50.5l-65 -354q-6 -29 -6 -41q0 -25 15 -41.5t55 -31.5t36 -30l-12 -36q-6 -25 -41 -25h-217q-47 0 -47 47zM362 250q0 -72 26 -123t112 -51h30q160 0 288 177t128 406q0 154 -60.5 211.5t-119.5 57.5q-190 0 -297 -241t-107 -413v-24z" />
<glyph unicode="&#xff;" horiz-adv-x="921" d="M-180 -426q-6 23 35 33l92 22q29 6 79 45t99 113l174 246l-96 768q-10 59 -29.5 79.5t-47.5 35t-35 20.5t-1 18l27 47q12 23 39 23h200l80 -772l256 379q33 51 57.5 124.5t20.5 121.5l-10 112q-2 25 26.5 35t36.5 12l43 13q14 4 21.5 -3.5t19.5 -27.5l41 -98q6 -12 6 -27 q0 -47 -29.5 -100.5t-76.5 -122.5l-674 -992q-70 -117 -119 -153.5t-100 -36.5h-68q-29 0 -39 3t-14 26zM297 1317q10 41 47 73.5t78 32.5q37 0 59.5 -24.5t22.5 -63.5q0 -12 -5 -35.5t-42 -54.5t-80 -31q-39 0 -63.5 31t-16.5 72zM709 1317q10 41 47 73.5t78 32.5 q37 0 59.5 -24.5t22.5 -63.5q0 -12 -5 -35.5t-42 -54.5t-80 -31q-39 0 -63.5 31t-16.5 72z" />
<glyph unicode="&#x152;" horiz-adv-x="1896" d="M131 592q0 381 238.5 623.5t578.5 242.5q68 0 148 -8t174 -16h608q45 0 45 -39q0 -10 -2 -17l-27 -147l-12 -19l-41 -30q-23 35 -43 69q-37 90 -108 90h-265l-96 -507h426q23 0 23 -15q0 -6 -6 -16l-35 -53q-18 -29 -64 -29h-366l-78 -420q-12 -68 -12 -111 q0 -57 24.5 -77.5t83.5 -20.5h148q86 0 155 60q53 61 109 122l45 -18q12 -2 8 -18l-35 -185q-10 -53 -94 -53h-543q-47 0 -186 -12.5t-178 -12.5q-150 0 -279 35t-236.5 171t-107.5 411zM334 580q0 -213 104.5 -359.5t286.5 -146.5q150 0 213 36.5t82 133.5l184 964 q14 72 -84 114t-217 42q-256 0 -412.5 -231t-156.5 -553z" />
<glyph unicode="&#x153;" horiz-adv-x="1689" d="M74 369q0 285 179 482.5t427 197.5q137 0 211 -62.5t98 -134.5q82 94 187.5 145.5t232.5 51.5q154 0 216.5 -70t62.5 -152q0 -147 -190.5 -237t-469.5 -90q-10 -51 -10 -92q0 -131 68.5 -217.5t191.5 -86.5q55 0 106.5 13.5t86 35t61.5 21.5q33 0 27 -29l-11 -47 q-6 -39 -67.5 -63.5t-126 -42t-148.5 -17.5q-139 0 -222 68t-105 152q-78 -102 -184.5 -161t-235.5 -59q-193 0 -289 121t-96 273zM270 412q0 -135 54.5 -229.5t156.5 -94.5q176 0 270.5 195.5t94.5 375.5q0 104 -48 190.5t-163 86.5q-121 0 -243 -147.5t-122 -376.5z M1036 598q197 0 341.5 57t144.5 168q0 57 -36 95t-93 38q-135 0 -223.5 -103t-133.5 -255z" />
<glyph unicode="&#x178;" horiz-adv-x="1126" d="M193.5 1356q-7.5 8 1.5 20l22 39q10 18 35 19h344q31 0 16 -27l-22 -41q-4 -8 -27.5 -19.5t-40 -24.5t-25 -28.5t-8.5 -48.5v-18l125 -531l367 541q23 31 23 53q0 14 -7.5 24.5t-25 22t-37.5 25.5q-6 8 2 20l22 33q10 14 23 15h283q23 0 22 -13q0 -4 -6 -14l-16 -35 q-6 -12 -25.5 -21.5t-42 -17.5t-52.5 -33.5t-67 -78.5l-385 -564q-39 -59 -48 -97t-21 -97l-48 -256q-4 -33 -4 -39q0 -53 103 -76q18 -2 18 -16q0 -8 -6 -19l-20 -37q-12 -16 -37 -16h-393q-23 0 -23 14q0 6 6 19l17 33q8 16 38 26q43 8 75 34t40 77l70 370l-160 646 q-14 66 -29.5 84t-42 31.5t-34 21.5zM483 1700q10 41 47 73.5t78 32.5q37 0 59.5 -24.5t22.5 -63.5q0 -12 -5 -35.5t-42 -54.5t-80 -31q-39 0 -63.5 31t-16.5 72zM895 1700q10 41 47 73.5t78 32.5q37 0 59.5 -24.5t22.5 -63.5q0 -12 -5 -35.5t-42 -54.5t-80 -31 q-39 0 -63.5 31t-16.5 72z" />
<glyph unicode="&#x2000;" horiz-adv-x="973" />
<glyph unicode="&#x2001;" horiz-adv-x="1946" />
<glyph unicode="&#x2002;" horiz-adv-x="973" />
<glyph unicode="&#x2003;" horiz-adv-x="1946" />
<glyph unicode="&#x2004;" horiz-adv-x="648" />
<glyph unicode="&#x2005;" horiz-adv-x="486" />
<glyph unicode="&#x2006;" horiz-adv-x="324" />
<glyph unicode="&#x2007;" horiz-adv-x="324" />
<glyph unicode="&#x2008;" horiz-adv-x="243" />
<glyph unicode="&#x2009;" horiz-adv-x="389" />
<glyph unicode="&#x200a;" horiz-adv-x="108" />
<glyph unicode="&#x2010;" horiz-adv-x="681" d="M74 403l35 168h509l-34 -168h-510z" />
<glyph unicode="&#x2011;" horiz-adv-x="681" d="M74 403l35 168h509l-34 -168h-510z" />
<glyph unicode="&#x2012;" horiz-adv-x="681" d="M74 403l35 168h509l-34 -168h-510z" />
<glyph unicode="&#x2013;" horiz-adv-x="1024" d="M-25 424l25 127h1049l-25 -127h-1049z" />
<glyph unicode="&#x2014;" horiz-adv-x="2048" d="M-25 424l25 127h2073l-25 -127h-2073z" />
<glyph unicode="&#x2018;" horiz-adv-x="569" d="M211 1034q0 72 114.5 210.5t206.5 244.5q6 6 12.5 11t18.5 5q16 0 31.5 -13t15.5 -28q0 -12 -66.5 -76.5t-98 -154.5t-39 -170t-47.5 -122t-68 -42q-41 0 -60.5 43t-19.5 92z" />
<glyph unicode="&#x2019;" horiz-adv-x="569" d="M231 940q0 12 67 76.5t98.5 155t38.5 170t47 121.5t69 42q41 0 60.5 -43t19.5 -92q0 -72 -116 -210.5t-206 -244.5q-6 -6 -12 -11t-18 -5q-16 0 -32 13.5t-16 27.5z" />
<glyph unicode="&#x201a;" horiz-adv-x="569" d="M18 -332q0 12 67 77t98.5 155t38.5 170t47 121.5t69 41.5q41 0 60.5 -43t19.5 -92q0 -72 -116 -210t-206 -244q-6 -6 -12 -11.5t-18 -5.5q-16 0 -32 13.5t-16 27.5z" />
<glyph unicode="&#x201c;" horiz-adv-x="1024" d="M213 1034q0 72 115 210.5t207 244.5q6 6 12 11t18 5q16 0 31.5 -13t15.5 -28q0 -12 -66.5 -76.5t-98 -154.5t-39 -170t-47 -122t-68.5 -42q-41 0 -60.5 43t-19.5 92zM565 1034q0 72 115 210.5t207 244.5q6 6 12 11t19 5q16 0 31.5 -13t15.5 -28q0 -12 -67 -76.5 t-98.5 -154.5t-38.5 -170t-47 -122t-69 -42q-41 0 -60.5 43t-19.5 92z" />
<glyph unicode="&#x201d;" horiz-adv-x="1024" d="M254 940q0 12 66.5 76.5t98.5 155t39 170t47 121.5t68 42q41 0 60.5 -43t19.5 -92q0 -72 -115.5 -210.5t-205.5 -244.5q-6 -6 -12.5 -11t-18.5 -5q-16 0 -31.5 13.5t-15.5 27.5zM606 940q0 12 66.5 76.5t98.5 155t39 170t47 121.5t69 42q41 0 60.5 -43t19.5 -92 q0 -72 -116 -210.5t-206 -244.5q-6 -6 -12 -11t-19 -5q-16 0 -31.5 13.5t-15.5 27.5z" />
<glyph unicode="&#x201e;" horiz-adv-x="1024" d="M20 -332q0 12 67 77t98.5 155t38.5 170t47 121.5t69 41.5q41 0 60.5 -43t19.5 -92q0 -72 -116 -210t-206 -244q-6 -6 -12 -11.5t-18 -5.5q-16 0 -32 13.5t-16 27.5zM393 -332q0 12 66.5 77t98.5 155t39 170t47 121.5t69 41.5q41 0 60.5 -43t19.5 -92q0 -72 -116 -210 t-206 -244q-6 -6 -12 -11.5t-19 -5.5q-16 0 -31.5 13.5t-15.5 27.5z" />
<glyph unicode="&#x2022;" horiz-adv-x="1024" d="M184 717q0 152 103.5 255t255.5 103q150 0 254 -104.5t104 -253.5q0 -150 -104 -254.5t-254 -104.5q-152 0 -255.5 103.5t-103.5 255.5z" />
<glyph unicode="&#x2026;" horiz-adv-x="2048" d="M190 90q0 68 45 109t115 41q51 0 80 -33t29 -80q0 -66 -41 -109t-113 -43q-59 0 -87 35t-28 80zM877 90q0 70 43.5 110t115.5 40q51 0 80 -33t29 -80q0 -66 -41 -109t-113 -43q-61 0 -87.5 36t-26.5 79zM1563 90q0 70 43.5 110t115.5 40q51 0 80 -33t29 -80 q0 -66 -41 -109t-113 -43q-61 0 -87.5 36t-26.5 79z" />
<glyph unicode="&#x202f;" horiz-adv-x="389" />
<glyph unicode="&#x2039;" horiz-adv-x="569" d="M104 487l398 310q27 23 48 39t30 16q12 0 8 -16q-6 -39 -114.5 -168t-166.5 -181q25 -37 87.5 -179t58.5 -167q-4 -18 -19 -18q-10 0 -32.5 25.5t-28.5 33.5z" />
<glyph unicode="&#x203a;" horiz-adv-x="569" d="M57 139q6 39 115 168t166 180q-25 37 -87.5 179.5t-57.5 167.5q4 18 18 18q10 0 32.5 -25.5t28.5 -33.5l269 -306l-398 -309q-27 -23 -48 -39t-29 -16q-12 0 -9 16z" />
<glyph unicode="&#x205f;" horiz-adv-x="486" />
<glyph unicode="&#x2122;" horiz-adv-x="2009" d="M225 1368q0 8 8 16l56 68q20 23 28 18l21 -12q18 -8 57 -16t88 -8h557q25 0 25 -11q0 -4 -12 -14l-33 -27q-10 -8 -23.5 -17t-31.5 -9h-263l-151 -633q-4 -20 -4 -25q0 -20 14 -26t44 -11.5t35 -10.5t-3 -13l-19 -23q-8 -8 -26 -8h-305q-12 0 -17.5 3t2.5 16l15 18 q6 12 33.5 16.5t52 18.5t33.5 45l159 633h-299q-41 0 -41 12zM973 610q-4 4 4 15l10 18q6 10 30.5 15.5t45 19.5t29.5 45l129 594q-20 27 -49 43t-52.5 20t-13.5 23l16 22q8 8 23 9h164q29 0 41 -8.5t20 -39.5l166 -616l432 627q12 16 26.5 26.5t35.5 10.5h165 q12 0 16.5 -4.5t-1.5 -16.5l-12 -20q-8 -12 -39 -18.5t-48.5 -19t-23.5 -46.5l-129 -586q-2 -6 -2 -13.5v-9.5q0 -20 13 -27t44 -12.5t21 -23.5l-15 -21q-10 -10 -24 -10h-152h-131q-10 0 -14 4t4 15l10 18q8 12 31.5 16.5t45 18.5t28.5 45l110 510l-416 -600 q-23 -27 -28 -27h-23q-10 0 -20 37l-160 588l-113 -508q-6 -35 6.5 -45t46 -16.5t23.5 -24.5l-14 -21q-10 -10 -25 -10h-215q-12 0 -16 4z" />
<glyph unicode="&#x25fc;" horiz-adv-x="1054" d="M0 0v1055h1055v-1055h-1055z" />
</font>
</defs>
</svg>
