<?xml version="1.0" standalone="no"?>
<!DOCTYPE svg PUBLIC "-//W3C//DTD SVG 1.1//EN" "http://www.w3.org/Graphics/SVG/1.1/DTD/svg11.dtd" >
<svg xmlns="http://www.w3.org/2000/svg">
<metadata></metadata>
<defs>
<font id="stonesansregular" horiz-adv-x="1175" >
<font-face units-per-em="2048" ascent="1638" descent="-410" />
<missing-glyph horiz-adv-x="587" />
<glyph horiz-adv-x="0" />
<glyph unicode="&#xd;" horiz-adv-x="587" />
<glyph unicode=" "  horiz-adv-x="587" />
<glyph unicode="&#x09;" horiz-adv-x="587" />
<glyph unicode="&#xa0;" horiz-adv-x="587" />
<glyph unicode="!" horiz-adv-x="606" d="M172 106q0 53 39 92.5t92 39.5t92 -39t39 -93q0 -49 -39 -90t-90 -41q-53 0 -93 38t-40 93zM203 827v678h198v-678l-34 -442h-129z" />
<glyph unicode="&#x22;" horiz-adv-x="757" d="M137 1391q0 49 18.5 81.5t67.5 32.5q47 0 67.5 -35.5t20.5 -83.5v-26q-4 -14 -4 -21l-47 -417q-2 -18 -4 -37q-8 -27 -33 -27q-23 0 -26.5 22.5t-6.5 41.5l-49 417q-4 29 -4 52zM444 1391q0 49 18.5 81.5t67.5 32.5q47 0 67.5 -35.5t20.5 -83.5v-26q-4 -14 -4 -21 l-47 -417q-2 -18 -4 -37q-8 -27 -33 -27q-23 0 -26.5 22.5t-5.5 41.5l-49 417q-4 29 -5 52z" />
<glyph unicode="#" d="M84 463v119h238l40 299h-223v118h242l61 435h121l-61 -435h270l62 435h120l-61 -435h197v-118h-213l-41 -299h202v-119h-221l-63 -463h-121l63 463h-274l-66 -463h-120l65 463h-217zM442 582h273l41 299h-273z" />
<glyph unicode="$" d="M156 129l90 117q84 -61 141 -91t139 -30v582q-182 125 -248.5 206.5t-66.5 206.5q0 123 93 212t243 114v70h143v-64q90 0 168 -38t133 -103l-96 -99q-53 41 -103.5 67t-101.5 32v-498q98 -86 199 -170q131 -135 131 -293q0 -139 -100.5 -237.5t-249.5 -124.5v-123h-144 v112q-102 0 -200.5 40t-169.5 112zM403 1126q0 -45 37 -93t107 -103v368q-63 -23 -103.5 -67.5t-40.5 -104.5zM670 137q66 25 108.5 79t42.5 136q0 68 -41 126.5t-110 117.5v-459z" />
<glyph unicode="%" horiz-adv-x="1896" d="M78 1028q0 168 93 299t273 131q174 0 269.5 -132t95.5 -296q0 -209 -101.5 -335t-263.5 -126t-264 126t-102 333zM252 1028q0 -178 50 -267t142 -89q88 0 139.5 90t51.5 266q0 158 -51.5 243t-139.5 85t-140 -86t-52 -242zM412 0l925 1434h144l-924 -1434h-145zM1087 434 q0 168 93.5 299t273.5 131q174 0 269.5 -132t95.5 -296q0 -209 -101.5 -335t-263.5 -126t-264.5 126t-102.5 333zM1262 434q0 -178 50 -267t142 -89q88 0 139.5 90t51.5 266q0 158 -51.5 243t-139.5 85t-140 -86t-52 -242z" />
<glyph unicode="&#x26;" horiz-adv-x="1669" d="M150 403q0 133 86 243t221 171q-88 84 -137.5 153.5t-49.5 168.5q0 131 106.5 225t276.5 94q158 0 293 -98l-72 -115q-43 27 -93 48.5t-109 21.5q-94 0 -147.5 -47t-53.5 -119q0 -61 44 -126t149 -161l458 -428q16 31 22.5 64.5t6.5 81.5q0 176 -88 301h-201l62 127h614 l-63 -127h-242q31 -49 47 -116t16 -149q0 -76 -15 -144.5t-48 -135.5l313 -268l-182 -93l-234 215q-86 -98 -207.5 -156.5t-263.5 -58.5q-225 0 -367 120t-142 308zM362 422q0 -115 84 -213t236 -98q111 0 205 51t143 123l-483 434q-92 -51 -138.5 -129t-46.5 -168z" />
<glyph unicode="'" horiz-adv-x="417" d="M121 1391q0 49 18.5 81.5t67.5 32.5q47 0 67.5 -35.5t20.5 -83.5v-26q-4 -14 -4 -21l-47 -417q-2 -18 -4 -37q-8 -27 -33 -27q-23 0 -27 22.5t-6 41.5l-49 417q-4 29 -4 52z" />
<glyph unicode="(" horiz-adv-x="720" d="M100 520q0 332 135.5 574.5t362.5 410.5l90 -90q-186 -156 -294.5 -393.5t-108.5 -499.5q0 -266 118.5 -507.5t286.5 -358.5l-80 -80q-248 168 -379 408.5t-131 535.5z" />
<glyph unicode=")" horiz-adv-x="720" d="M31 1425l80 80q248 -168 379 -408.5t131 -535.5q0 -332 -135.5 -574.5t-362.5 -410.5l-90 90q186 156 294.5 393.5t108.5 499.5q0 266 -118.5 508t-286.5 358z" />
<glyph unicode="*" horiz-adv-x="872" d="M70 1108l53 158l248 -99l-19 267h168l-18 -267l248 99l53 -158l-260 -66l172 -206l-135 -99l-144 228l-143 -228l-135 99l172 206z" />
<glyph unicode="+" d="M72 451v135h448v450h135v-450h449v-135h-449v-451h-135v451h-448z" />
<glyph unicode="," horiz-adv-x="587" d="M31 -315l135 360q43 119 70.5 156t85.5 37q29 0 59.5 -21.5t30.5 -66.5q0 -23 -11.5 -56t-33.5 -71l-224 -383z" />
<glyph unicode="-" horiz-adv-x="681" d="M86 403v168h510v-168h-510z" />
<glyph unicode="." horiz-adv-x="587" d="M162 106q0 53 39 92.5t92 39.5t92 -39t39 -93q0 -49 -39 -90t-90 -41q-53 0 -93 38t-40 93z" />
<glyph unicode="/" horiz-adv-x="796" d="M53 -221l555 1726h133l-553 -1726h-135z" />
<glyph unicode="0" d="M90 741q0 279 128 498t370 219t369.5 -217t127.5 -496q0 -350 -138 -560t-359 -210q-217 0 -357.5 211t-140.5 555zM303 745q0 -307 76 -466.5t209 -159.5t208.5 157.5t75.5 468.5q0 272 -76.5 421t-207.5 149t-208 -147.5t-77 -422.5z" />
<glyph unicode="1" d="M172 1303l391 155h137v-1458h-198v1296l-281 -114z" />
<glyph unicode="2" d="M90 0v109l305 315q279 291 353.5 416t74.5 231q0 96 -63.5 167t-165.5 71q-72 0 -146.5 -31t-166.5 -117l-97 88q72 90 182.5 149.5t260.5 59.5q182 0 298.5 -104.5t116.5 -268.5q0 -125 -69.5 -242.5t-282.5 -338.5l-334 -348h695v-156h-961z" />
<glyph unicode="3" d="M170 57l57 125q51 -29 125 -46t164 -17q135 0 218 78.5t83 205.5q0 152 -107.5 221.5t-254.5 69.5h-99v119q164 0 274.5 76t110.5 221q0 111 -66.5 158t-152.5 47q-78 0 -152.5 -23.5t-129.5 -64.5l-60 121q88 51 184.5 80.5t184.5 29.5q139 0 266 -68.5t127 -259.5 q0 -129 -87 -219t-173 -127q176 -45 262 -137t86 -239q0 -170 -137 -301.5t-373 -131.5q-113 0 -193.5 22.5t-156.5 59.5z" />
<glyph unicode="4" d="M41 412v92l735 930h119v-879h174v-143h-174v-412h-193v412h-661zM260 555h442v561z" />
<glyph unicode="5" d="M76 104l69 129q72 -49 156 -81.5t172 -32.5q160 0 244 96t84 223q0 162 -150.5 277.5t-433.5 115.5l178 603h563l-53 -156h-383l-90 -313q315 -37 449.5 -190.5t134.5 -321.5q0 -193 -150.5 -335.5t-394.5 -142.5q-106 0 -209.5 30t-185.5 99z" />
<glyph unicode="6" d="M113 485q0 379 256 657.5t616 315.5v-135q-229 -37 -392 -176t-224 -330q59 35 131.5 55.5t150.5 20.5q186 0 308 -118t122 -337q0 -186 -142 -324.5t-337 -138.5q-223 0 -356 139.5t-133 370.5zM326 422q0 -141 78.5 -224t191.5 -83q129 0 200.5 94t71.5 237 q0 129 -68.5 216.5t-191.5 87.5q-137 0 -209.5 -82t-72.5 -246z" />
<glyph unicode="7" d="M172 20l709 1258h-674v156h870v-154l-721 -1300z" />
<glyph unicode="8" d="M104 362q0 147 83 250t198 164q-104 45 -166.5 129t-62.5 201q0 156 120.5 254t323.5 98q184 0 296 -97t112 -237q0 -106 -71 -186t-192 -164q170 -66 248 -167t78 -218q0 -186 -138 -300t-349 -114t-345.5 109.5t-134.5 277.5zM309 379q0 -113 76 -188.5t203 -75.5 t202.5 75.5t75.5 186.5q0 117 -93 187.5t-222 129.5q-115 -57 -178.5 -132t-63.5 -183zM360 1118q0 -90 70 -154.5t168 -107.5q94 57 149.5 121.5t55.5 148.5q0 88 -53.5 148.5t-157.5 60.5q-111 0 -171.5 -56.5t-60.5 -160.5z" />
<glyph unicode="9" d="M94 993q0 188 144.5 326.5t353.5 138.5q217 0 344 -135t127 -375q0 -379 -256 -657.5t-617 -315.5v136q229 37 394.5 177t238.5 343l-4 4q-133 -90 -299 -90q-203 0 -314.5 133t-111.5 315zM307 983q0 -127 68.5 -213t193.5 -86q139 0 210 77t71 261q0 154 -66.5 225.5 t-193.5 71.5q-131 0 -207 -95.5t-76 -240.5z" />
<glyph unicode=":" horiz-adv-x="587" d="M162 106q0 53 39 92.5t92 39.5t92 -39t39 -93q0 -49 -39 -90t-90 -41q-53 0 -93 38t-40 93zM162 852q0 53 39 92t92 39t92 -39t39 -92q0 -49 -39 -90t-90 -41q-53 0 -93 38t-40 93z" />
<glyph unicode=";" horiz-adv-x="587" d="M23 -313l135 360q43 119 70.5 156t84.5 37q29 0 59.5 -21.5t30.5 -66.5q0 -23 -11 -56t-34 -71l-223 -383zM162 856q0 53 39 92t92 39t92 -39t39 -92q0 -49 -39 -90t-90 -41q-53 0 -93 38t-40 93z" />
<glyph unicode="&#x3c;" d="M68 463v110l1042 480v-131l-868 -404l868 -403v-131z" />
<glyph unicode="=" d="M72 252v135h1032v-135h-1032zM72 649v135h1032v-135h-1032z" />
<glyph unicode="&#x3e;" d="M68 -16v131l868 403l-868 404v131l1042 -480v-110z" />
<glyph unicode="?" horiz-adv-x="948" d="M84 1319q68 86 169 136t202 50q188 0 298.5 -84t110.5 -245q0 -109 -78 -232q-100 -133 -144 -195.5t-91 -127.5q-59 -94 -78 -207h-154q0 115 36 198.5t125 202.5t125 197t36 157q0 86 -59.5 139.5t-139.5 53.5q-63 0 -126.5 -27.5t-139.5 -107.5zM270 106q0 53 39 92.5 t92 39.5t92 -39t39 -93q0 -49 -38.5 -90t-90.5 -41q-53 0 -93 38t-40 93z" />
<glyph unicode="@" horiz-adv-x="1630" d="M39 680q0 346 236.5 563t594.5 217q328 0 523.5 -177t195.5 -456q0 -233 -124 -380.5t-296 -147.5q-121 0 -185 71.5t-42 98.5l4 -4q-57 -51 -115 -100q-70 -43 -139 -43q-96 0 -155.5 77.5t-59.5 206.5q0 178 114 333t286 155q70 0 111.5 -31t68.5 -82l22 86h154 l-141 -555q-10 -31 16.5 -71t97.5 -40q92 0 161 136.5t69 289.5q0 180 -138.5 344t-437.5 164q-256 0 -447.5 -181t-191.5 -478q0 -254 169 -419t448 -165q131 0 226 25.5t183 70.5l58 -98q-121 -49 -240 -82t-229 -33q-385 0 -591 223.5t-206 481.5zM649 616 q0 -84 31 -118.5t78 -34.5q78 0 159.5 91t81.5 259q0 70 -26.5 114t-81.5 44q-84 0 -163 -104.5t-79 -250.5z" />
<glyph unicode="A" horiz-adv-x="1253" d="M-8 0l583 1434h152l535 -1434h-230l-147 422h-547l-154 -422h-192zM393 565h445q-63 174 -112.5 322.5t-100.5 333.5q-47 -158 -91.5 -284t-140.5 -372z" />
<glyph unicode="B" d="M172 0v1434h444q166 0 269.5 -78t103.5 -215q0 -158 -93 -251t-200 -114q152 -4 266.5 -100t114.5 -260q0 -180 -140 -298t-362 -118h-403zM371 143h192q127 0 214 68t87 192q0 139 -98 206t-236 67h-159v-533zM371 819h98q131 0 226.5 79t95.5 194q0 198 -249 198h-3 h-168v-471z" />
<glyph unicode="C" horiz-adv-x="1400" d="M98 721q0 293 215 515t582 222q139 0 249.5 -41t192.5 -104l-82 -123q-55 45 -161.5 85t-212.5 40q-260 0 -412 -166t-152 -424q0 -266 162 -436t402 -170q113 0 200.5 28.5t161.5 77.5l78 -119q-80 -55 -201 -93t-250 -38q-367 0 -569.5 215.5t-202.5 530.5z" />
<glyph unicode="D" horiz-adv-x="1507" d="M172 0v1434h459q403 0 590.5 -191.5t187.5 -482.5q0 -354 -215 -557t-596 -203h-426zM371 143h221q303 0 450.5 151.5t147.5 469.5q0 248 -139.5 387t-415.5 139h-264v-1147z" />
<glyph unicode="E" horiz-adv-x="1017" d="M172 0v1434h707v-144h-508v-463h497v-143h-497v-541h596v-143h-795z" />
<glyph unicode="F" horiz-adv-x="985" d="M172 0v1434h707v-144h-508v-545h497v-143h-497v-602h-199z" />
<glyph unicode="G" horiz-adv-x="1513" d="M98 721q0 293 216 515t583 222q145 0 267 -41t192 -98l-82 -119q-74 51 -168 83t-207 32q-272 0 -427 -165t-155 -425q0 -266 161 -436t399 -170q98 0 164.5 11t125.5 40v485h199v-583q-113 -41 -243 -69t-253 -28q-365 0 -568.5 216.5t-203.5 529.5z" />
<glyph unicode="H" horiz-adv-x="1441" d="M172 0v1434h199v-578h700v578h199v-1434h-199v713h-700v-713h-199z" />
<glyph unicode="I" horiz-adv-x="542" d="M172 0v1434h199v-1434h-199z" />
<glyph unicode="J" horiz-adv-x="557" d="M37 -268q33 6 59.5 21.5t46 50t31.5 102t12 133.5v1395h199v-1422q0 -209 -97.5 -305t-250.5 -96v121z" />
<glyph unicode="K" horiz-adv-x="1214" d="M172 0v1434h199v-641l620 661l135 -88l-555 -584l629 -727l-194 -75l-631 763l-4 -743h-199z" />
<glyph unicode="L" horiz-adv-x="985" d="M172 0v1434h199v-1291h596v-143h-795z" />
<glyph unicode="M" horiz-adv-x="1900" d="M172 0v1434h213q92 -190 181 -376t177 -372t193 -420q96 190 173 339t205 392.5t228 436.5h187v-1434h-199v1167q-33 -86 -115 -255t-212 -424t-253 -488h-80q-92 193 -221 463t-205.5 441t-103.5 263l-4 -1167h-164z" />
<glyph unicode="N" horiz-adv-x="1599" d="M172 0v1434h147q211 -250 406 -481.5t341 -412t194 -249.5l4 1143h163v-1434h-155q-307 367 -404.5 485.5t-293 358t-234.5 297.5l-4 -1141h-164z" />
<glyph unicode="O" horiz-adv-x="1630" d="M98 741q0 303 205 510t512 207q309 0 513 -205.5t204 -511.5q0 -328 -196.5 -547t-520.5 -219q-326 0 -521.5 218t-195.5 548zM317 741q0 -248 121 -435t377 -187q254 0 376 187t122 435q0 229 -125 401.5t-373 172.5q-246 0 -372 -173t-126 -401z" />
<glyph unicode="P" horiz-adv-x="1099" d="M172 0v1434h360q231 0 360.5 -104.5t129.5 -309.5q0 -188 -146.5 -324.5t-381.5 -136.5h-64v131l66 2q147 0 230 83t83 243q0 125 -73.5 198.5t-227.5 73.5h-137v-1290h-199z" />
<glyph unicode="Q" horiz-adv-x="1630" d="M98 741q0 303 205 510t512 207q309 0 513 -205.5t204 -511.5q0 -297 -135 -466t-303 -232l524 -250l-90 -133l-633 315h-80q-334 0 -525.5 204t-191.5 562zM317 741q0 -248 121 -435t377 -187q254 0 376 187t122 435q0 229 -125 401.5t-373 172.5q-246 0 -372 -173 t-126 -401z" />
<glyph unicode="R" horiz-adv-x="1138" d="M172 0v1434h410q184 0 299.5 -94.5t115.5 -274.5q0 -147 -62.5 -245.5t-176.5 -172.5l356 -610l-201 -62l-331 619h-211v-594h-199zM371 737h112q170 0 235.5 93.5t65.5 216.5q0 125 -67.5 184t-175.5 59h-170v-553z" />
<glyph unicode="S" horiz-adv-x="1064" d="M109 125l88 119q84 -59 152.5 -92t158.5 -33q113 0 181.5 59.5t68.5 175.5q0 117 -61.5 173.5t-231.5 183.5t-230.5 201.5t-60.5 207.5q0 143 120 240.5t290 97.5q227 0 354 -143l-94 -103q-57 43 -123 73t-125 30q-106 0 -164.5 -54.5t-58.5 -140.5q0 -115 216 -271.5 t291.5 -261t75.5 -237.5q0 -164 -132 -269.5t-312 -105.5q-109 0 -218.5 38t-184.5 112z" />
<glyph unicode="T" horiz-adv-x="1138" d="M10 1290v144h1118v-144h-460v-1290h-199v1290h-459z" />
<glyph unicode="U" horiz-adv-x="1413" d="M152 557v877h198v-869q0 -227 88 -339.5t279 -112.5q186 0 272 121.5t86 295.5v904h187v-908q0 -246 -144.5 -398.5t-400.5 -152.5q-295 0 -430 147.5t-135 434.5z" />
<glyph unicode="V" horiz-adv-x="1214" d="M-10 1417l203 37q4 -8 101 -288.5t180 -529.5t132 -407q66 197 135.5 392.5t162.5 446.5t143 386l178 -24l-572 -1430h-133z" />
<glyph unicode="W" horiz-adv-x="1898" d="M-4 1413l188 41q84 -291 173 -612.5t163 -618.5q76 279 168 588t186 623h164q92 -309 182.5 -615.5t165.5 -595.5q74 274 118 428t95.5 326t143.5 477l160 -29l-445 -1425h-176q-86 287 -176 598t-164 586q-53 -193 -101 -357.5t-119 -400.5t-128 -426h-176z" />
<glyph unicode="X" horiz-adv-x="1320" d="M57 16l467 764l-426 629l211 45l334 -520l305 520l185 -24l-394 -629l525 -781l-215 -40l-424 667l-385 -667z" />
<glyph unicode="Y" horiz-adv-x="1101" d="M-6 1413l215 41l346 -680l377 680l176 -24l-483 -809v-621h-199v621z" />
<glyph unicode="Z" horiz-adv-x="1253" d="M72 0v70l833 1233h-696v131h954v-56l-829 -1247h848v-131h-1110z" />
<glyph unicode="[" horiz-adv-x="681" d="M160 -395v1900h461v-108h-277v-1667h277v-125h-461z" />
<glyph unicode="\" d="M131 1505h150l761 -1505h-149z" />
<glyph unicode="]" horiz-adv-x="681" d="M61 -270h277v1667h-277v108h461v-1900h-461v125z" />
<glyph unicode="^" d="M150 686l376 748h129l373 -748h-133l-307 606l-305 -606h-133z" />
<glyph unicode="_" horiz-adv-x="1024" d="M0 -205h1024v-102h-1024v102z" />
<glyph unicode="`" horiz-adv-x="720" d="M49 1454q0 76 68 76q23 0 52.5 -17.5t63.5 -46.5l273 -219l-64 -76l-307 193q-37 25 -61.5 46.5t-24.5 43.5z" />
<glyph unicode="a" horiz-adv-x="1024" d="M82 291q0 127 98.5 216t265.5 138l248 78q0 90 -61.5 147.5t-143.5 57.5q-84 0 -141 -25.5t-127 -85.5l-71 92q76 74 158.5 107t191.5 33q152 0 265.5 -74t113.5 -275v-450q0 -74 9 -134.5t36 -115.5h-201q-16 27 -22.5 75t-6.5 99l-65 -63q-61 -61 -126 -98.5 t-130 -37.5q-131 0 -211 86t-80 230zM272 293q0 -78 44 -126t104 -48q109 0 191.5 128t82.5 353l-176 -51q-246 -74 -246 -256z" />
<glyph unicode="b" horiz-adv-x="1218" d="M147 0v1505h185v-641q57 88 152.5 136.5t187.5 48.5q260 0 362.5 -167t102.5 -339q0 -240 -133.5 -404t-352.5 -164q-96 0 -176 42t-139 118l-4 -135h-185zM332 492q0 -164 78.5 -275t240.5 -111q150 0 218.5 133.5t68.5 301.5q0 154 -73.5 265.5t-211.5 111.5 q-156 0 -238.5 -112t-82.5 -314z" />
<glyph unicode="c" horiz-adv-x="985" d="M82 514q0 213 143.5 374t411.5 161q164 0 274 -84l-61 -105q-47 23 -102.5 38t-108.5 15q-143 0 -250.5 -98t-107.5 -291q0 -176 90 -294.5t266 -118.5q70 0 129 16t121 57l51 -102q-72 -51 -155 -79t-154 -28q-315 0 -431 178.5t-116 360.5z" />
<glyph unicode="d" horiz-adv-x="1218" d="M82 524q0 209 134 367t339 158q106 0 193.5 -39t134.5 -113l4 608h184v-1505h-184v162q-63 -86 -148.5 -136.5t-203.5 -50.5q-205 0 -329 150.5t-124 398.5zM281 532q0 -180 74.5 -303t213.5 -123q158 0 238 126.5t80 312.5q0 156 -80 264.5t-225 108.5 q-152 0 -226.5 -105.5t-74.5 -280.5z" />
<glyph unicode="e" horiz-adv-x="1038" d="M82 532q0 248 146.5 382.5t338.5 134.5q213 0 304.5 -158t91.5 -391h-691q0 -158 99.5 -276t246.5 -118q76 0 151 24t130 65l53 -101q-168 -119 -340 -119q-244 0 -387 145.5t-143 411.5zM285 623h510q0 129 -56.5 212t-173.5 83q-135 0 -207.5 -91.5t-72.5 -203.5z" />
<glyph unicode="f" horiz-adv-x="606" d="M-2 918v106h164v125q0 184 95 270t204 86q49 0 88 -9t74 -34l-41 -94q-27 6 -48.5 10t-52.5 4q-66 0 -100.5 -45t-34.5 -129v-184h246v-106h-246v-918h-184v918h-164z" />
<glyph unicode="g" horiz-adv-x="1218" d="M82 524q0 209 138 367t351 158q96 0 182.5 -44t129.5 -122l4 141h184v-987q0 -276 -147.5 -412.5t-372.5 -136.5q-125 0 -229.5 23.5t-192.5 78.5l51 121q86 -49 178.5 -70.5t188.5 -21.5q162 0 251 101.5t89 302.5v139q-66 -86 -149 -136.5t-197 -50.5 q-211 0 -335 150.5t-124 398.5zM281 532q0 -180 74.5 -303t213.5 -123q158 0 238 126.5t80 312.5q0 156 -80 264.5t-225 108.5q-152 0 -226.5 -105.5t-74.5 -280.5z" />
<glyph unicode="h" horiz-adv-x="1198" d="M152 0v1505h182v-608q70 74 165 113t185 39q178 0 270.5 -97.5t92.5 -292.5v-659h-185v621q0 292 -246 292h-2q-119 0 -198.5 -76.5t-79.5 -220.5v-616h-184z" />
<glyph unicode="i" horiz-adv-x="487" d="M127 1362q0 41 31.5 74.5t85.5 33.5q53 0 84.5 -33.5t31.5 -74.5q0 -47 -27.5 -86t-88.5 -39t-89 37t-28 88zM152 0v1024h184v-1024h-184z" />
<glyph unicode="j" horiz-adv-x="487" d="M12 -422q70 12 93.5 60.5t35 112t11.5 167.5v1106h184v-1098q0 -238 -91 -338t-233 -100v90zM127 1362q0 41 31.5 74.5t85.5 33.5q53 0 84.5 -33.5t31.5 -74.5q0 -47 -27.5 -86t-88.5 -39t-89 37t-28 88z" />
<glyph unicode="k" horiz-adv-x="976" d="M152 0v1505h184v-895h31l401 434l137 -77l-364 -381l432 -523l-182 -83l-451 579l-4 -559h-184z" />
<glyph unicode="l" horiz-adv-x="487" d="M152 0v1505h184v-1505h-184z" />
<glyph unicode="m" horiz-adv-x="1830" d="M152 0v1024h182v-127q63 74 147 113t172 39q115 0 194 -40t132 -112q72 66 170 109t182 43q168 0 258 -98.5t90 -266.5v-684h-184v610q0 133 -48 214t-177 81q-123 0 -192.5 -69.5t-69.5 -219.5v-616h-185v610q0 295 -231 295q-119 0 -187.5 -75.5t-68.5 -221.5v-608 h-184z" />
<glyph unicode="n" horiz-adv-x="1198" d="M152 0v1024h182v-127q70 74 165 113t185 39q178 0 270.5 -97.5t92.5 -292.5v-659h-185v621q0 292 -246 292h-2q-119 0 -198.5 -76.5t-79.5 -220.5v-616h-184z" />
<glyph unicode="o" horiz-adv-x="1173" d="M82 524q0 240 148.5 382.5t355.5 142.5q205 0 355.5 -142.5t150.5 -382.5t-140.5 -394.5t-365.5 -154.5q-223 0 -363.5 154.5t-140.5 394.5zM281 524q0 -174 69.5 -296t235.5 -122t236.5 122t70.5 296q0 162 -72.5 278t-234.5 116q-158 0 -231.5 -117t-73.5 -277z" />
<glyph unicode="p" horiz-adv-x="1222" d="M152 -512v1536h184v-160q57 88 152.5 136.5t187.5 48.5q260 0 362.5 -167t102.5 -339q0 -240 -133.5 -404t-352.5 -164q-96 0 -176 42t-139 118l-4 -647h-184zM336 492q0 -164 79 -275t240 -111q150 0 218.5 133.5t68.5 301.5q0 154 -73.5 265.5t-211.5 111.5 q-156 0 -238.5 -112t-82.5 -314z" />
<glyph unicode="q" horiz-adv-x="1222" d="M82 524q0 209 134 367t339 158q106 0 193.5 -39t134.5 -113l4 127h184v-1536h-184v674q-63 -86 -148.5 -136.5t-203.5 -50.5q-205 0 -329 150.5t-124 398.5zM281 532q0 -176 75.5 -301t214.5 -125q158 0 238 126t80 313q0 156 -80 264.5t-225 108.5q-154 0 -228.5 -106 t-74.5 -280z" />
<glyph unicode="r" horiz-adv-x="712" d="M152 0v1024h180v-127l74 78q33 33 75.5 53.5t77.5 20.5q84 0 170 -101l-84 -119q-45 23 -73.5 33t-63.5 10q-76 0 -124 -78.5t-48 -242.5v-551h-184z" />
<glyph unicode="s" horiz-adv-x="796" d="M49 104l90 105q47 -45 105.5 -74t115.5 -29q70 0 122.5 37t52.5 109q0 76 -40 112.5t-173.5 133t-171 155t-37.5 131.5q0 117 99 191t241 74q74 0 141.5 -26t110.5 -69l-72 -94q-53 37 -98.5 51.5t-90.5 14.5q-59 0 -104 -29t-45 -88q0 -61 75.5 -117.5t161.5 -121 t138.5 -135t52.5 -171.5q0 -125 -106.5 -207t-251.5 -82q-90 0 -177.5 35t-138.5 94z" />
<glyph unicode="t" horiz-adv-x="706" d="M51 918v106h144v246l184 61v-307h268v-106h-268v-580q0 -119 29.5 -174t111.5 -55q47 0 79 9t63 25l45 -102q-102 -66 -209 -66q-152 0 -227.5 84t-75.5 244v615h-144z" />
<glyph unicode="u" horiz-adv-x="1169" d="M143 365v659h185v-618q0 -295 247 -295q111 0 185 84t74 231v598h184v-1024h-182v119q-82 -72 -160 -108t-170 -36q-178 0 -270.5 97.5t-92.5 292.5z" />
<glyph unicode="v" horiz-adv-x="1003" d="M10 995l185 49q78 -193 160.5 -410.5t150.5 -420.5q72 199 151.5 402.5t173.5 428.5l162 -36l-444 -1008h-115z" />
<glyph unicode="w" horiz-adv-x="1595" d="M10 999l180 45q106 -322 151.5 -458.5t100.5 -343.5q74 211 163 434t140 348h121q76 -182 155 -386t144 -396q61 223 135 450.5t115 351.5l170 -28l-360 -1016h-129q-51 127 -99.5 247t-109 278.5t-99.5 273.5q-80 -225 -125 -345t-178 -454h-120z" />
<glyph unicode="x" horiz-adv-x="1062" d="M51 66l377 481l-319 416l176 81l262 -374l270 374l144 -63l-328 -426l379 -494l-176 -81l-322 450l-317 -450z" />
<glyph unicode="y" horiz-adv-x="1013" d="M-14 -381h71q111 0 186.5 78t176.5 360l-402 936l185 51q55 -139 109.5 -275t106.5 -277.5t97 -278.5q72 199 152 402.5t174 428.5l162 -38l-527 -1186q-74 -168 -170 -250t-229 -82h-92v131z" />
<glyph unicode="z" horiz-adv-x="921" d="M20 0v59l635 846h-516v119h742v-80l-605 -823h605v-121h-861z" />
<glyph unicode="{" horiz-adv-x="720" d="M147 502v86q94 37 126 93t32 169v276q0 195 94.5 287t259.5 92v-108q-72 -10 -121 -71.5t-49 -154.5v-288q0 -127 -31.5 -199t-133.5 -139q98 -66 130.5 -139.5t32.5 -198.5v-289q0 -94 48.5 -153.5t121.5 -71.5v-109q-166 0 -260 92.5t-94 286.5v277q0 113 -30.5 169 t-125.5 93z" />
<glyph unicode="|" horiz-adv-x="530" d="M197 0v1505h135v-1505h-135z" />
<glyph unicode="}" horiz-adv-x="720" d="M61 1397v108q166 0 260.5 -92t94.5 -287v-276q0 -115 30.5 -170t126.5 -92v-86q-92 -35 -123.5 -92.5t-31.5 -169.5v-277q0 -195 -94.5 -287t-260.5 -92v109q72 10 121 71.5t49 153.5v289q0 127 32 199.5t130 138.5q-98 66 -131 139.5t-33 198.5v288q0 94 -48 153.5 t-122 72.5z" />
<glyph unicode="~" d="M100 457q61 94 125 145t156 51q49 0 96 -14t118 -43t127 -48.5t89 -19.5q59 0 97 32t81 97l86 -71q-61 -92 -117.5 -139.5t-142.5 -47.5q-51 0 -94 14.5t-115 49.5q-76 33 -121 47t-108 14t-104.5 -36.5t-88.5 -106.5z" />
<glyph unicode="&#xa1;" horiz-adv-x="606" d="M172 918q0 53 39 92t92 39t92 -39t39 -92q0 -49 -39 -90.5t-90 -41.5q-53 0 -93 38t-40 94zM205 197l35 442h129l34 -442v-678h-198v678z" />
<glyph unicode="&#xa2;" d="M123 516q0 213 139 373t402 160l30 135l133 -21l-30 -129q49 -8 86 -23.5t75 -45.5l-63 -105q-55 29 -127 45l-180 -782q47 -12 96 -12q133 0 248 75l53 -102q-72 -53 -156 -81t-155 -28q-25 0 -47.5 1t-69.5 10l-35 -150l-127 23l37 159q-174 70 -241.5 219.5 t-67.5 278.5zM319 524q0 -106 36 -197t112 -149l166 731q-131 -14 -222.5 -109t-91.5 -276z" />
<glyph unicode="&#xa3;" d="M33 0v127q72 31 129 84t72.5 158.5t24.5 176t26 161.5h-211v112h217l37 248q25 166 138.5 278.5t311.5 112.5q92 0 173 -34.5t132 -102.5l-90 -88q-72 53 -113.5 70.5t-86.5 17.5q-111 0 -178.5 -61.5t-86.5 -188.5l-36 -252h307v-110h-316l-12 -136q0 -96 -41 -226 t-106 -177q127 -14 252.5 -24.5t228.5 -10.5q74 0 103.5 13.5t107.5 58.5l88 -101q-51 -63 -148.5 -97t-179.5 -34q-35 0 -231.5 22.5t-292.5 22.5q-111 0 -219 -20z" />
<glyph unicode="&#xa4;" d="M70 1139l90 92l121 -115q129 104 315 105q174 0 301 -105l115 115l92 -92l-109 -113q51 -63 77 -141t26 -170q0 -88 -25.5 -166t-77.5 -141l113 -113l-88 -94l-117 114q-59 -53 -142 -81.5t-167 -28.5q-188 0 -318 110l-116 -114l-88 92l112 115q-102 131 -102 303 q0 88 25.5 169t78.5 140zM223 711q0 -152 108.5 -258.5t262.5 -106.5q152 0 257 107.5t105 261.5q0 150 -105.5 257t-254.5 107q-156 0 -264.5 -106t-108.5 -262z" />
<glyph unicode="&#xa5;" d="M25 1413l221 41l346 -692l385 692l174 -24l-383 -644h334v-114h-402l-34 -58v-86h436v-114h-436v-414h-199v414h-428v114h428v86l-33 58h-395v114h330z" />
<glyph unicode="&#xa6;" horiz-adv-x="530" d="M197 0v602h135v-602h-135zM197 903v602h135v-602h-135z" />
<glyph unicode="&#xa7;" horiz-adv-x="1062" d="M63 -168l74 121q68 -51 148 -88t180 -37q98 0 154.5 38t56.5 93q0 84 -79 152.5t-222.5 152.5t-218 162t-74.5 184q0 115 90 184.5t231 92.5q-117 84 -174 153.5t-57 167.5q0 100 108.5 175t292.5 75q111 0 200 -33.5t155 -93.5l-86 -86q-66 41 -135.5 64.5t-143.5 23.5 q-190 0 -190 -137q0 -68 110.5 -147.5t244.5 -179t202.5 -163t68.5 -161.5q0 -104 -96 -192.5t-235 -88.5l4 4l-4 -4q109 -72 165 -138.5t56 -166.5t-107.5 -181t-312.5 -81q-117 0 -234.5 42t-171.5 93zM289 612q0 -74 85 -154t181 -100q125 16 181.5 56.5t56.5 113.5 q0 47 -64.5 109.5t-206.5 153.5q-233 -31 -233 -179z" />
<glyph unicode="&#xa8;" horiz-adv-x="872" d="M127 1341q0 39 30.5 72t71.5 33q43 0 74 -31t31 -74q0 -41 -31 -73.5t-74 -32.5q-41 0 -71.5 32.5t-30.5 73.5zM539 1341q0 39 30.5 72t71.5 33q43 0 73.5 -31t30.5 -74q0 -41 -30.5 -73.5t-73.5 -32.5q-41 0 -71.5 32.5t-30.5 73.5z" />
<glyph unicode="&#xa9;" horiz-adv-x="1554" d="M51 719q0 305 213 522t514 217q299 0 512 -217t213 -522t-213 -524.5t-512 -219.5q-301 0 -514 217.5t-213 526.5zM178 719q0 -254 177 -439.5t423 -185.5q244 0 421 185.5t177 439.5q0 252 -176 436t-422 184q-244 0 -422 -184t-178 -436zM338 739q0 170 134 296 t357 126q80 0 151 -21.5t116 -52.5l-62 -96q-33 25 -86 40.5t-117 15.5q-156 0 -246.5 -87.5t-90.5 -222.5q0 -137 95 -226t230 -89q63 0 118.5 15.5t98.5 45.5l58 -92q-106 -84 -277 -84q-223 0 -351 124t-128 308z" />
<glyph unicode="&#xaa;" horiz-adv-x="757" d="M39 629v100h680v-100h-680zM74 1001q0 80 62.5 134.5t178.5 87.5l160 43q-6 47 -42 76.5t-85 29.5q-53 0 -92 -16.5t-82 -48.5l-53 67q57 47 113.5 65.5t130.5 18.5q145 0 203.5 -60.5t58.5 -158.5v-260q0 -55 7 -88t21 -62h-163q-10 16 -14.5 42t-4.5 55l-41 -35 q-41 -35 -83 -55.5t-87 -20.5q-80 0 -134 52.5t-54 133.5zM227 1012q0 -43 24.5 -70t61.5 -27q63 0 112.5 71t49.5 202l-104 -31q-143 -41 -144 -145z" />
<glyph unicode="&#xab;" horiz-adv-x="1024" d="M72 481l370 377l78 -57l-250 -312l279 -303l-74 -69zM453 481l370 377l78 -57l-252 -312l281 -303l-74 -69z" />
<glyph unicode="&#xac;" d="M72 649v135h1032v-555h-135v420h-897z" />
<glyph unicode="&#xad;" horiz-adv-x="681" d="M86 403v168h510v-168h-510z" />
<glyph unicode="&#xae;" horiz-adv-x="1554" d="M51 719q0 305 213 522t514 217q299 0 512 -217t213 -522t-213 -524.5t-512 -219.5q-301 0 -514 217.5t-213 526.5zM178 719q0 -254 177 -439.5t423 -185.5q244 0 421 185.5t177 439.5q0 252 -176 436t-422 184q-244 0 -422 -184t-178 -436zM489 348v793h302 q137 0 222 -52.5t85 -152.5q0 -82 -46 -136.5t-130 -92.5l260 -338l-146 -35l-245 342h-158v-328h-144zM633 756h86q125 0 175 52t50 120t-52 100.5t-130 32.5h-129v-305z" />
<glyph unicode="&#xb0;" horiz-adv-x="757" d="M84 1163q0 119 86 207t209 88q121 0 207 -86t86 -209q0 -121 -86 -207t-207 -86q-119 0 -207 86t-88 207zM182 1163q0 -80 59.5 -137t137.5 -57q76 0 135 59t59 135q0 78 -57 137.5t-137 59.5t-138.5 -58.5t-58.5 -138.5z" />
<glyph unicode="&#xb1;" d="M72 0v135h1032v-135h-1032zM72 668v135h448v450h135v-450h449v-135h-449v-451h-135v451h-448z" />
<glyph unicode="&#xb2;" horiz-adv-x="833" d="M74 584v78l182 169q174 164 229.5 244t55.5 148q0 51 -38 91t-102 40q-57 0 -104 -22.5t-100 -65.5l-68 69q49 53 125 88t180 35q123 0 205 -60.5t82 -162.5q0 -76 -45 -145.5t-184 -202.5l-195 -189h430v-114h-653z" />
<glyph unicode="&#xb3;" horiz-adv-x="833" d="M143 614l43 88q31 -16 82 -27t103 -11q74 0 129 45t55 120q0 94 -86 130t-209 36v80q106 0 177 42t71 124q0 61 -41 91t-96 30q-51 0 -95.5 -13.5t-80.5 -35.5l-43 78q55 31 120.5 49t139.5 18q94 0 181 -42t87 -154q0 -78 -62.5 -133.5t-125.5 -73.5q94 -18 168.5 -64.5 t74.5 -163.5q0 -102 -94 -181t-260 -79q-72 0 -125 13.5t-113 33.5z" />
<glyph unicode="&#xb4;" horiz-adv-x="720" d="M199 1239l309 260q47 39 71.5 51.5t51.5 12.5q16 0 35.5 -21.5t19.5 -42.5q0 -27 -20.5 -48t-63.5 -50l-336 -230z" />
<glyph unicode="&#xb5;" d="M143 -418v1442h185v-618q0 -295 247 -295q115 0 189 86t74 229v598h184v-1024h-184v119q-84 -72 -161 -108t-169 -36q-68 0 -132.5 18.5t-92.5 47.5l-4 -4q20 -117 32.5 -212t12.5 -204z" />
<glyph unicode="&#xb6;" horiz-adv-x="1099" d="M49 1004q0 193 111.5 311.5t335.5 118.5h411v-1780h-143v1663h-125v-1663h-143v921q-221 0 -334 115t-113 314zM236 999q0 -166 68.5 -234.5t191.5 -68.5v621q-145 0 -202.5 -79t-57.5 -239z" />
<glyph unicode="&#xb8;" horiz-adv-x="681" d="M119 -449l45 87h35.5t42.5 -3q96 0 132 20.5t36 59.5q0 45 -53.5 62.5t-155.5 17.5l96 225h106l-55 -137q82 0 149.5 -40t67.5 -124q0 -61 -70.5 -117.5t-252.5 -56.5q-55 0 -123 6z" />
<glyph unicode="&#xb9;" horiz-adv-x="833" d="M145 1366l254 92h123v-874h-164v766l-182 -70z" />
<glyph unicode="&#xba;" horiz-adv-x="796" d="M59 629v100h680v-100h-680zM59 1145q0 143 100.5 228t239.5 85t239.5 -85t100.5 -228t-95 -236.5t-245 -93.5q-152 0 -246 92.5t-94 237.5zM223 1145q0 -102 40 -173t136 -71q94 0 135 73t41 171q0 94 -41.5 160.5t-134.5 66.5q-90 0 -133 -67.5t-43 -159.5z" />
<glyph unicode="&#xbb;" horiz-adv-x="1024" d="M94 788l74 70l403 -364l-370 -377l-78 57l252 311zM475 788l74 70l403 -364l-370 -377l-78 57l250 311z" />
<glyph unicode="&#xbc;" horiz-adv-x="1857" d="M143 1366l254 92h123v-874h-164v766l-182 -70zM358 0l926 1434h152l-924 -1434h-154zM1008 233v70l477 557h112v-526h113v-101h-113v-233h-159v233h-430zM1163 334h275v323z" />
<glyph unicode="&#xbd;" horiz-adv-x="1857" d="M143 1366l254 92h123v-874h-164v766l-182 -70zM379 0l926 1434h151l-924 -1434h-153zM1149 0v78l182 170q174 164 229.5 243.5t55.5 147.5q0 51 -38 91t-101 40q-57 0 -104.5 -22.5t-100.5 -65.5l-68 70q49 53 125 87.5t180 34.5q123 0 205 -60t82 -163q0 -76 -45 -145.5 t-184 -202.5l-195 -188h430v-115h-653z" />
<glyph unicode="&#xbe;" horiz-adv-x="1857" d="M102 614l43 88q31 -16 82.5 -27t102.5 -11q74 0 129 45t55 120q0 94 -86 130t-209 36v80q106 0 177 42t71 124q0 61 -41 91t-96 30q-51 0 -95.5 -13.5t-80.5 -35.5l-43 78q55 31 120.5 49t139.5 18q94 0 181 -42t87 -154q0 -78 -62.5 -133.5t-125.5 -73.5 q94 -18 168.5 -64.5t74.5 -163.5q0 -102 -94 -181t-260 -79q-72 0 -125 13.5t-113 33.5zM430 0l926 1434h151l-923 -1434h-154zM1059 233v70l477 557h113v-526h112v-101h-112v-233h-160v233h-430zM1214 334h275v323z" />
<glyph unicode="&#xbf;" horiz-adv-x="948" d="M84 -152q0 109 78 232q100 133 143 194.5t92 128.5q59 94 78 207h154q0 -115 -36 -198.5t-125 -202.5t-125 -197t-36 -157q0 -86 59.5 -139.5t139.5 -53.5q63 0 126.5 27.5t139.5 107.5l92 -92q-68 -86 -169 -136t-201 -50q-188 0 -299 84t-111 245zM416 918q0 53 39 92 t92 39t92 -39t39 -92q0 -49 -39 -90.5t-90 -41.5q-53 0 -93 38t-40 94z" />
<glyph unicode="&#xc0;" horiz-adv-x="1253" d="M-8 0l583 1434h152l535 -1434h-230l-147 422h-547l-154 -422h-192zM315 1864q0 76 68 76q23 0 52.5 -17.5t63.5 -46.5l273 -219l-64 -76l-307 193q-37 25 -61.5 46.5t-24.5 43.5zM393 565h445q-63 174 -112.5 322.5t-100.5 333.5q-47 -158 -91.5 -284t-140.5 -372z" />
<glyph unicode="&#xc1;" horiz-adv-x="1253" d="M-8 0l583 1434h152l535 -1434h-230l-147 422h-547l-154 -422h-192zM393 565h445q-63 174 -112.5 322.5t-100.5 333.5q-47 -158 -91.5 -284t-140.5 -372zM465 1649l309 260q47 39 71.5 51.5t51.5 12.5q16 0 35.5 -21.5t19.5 -42.5q0 -27 -20.5 -48t-63.5 -50l-336 -230z " />
<glyph unicode="&#xc2;" horiz-adv-x="1253" d="M-8 0l583 1434h152l535 -1434h-230l-147 422h-547l-154 -422h-192zM303 1581l256 312h133l256 -312h-121l-202 199l-203 -199h-119zM393 565h445q-63 174 -112.5 322.5t-100.5 333.5q-47 -158 -91.5 -284t-140.5 -372z" />
<glyph unicode="&#xc3;" horiz-adv-x="1253" d="M-8 0l583 1434h152l535 -1434h-230l-147 422h-547l-154 -422h-192zM258 1639q43 94 96 141t127 47q37 0 66.5 -11t89 -41t95.5 -45t60 -15q41 0 70 30.5t57 85.5l76 -53q-41 -80 -89 -130t-112 -50q-33 0 -56 8t-83.5 43t-95.5 48t-80 13q-49 0 -75.5 -29.5t-63.5 -99.5z M393 565h445q-63 174 -112.5 322.5t-100.5 333.5q-47 -158 -91.5 -284t-140.5 -372z" />
<glyph unicode="&#xc4;" horiz-adv-x="1253" d="M-8 0l583 1434h152l535 -1434h-230l-147 422h-547l-154 -422h-192zM317 1751q0 39 30.5 72t71.5 33q43 0 74 -31t31 -74q0 -41 -31 -73.5t-74 -32.5q-41 0 -71.5 32.5t-30.5 73.5zM393 565h445q-63 174 -112.5 322.5t-100.5 333.5q-47 -158 -91.5 -284t-140.5 -372z M729 1751q0 39 30.5 72t71.5 33q43 0 73.5 -31t30.5 -74q0 -41 -30.5 -73.5t-73.5 -32.5q-41 0 -71.5 32.5t-30.5 73.5z" />
<glyph unicode="&#xc5;" horiz-adv-x="1253" d="M-8 0l583 1434h152l535 -1434h-230l-147 422h-547l-154 -422h-192zM393 565h445q-63 174 -112.5 322.5t-100.5 333.5q-47 -158 -91.5 -284t-140.5 -372zM424 1764q0 82 59.5 143.5t145.5 61.5q84 0 143 -59.5t59 -145.5q0 -84 -59 -143.5t-143 -59.5q-82 0 -143.5 59.5 t-61.5 143.5zM504 1764q0 -49 38.5 -86t86.5 -37q49 0 85.5 37t36.5 86t-35.5 87t-86.5 38q-49 0 -87 -38t-38 -87z" />
<glyph unicode="&#xc6;" horiz-adv-x="1705" d="M-10 0l825 1434h752v-144h-508v-463h497v-143h-497v-541h596v-143h-795v422h-436l-227 -422h-207zM504 565h356v649z" />
<glyph unicode="&#xc7;" horiz-adv-x="1400" d="M98 721q0 293 215 515t582 222q139 0 249.5 -41t192.5 -104l-82 -123q-55 45 -161.5 85t-212.5 40q-260 0 -412 -166t-152 -424q0 -266 162 -436t402 -170q113 0 200.5 28.5t161.5 77.5l78 -119q-80 -55 -201 -93t-250 -38q-367 0 -569.5 215.5t-202.5 530.5zM479 -449 l45 87h35.5t42.5 -3q96 0 132 20.5t36 59.5q0 45 -53.5 62.5t-155.5 17.5l96 225h106l-55 -137q82 0 149.5 -40t67.5 -124q0 -61 -70.5 -117.5t-252.5 -56.5q-55 0 -123 6z" />
<glyph unicode="&#xc8;" horiz-adv-x="1017" d="M172 0v1434h707v-144h-508v-463h497v-143h-497v-541h596v-143h-795zM199 1864q0 76 68 76q23 0 52.5 -17.5t63.5 -46.5l273 -219l-64 -76l-307 193q-37 25 -61.5 46.5t-24.5 43.5z" />
<glyph unicode="&#xc9;" horiz-adv-x="1017" d="M172 0v1434h707v-144h-508v-463h497v-143h-497v-541h596v-143h-795zM349 1649l309 260q47 39 71.5 51.5t51.5 12.5q16 0 35.5 -21.5t19.5 -42.5q0 -27 -20.5 -48t-63.5 -50l-336 -230z" />
<glyph unicode="&#xca;" horiz-adv-x="1017" d="M172 0v1434h707v-144h-508v-463h497v-143h-497v-541h596v-143h-795zM186 1581l256 312h133l256 -312h-121l-202 199l-203 -199h-119z" />
<glyph unicode="&#xcb;" horiz-adv-x="1017" d="M172 0v1434h707v-144h-508v-463h497v-143h-497v-541h596v-143h-795zM201 1751q0 39 30.5 72t71.5 33q43 0 74 -31t31 -74q0 -41 -31 -73.5t-74 -32.5q-41 0 -71.5 32.5t-30.5 73.5zM613 1751q0 39 30.5 72t71.5 33q43 0 73.5 -31t30.5 -74q0 -41 -30.5 -73.5t-73.5 -32.5 q-41 0 -71.5 32.5t-30.5 73.5z" />
<glyph unicode="&#xcc;" horiz-adv-x="542" d="M-39 1864q0 76 68 76q23 0 52.5 -17.5t63.5 -46.5l273 -219l-64 -76l-307 193q-37 25 -61.5 46.5t-24.5 43.5zM172 0v1434h199v-1434h-199z" />
<glyph unicode="&#xcd;" horiz-adv-x="542" d="M111 1649l309 260q47 39 71.5 51.5t51.5 12.5q16 0 35.5 -21.5t19.5 -42.5q0 -27 -20.5 -48t-63.5 -50l-336 -230zM172 0v1434h199v-1434h-199z" />
<glyph unicode="&#xce;" horiz-adv-x="542" d="M-51 1581l256 312h133l256 -312h-121l-202 199l-203 -199h-119zM172 0v1434h199v-1434h-199z" />
<glyph unicode="&#xcf;" horiz-adv-x="542" d="M-37 1751q0 39 30.5 72t71.5 33q43 0 74 -31t31 -74q0 -41 -31 -73.5t-74 -32.5q-41 0 -71.5 32.5t-30.5 73.5zM172 0v1434h199v-1434h-199zM375 1751q0 39 30.5 72t71.5 33q43 0 73.5 -31t30.5 -74q0 -41 -30.5 -73.5t-73.5 -32.5q-41 0 -71.5 32.5t-30.5 73.5z" />
<glyph unicode="&#xd0;" horiz-adv-x="1507" d="M-66 700v127h238v607h459q403 0 590.5 -191.5t187.5 -482.5q0 -354 -215 -557t-596 -203h-426v700h-238zM371 143h221q303 0 450.5 151.5t147.5 469.5q0 248 -139.5 387t-415.5 139h-264v-463h278v-127h-278v-557z" />
<glyph unicode="&#xd1;" horiz-adv-x="1599" d="M172 0v1434h147q211 -250 406 -481.5t341 -412t194 -249.5l4 1143h163v-1434h-155q-307 367 -404.5 485.5t-293 358t-234.5 297.5l-4 -1141h-164zM430 1639q43 94 96 141t127 47q37 0 66.5 -11t89 -41t95.5 -45t60 -15q41 0 70 30.5t57 85.5l76 -53q-41 -80 -89 -130 t-112 -50q-33 0 -56 8t-83.5 43t-95.5 48t-80 13q-49 0 -75.5 -29.5t-63.5 -99.5z" />
<glyph unicode="&#xd2;" horiz-adv-x="1630" d="M98 741q0 303 205 510t512 207q309 0 513 -205.5t204 -511.5q0 -328 -196.5 -547t-520.5 -219q-326 0 -521.5 218t-195.5 548zM317 741q0 -248 121 -435t377 -187q254 0 376 187t122 435q0 229 -125 401.5t-373 172.5q-246 0 -372 -173t-126 -401zM504 1864q0 76 68 76 q23 0 52.5 -17.5t63.5 -46.5l273 -219l-64 -76l-307 193q-37 25 -61.5 46.5t-24.5 43.5z" />
<glyph unicode="&#xd3;" horiz-adv-x="1630" d="M98 741q0 303 205 510t512 207q309 0 513 -205.5t204 -511.5q0 -328 -196.5 -547t-520.5 -219q-326 0 -521.5 218t-195.5 548zM317 741q0 -248 121 -435t377 -187q254 0 376 187t122 435q0 229 -125 401.5t-373 172.5q-246 0 -372 -173t-126 -401zM654 1649l309 260 q47 39 71.5 51.5t51.5 12.5q16 0 35.5 -21.5t19.5 -42.5q0 -27 -20.5 -48t-63.5 -50l-336 -230z" />
<glyph unicode="&#xd4;" horiz-adv-x="1630" d="M98 741q0 303 205 510t512 207q309 0 513 -205.5t204 -511.5q0 -328 -196.5 -547t-520.5 -219q-326 0 -521.5 218t-195.5 548zM317 741q0 -248 121 -435t377 -187q254 0 376 187t122 435q0 229 -125 401.5t-373 172.5q-246 0 -372 -173t-126 -401zM491 1581l256 312h133 l256 -312h-121l-202 199l-203 -199h-119z" />
<glyph unicode="&#xd5;" horiz-adv-x="1630" d="M98 741q0 303 205 510t512 207q309 0 513 -205.5t204 -511.5q0 -328 -196.5 -547t-520.5 -219q-326 0 -521.5 218t-195.5 548zM317 741q0 -248 121 -435t377 -187q254 0 376 187t122 435q0 229 -125 401.5t-373 172.5q-246 0 -372 -173t-126 -401zM447 1639q43 94 96 141 t127 47q37 0 66.5 -11t89 -41t95.5 -45t60 -15q41 0 70 30.5t57 85.5l76 -53q-41 -80 -89 -130t-112 -50q-33 0 -56 8t-83.5 43t-95.5 48t-80 13q-49 0 -75.5 -29.5t-63.5 -99.5z" />
<glyph unicode="&#xd6;" horiz-adv-x="1630" d="M98 741q0 303 205 510t512 207q309 0 513 -205.5t204 -511.5q0 -328 -196.5 -547t-520.5 -219q-326 0 -521.5 218t-195.5 548zM317 741q0 -248 121 -435t377 -187q254 0 376 187t122 435q0 229 -125 401.5t-373 172.5q-246 0 -372 -173t-126 -401zM506 1751q0 39 30.5 72 t71.5 33q43 0 74 -31t31 -74q0 -41 -31 -73.5t-74 -32.5q-41 0 -71.5 32.5t-30.5 73.5zM918 1751q0 39 30.5 72t71.5 33q43 0 73.5 -31t30.5 -74q0 -41 -30.5 -73.5t-73.5 -32.5q-41 0 -71.5 32.5t-30.5 73.5z" />
<glyph unicode="&#xd7;" d="M145 172l344 348l-344 344l97 97l342 -347l350 347l96 -97l-348 -344l348 -348l-96 -96l-350 348l-342 -348z" />
<glyph unicode="&#xd8;" horiz-adv-x="1630" d="M90 -10l193 221q-184 209 -185 530q0 303 205 510t512 207q123 0 234.5 -37t199.5 -104l162 184l94 -65l-170 -195q92 -92 144.5 -224t52.5 -276q0 -328 -196.5 -547t-520.5 -219q-135 0 -249.5 40t-203.5 116l-190 -217zM317 741q0 -106 21.5 -202.5t73.5 -180.5 l727 834q-61 57 -143.5 90t-180.5 33q-246 0 -372 -173t-126 -401zM477 262q61 -68 145.5 -105.5t192.5 -37.5q254 0 376 187.5t122 434.5q0 102 -23.5 191.5t-79.5 167.5z" />
<glyph unicode="&#xd9;" horiz-adv-x="1413" d="M152 557v877h198v-869q0 -227 88 -339.5t279 -112.5q186 0 272 121.5t86 295.5v904h187v-908q0 -246 -144.5 -398.5t-400.5 -152.5q-295 0 -430 147.5t-135 434.5zM395 1864q0 76 68 76q23 0 52.5 -17.5t63.5 -46.5l273 -219l-64 -76l-307 193q-37 25 -61.5 46.5 t-24.5 43.5z" />
<glyph unicode="&#xda;" horiz-adv-x="1413" d="M152 557v877h198v-869q0 -227 88 -339.5t279 -112.5q186 0 272 121.5t86 295.5v904h187v-908q0 -246 -144.5 -398.5t-400.5 -152.5q-295 0 -430 147.5t-135 434.5zM545 1649l309 260q47 39 71.5 51.5t51.5 12.5q16 0 35.5 -21.5t19.5 -42.5q0 -27 -20.5 -48t-63.5 -50 l-336 -230z" />
<glyph unicode="&#xdb;" horiz-adv-x="1413" d="M152 557v877h198v-869q0 -227 88 -339.5t279 -112.5q186 0 272 121.5t86 295.5v904h187v-908q0 -246 -144.5 -398.5t-400.5 -152.5q-295 0 -430 147.5t-135 434.5zM383 1581l256 312h133l256 -312h-121l-202 199l-203 -199h-119z" />
<glyph unicode="&#xdc;" horiz-adv-x="1413" d="M152 557v877h198v-869q0 -227 88 -339.5t279 -112.5q186 0 272 121.5t86 295.5v904h187v-908q0 -246 -144.5 -398.5t-400.5 -152.5q-295 0 -430 147.5t-135 434.5zM397 1751q0 39 30.5 72t71.5 33q43 0 74 -31t31 -74q0 -41 -31 -73.5t-74 -32.5q-41 0 -71.5 32.5 t-30.5 73.5zM809 1751q0 39 30.5 72t71.5 33q43 0 73.5 -31t30.5 -74q0 -41 -30.5 -73.5t-73.5 -32.5q-41 0 -71.5 32.5t-30.5 73.5z" />
<glyph unicode="&#xdd;" horiz-adv-x="1101" d="M-6 1413l215 41l346 -680l377 680l176 -24l-483 -809v-621h-199v621zM389 1649l309 260q47 39 71.5 51.5t51.5 12.5q16 0 35.5 -21.5t19.5 -42.5q0 -27 -20.5 -48t-63.5 -50l-336 -230z" />
<glyph unicode="&#xde;" horiz-adv-x="1099" d="M172 0v1434h199v-273h159q236 0 364 -104.5t128 -311.5q0 -188 -146.5 -324t-383.5 -136h-121v-285h-199zM371 416h116q154 0 238 84t84 245q0 125 -76 200t-231 75h-131v-604z" />
<glyph unicode="&#xdf;" horiz-adv-x="1241" d="M152 0v1098q0 223 107.5 315t289.5 92q145 0 252.5 -84t107.5 -229q0 -57 -14 -100t-48 -110t-48.5 -99.5t-14.5 -71.5q0 -61 34 -104t139.5 -123t157.5 -151t52 -171q0 -125 -106.5 -206t-251.5 -81q-113 0 -185.5 32t-129.5 95l88 99q47 -43 107.5 -73t115.5 -30 q72 0 125 41t53 113q0 88 -86 150.5t-148.5 106.5t-103.5 105.5t-41 139.5q0 74 15.5 116.5t48 100t47 97.5t14.5 110q0 88 -63.5 140t-124.5 52q-88 0 -146.5 -55t-58.5 -219v-1096h-184z" />
<glyph unicode="&#xe0;" horiz-adv-x="1024" d="M82 291q0 127 98.5 216t265.5 138l248 78q0 90 -61.5 147.5t-143.5 57.5q-84 0 -141 -25.5t-127 -85.5l-71 92q76 74 158.5 107t191.5 33q152 0 265.5 -74t113.5 -275v-450q0 -74 9 -134.5t36 -115.5h-201q-16 27 -22.5 75t-6.5 99l-65 -63q-61 -61 -126 -98.5 t-130 -37.5q-131 0 -211 86t-80 230zM201 1454q0 76 68 76q23 0 52.5 -17.5t63.5 -46.5l273 -219l-64 -76l-307 193q-37 25 -61.5 46.5t-24.5 43.5zM272 293q0 -78 44 -126t104 -48q109 0 191.5 128t82.5 353l-176 -51q-246 -74 -246 -256z" />
<glyph unicode="&#xe1;" horiz-adv-x="1024" d="M82 291q0 127 98.5 216t265.5 138l248 78q0 90 -61.5 147.5t-143.5 57.5q-84 0 -141 -25.5t-127 -85.5l-71 92q76 74 158.5 107t191.5 33q152 0 265.5 -74t113.5 -275v-450q0 -74 9 -134.5t36 -115.5h-201q-16 27 -22.5 75t-6.5 99l-65 -63q-61 -61 -126 -98.5 t-130 -37.5q-131 0 -211 86t-80 230zM272 293q0 -78 44 -126t104 -48q109 0 191.5 128t82.5 353l-176 -51q-246 -74 -246 -256zM351 1239l309 260q47 39 71.5 51.5t51.5 12.5q16 0 35.5 -21.5t19.5 -42.5q0 -27 -20.5 -48t-63.5 -50l-336 -230z" />
<glyph unicode="&#xe2;" horiz-adv-x="1024" d="M82 291q0 127 98.5 216t265.5 138l248 78q0 90 -61.5 147.5t-143.5 57.5q-84 0 -141 -25.5t-127 -85.5l-71 92q76 74 158.5 107t191.5 33q152 0 265.5 -74t113.5 -275v-450q0 -74 9 -134.5t36 -115.5h-201q-16 27 -22.5 75t-6.5 99l-65 -63q-61 -61 -126 -98.5 t-130 -37.5q-131 0 -211 86t-80 230zM188 1171l256 312h133l256 -312h-121l-202 199l-203 -199h-119zM272 293q0 -78 44 -126t104 -48q109 0 191.5 128t82.5 353l-176 -51q-246 -74 -246 -256z" />
<glyph unicode="&#xe3;" horiz-adv-x="1024" d="M82 291q0 127 98.5 216t265.5 138l248 78q0 90 -61.5 147.5t-143.5 57.5q-84 0 -141 -25.5t-127 -85.5l-71 92q76 74 158.5 107t191.5 33q152 0 265.5 -74t113.5 -275v-450q0 -74 9 -134.5t36 -115.5h-201q-16 27 -22.5 75t-6.5 99l-65 -63q-61 -61 -126 -98.5 t-130 -37.5q-131 0 -211 86t-80 230zM143 1229q43 94 96 141t127 47q37 0 66.5 -11t89 -41t95.5 -45t60 -15q41 0 70 30.5t57 85.5l76 -53q-41 -80 -89 -130t-112 -50q-33 0 -56 8t-83.5 43t-95.5 48t-80 13q-49 0 -75.5 -29.5t-63.5 -99.5zM272 293q0 -78 44 -126t104 -48 q109 0 191.5 128t82.5 353l-176 -51q-246 -74 -246 -256z" />
<glyph unicode="&#xe4;" horiz-adv-x="1024" d="M82 291q0 127 98.5 216t265.5 138l248 78q0 90 -61.5 147.5t-143.5 57.5q-84 0 -141 -25.5t-127 -85.5l-71 92q76 74 158.5 107t191.5 33q152 0 265.5 -74t113.5 -275v-450q0 -74 9 -134.5t36 -115.5h-201q-16 27 -22.5 75t-6.5 99l-65 -63q-61 -61 -126 -98.5 t-130 -37.5q-131 0 -211 86t-80 230zM203 1341q0 39 30.5 72t71.5 33q43 0 74 -31t31 -74q0 -41 -31 -73.5t-74 -32.5q-41 0 -71.5 32.5t-30.5 73.5zM272 293q0 -78 44 -126t104 -48q109 0 191.5 128t82.5 353l-176 -51q-246 -74 -246 -256zM615 1341q0 39 30.5 72t71.5 33 q43 0 73.5 -31t30.5 -74q0 -41 -30.5 -73.5t-73.5 -32.5q-41 0 -71.5 32.5t-30.5 73.5z" />
<glyph unicode="&#xe5;" horiz-adv-x="1024" d="M82 291q0 127 98.5 216t265.5 138l248 78q0 90 -61.5 147.5t-143.5 57.5q-84 0 -141 -25.5t-127 -85.5l-71 92q76 74 158.5 107t191.5 33q152 0 265.5 -74t113.5 -275v-450q0 -74 9 -134.5t36 -115.5h-201q-16 27 -22.5 75t-6.5 99l-65 -63q-61 -61 -126 -98.5 t-130 -37.5q-131 0 -211 86t-80 230zM272 293q0 -78 44 -126t104 -48q109 0 191.5 128t82.5 353l-176 -51q-246 -74 -246 -256zM309 1354q0 82 59.5 143.5t145.5 61.5q84 0 143 -59.5t59 -145.5q0 -84 -59 -143.5t-143 -59.5q-82 0 -143.5 59.5t-61.5 143.5zM389 1354 q0 -49 38.5 -86t86.5 -37q49 0 85.5 37t36.5 86t-35.5 87t-86.5 38q-49 0 -87 -38t-38 -87z" />
<glyph unicode="&#xe6;" horiz-adv-x="1650" d="M82 291q0 127 98.5 216t263.5 138l250 78q0 90 -63.5 147.5t-143.5 57.5q-84 0 -140 -27t-126 -84l-71 92q76 74 158.5 107t191.5 33q102 0 185 -30t144 -114q55 68 148.5 106t196.5 38q213 0 308 -159t95 -390h-690q0 -160 95 -277t243 -117q76 0 150.5 24t129.5 65 l54 -101q-168 -119 -340 -119q-184 0 -306 85t-157 173l-127 -122q-61 -61 -127 -98.5t-131 -37.5q-131 0 -210 85t-79 231zM272 293q0 -78 44 -126t102 -48q102 0 191 107.5t89 297.5v37q-4 27 -4 39l-176 -51q-246 -74 -246 -256zM891 623h510q0 129 -56.5 212t-173.5 83 q-135 0 -207.5 -91.5t-72.5 -203.5z" />
<glyph unicode="&#xe7;" horiz-adv-x="985" d="M82 514q0 213 143.5 374t411.5 161q164 0 274 -84l-61 -105q-47 23 -102.5 38t-108.5 15q-143 0 -250.5 -98t-107.5 -291q0 -176 90 -294.5t266 -118.5q70 0 129 16t121 57l51 -102q-72 -51 -155 -79t-154 -28q-315 0 -431 178.5t-116 360.5zM271 -449l45 87h35.5 t42.5 -3q96 0 132 20.5t36 59.5q0 45 -53.5 62.5t-155.5 17.5l96 225h106l-55 -137q82 0 149.5 -40t67.5 -124q0 -61 -70.5 -117.5t-252.5 -56.5q-55 0 -123 6z" />
<glyph unicode="&#xe8;" horiz-adv-x="1038" d="M82 532q0 248 146.5 382.5t338.5 134.5q213 0 304.5 -158t91.5 -391h-691q0 -158 99.5 -276t246.5 -118q76 0 151 24t130 65l53 -101q-168 -119 -340 -119q-244 0 -387 145.5t-143 411.5zM209 1454q0 76 68 76q23 0 52.5 -17.5t63.5 -46.5l273 -219l-64 -76l-307 193 q-37 25 -61.5 46.5t-24.5 43.5zM285 623h510q0 129 -56.5 212t-173.5 83q-135 0 -207.5 -91.5t-72.5 -203.5z" />
<glyph unicode="&#xe9;" horiz-adv-x="1038" d="M82 532q0 248 146.5 382.5t338.5 134.5q213 0 304.5 -158t91.5 -391h-691q0 -158 99.5 -276t246.5 -118q76 0 151 24t130 65l53 -101q-168 -119 -340 -119q-244 0 -387 145.5t-143 411.5zM285 623h510q0 129 -56.5 212t-173.5 83q-135 0 -207.5 -91.5t-72.5 -203.5z M359 1239l309 260q47 39 71.5 51.5t51.5 12.5q16 0 35.5 -21.5t19.5 -42.5q0 -27 -20.5 -48t-63.5 -50l-336 -230z" />
<glyph unicode="&#xea;" horiz-adv-x="1038" d="M82 532q0 248 146.5 382.5t338.5 134.5q213 0 304.5 -158t91.5 -391h-691q0 -158 99.5 -276t246.5 -118q76 0 151 24t130 65l53 -101q-168 -119 -340 -119q-244 0 -387 145.5t-143 411.5zM197 1171l256 312h133l256 -312h-121l-202 199l-203 -199h-119zM285 623h510 q0 129 -56.5 212t-173.5 83q-135 0 -207.5 -91.5t-72.5 -203.5z" />
<glyph unicode="&#xeb;" horiz-adv-x="1038" d="M82 532q0 248 146.5 382.5t338.5 134.5q213 0 304.5 -158t91.5 -391h-691q0 -158 99.5 -276t246.5 -118q76 0 151 24t130 65l53 -101q-168 -119 -340 -119q-244 0 -387 145.5t-143 411.5zM211 1341q0 39 30.5 72t71.5 33q43 0 74 -31t31 -74q0 -41 -31 -73.5t-74 -32.5 q-41 0 -71.5 32.5t-30.5 73.5zM285 623h510q0 129 -56.5 212t-173.5 83q-135 0 -207.5 -91.5t-72.5 -203.5zM623 1341q0 39 30.5 72t71.5 33q43 0 73.5 -31t30.5 -74q0 -41 -30.5 -73.5t-73.5 -32.5q-41 0 -71.5 32.5t-30.5 73.5z" />
<glyph unicode="&#xec;" horiz-adv-x="487" d="M-68 1454q0 76 68 76q23 0 52.5 -17.5t63.5 -46.5l273 -219l-64 -76l-307 193q-37 25 -61.5 46.5t-24.5 43.5zM152 0v1024h184v-1024h-184z" />
<glyph unicode="&#xed;" horiz-adv-x="487" d="M82 1239l309 260q47 39 71.5 51.5t51.5 12.5q16 0 35.5 -21.5t19.5 -42.5q0 -27 -20.5 -48t-63.5 -50l-336 -230zM152 0v1024h184v-1024h-184z" />
<glyph unicode="&#xee;" horiz-adv-x="487" d="M-80 1171l256 312h133l256 -312h-121l-202 199l-203 -199h-119zM152 0v1024h184v-1024h-184z" />
<glyph unicode="&#xef;" horiz-adv-x="487" d="M-66 1341q0 39 30.5 72t71.5 33q43 0 74 -31t31 -74q0 -41 -31 -73.5t-74 -32.5q-41 0 -71.5 32.5t-30.5 73.5zM152 0v1024h184v-1024h-184zM346 1341q0 39 30.5 72t71.5 33q43 0 73.5 -31t30.5 -74q0 -41 -30.5 -73.5t-73.5 -32.5q-41 0 -71.5 32.5t-30.5 73.5z" />
<glyph unicode="&#xf1;" horiz-adv-x="1198" d="M152 0v1024h182v-127q70 74 165 113t185 39q178 0 270.5 -97.5t92.5 -292.5v-659h-185v621q0 293 -248 292q-119 0 -198.5 -76.5t-79.5 -220.5v-616h-184zM229 1229q43 94 96 141t127 47q37 0 66.5 -11t89 -41t95.5 -45t60 -15q41 0 70 30.5t57 85.5l76 -53 q-41 -80 -89 -130t-112 -50q-33 0 -56 8t-83.5 43t-95.5 48t-80 13q-49 0 -75.5 -29.5t-63.5 -99.5z" />
<glyph unicode="&#xf2;" horiz-adv-x="1173" d="M82 524q0 240 148.5 382.5t355.5 142.5q205 0 355.5 -142.5t150.5 -382.5t-140.5 -394.5t-365.5 -154.5q-223 0 -363.5 154.5t-140.5 394.5zM276 1454q0 76 68 76q23 0 52.5 -17.5t63.5 -46.5l273 -219l-64 -76l-307 193q-37 25 -61.5 46.5t-24.5 43.5zM281 524 q0 -174 69.5 -296t235.5 -122t236.5 122t70.5 296q0 162 -72.5 278t-234.5 116q-158 0 -231.5 -117t-73.5 -277z" />
<glyph unicode="&#xf3;" horiz-adv-x="1173" d="M82 524q0 240 148.5 382.5t355.5 142.5q205 0 355.5 -142.5t150.5 -382.5t-140.5 -394.5t-365.5 -154.5q-223 0 -363.5 154.5t-140.5 394.5zM281 524q0 -174 69.5 -296t235.5 -122t236.5 122t70.5 296q0 162 -72.5 278t-234.5 116q-158 0 -231.5 -117t-73.5 -277z M426 1239l309 260q47 39 71.5 51.5t51.5 12.5q16 0 35.5 -21.5t19.5 -42.5q0 -27 -20.5 -48t-63.5 -50l-336 -230z" />
<glyph unicode="&#xf4;" horiz-adv-x="1173" d="M82 524q0 240 148.5 382.5t355.5 142.5q205 0 355.5 -142.5t150.5 -382.5t-140.5 -394.5t-365.5 -154.5q-223 0 -363.5 154.5t-140.5 394.5zM264 1171l256 312h133l256 -312h-121l-202 199l-203 -199h-119zM281 524q0 -174 69.5 -296t235.5 -122t236.5 122t70.5 296 q0 162 -72.5 278t-234.5 116q-158 0 -231.5 -117t-73.5 -277z" />
<glyph unicode="&#xf5;" horiz-adv-x="1173" d="M82 524q0 240 148.5 382.5t355.5 142.5q205 0 355.5 -142.5t150.5 -382.5t-140.5 -394.5t-365.5 -154.5q-223 0 -363.5 154.5t-140.5 394.5zM217 1229q43 94 96 141t127 47q37 0 66.5 -11t89 -41t95.5 -45t60 -15q41 0 70 30.5t57 85.5l76 -53q-41 -80 -89 -130t-112 -50 q-33 0 -56 8t-83.5 43t-95.5 48t-80 13q-49 0 -75.5 -29.5t-63.5 -99.5zM281 524q0 -174 69.5 -296t235.5 -122t236.5 122t70.5 296q0 162 -72.5 278t-234.5 116q-158 0 -231.5 -117t-73.5 -277z" />
<glyph unicode="&#xf6;" horiz-adv-x="1173" d="M82 524q0 240 148.5 382.5t355.5 142.5q205 0 355.5 -142.5t150.5 -382.5t-140.5 -394.5t-365.5 -154.5q-223 0 -363.5 154.5t-140.5 394.5zM279 1341q0 39 30.5 72t71.5 33q43 0 74 -31t31 -74q0 -41 -31 -73.5t-74 -32.5q-41 0 -71.5 32.5t-30.5 73.5zM281 524 q0 -174 69.5 -296t235.5 -122t236.5 122t70.5 296q0 162 -72.5 278t-234.5 116q-158 0 -231.5 -117t-73.5 -277zM691 1341q0 39 30.5 72t71.5 33q43 0 73.5 -31t30.5 -74q0 -41 -30.5 -73.5t-73.5 -32.5q-41 0 -71.5 32.5t-30.5 73.5z" />
<glyph unicode="&#xf7;" d="M72 451v135h1032v-135h-1032zM457 168q0 53 39 92t92 39t92 -39t39 -92q0 -49 -39 -90t-90 -41q-53 0 -93 38t-40 93zM457 868q0 53 39 92t92 39t92 -38.5t39 -92.5q0 -49 -39 -90t-90 -41q-53 0 -93 38t-40 93z" />
<glyph unicode="&#xf8;" horiz-adv-x="1173" d="M53 -8l148 166q-119 143 -119 366q0 240 148.5 382.5t355.5 142.5q178 0 317 -111l129 145l86 -69l-137 -154q51 -66 81 -150.5t30 -185.5q0 -240 -140.5 -394.5t-365.5 -154.5q-90 0 -167 27t-140 78l-142 -160zM281 524q0 -70 9 -125t34 -106l475 530q-78 94 -213 95 q-158 0 -231.5 -117t-73.5 -277zM381 193q74 -86 205 -87q166 0 236.5 122t70.5 296q0 109 -39 199z" />
<glyph unicode="&#xf9;" horiz-adv-x="1169" d="M143 365v659h185v-618q0 -295 247 -295q111 0 185 84t74 231v598h184v-1024h-182v119q-82 -72 -160 -108t-170 -36q-178 0 -270.5 97.5t-92.5 292.5zM274 1454q0 76 68 76q23 0 52.5 -17.5t63.5 -46.5l273 -219l-64 -76l-307 193q-37 25 -61.5 46.5t-24.5 43.5z" />
<glyph unicode="&#xfa;" horiz-adv-x="1169" d="M143 365v659h185v-618q0 -295 247 -295q111 0 185 84t74 231v598h184v-1024h-182v119q-82 -72 -160 -108t-170 -36q-178 0 -270.5 97.5t-92.5 292.5zM424 1239l309 260q47 39 71.5 51.5t51.5 12.5q16 0 35.5 -21.5t19.5 -42.5q0 -27 -20.5 -48t-63.5 -50l-336 -230z" />
<glyph unicode="&#xfb;" horiz-adv-x="1169" d="M143 365v659h185v-618q0 -295 247 -295q111 0 185 84t74 231v598h184v-1024h-182v119q-82 -72 -160 -108t-170 -36q-178 0 -270.5 97.5t-92.5 292.5zM262 1171l256 312h133l256 -312h-121l-202 199l-203 -199h-119z" />
<glyph unicode="&#xfc;" horiz-adv-x="1169" d="M143 365v659h185v-618q0 -295 247 -295q111 0 185 84t74 231v598h184v-1024h-182v119q-82 -72 -160 -108t-170 -36q-178 0 -270.5 97.5t-92.5 292.5zM277 1341q0 39 30.5 72t71.5 33q43 0 74 -31t31 -74q0 -41 -31 -73.5t-74 -32.5q-41 0 -71.5 32.5t-30.5 73.5z M689 1341q0 39 30.5 72t71.5 33q43 0 73.5 -31t30.5 -74q0 -41 -30.5 -73.5t-73.5 -32.5q-41 0 -71.5 32.5t-30.5 73.5z" />
<glyph unicode="&#xfd;" horiz-adv-x="1013" d="M-14 -381h71q111 0 186.5 78t176.5 360l-402 936l185 51q55 -139 109.5 -275t106.5 -277.5t97 -278.5q72 199 152 402.5t174 428.5l162 -38l-527 -1186q-74 -168 -170 -250t-229 -82h-92v131zM346 1239l309 260q47 39 71.5 51.5t51.5 12.5q16 0 35.5 -21.5t19.5 -42.5 q0 -27 -20.5 -48t-63.5 -50l-336 -230z" />
<glyph unicode="&#xfe;" horiz-adv-x="1222" d="M152 -512v2017h184v-641q57 88 152.5 136.5t187.5 48.5q260 0 362.5 -167t102.5 -339q0 -217 -135.5 -392.5t-350.5 -175.5q-96 0 -176 42t-139 118l-4 -647h-184zM336 492q0 -180 90 -283t219 -103q154 0 225.5 133.5t71.5 301.5q0 152 -75.5 264.5t-209.5 112.5 q-156 0 -238.5 -112t-82.5 -314z" />
<glyph unicode="&#xff;" horiz-adv-x="1013" d="M-14 -381h71q111 0 186.5 78t176.5 360l-402 936l185 51q55 -139 109.5 -275t106.5 -277.5t97 -278.5q72 199 152 402.5t174 428.5l162 -38l-527 -1186q-74 -168 -170 -250t-229 -82h-92v131zM199 1341q0 39 30.5 72t71.5 33q43 0 74 -31t31 -74q0 -41 -31 -73.5 t-74 -32.5q-41 0 -71.5 32.5t-30.5 73.5zM611 1341q0 39 30.5 72t71.5 33q43 0 73.5 -31t30.5 -74q0 -41 -30.5 -73.5t-73.5 -32.5q-41 0 -71.5 32.5t-30.5 73.5z" />
<glyph unicode="&#x152;" horiz-adv-x="1966" d="M98 741q0 303 203 510t512 207q109 0 177.5 -6t129.5 -18h707v-144h-508v-463h498v-143h-498v-541h596v-143h-795q-55 -8 -141 -16.5t-166 -8.5q-324 0 -519.5 218.5t-195.5 547.5zM317 741q0 -250 125 -436t398 -186q106 0 164.5 15.5t115.5 43.5v1092 q-51 20 -117.5 32.5t-171.5 12.5q-256 0 -385 -172t-129 -402z" />
<glyph unicode="&#x153;" horiz-adv-x="1857" d="M82 524q0 240 150.5 382.5t357.5 142.5q129 0 237.5 -56.5t169.5 -165.5q47 106 153.5 164t229.5 58q213 0 308.5 -159t95.5 -390h-690q0 -160 95 -277t243 -117q76 0 150.5 24t129.5 65l53 -101q-168 -119 -340 -119q-154 0 -265 58.5t-163 171.5q-55 -106 -162.5 -168 t-244.5 -62q-225 0 -366.5 156t-141.5 393zM281 524q0 -172 71.5 -295t237.5 -123t235.5 121t69.5 297q0 162 -72.5 278t-232.5 116t-234.5 -116t-74.5 -278zM1098 623h510q0 129 -56.5 212t-173.5 83q-135 0 -207.5 -91.5t-72.5 -203.5z" />
<glyph unicode="&#x178;" horiz-adv-x="1101" d="M-6 1413l215 41l346 -680l377 680l176 -24l-483 -809v-621h-199v621zM242 1751q0 39 30.5 72t71.5 33q43 0 74 -31t31 -74q0 -41 -31 -73.5t-74 -32.5q-41 0 -71.5 32.5t-30.5 73.5zM654 1751q0 39 30.5 72t71.5 33q43 0 73.5 -31t30.5 -74q0 -41 -30.5 -73.5 t-73.5 -32.5q-41 0 -71.5 32.5t-30.5 73.5z" />
<glyph unicode="&#x2000;" horiz-adv-x="986" />
<glyph unicode="&#x2001;" horiz-adv-x="1973" />
<glyph unicode="&#x2002;" horiz-adv-x="986" />
<glyph unicode="&#x2003;" horiz-adv-x="1973" />
<glyph unicode="&#x2004;" horiz-adv-x="657" />
<glyph unicode="&#x2005;" horiz-adv-x="493" />
<glyph unicode="&#x2006;" horiz-adv-x="328" />
<glyph unicode="&#x2007;" horiz-adv-x="328" />
<glyph unicode="&#x2008;" horiz-adv-x="246" />
<glyph unicode="&#x2009;" horiz-adv-x="394" />
<glyph unicode="&#x200a;" horiz-adv-x="109" />
<glyph unicode="&#x2010;" horiz-adv-x="681" d="M86 403v168h510v-168h-510z" />
<glyph unicode="&#x2011;" horiz-adv-x="681" d="M86 403v168h510v-168h-510z" />
<glyph unicode="&#x2012;" horiz-adv-x="681" d="M86 403v168h510v-168h-510z" />
<glyph unicode="&#x2013;" horiz-adv-x="1024" d="M0 424v127h1024v-127h-1024z" />
<glyph unicode="&#x2014;" horiz-adv-x="2048" d="M0 424v127h2048v-127h-2048z" />
<glyph unicode="&#x2018;" horiz-adv-x="569" d="M117 1001q0 68 45 150l198 354l109 -43l-121 -352q-39 -111 -70.5 -156t-91.5 -45q-33 0 -51 24.5t-18 67.5z" />
<glyph unicode="&#x2019;" horiz-adv-x="569" d="M100 952l121 353q39 111 71 155.5t91 44.5q33 0 51.5 -24.5t18.5 -67.5q0 -68 -45 -149l-199 -355z" />
<glyph unicode="&#x201a;" horiz-adv-x="569" d="M57 -322l121 353q39 111 71 155.5t91 44.5q33 0 51.5 -24.5t18.5 -67.5q0 -68 -45 -149l-199 -355z" />
<glyph unicode="&#x201c;" horiz-adv-x="1024" d="M170 1001q0 68 45 150l199 354l108 -43l-121 -352q-39 -111 -70.5 -156t-90.5 -45q-33 0 -51.5 24.5t-18.5 67.5zM573 1004q0 68 45 149l199 354l109 -43l-121 -352q-39 -111 -71 -156t-91 -45q-33 0 -51.5 25t-18.5 68z" />
<glyph unicode="&#x201d;" horiz-adv-x="1024" d="M98 952l121 353q39 111 71 155.5t91 44.5q33 0 51.5 -24.5t18.5 -67.5q0 -68 -45 -149l-199 -355zM502 952l121 353q39 111 70.5 155.5t90.5 44.5q33 0 51.5 -24.5t18.5 -67.5q0 -68 -45 -149l-199 -355z" />
<glyph unicode="&#x201e;" horiz-adv-x="1024" d="M78 -322l121 353q39 111 70.5 155.5t90.5 44.5q33 0 51.5 -24.5t18.5 -67.5q0 -68 -45 -149l-199 -355zM481 -322l121 353q39 111 71 155.5t91 44.5q33 0 51.5 -24.5t18.5 -67.5q0 -68 -46 -149l-198 -355z" />
<glyph unicode="&#x2022;" horiz-adv-x="1024" d="M154 717q0 152 103 255t255 103q150 0 254 -104.5t104 -253.5q0 -150 -104 -254.5t-254 -104.5q-152 0 -255 103.5t-103 255.5z" />
<glyph unicode="&#x2026;" horiz-adv-x="2048" d="M211 106q0 53 39 92.5t92 39.5t92 -39t39 -93q0 -49 -39 -90t-90 -41q-53 0 -93 38t-40 93zM893 106q0 53 39 92.5t92 39.5t92 -39t39 -93q0 -49 -39 -90t-90 -41q-53 0 -93 38t-40 93zM1575 106q0 53 39 92.5t92 39.5t92 -39t39 -93q0 -49 -39 -90t-90 -41q-53 0 -93 38 t-40 93z" />
<glyph unicode="&#x202f;" horiz-adv-x="394" />
<glyph unicode="&#x2039;" horiz-adv-x="569" d="M39 481l371 377l77 -57l-251 -312l280 -303l-74 -69z" />
<glyph unicode="&#x203a;" horiz-adv-x="569" d="M53 788l74 70l403 -364l-370 -377l-78 57l252 311z" />
<glyph unicode="&#x205f;" horiz-adv-x="493" />
<glyph unicode="&#x2122;" horiz-adv-x="1972" d="M92 1339v95h699v-95h-277v-733h-143v733h-279zM913 606v828h166l312 -621l338 621h151v-828h-143v611l-332 -611h-68l-305 611h-2v-611h-117z" />
<glyph unicode="&#x25fc;" horiz-adv-x="1044" d="M0 0v1044h1044v-1044h-1044z" />
</font>
</defs>
</svg>
