<?xml version="1.0" standalone="no"?>
<!DOCTYPE svg PUBLIC "-//W3C//DTD SVG 1.1//EN" "http://www.w3.org/Graphics/SVG/1.1/DTD/svg11.dtd" >
<svg xmlns="http://www.w3.org/2000/svg">
<metadata></metadata>
<defs>
<font id="stonesans-italicregular" horiz-adv-x="1175" >
<font-face units-per-em="2048" ascent="1638" descent="-410" />
<missing-glyph horiz-adv-x="569" />
<glyph horiz-adv-x="0" />
<glyph unicode="&#xd;" horiz-adv-x="569" />
<glyph unicode=" "  horiz-adv-x="569" />
<glyph unicode="&#x09;" horiz-adv-x="569" />
<glyph unicode="&#xa0;" horiz-adv-x="569" />
<glyph unicode="!" horiz-adv-x="606" d="M180 80q0 57 44 107.5t100 50.5q43 0 68.5 -34t25.5 -73q0 -61 -45 -108.5t-97 -47.5q-43 0 -69.5 33t-26.5 72zM295 385l51 442l127 678h178l-127 -678l-112 -442h-117z" />
<glyph unicode="&#x22;" horiz-adv-x="757" d="M346 883q2 25 2 39l33 417q0 59 23.5 112.5t80.5 53.5q31 0 46.5 -17t15.5 -46q0 -53 -17 -103l-120 -417q-8 -33 -15.5 -48.5t-29.5 -15.5q-18 0 -19 25zM623 883q2 25 2 39l32 417q0 59 24 112.5t81 53.5q31 0 46 -17t15 -46q0 -53 -16 -103l-121 -417 q-8 -33 -15 -48.5t-30 -15.5q-18 0 -18 25z" />
<glyph unicode="#" d="M160 463l22 119h215l92 299h-200l22 118h217l136 435h110l-137 -435h244l135 435h108l-135 -435h176l-22 -118h-191l-94 -299h184l-22 -119h-201l-143 -463h-109l144 463h-246l-146 -463h-108l145 463h-196zM506 582h244l94 299h-246z" />
<glyph unicode="$" d="M141 106l82 127q47 -37 86 -63.5t86 -42.5l183 590q-125 147 -170.5 215.5t-45.5 185.5q0 141 120 240.5t298 99.5l25 -2l22 72l123 -25l-20 -65q49 -14 90 -38t67 -52l-98 -103q-29 18 -52.5 34.5t-47.5 27.5l-166 -523q145 -158 187 -242.5t42 -172.5 q0 -129 -101 -261.5t-357 -132.5l-25 2l-47 -149l-111 25l43 143q-68 16 -124 46t-89 64zM510 104q106 0 180 68t74 176q0 96 -21.5 147.5t-74.5 112.5zM551 1110q0 -59 16.5 -106.5t63.5 -112.5l135 438q-90 0 -152.5 -62.5t-62.5 -156.5z" />
<glyph unicode="%" horiz-adv-x="1705" d="M172 918q0 180 118 360t308 180q145 0 201.5 -106.5t56.5 -208.5q0 -215 -122 -394.5t-304 -179.5q-117 0 -187.5 83.5t-70.5 265.5zM303 0l1102 1434h149l-1099 -1434h-152zM334 879q0 -86 24.5 -146.5t92.5 -60.5q117 0 180 174t63 315q0 76 -26.5 135.5t-94.5 59.5 q-104 0 -171.5 -148.5t-67.5 -328.5zM1008 324q0 180 117.5 360t308.5 180q145 0 201.5 -106.5t56.5 -208.5q0 -215 -122 -394.5t-304 -179.5q-117 0 -187.5 83.5t-70.5 265.5zM1169 285q0 -86 25 -146.5t92 -60.5q117 0 180.5 174t63.5 315q0 76 -26.5 135.5t-94.5 59.5 q-104 0 -172 -148.5t-68 -328.5z" />
<glyph unicode="&#x26;" horiz-adv-x="1517" d="M213 373q0 158 99.5 263t265.5 159q-80 119 -106 174t-26 161q0 139 117 233.5t264 94.5q90 0 142.5 -21.5t128.5 -72.5l-90 -107q-41 31 -95.5 50.5t-97.5 19.5q-74 0 -129 -53t-55 -152q0 -59 38 -141t117 -180l328 -404q27 49 38 110.5t11 131.5q0 141 -82 242h-182 l80 127h553l-82 -127h-205q20 -41 39 -107.5t19 -130.5q0 -82 -24 -173t-79 -183l189 -217l-150 -95l-149 181q-104 -98 -208 -139.5t-227 -41.5q-217 0 -329.5 122t-112.5 276zM401 385q0 -92 75 -183t216 -91q102 0 172 36.5t144 110.5l-357 438q-117 -37 -183.5 -119.5 t-66.5 -191.5z" />
<glyph unicode="'" horiz-adv-x="417" d="M332 883q2 25 2 39l33 417q0 59 23.5 112.5t80.5 53.5q31 0 46 -17t15 -46q0 -53 -16 -103l-121 -417q-8 -33 -15 -48.5t-30 -15.5q-18 0 -18 25z" />
<glyph unicode="(" horiz-adv-x="720" d="M164 236q0 76 4 143t42 270t206 446.5t401 409.5l66 -90q-195 -154 -338.5 -393.5t-174 -401t-34.5 -228t-4 -140.5q0 -229 69.5 -374.5t153.5 -221.5l-88 -80q-147 131 -225 298t-78 362z" />
<glyph unicode=")" horiz-adv-x="720" d="M-33 -334q195 154 338.5 393.5t174 398t34.5 232.5t4 139q0 221 -73.5 375t-149.5 221l86 80q115 -102 210 -254.5t95 -404.5q0 -74 -4 -142.5t-42 -272.5t-205 -444.5t-404 -410.5z" />
<glyph unicode="*" horiz-adv-x="872" d="M283 1108l77 158l205 -99l35 267h150l-68 -267l244 99l16 -158l-246 -66l117 -206l-141 -99l-86 228l-172 -228l-103 99l193 206z" />
<glyph unicode="+" horiz-adv-x="1251" d="M170 451v135h448v450h136v-450h448v-135h-448v-451h-136v451h-448z" />
<glyph unicode="," horiz-adv-x="569" d="M-39 -315l189 360q59 117 91.5 155t84.5 38q68 0 67 -72q-10 -49 -23.5 -77t-41.5 -66l-275 -383z" />
<glyph unicode="-" horiz-adv-x="681" d="M154 403l30 168h459l-31 -168h-458z" />
<glyph unicode="." horiz-adv-x="569" d="M150 80q0 57 44 107.5t99 50.5q43 0 68.5 -34t25.5 -73q0 -61 -45 -108.5t-96 -47.5q-43 0 -69.5 33t-26.5 72z" />
<glyph unicode="/" horiz-adv-x="796" d="M14 -221l822 1726h137l-821 -1726h-138z" />
<glyph unicode="0" d="M213 459v78q0 20 4 50.5t40 232.5t191.5 420t374.5 218q156 0 240 -127t84 -352q0 -195 -57.5 -400.5t-140.5 -331.5t-189.5 -199t-214.5 -73q-188 0 -260 158t-72 326zM389 457q0 -145 34 -243.5t136 -98.5q150 0 281 270t131 606q0 133 -36 230.5t-138 97.5 q-61 0 -127 -52t-129 -169q-61 -113 -106.5 -281t-45.5 -360z" />
<glyph unicode="1" d="M399 1303l381 155h123l-272 -1458h-178l241 1296l-274 -114z" />
<glyph unicode="2" d="M86 0l20 109l332 315q297 279 406.5 439.5t109.5 246.5q0 76 -50 140.5t-146 64.5q-104 0 -165 -47t-120 -107l-80 101q104 100 189.5 148t232.5 48q152 0 240 -101.5t88 -221.5q0 -229 -424 -631l-363 -348h621l-27 -156h-864z" />
<glyph unicode="3" d="M172 78l70 119q59 -35 124.5 -60.5t141.5 -25.5q139 0 225 86t86 225q0 127 -81 203.5t-199 76.5l-84 7l20 110q147 0 276.5 88t129.5 223q0 96 -60.5 148.5t-136.5 52.5q-63 0 -113.5 -14t-124.5 -47l-45 106q84 41 164 61.5t176 20.5q113 0 222.5 -72.5t109.5 -234.5 q0 -145 -109.5 -242.5t-203.5 -124.5q80 -25 164 -114.5t84 -243.5q0 -197 -145.5 -324t-366.5 -127q-106 0 -188.5 30t-135.5 73z" />
<glyph unicode="4" d="M115 412l16 92l836 930h104l-164 -879h158l-27 -143h-157l-78 -412h-170l76 412h-594zM338 555h397l107 557l-4 4z" />
<glyph unicode="5" d="M82 94l82 127q70 -47 149.5 -74.5t169.5 -27.5q141 0 234.5 99t93.5 249q0 121 -112.5 242.5t-348.5 121.5l275 603h505l-75 -156h-346l-148 -328q215 -51 324.5 -173t109.5 -326q0 -195 -156.5 -335.5t-375.5 -140.5q-104 0 -210 31t-171 88z" />
<glyph unicode="6" d="M201 442q0 348 314 662.5t667 353.5l-27 -135q-215 -39 -386 -176t-261 -326l4 -4q61 37 104 51.5t109 14.5q131 0 243.5 -93.5t112.5 -306.5q0 -231 -148.5 -369.5t-334.5 -138.5q-193 0 -295 132.5t-102 334.5zM385 410q0 -141 66.5 -222.5t179.5 -81.5 q109 0 187.5 102.5t78.5 266.5q0 104 -48 193.5t-177 89.5q-127 0 -207 -91t-80 -257z" />
<glyph unicode="7" d="M209 45l823 1233h-606l29 156h782l-29 -154l-839 -1300z" />
<glyph unicode="8" d="M156 319q0 186 99 284.5t261 178.5q-84 72 -132 147t-48 161q0 176 131 272t299 96q170 0 269.5 -82t99.5 -221q0 -123 -77 -195.5t-255 -193.5q98 -61 169.5 -151.5t71.5 -208.5q0 -186 -151.5 -308.5t-347.5 -122.5q-178 0 -283.5 109.5t-105.5 234.5zM340 356 q0 -100 59.5 -172.5t182.5 -72.5q119 0 198.5 77.5t79.5 208.5q0 92 -77.5 172t-168.5 131q-164 -98 -219 -176t-55 -168zM520 1102q0 -70 54.5 -139.5t123.5 -106.5q133 82 192.5 136t59.5 167q0 78 -59.5 129t-132.5 51q-102 0 -170 -60t-68 -177z" />
<glyph unicode="9" d="M221 -25l27 136q197 39 361.5 177t254.5 324l-4 4q-98 -59 -233 -59q-117 0 -226.5 104.5t-109.5 317.5q0 211 140 345t331 134q195 0 302 -133t107 -334q0 -346 -309 -661.5t-641 -354.5zM475 983q0 -113 54.5 -210t201.5 -97q111 0 183.5 92t72.5 256q0 141 -62.5 222 t-162.5 81q-123 0 -205 -92t-82 -252z" />
<glyph unicode=":" horiz-adv-x="569" d="M152 80q0 57 44 107.5t99 50.5q43 0 68.5 -34t25.5 -73q0 -61 -45 -108.5t-96 -47.5q-43 0 -69.5 33t-26.5 72zM293 827q0 57 44 107.5t99 50.5q43 0 68.5 -33.5t25.5 -72.5q0 -61 -45 -108.5t-96 -47.5q-43 0 -69.5 32.5t-26.5 71.5z" />
<glyph unicode=";" horiz-adv-x="569" d="M-39 -315l189 360q59 117 91.5 155t84.5 38q68 0 67 -72q-10 -49 -23.5 -77t-41.5 -66l-275 -383zM305 823q0 57 44 107.5t100 50.5q43 0 68.5 -34t25.5 -73q0 -61 -45 -108t-97 -47q-43 0 -69.5 32.5t-26.5 71.5z" />
<glyph unicode="&#x3c;" horiz-adv-x="1251" d="M174 463v110l1043 480v-131l-869 -404l869 -403v-131z" />
<glyph unicode="=" horiz-adv-x="1251" d="M180 252v135h1032v-135h-1032zM180 649v135h1032v-135h-1032z" />
<glyph unicode="&#x3e;" horiz-adv-x="1251" d="M184 -16v131l869 403l-869 404v131l1043 -480v-110z" />
<glyph unicode="?" horiz-adv-x="948" d="M264 80q0 57 44 107.5t100 50.5q43 0 68.5 -34t25.5 -73q0 -61 -45 -108.5t-97 -47.5q-43 0 -69.5 33t-26.5 72zM315 1331q98 88 193.5 131t183.5 43q145 0 224 -68.5t79 -199.5q0 -100 -44 -180t-164.5 -225.5t-176.5 -210.5q-68 -90 -106 -207h-139q16 115 63 194.5 t210 269t163 326.5q0 82 -47 121t-119 39q-68 0 -114 -28.5t-132 -98.5z" />
<glyph unicode="@" horiz-adv-x="1554" d="M147 565q0 182 74 345t203 288t289.5 192.5t335.5 67.5q276 0 409 -148.5t133 -346.5q0 -272 -155.5 -468t-333.5 -196q-80 0 -128 44t-48 99q0 12 2 19l-4 4q-25 -49 -105 -96t-143 -47q-76 0 -126 65.5t-50 177.5q0 184 149.5 356.5t313.5 172.5q66 0 108.5 -33 t52.5 -80l39 86h140l-232 -555q-6 -12 -6 -33q0 -33 19.5 -55.5t68.5 -22.5q92 0 193.5 174.5t101.5 370.5q0 119 -87 253t-345 134q-113 0 -237 -53t-230.5 -154.5t-176 -248t-69.5 -320.5q0 -193 111.5 -329t349.5 -136q119 0 209 25.5t178 70.5l33 -98 q-123 -51 -233.5 -83t-211.5 -32q-336 0 -464 182.5t-128 407.5zM672 569q0 -41 26.5 -73.5t63.5 -32.5t83 26.5t93 94.5q53 86 84 155.5t31 137.5q0 43 -20.5 68.5t-55.5 25.5q-115 0 -210 -124t-95 -278z" />
<glyph unicode="A" d="M16 0l793 1434h127l207 -1434h-191l-53 424h-483l-217 -424h-183zM494 565h389q-35 254 -50.5 387t-15.5 256q-53 -109 -107.5 -217t-114.5 -228t-101 -198z" />
<glyph unicode="B" horiz-adv-x="1062" d="M154 0l268 1434h326q176 0 266 -86t90 -222q0 -166 -106.5 -252t-219.5 -114q127 -18 200 -112.5t73 -221.5q0 -193 -153 -309.5t-372 -116.5h-372zM356 133h174q131 0 227.5 70.5t96.5 234.5q0 104 -71.5 172t-180.5 68h-143zM485 817h88q135 0 236.5 69.5t101.5 215.5 q0 109 -58 153.5t-148 44.5h-130z" />
<glyph unicode="C" horiz-adv-x="1251" d="M199 639q0 375 257 597t582 222q113 0 205 -34.5t137 -75.5l-90 -103q-88 39 -136 54.5t-142 15.5q-260 0 -436.5 -190.5t-176.5 -477.5q0 -248 132.5 -388t330.5 -140q78 0 158 16.5t151 44.5l54 -119q-84 -39 -186.5 -62.5t-196.5 -23.5q-262 0 -452.5 169t-190.5 495z " />
<glyph unicode="D" horiz-adv-x="1421" d="M154 0l268 1434h401q336 0 469 -168t133 -414q0 -319 -221 -585.5t-667 -266.5h-383zM356 133h201q311 0 491.5 217t180.5 506q0 225 -114 334.5t-314 109.5h-226z" />
<glyph unicode="E" horiz-adv-x="948" d="M154 0l268 1434h635l-25 -134h-457l-88 -477h447l-25 -133h-448l-105 -557h537l-25 -133h-714z" />
<glyph unicode="F" horiz-adv-x="872" d="M154 0l268 1434h635l-25 -134h-457l-106 -561h449l-25 -133h-447l-114 -606h-178z" />
<glyph unicode="G" horiz-adv-x="1441" d="M199 639q0 375 257 597t582 222q117 0 212.5 -34.5t144.5 -84.5l-86 -102q-90 47 -130 62.5t-165 15.5q-262 0 -438.5 -190.5t-176.5 -477.5q0 -248 132.5 -388t330.5 -140q74 0 115 5t90 32l96 499h180l-112 -598q-70 -35 -190.5 -58.5t-198.5 -23.5q-262 0 -452.5 169 t-190.5 495z" />
<glyph unicode="H" horiz-adv-x="1366" d="M154 0l268 1434h178l-108 -582h630l109 582h178l-268 -1434h-178l135 719h-631l-135 -719h-178z" />
<glyph unicode="I" horiz-adv-x="557" d="M154 0l268 1434h178l-268 -1434h-178z" />
<glyph unicode="J" horiz-adv-x="557" d="M-53 -389l22 121q37 6 62.5 25.5t47 51t46.5 101.5t37 129l260 1395h178l-266 -1422q-39 -209 -144.5 -305t-242.5 -96z" />
<glyph unicode="K" horiz-adv-x="1099" d="M154 0l268 1434h178l-119 -635l4 -4l662 659l113 -94l-603 -586l406 -721l-170 -73l-420 763l-141 -743h-178z" />
<glyph unicode="L" horiz-adv-x="909" d="M154 0l268 1434h178l-244 -1301h537l-25 -133h-714z" />
<glyph unicode="M" horiz-adv-x="1785" d="M141 0l269 1434h188q80 -309 152.5 -602t132.5 -570q115 188 252 401.5t251.5 384.5t260.5 386h174l-269 -1434h-178q33 180 59.5 322.5t72.5 370t100 466.5l-4 4q-123 -201 -238 -382t-229.5 -354t-282.5 -427h-72q-61 240 -98 387.5t-92 383t-88 392.5 q-51 -336 -84 -518t-119 -645h-158z" />
<glyph unicode="N" horiz-adv-x="1519" d="M139 0l269 1434h114q90 -152 282.5 -485t275.5 -480t110 -203q8 61 55 332.5t80 443.5t76 392h158l-269 -1434h-129q-127 209 -257 425t-255 433t-151 285q-41 -268 -63.5 -401.5t-62.5 -346.5t-75 -395h-158z" />
<glyph unicode="O" horiz-adv-x="1517" d="M199 598q0 313 208.5 586.5t577.5 273.5q242 0 389.5 -172t147.5 -414q0 -342 -197 -619.5t-549 -277.5q-309 0 -443 197t-134 426zM395 664q0 -260 103.5 -402.5t294.5 -142.5q274 0 403 230t129 515q0 211 -102.5 331t-261.5 120q-297 0 -431.5 -221.5t-134.5 -429.5z " />
<glyph unicode="P" horiz-adv-x="1062" d="M154 0l268 1434h301q152 0 278.5 -97.5t126.5 -292.5q0 -205 -160.5 -342t-469.5 -137l22 125h53q141 0 258 77t117 273q0 86 -66.5 173t-185.5 87h-121l-243 -1300h-178z" />
<glyph unicode="Q" horiz-adv-x="1517" d="M199 598q0 313 208.5 586.5t577.5 273.5q242 0 389.5 -172t147.5 -414q0 -274 -133.5 -523t-374.5 -320l393 -236l-107 -133l-509 315h-15q-309 0 -443 197t-134 426zM395 664q0 -260 103.5 -402.5t294.5 -142.5q274 0 403 230t129 515q0 211 -102.5 331t-261.5 120 q-297 0 -431.5 -221.5t-134.5 -429.5z" />
<glyph unicode="R" horiz-adv-x="1099" d="M154 0l268 1434h305q211 0 292 -111t81 -246q0 -158 -84 -264t-215 -166l235 -606l-180 -66l-223 629h-189l-112 -604h-178zM469 737h119q143 0 239.5 87t96.5 245q0 104 -51.5 167.5t-165.5 63.5h-134z" />
<glyph unicode="S" horiz-adv-x="1024" d="M131 111l74 114q72 -55 138.5 -88t148.5 -33q111 0 184.5 67t73.5 177q0 102 -56.5 185t-156 198t-144.5 198t-45 189q0 141 118 240.5t288 99.5q119 0 184.5 -28.5t130.5 -86.5l-86 -90q-43 23 -86 47q-63 29 -135 29q-92 0 -158.5 -62.5t-66.5 -156.5 q0 -72 34.5 -135.5t141 -177t166 -214t59.5 -214.5q0 -129 -101.5 -261.5t-357.5 -132.5q-109 0 -205 39t-143 97z" />
<glyph unicode="T" horiz-adv-x="1099" d="M270 1300l25 134h1005l-24 -134h-414l-244 -1300h-180l244 1300h-412z" />
<glyph unicode="U" horiz-adv-x="1366" d="M236 358q0 29 2 43l20 156l164 877h178l-162 -869q-4 -23 -12 -83t-8 -93q0 -154 77.5 -217t186.5 -63q168 0 265 109.5t140 332.5l166 883h166l-168 -902q-47 -258 -200.5 -407.5t-393.5 -149.5q-233 0 -327 114t-94 269z" />
<glyph unicode="V" d="M270 1434l183 20q47 -336 99 -705.5t52 -515.5q80 160 276.5 544t350.5 677l141 -49l-756 -1405h-131z" />
<glyph unicode="W" horiz-adv-x="1820" d="M283 1434l176 20q0 -180 18.5 -413.5t39 -463t20.5 -307.5l4 -4q29 84 120 288t196.5 430t211.5 450h145q31 -322 44.5 -476.5t30 -377t16.5 -314.5q51 127 145 332t211 458t186 398l144 -41l-662 -1413h-158l-104 1094l-516 -1094h-158z" />
<glyph unicode="X" horiz-adv-x="1241" d="M72 45q74 102 175 241.5t187 255t184 244.5q-59 127 -141 319.5t-135 319.5l207 29q53 -139 99 -266t89 -262q125 182 221.5 313t157.5 215l150 -49q-76 -100 -164 -216t-132 -171t-175 -211l342 -799l-207 -28q-49 129 -128 345t-122 347q-115 -182 -191.5 -297 t-269.5 -395z" />
<glyph unicode="Y" horiz-adv-x="1062" d="M272 1430l201 24q47 -168 93 -349t85 -347q72 111 141.5 215t173 254.5t156.5 226.5l144 -53l-564 -774l-116 -627h-178l116 627z" />
<glyph unicode="Z" horiz-adv-x="1214" d="M72 0l12 90l975 1210h-621l25 134h860l-10 -76l-975 -1225h758l-25 -133h-999z" />
<glyph unicode="[" horiz-adv-x="681" d="M86 -395l356 1900h398l-25 -116h-248l-311 -1668h248l-19 -116h-399z" />
<glyph unicode="\" horiz-adv-x="909" d="M272 1505h134l405 -1505h-135z" />
<glyph unicode="]" horiz-adv-x="681" d="M-12 -395l24 116h248l311 1668h-247l18 116h399l-356 -1900h-397z" />
<glyph unicode="^" horiz-adv-x="1251" d="M270 686l377 748h129l373 -748h-133l-307 606l-306 -606h-133z" />
<glyph unicode="_" horiz-adv-x="1024" d="M-18 -307l18 102h1042l-18 -102h-1042z" />
<glyph unicode="`" horiz-adv-x="720" d="M334 1458q12 72 76 72q20 0 45.5 -19.5t48.5 -44.5l205 -219l-58 -61l-250 184q-27 23 -53 47q-18 23 -14 41z" />
<glyph unicode="a" horiz-adv-x="1103" d="M133 352q0 283 168 490t404 207q66 0 130 -38t97 -102l24 115h168l-192 -1024h-166l37 193l-4 4q-49 -72 -155.5 -147t-223.5 -75q-121 0 -204 105.5t-83 271.5zM309 360q0 -117 45 -181t127 -64q143 0 279.5 169t136.5 429q1 10 1 21q0 62 -52 122q-60 70 -146 70 q-164 0 -277.5 -154t-113.5 -412z" />
<glyph unicode="b" horiz-adv-x="1120" d="M125 0l285 1505h161l-131 -702l4 -4q68 109 169.5 179.5t215.5 70.5q152 0 223.5 -112t71.5 -282q0 -233 -156.5 -456.5t-404.5 -223.5q-156 0 -258 107l-14 -82h-166zM334 213q41 -68 102.5 -91.5t151.5 -23.5q117 0 238.5 162t121.5 408q0 129 -52 185t-136 56 q-131 0 -258 -183t-168 -513z" />
<glyph unicode="c" horiz-adv-x="872" d="M133 422q0 209 158 418t467 209q137 0 223 -82l-74 -99q-20 16 -84.5 37t-109.5 21q-152 0 -278 -140.5t-126 -351.5q0 -123 52.5 -227.5t197.5 -104.5q59 0 112.5 19.5t119.5 58.5l57 -102q-172 -102 -328 -103q-215 0 -301 139.5t-86 307.5z" />
<glyph unicode="d" horiz-adv-x="1103" d="M133 352q0 283 168 490t404 207q66 0 130 -38t97 -102l115 596h165l-280 -1505h-166l37 193l-4 4q-49 -72 -155.5 -147t-223.5 -75q-121 0 -204 105.5t-83 271.5zM309 360q0 -117 45 -181t127 -64q143 0 279.5 169t136.5 429q1 10 1 21q0 62 -52 122q-60 70 -146 70 q-164 0 -277.5 -154t-113.5 -412z" />
<glyph unicode="e" horiz-adv-x="948" d="M135 356q0 248 180.5 470.5t438.5 222.5q98 0 169.5 -57.5t71.5 -176.5q0 -174 -205.5 -277.5t-478.5 -103.5q0 -150 39 -243t176 -93q72 0 138.5 22.5t134.5 59.5l57 -102q-94 -51 -198.5 -77t-202.5 -26q-160 0 -240 101.5t-80 279.5zM336 553q12 -2 31.5 -3t38.5 -1 q178 0 295.5 71.5t117.5 161.5q0 66 -32.5 105t-90.5 39q-106 0 -217.5 -112t-142.5 -261z" />
<glyph unicode="f" horiz-adv-x="569" d="M143 0l172 915h-147l20 109h148l22 125q35 197 129.5 276.5t206.5 79.5q35 0 72 -12t63 -31l-53 -94q-20 6 -36.5 10t-49.5 4q-61 0 -99 -44t-54 -130l-35 -184h221l-21 -109h-221l-172 -915h-166z" />
<glyph unicode="g" horiz-adv-x="1099" d="M0 -410l70 121q68 -49 146.5 -70.5t164.5 -21.5q145 0 246.5 102.5t138.5 301.5l33 170l-4 4q-49 -72 -156 -147t-223 -75q-121 0 -204 105.5t-83 271.5q0 283 168 490t403 207q66 0 130.5 -38t97.5 -102l22 115h168l-184 -987q-51 -276 -210 -412.5t-364 -136.5 q-111 0 -200.5 24.5t-159.5 77.5zM305 360q0 -117 45 -181t127 -64q143 0 279.5 169t136.5 429q1 10 1 21q0 63 -52 122q-60 70 -146 70q-164 0 -277.5 -154t-113.5 -412z" />
<glyph unicode="h" horiz-adv-x="1138" d="M125 0l283 1505h163l-145 -727l4 -4q86 119 192.5 197t270.5 78q90 0 155.5 -58.5t65.5 -150.5q0 -39 -4 -71t-23 -122l-129 -647h-165l129 625q8 31 14 75.5t6 85.5q0 127 -143 127q-127 0 -264.5 -158.5t-174.5 -361.5l-71 -393h-164z" />
<glyph unicode="i" horiz-adv-x="460" d="M125 0l192 1024h166l-192 -1024h-166zM352 1333q0 57 40 97t89 40q45 0 66.5 -28.5t21.5 -59.5q0 -49 -37.5 -97t-93.5 -48q-53 0 -69.5 29.5t-16.5 66.5z" />
<glyph unicode="j" horiz-adv-x="493" d="M-80 -512l19 90q68 12 95 60.5t51 115t42 164.5l207 1106h166l-205 -1098q-45 -238 -146.5 -338t-228.5 -100zM367 1333q0 55 38.5 96t90.5 41q45 0 66.5 -28.5t21.5 -59.5q0 -55 -37 -100t-94 -45q-53 0 -69.5 30.5t-16.5 65.5z" />
<glyph unicode="k" horiz-adv-x="948" d="M125 0l283 1505h165l-167 -895h28l447 434l100 -102l-401 -364l327 -525l-166 -78l-346 584l-104 -559h-166z" />
<glyph unicode="l" horiz-adv-x="460" d="M125 0l283 1505h165l-282 -1505h-166z" />
<glyph unicode="m" horiz-adv-x="1687" d="M125 0l192 1024h160l-51 -238l4 -4q63 106 174 186.5t236 80.5q117 0 159.5 -68t42.5 -195l5 -4q47 92 160.5 179.5t222.5 87.5q123 0 178 -53.5t55 -184.5q0 -88 -25 -221l-108 -590h-164l109 588q10 63 17 106t7 90q0 129 -113 129q-102 0 -232 -138t-177 -402 l-68 -373h-164l109 588q10 63 17.5 106t7.5 90q0 129 -113 129q-102 0 -232.5 -138t-177.5 -402l-67 -373h-164z" />
<glyph unicode="n" horiz-adv-x="1138" d="M125 0l192 1024h160l-51 -246l4 -4q86 119 192.5 197t270.5 78q90 0 155.5 -58.5t65.5 -150.5q0 -39 -4 -71t-23 -122l-129 -647h-165l129 625q8 31 14 75.5t6 85.5q0 127 -143 127q-127 0 -264.5 -158.5t-174.5 -361.5l-71 -393h-164z" />
<glyph unicode="o" horiz-adv-x="1062" d="M133 426q0 244 152.5 433.5t400.5 189.5q160 0 270.5 -123t110.5 -324q0 -250 -148.5 -438.5t-369.5 -188.5q-203 0 -309.5 138.5t-106.5 312.5zM309 426q0 -109 52.5 -218.5t191.5 -109.5q145 0 241.5 149.5t96.5 350.5q0 156 -57.5 242t-163.5 86q-164 0 -262.5 -151.5 t-98.5 -348.5z" />
<glyph unicode="p" horiz-adv-x="1099" d="M10 -512l287 1536h166l-43 -221l4 -4q68 109 169 179.5t216 70.5q152 0 223.5 -112t71.5 -282q0 -233 -156.5 -456.5t-404.5 -223.5q-156 0 -258 107l-109 -594h-166zM313 213q41 -68 102.5 -91.5t151.5 -23.5q117 0 239 162t122 408q0 129 -52.5 185t-136.5 56 q-131 0 -258 -183t-168 -513z" />
<glyph unicode="q" horiz-adv-x="1103" d="M133 352q0 283 168 490t404 207q66 0 130 -38t97 -102l24 115h168l-288 -1536h-168l135 705l-4 4q-49 -72 -155.5 -147t-223.5 -75q-121 0 -204 105.5t-83 271.5zM309 360q0 -117 45 -181t127 -64q143 0 279.5 169t136.5 429q1 10 1 21q0 63 -52 122q-60 70 -146 70 q-164 0 -277.5 -154t-113.5 -412z" />
<glyph unicode="r" horiz-adv-x="681" d="M125 0l192 1024h162l-37 -168l4 -4q88 109 142.5 153t134.5 44q37 0 65.5 -17.5t67.5 -52.5l-86 -115q-14 6 -52 13.5t-59 7.5q-92 0 -165.5 -104.5t-116.5 -327.5l-86 -453h-166z" />
<glyph unicode="s" horiz-adv-x="796" d="M78 70l72 118q53 -43 110 -66.5t115 -23.5q72 0 126 39t54 109q0 82 -53 147q-57 63 -130 145.5t-104.5 126.5t-31.5 130q0 98 85 176t238 78q80 0 139.5 -24t114.5 -62l-78 -103q-39 31 -91 52.5t-95 21.5q-51 0 -94 -34t-43 -85q0 -47 14 -70.5t129 -154.5 t145.5 -194.5t30.5 -129.5q0 -119 -100.5 -205t-268.5 -86q-80 0 -150.5 24t-133.5 71z" />
<glyph unicode="t" horiz-adv-x="681" d="M195 195q0 49 12 104l119 616h-129l22 109h129l45 246l178 61l-57 -307h242l-23 -109h-241l-121 -634q-4 -14 -6.5 -36t-2.5 -38q0 -109 89 -109q41 0 66.5 5.5t86.5 23.5l17 -102q-53 -23 -107.5 -36.5t-99.5 -13.5q-111 0 -165 56.5t-54 163.5z" />
<glyph unicode="u" horiz-adv-x="1099" d="M152 193q0 88 20 184l129 647h166l-129 -625q-18 -74 -19 -161q0 -127 144 -127q119 0 253 181t171 384l63 348h164l-192 -1024h-160l69 311l-4 4q-59 -158 -193 -249t-274 -91q-90 0 -149 61.5t-59 156.5z" />
<glyph unicode="v" horiz-adv-x="948" d="M168 1016l176 28q55 -315 89 -511.5t46 -278.5l475 790l133 -57l-641 -987h-65z" />
<glyph unicode="w" horiz-adv-x="1478" d="M158 1024l170 20q23 -215 48 -450.5t25 -343.5l5 -4q25 84 129 281.5t284 496.5h121q59 -336 87 -511t28 -271q82 180 161.5 335.5t256.5 466.5l139 -43l-557 -1001h-103q-18 100 -53 302t-53.5 330t-18.5 204l-4 4q-23 -80 -96.5 -224.5t-165.5 -307.5t-176 -308h-92z " />
<glyph unicode="x" horiz-adv-x="948" d="M33 68q121 141 234.5 270t203.5 227q-57 104 -103 198.5t-106 219.5l166 61q53 -123 89 -208.5t69 -176.5q59 76 145 181.5t168 203.5l119 -73q-96 -106 -193.5 -213t-201.5 -213l258 -504l-158 -61q-119 266 -146.5 329.5t-60.5 136.5q-74 -98 -158 -204.5t-208 -261.5z " />
<glyph unicode="y" horiz-adv-x="948" d="M86 -442l270 483l-186 975l176 28q23 -135 50.5 -298.5t43 -266t37.5 -266.5q45 80 133 234.5t193.5 336t152.5 260.5l134 -57q-152 -250 -308.5 -512t-297 -506.5t-263.5 -480.5z" />
<glyph unicode="z" horiz-adv-x="985" d="M80 0l10 78l731 827h-465l23 119h668l-19 -90l-694 -815h543l-23 -119h-774z" />
<glyph unicode="{" horiz-adv-x="681" d="M125 502l18 86q88 35 128 93t61 169l53 276q35 195 132 287t233 92l-21 -108q-68 -12 -122 -71.5t-72 -154.5l-54 -288q-25 -127 -67.5 -200t-145.5 -138q55 -47 78 -93t23 -112q0 -51 -17 -133l-53 -289q-6 -35 -6 -61q0 -68 31.5 -111t85.5 -53l-21 -109 q-111 0 -174 63.5t-63 194.5q0 53 12 121l53 277q12 61 12 106q0 57 -23.5 93t-80.5 63z" />
<glyph unicode="|" horiz-adv-x="530" d="M299 0v1505h135v-1505h-135z" />
<glyph unicode="}" horiz-adv-x="681" d="M27 -416l20 109q68 12 122 71.5t73 153.5l53 289q25 127 68 199.5t145 138.5q-55 47 -77.5 93t-22.5 112q0 51 16 133l53 288q6 35 6 62q0 68 -31.5 110.5t-84.5 53.5l20 108q111 0 174.5 -63.5t63.5 -194.5q0 -53 -13 -121l-53 -276q-12 -61 -12 -107q0 -57 23.5 -93 t80.5 -62l-18 -86q-88 -35 -128 -93.5t-61 -168.5l-53 -277q-35 -195 -132 -287t-232 -92z" />
<glyph unicode="~" horiz-adv-x="1251" d="M190 457q61 94 125 145t156 51q49 0 96 -14t118 -43t127 -48.5t89 -19.5q59 0 97 32t81 97l86 -71q-61 -92 -117.5 -139.5t-142.5 -47.5q-51 0 -94 14.5t-115 49.5q-76 33 -121 47t-108 14t-104 -36.5t-89 -106.5z" />
<glyph unicode="&#xa1;" horiz-adv-x="606" d="M94 -481l127 678l115 442h117l-52 -442l-127 -678h-180zM326 891q0 57 44 107.5t99 50.5q43 0 68.5 -34t25.5 -73q0 -61 -45 -108.5t-96 -47.5q-43 0 -69.5 33t-26.5 72z" />
<glyph unicode="&#xa2;" d="M248 406q0 43 4 70.5t24.5 139t176 272.5t391.5 161l53 135l117 -21l-51 -129q80 -14 131 -69l-76 -105q-47 31 -107 45l-307 -782q37 -12 84 -12q119 0 238 75l28 -102q-74 -53 -155.5 -81t-145.5 -28q-57 0 -104 11l-57 -150l-111 23l63 159q-88 43 -142 131.5 t-54 256.5zM426 424q0 -96 21.5 -152.5t56.5 -93.5l287 731q-141 -16 -253 -155.5t-112 -329.5z" />
<glyph unicode="&#xa3;" d="M90 0l25 127q72 31 132 84t80.5 111.5t56.5 177t67 207.5h-191l21 112h196l78 248q53 166 177 278.5t302 112.5q82 0 147.5 -33.5t104.5 -89.5l-98 -90q-49 39 -82 57.5t-84 18.5q-98 0 -171 -60.5t-114 -189.5l-80 -252h277l-21 -110h-284l-37 -136q-29 -109 -85 -232.5 t-122 -170.5q111 -14 220.5 -24.5t205.5 -10.5q66 0 95.5 13.5t107.5 58.5l61 -101q-57 -63 -151.5 -97t-167.5 -34q-53 0 -209 22.5t-256 22.5t-201 -20z" />
<glyph unicode="&#xa4;" d="M152 1139l90 92l120 -115q129 104 316 105q174 0 301 -105l115 115l92 -92l-109 -113q51 -63 77 -141t26 -170q0 -88 -26 -166t-77 -141l113 -113l-88 -94l-117 114q-59 -53 -142 -81.5t-167 -28.5q-188 0 -318 110l-116 -114l-88 92l112 115q-102 131 -102 303 q0 88 25.5 169t78.5 140zM305 711q0 -152 108.5 -258.5t262.5 -106.5q152 0 257 107.5t105 261.5q0 150 -105.5 257t-254.5 107q-156 0 -264.5 -106t-108.5 -262z" />
<glyph unicode="&#xa5;" d="M135 426l19 111h385l18 90l-20 61h-353l21 111h297l-191 614l207 41l180 -680l469 680l154 -24l-461 -631h301l-20 -111h-361l-45 -61l-16 -90h391l-18 -111h-394l-80 -426h-178l80 426h-385z" />
<glyph unicode="&#xa6;" horiz-adv-x="530" d="M299 0v602h135v-602h-135zM299 903v602h135v-602h-135z" />
<glyph unicode="&#xa7;" horiz-adv-x="1062" d="M16 -168l88 121q53 -51 118 -88t155 -37q94 0 155.5 44t61.5 120q0 66 -37 114t-157.5 139t-174 165.5t-53.5 146.5q0 141 102.5 224t245.5 106q-156 141 -155 268q0 133 120.5 218t294.5 85q100 0 174 -34.5t121 -92.5l-94 -86q-49 41 -108.5 64.5t-124.5 23.5 q-80 0 -139.5 -40t-59.5 -113q0 -57 79 -134t177 -172.5t144 -151.5t46 -140q0 -117 -111.5 -214.5t-242.5 -97.5q145 -117 145 -250q0 -145 -121.5 -234t-308.5 -89q-106 0 -203.5 42t-136.5 93zM362 588q0 -70 60.5 -141t134.5 -89q88 12 167 52.5t79 138.5 q0 55 -59.5 117.5t-135.5 124.5q-109 -14 -169 -57.5t-68.5 -86.5t-8.5 -59z" />
<glyph unicode="&#xa8;" horiz-adv-x="872" d="M393 1323q0 12 2 18q6 39 41 72t70 33t55.5 -24.5t20.5 -61.5q0 -12 -6.5 -38t-38 -55.5t-70.5 -29.5q-33 0 -53.5 24.5t-20.5 61.5zM764 1323q0 12 4 34.5t39 55.5t70 33q33 0 54 -23.5t21 -60.5q0 -13 -2 -21q-8 -43 -40.5 -73.5t-71.5 -30.5q-31 0 -52.5 25.5 t-21.5 60.5z" />
<glyph unicode="&#xa9;" horiz-adv-x="1593" d="M133 717q0 307 215 524t526 217q293 0 517.5 -220t224.5 -521q0 -303 -223.5 -522.5t-518.5 -219.5q-311 0 -526 217.5t-215 524.5zM240 717q0 -258 186 -446.5t448 -188.5q244 0 439.5 191.5t195.5 443.5q0 254 -194.5 444.5t-440.5 190.5q-262 0 -448 -188.5 t-186 -446.5zM465 700q0 203 145.5 336t345.5 133q80 0 142.5 -18t95.5 -45l-70 -94q-84 45 -188 45q-115 0 -213 -92.5t-98 -259.5q0 -123 64.5 -200t172.5 -77q96 0 201 55l57 -86q-55 -39 -137 -60.5t-147 -21.5q-164 0 -267.5 96.5t-103.5 288.5z" />
<glyph unicode="&#xaa;" horiz-adv-x="681" d="M127 588l18 100h613l-19 -100h-612zM197 1034q0 172 109.5 298t262.5 126q45 0 85 -21.5t65 -62.5l14 70h133l-125 -615h-133l15 97l-5 4q-51 -57 -113.5 -86t-119.5 -29q-80 0 -134 62.5t-54 156.5zM350 1065q0 -76 34 -105.5t83 -29.5q74 0 150.5 81t76.5 246 q0 33 -39 66t-86 33q-92 0 -155.5 -82t-63.5 -209z" />
<glyph unicode="&#xab;" horiz-adv-x="1024" d="M174 481l404 377l51 -57l-285 -312l195 -303l-70 -69zM508 481l403 377l52 -57l-285 -312l194 -303l-69 -69z" />
<glyph unicode="&#xac;" horiz-adv-x="1251" d="M182 649v135h1032v-555h-135v420h-897z" />
<glyph unicode="&#xad;" horiz-adv-x="681" d="M154 403l30 168h459l-31 -168h-458z" />
<glyph unicode="&#xae;" horiz-adv-x="1593" d="M133 717q0 307 215 524t526 217q293 0 517.5 -220t224.5 -521q0 -303 -223.5 -522.5t-518.5 -219.5q-311 0 -526 217.5t-215 524.5zM240 717q0 -258 186 -446.5t448 -188.5q244 0 439.5 191.5t195.5 443.5q0 254 -194.5 444.5t-440.5 190.5q-262 0 -448 -188.5 t-186 -446.5zM483 348l217 793l287 2q117 0 178.5 -56.5t61.5 -130.5q0 -96 -71 -157.5t-167 -91.5l164 -328l-145 -43l-150 340h-139l-90 -328h-146zM741 776h115q104 0 163.5 47t59.5 115q0 49 -32.5 83t-102.5 34h-127z" />
<glyph unicode="&#xb0;" horiz-adv-x="757" d="M227 1163q0 119 86 207t209 88q121 0 207 -86t86 -209q0 -121 -86 -207t-207 -86q-119 0 -207 86t-88 207zM326 1163q0 -80 59 -137t137 -57q76 0 135.5 59t59.5 135q0 78 -57.5 137.5t-137.5 59.5t-138 -58.5t-58 -138.5z" />
<glyph unicode="&#xb1;" horiz-adv-x="1251" d="M199 0v135h1032v-135h-1032zM199 659v136h448v450h135v-450h449v-136h-449v-450h-135v450h-448z" />
<glyph unicode="&#xb2;" horiz-adv-x="757" d="M113 584l16 78l195 169q199 174 263 250t64 148q0 43 -25.5 84t-84.5 41q-43 0 -91.5 -24.5t-97.5 -63.5l-49 69q72 57 136.5 90t142.5 33q115 0 178 -59.5t63 -136.5q0 -111 -65.5 -178.5t-210.5 -196.5l-211 -189h387l-21 -114h-589z" />
<glyph unicode="&#xb3;" horiz-adv-x="757" d="M203 614l55 88q23 -16 68 -27t92 -11q76 0 138 42t62 134q0 76 -70.5 115.5t-168.5 39.5l16 80q100 0 178 46t78 132q0 45 -28.5 78t-75.5 33q-41 0 -85 -14.5t-83 -36.5l-23 78q57 33 118 50t128 17q66 0 135.5 -47t69.5 -129q0 -90 -69.5 -148.5t-139.5 -78.5 q63 -14 121.5 -63.5t58.5 -143.5q0 -119 -105.5 -199t-264.5 -80q-66 0 -109 11.5t-96 33.5z" />
<glyph unicode="&#xb4;" horiz-adv-x="720" d="M412 1239l327 260q33 25 60.5 44.5t60.5 19.5q14 0 28.5 -22.5t10.5 -41.5q-6 -31 -39 -57.5t-55 -40.5l-346 -230z" />
<glyph unicode="&#xb5;" horiz-adv-x="1099" d="M37 -418l264 1442h166l-129 -625q-18 -74 -19 -161q0 -127 144 -127q119 0 253 181t171 384l63 348h164l-192 -1024h-160l69 311l-4 4l-75 -131q-96 -102 -176 -155.5t-170 -53.5q-45 0 -89.5 14.5t-70.5 51.5q-4 -152 -9.5 -217.5t-31.5 -202.5z" />
<glyph unicode="&#xb6;" horiz-adv-x="1099" d="M217 905q0 199 130 364t368 165h370l-333 -1780h-129l311 1663h-113l-311 -1663h-129l172 921q-186 0 -261 95.5t-75 234.5zM381 913q0 -115 47 -166t147 -51l117 621h-24q-102 0 -182 -96.5t-105 -307.5z" />
<glyph unicode="&#xb8;" horiz-adv-x="681" d="M90 -449l55 87q41 -2 68 -3q94 0 131 26t37 69q0 66 -172 65l127 225h96l-74 -137q66 0 116 -32.5t50 -96.5q0 -78 -77.5 -143.5t-247.5 -65.5q-49 0 -109 6z" />
<glyph unicode="&#xb9;" horiz-adv-x="757" d="M326 1366l245 92h111l-164 -874h-147l143 766l-176 -70z" />
<glyph unicode="&#xba;" horiz-adv-x="757" d="M172 588l18 100h613l-21 -100h-610zM219 1102q0 131 104.5 243.5t274.5 112.5q135 0 212 -72.5t77 -205.5q0 -109 -91 -237t-290 -128q-117 0 -202 59.5t-85 227.5zM379 1079q0 -90 42 -132t101 -42q90 0 147.5 80t57.5 203q0 66 -25.5 123t-109.5 57q-98 0 -155.5 -83 t-57.5 -206z" />
<glyph unicode="&#xbb;" horiz-adv-x="1024" d="M139 174l285 311l-195 303l70 70l295 -364l-404 -377zM473 174l285 311l-195 303l70 70l295 -364l-404 -377z" />
<glyph unicode="&#xbc;" horiz-adv-x="1705" d="M305 0l1102 1434h149l-1099 -1434h-152zM309 1366l246 92h111l-164 -874h-148l144 766l-179 -70zM940 233l12 70l535 557h102l-98 -526h100l-18 -101h-103l-43 -233h-143l43 233h-387zM1100 334h246l61 319l-4 4z" />
<glyph unicode="&#xbd;" horiz-adv-x="1705" d="M203 0l1102 1434h149l-1100 -1434h-151zM266 1366l246 92h111l-164 -874h-148l144 766l-176 -70zM942 0l16 78l195 170q199 174 263.5 249.5t64.5 147.5q0 43 -25.5 84t-85.5 41q-43 0 -91 -24.5t-97 -63.5l-49 70q72 57 136 89.5t142 32.5q115 0 178.5 -59t63.5 -137 q0 -111 -65.5 -178.5t-211.5 -196.5l-211 -188h387l-20 -115h-590z" />
<glyph unicode="&#xbe;" horiz-adv-x="1705" d="M203 614l55 88q23 -16 68 -27t92 -11q76 0 138 42t62 134q0 76 -70.5 115.5t-168.5 39.5l16 80q100 0 178 46t78 132q0 45 -28.5 78t-75.5 33q-41 0 -85 -14.5t-83 -36.5l-23 78q57 33 118 50t128 17q66 0 135.5 -47t69.5 -129q0 -90 -69.5 -148.5t-139.5 -78.5 q63 -14 121.5 -63.5t58.5 -143.5q0 -119 -105.5 -199t-264.5 -80q-66 0 -109 11.5t-96 33.5zM381 0l1102 1434h149l-1100 -1434h-151zM977 233l12 70l535 557h100l-98 -526h102l-20 -101h-101l-43 -233h-145l45 233h-387zM1135 334h247l60 319l-4 4z" />
<glyph unicode="&#xbf;" horiz-adv-x="948" d="M47 -209q0 37 13.5 111.5t109.5 189.5q80 88 147.5 166t124.5 145q70 92 109 207h139q-12 -90 -49 -166.5t-159 -219t-167 -211t-55 -119t-10 -74.5q0 -70 37 -114t116 -44q76 0 135.5 36t127.5 99l67 -92q-78 -86 -179 -136t-192 -50q-147 0 -231 71.5t-84 200.5z M549 891q0 57 44 107.5t99 50.5q43 0 68.5 -34t25.5 -73q0 -61 -45 -108.5t-96 -47.5q-43 0 -69.5 33t-26.5 72z" />
<glyph unicode="&#xc0;" d="M16 0l793 1434h127l207 -1434h-191l-53 424h-483l-217 -424h-183zM494 565h389q-35 254 -50.5 387t-15.5 256q-53 -109 -107.5 -217t-114.5 -228t-101 -198zM602 1868q12 72 76 72q20 0 45.5 -19.5t48.5 -44.5l205 -219l-58 -61l-250 184q-27 23 -53 47q-18 23 -14 41z " />
<glyph unicode="&#xc1;" d="M16 0l793 1434h127l207 -1434h-191l-53 424h-483l-217 -424h-183zM494 565h389q-35 254 -50.5 387t-15.5 256q-53 -109 -107.5 -217t-114.5 -228t-101 -198zM639 1649l327 260q33 25 60.5 44.5t60.5 19.5q14 0 28.5 -22.5t10.5 -41.5q-6 -31 -39 -57.5t-55 -40.5 l-346 -230z" />
<glyph unicode="&#xc2;" d="M16 0l793 1434h127l207 -1434h-191l-53 424h-483l-217 -424h-183zM494 565h389q-35 254 -50.5 387t-15.5 256q-53 -109 -107.5 -217t-114.5 -228t-101 -198zM555 1581l289 312h119l172 -312h-109l-145 199l-219 -199h-107z" />
<glyph unicode="&#xc3;" d="M16 0l793 1434h127l207 -1434h-191l-53 424h-483l-217 -424h-183zM467 1635q49 86 117 139t135 53q29 0 48.5 -7t73.5 -40t84 -49t52 -16q37 0 69 30.5t68 85.5l74 -57q-66 -86 -119 -131t-110 -45q-35 0 -57.5 11t-64.5 42t-66.5 45t-75.5 14t-81 -35.5t-69 -93.5z M494 565h389q-35 254 -50.5 387t-15.5 256q-53 -109 -107.5 -217t-114.5 -228t-101 -198z" />
<glyph unicode="&#xc4;" d="M16 0l793 1434h127l207 -1434h-191l-53 424h-483l-217 -424h-183zM494 565h389q-35 254 -50.5 387t-15.5 256q-53 -109 -107.5 -217t-114.5 -228t-101 -198zM575 1733q0 12 2 18q6 39 41 72t70 33t55.5 -24.5t20.5 -61.5q0 -12 -6.5 -38t-38 -55.5t-70.5 -29.5 q-33 0 -53.5 24.5t-20.5 61.5zM946 1733q0 12 4 34.5t39 55.5t70 33q33 0 54 -23.5t21 -60.5q0 -13 -2 -21q-8 -43 -40.5 -73.5t-71.5 -30.5q-31 0 -52.5 25.5t-21.5 60.5z" />
<glyph unicode="&#xc5;" d="M16 0l793 1434h127l207 -1434h-191l-53 424h-483l-217 -424h-183zM494 565h389q-35 254 -50.5 387t-15.5 256q-53 -109 -107.5 -217t-114.5 -228t-101 -198zM684 1764q0 82 59.5 143.5t145.5 61.5q84 0 143.5 -59.5t59.5 -145.5q0 -84 -59.5 -143.5t-143.5 -59.5 q-82 0 -143.5 59.5t-61.5 143.5zM764 1764q0 -49 39 -86t86 -37q49 0 86 37t37 86t-36 87t-87 38q-49 0 -87 -38t-38 -87z" />
<glyph unicode="&#xc6;" horiz-adv-x="1630" d="M20 0l1006 1434h670l-25 -134h-457l-88 -477h447l-25 -133h-448l-105 -557h537l-25 -133h-714l79 432h-374l-295 -432h-183zM594 565h303q66 356 74 397.5t57 266.5l-4 4q-61 -104 -152.5 -247.5t-149.5 -230.5t-128 -190z" />
<glyph unicode="&#xc7;" horiz-adv-x="1251" d="M199 639q0 375 257 597t582 222q113 0 205 -34.5t137 -75.5l-90 -103q-88 39 -136 54.5t-142 15.5q-260 0 -436.5 -190.5t-176.5 -477.5q0 -248 132.5 -388t330.5 -140q78 0 158 16.5t151 44.5l54 -119q-84 -39 -186.5 -62.5t-196.5 -23.5q-262 0 -452.5 169t-190.5 495z M375 -449l55 87q41 -2 68 -3q94 0 131 26t37 69q0 66 -172 65l127 225h96l-74 -137q66 0 116 -32.5t50 -96.5q0 -78 -77.5 -143.5t-247.5 -65.5q-49 0 -109 6z" />
<glyph unicode="&#xc8;" horiz-adv-x="948" d="M154 0l268 1434h635l-25 -134h-457l-88 -477h447l-25 -133h-448l-105 -557h537l-25 -133h-714zM490 1868q12 72 76 72q20 0 45.5 -19.5t48.5 -44.5l205 -219l-58 -61l-250 184q-27 23 -53 47q-18 23 -14 41z" />
<glyph unicode="&#xc9;" horiz-adv-x="948" d="M154 0l268 1434h635l-25 -134h-457l-88 -477h447l-25 -133h-448l-105 -557h537l-25 -133h-714zM527 1649l327 260q33 25 60.5 44.5t60.5 19.5q14 0 28.5 -22.5t10.5 -41.5q-6 -31 -39 -57.5t-55 -40.5l-346 -230z" />
<glyph unicode="&#xca;" horiz-adv-x="948" d="M154 0l268 1434h635l-25 -134h-457l-88 -477h447l-25 -133h-448l-105 -557h537l-25 -133h-714zM421 1581l289 312h119l172 -312h-109l-145 199l-219 -199h-107z" />
<glyph unicode="&#xcb;" horiz-adv-x="948" d="M154 0l268 1434h635l-25 -134h-457l-88 -477h447l-25 -133h-448l-105 -557h537l-25 -133h-714zM463 1733q0 12 2 18q6 39 41 72t70 33t55.5 -24.5t20.5 -61.5q0 -12 -6.5 -38t-38 -55.5t-70.5 -29.5q-33 0 -53.5 24.5t-20.5 61.5zM834 1733q0 12 4 34.5t39 55.5t70 33 q33 0 54 -23.5t21 -60.5q0 -13 -2 -21q-8 -43 -40.5 -73.5t-71.5 -30.5q-31 0 -52.5 25.5t-21.5 60.5z" />
<glyph unicode="&#xcc;" horiz-adv-x="557" d="M154 0l268 1434h178l-268 -1434h-178zM252 1868q12 72 76 72q20 0 45.5 -19.5t48.5 -44.5l205 -219l-58 -61l-250 184q-27 23 -53 47q-18 23 -14 41z" />
<glyph unicode="&#xcd;" horiz-adv-x="557" d="M154 0l268 1434h178l-268 -1434h-178zM330 1649l327 260q33 25 60.5 44.5t60.5 19.5q14 0 28.5 -22.5t10.5 -41.5q-6 -31 -39 -57.5t-55 -40.5l-346 -230z" />
<glyph unicode="&#xce;" horiz-adv-x="557" d="M154 0l268 1434h178l-268 -1434h-178zM245 1581l289 312h119l172 -312h-109l-145 199l-219 -199h-107z" />
<glyph unicode="&#xcf;" horiz-adv-x="557" d="M154 0l268 1434h178l-268 -1434h-178zM266 1733q0 12 2 18q6 39 41 72t70 33t55.5 -24.5t20.5 -61.5q0 -12 -6.5 -38t-38 -55.5t-70.5 -29.5q-33 0 -53.5 24.5t-20.5 61.5zM637 1733q0 12 4 34.5t39 55.5t70 33q33 0 54 -23.5t21 -60.5q0 -13 -2 -21q-8 -43 -40.5 -73.5 t-71.5 -30.5q-31 0 -52.5 25.5t-21.5 60.5z" />
<glyph unicode="&#xd0;" horiz-adv-x="1402" d="M59 705l25 114h213l115 615h401q336 0 469 -168t133 -414q0 -319 -221 -585.5t-668 -266.5h-383l131 705h-215zM346 133h201q311 0 491.5 217t180.5 506q0 225 -114 334.5t-314 109.5h-226l-90 -481h248l-21 -114h-249z" />
<glyph unicode="&#xd1;" horiz-adv-x="1519" d="M139 0l269 1434h114q90 -152 282.5 -485t275.5 -480t110 -203q8 61 55 332.5t80 443.5t76 392h158l-269 -1434h-129q-127 209 -257 425t-255 433t-151 285q-41 -268 -63.5 -401.5t-62.5 -346.5t-75 -395h-158zM639 1635q49 86 117 139t135 53q29 0 48.5 -7t73.5 -40 t84 -49t52 -16q37 0 69 30.5t68 85.5l74 -57q-66 -86 -119 -131t-110 -45q-35 0 -57.5 11t-64.5 42t-66.5 45t-75.5 14t-81 -35.5t-69 -93.5z" />
<glyph unicode="&#xd2;" horiz-adv-x="1517" d="M199 598q0 313 208.5 586.5t577.5 273.5q242 0 389.5 -172t147.5 -414q0 -342 -197 -619.5t-549 -277.5q-309 0 -443 197t-134 426zM395 664q0 -260 103.5 -402.5t294.5 -142.5q274 0 403 230t129 515q0 211 -102.5 331t-261.5 120q-297 0 -431.5 -221.5t-134.5 -429.5z M733 1868q12 72 76 72q20 0 45.5 -19.5t48.5 -44.5l205 -219l-58 -61l-250 184q-27 23 -53 47q-18 23 -14 41z" />
<glyph unicode="&#xd3;" horiz-adv-x="1517" d="M199 598q0 313 208.5 586.5t577.5 273.5q242 0 389.5 -172t147.5 -414q0 -342 -197 -619.5t-549 -277.5q-309 0 -443 197t-134 426zM395 664q0 -260 103.5 -402.5t294.5 -142.5q274 0 403 230t129 515q0 211 -102.5 331t-261.5 120q-297 0 -431.5 -221.5t-134.5 -429.5z M811 1649l327 260q33 25 60.5 44.5t60.5 19.5q14 0 28.5 -22.5t10.5 -41.5q-6 -31 -39 -57.5t-55 -40.5l-346 -230z" />
<glyph unicode="&#xd4;" horiz-adv-x="1517" d="M199 598q0 313 208.5 586.5t577.5 273.5q242 0 389.5 -172t147.5 -414q0 -342 -197 -619.5t-549 -277.5q-309 0 -443 197t-134 426zM395 664q0 -260 103.5 -402.5t294.5 -142.5q274 0 403 230t129 515q0 211 -102.5 331t-261.5 120q-297 0 -431.5 -221.5t-134.5 -429.5z M696 1581l289 312h119l172 -312h-109l-145 199l-219 -199h-107z" />
<glyph unicode="&#xd5;" horiz-adv-x="1517" d="M199 598q0 313 208.5 586.5t577.5 273.5q242 0 389.5 -172t147.5 -414q0 -342 -197 -619.5t-549 -277.5q-309 0 -443 197t-134 426zM395 664q0 -260 103.5 -402.5t294.5 -142.5q274 0 403 230t129 515q0 211 -102.5 331t-261.5 120q-297 0 -431.5 -221.5t-134.5 -429.5z M637 1635q49 86 117 139t135 53q29 0 48.5 -7t73.5 -40t84 -49t52 -16q37 0 69 30.5t68 85.5l74 -57q-66 -86 -119 -131t-110 -45q-35 0 -57.5 11t-64.5 42t-66.5 45t-75.5 14t-81 -35.5t-69 -93.5z" />
<glyph unicode="&#xd6;" horiz-adv-x="1517" d="M199 598q0 313 208.5 586.5t577.5 273.5q242 0 389.5 -172t147.5 -414q0 -342 -197 -619.5t-549 -277.5q-309 0 -443 197t-134 426zM395 664q0 -260 103.5 -402.5t294.5 -142.5q274 0 403 230t129 515q0 211 -102.5 331t-261.5 120q-297 0 -431.5 -221.5t-134.5 -429.5z M717 1733q0 12 2 18q6 39 41 72t70 33t55.5 -24.5t20.5 -61.5q0 -12 -6.5 -38t-38 -55.5t-70.5 -29.5q-33 0 -53.5 24.5t-20.5 61.5zM1088 1733q0 12 4 34.5t39 55.5t70 33q33 0 54 -23.5t21 -60.5q0 -13 -2 -21q-8 -43 -40.5 -73.5t-71.5 -30.5q-31 0 -52.5 25.5 t-21.5 60.5z" />
<glyph unicode="&#xd7;" horiz-adv-x="1251" d="M266 176l344 348l-344 348l94 95l345 -349l352 349l94 -95l-348 -348l348 -348l-94 -94l-352 346l-345 -346z" />
<glyph unicode="&#xd8;" horiz-adv-x="1517" d="M59 -16l240 245q-51 82 -75.5 182.5t-24.5 186.5q0 313 208.5 586.5t577.5 273.5q115 0 205 -38t162 -111l194 198l78 -69l-205 -211q102 -150 103 -355q0 -342 -197 -619.5t-549 -277.5q-137 0 -240.5 45.5t-173.5 120.5l-225 -231zM395 664q0 -92 10.5 -160t36.5 -129 l789 809q-100 131 -270 131q-297 0 -431.5 -221.5t-134.5 -429.5zM492 274q104 -156 301 -155q274 0 403 230.5t129 514.5q0 131 -41 223z" />
<glyph unicode="&#xd9;" horiz-adv-x="1366" d="M236 358q0 29 2 43l20 156l164 877h178l-162 -869q-4 -23 -12 -83t-8 -93q0 -154 77.5 -217t186.5 -63q168 0 265 109.5t140 332.5l166 883h166l-168 -902q-47 -258 -200.5 -407.5t-393.5 -149.5q-233 0 -327 114t-94 269zM658 1868q12 72 76 72q20 0 45.5 -19.5 t48.5 -44.5l205 -219l-58 -61l-250 184q-27 23 -53 47q-18 23 -14 41z" />
<glyph unicode="&#xda;" horiz-adv-x="1366" d="M236 358q0 29 2 43l20 156l164 877h178l-162 -869q-4 -23 -12 -83t-8 -93q0 -154 77.5 -217t186.5 -63q168 0 265 109.5t140 332.5l166 883h166l-168 -902q-47 -258 -200.5 -407.5t-393.5 -149.5q-233 0 -327 114t-94 269zM736 1649l327 260q33 25 60.5 44.5t60.5 19.5 q14 0 28.5 -22.5t10.5 -41.5q-6 -31 -39 -57.5t-55 -40.5l-346 -230z" />
<glyph unicode="&#xdb;" horiz-adv-x="1366" d="M236 358q0 29 2 43l20 156l164 877h178l-162 -869q-4 -23 -12 -83t-8 -93q0 -154 77.5 -217t186.5 -63q168 0 265 109.5t140 332.5l166 883h166l-168 -902q-47 -258 -200.5 -407.5t-393.5 -149.5q-233 0 -327 114t-94 269zM630 1581l289 312h119l172 -312h-109l-145 199 l-219 -199h-107z" />
<glyph unicode="&#xdc;" horiz-adv-x="1366" d="M236 358q0 29 2 43l20 156l164 877h178l-162 -869q-4 -23 -12 -83t-8 -93q0 -154 77.5 -217t186.5 -63q168 0 265 109.5t140 332.5l166 883h166l-168 -902q-47 -258 -200.5 -407.5t-393.5 -149.5q-233 0 -327 114t-94 269zM672 1733q0 12 2 18q6 39 41 72t70 33 t55.5 -24.5t20.5 -61.5q0 -12 -6.5 -38t-38 -55.5t-70.5 -29.5q-33 0 -53.5 24.5t-20.5 61.5zM1043 1733q0 12 4 34.5t39 55.5t70 33q33 0 54 -23.5t21 -60.5q0 -13 -2 -21q-8 -43 -40.5 -73.5t-71.5 -30.5q-31 0 -52.5 25.5t-21.5 60.5z" />
<glyph unicode="&#xdd;" horiz-adv-x="1062" d="M272 1430l201 24q47 -168 93 -349t85 -347q72 111 141.5 215t173 254.5t156.5 226.5l144 -53l-564 -774l-116 -627h-178l116 627zM615 1649l327 260q33 25 60.5 44.5t60.5 19.5q14 0 28.5 -22.5t10.5 -41.5q-6 -31 -39 -57.5t-55 -40.5l-346 -230z" />
<glyph unicode="&#xde;" horiz-adv-x="1062" d="M172 0l268 1434h178l-51 -273h105q188 0 312 -98t124 -285q0 -213 -168 -353t-428 -140h-109l-53 -285h-178zM428 418h104q197 0 292.5 106.5t95.5 245.5q0 117 -75 187.5t-186 70.5h-116z" />
<glyph unicode="&#xdf;" horiz-adv-x="1099" d="M115 0l204 1098q43 223 158 315t277 92q119 0 197.5 -72.5t78.5 -166.5q0 -55 -19.5 -115.5t-82 -163t-80 -145.5t-17.5 -76t25 -73t92.5 -107.5t102 -143t34.5 -139.5q0 -145 -110.5 -236.5t-272.5 -91.5q-90 0 -135 26t-129 89l82 98q49 -43 100.5 -67.5t100.5 -24.5 q74 0 131 48.5t57 142.5q0 57 -29.5 101t-93 104.5t-91 117t-27.5 99.5q0 70 24.5 130t74.5 143t70.5 128t20.5 107q0 66 -44 109.5t-93 43.5q-78 0 -141.5 -55t-94.5 -219l-204 -1096h-166z" />
<glyph unicode="&#xe0;" horiz-adv-x="1103" d="M133 352q0 283 168 490t404 207q66 0 130 -38t97 -102l24 115h168l-192 -1024h-166l37 193l-4 4q-49 -72 -155.5 -147t-223.5 -75q-121 0 -204 105.5t-83 271.5zM309 360q0 -117 45 -181t127 -64q143 0 279.5 169t136.5 429q10 74 -50.5 143.5t-146.5 69.5 q-164 0 -277.5 -154t-113.5 -412zM527 1458q12 72 76 72q20 0 45.5 -19.5t48.5 -44.5l205 -219l-58 -61l-250 184q-27 23 -53 47q-18 23 -14 41z" />
<glyph unicode="&#xe1;" horiz-adv-x="1103" d="M133 352q0 283 168 490t404 207q66 0 130 -38t97 -102l24 115h168l-192 -1024h-166l37 193l-4 4q-49 -72 -155.5 -147t-223.5 -75q-121 0 -204 105.5t-83 271.5zM309 360q0 -117 45 -181t127 -64q143 0 279.5 169t136.5 429q10 74 -50.5 143.5t-146.5 69.5 q-164 0 -277.5 -154t-113.5 -412zM605 1239l327 260q33 25 60.5 44.5t60.5 19.5q14 0 28.5 -22.5t10.5 -41.5q-6 -31 -39 -57.5t-55 -40.5l-346 -230z" />
<glyph unicode="&#xe2;" horiz-adv-x="1103" d="M133 352q0 283 168 490t404 207q66 0 130 -38t97 -102l24 115h168l-192 -1024h-166l37 193l-4 4q-49 -72 -155.5 -147t-223.5 -75q-121 0 -204 105.5t-83 271.5zM309 360q0 -117 45 -181t127 -64q143 0 279.5 169t136.5 429q10 74 -50.5 143.5t-146.5 69.5 q-164 0 -277.5 -154t-113.5 -412zM458 1171l289 312h119l172 -312h-109l-145 199l-219 -199h-107z" />
<glyph unicode="&#xe3;" horiz-adv-x="1103" d="M133 352q0 283 168 490t404 207q66 0 130 -38t97 -102l24 115h168l-192 -1024h-166l37 193l-4 4q-49 -72 -155.5 -147t-223.5 -75q-121 0 -204 105.5t-83 271.5zM309 360q0 -117 45 -181t127 -64q143 0 279.5 169t136.5 429q10 74 -50.5 143.5t-146.5 69.5 q-164 0 -277.5 -154t-113.5 -412zM430 1225q49 86 117 139t135 53q29 0 48.5 -7t73.5 -40t84 -49t52 -16q37 0 69 30.5t68 85.5l74 -57q-66 -86 -119 -131t-110 -45q-35 0 -57.5 11t-64.5 42t-66.5 45t-75.5 14t-81 -35.5t-69 -93.5z" />
<glyph unicode="&#xe4;" horiz-adv-x="1103" d="M133 352q0 283 168 490t404 207q66 0 130 -38t97 -102l24 115h168l-192 -1024h-166l37 193l-4 4q-49 -72 -155.5 -147t-223.5 -75q-121 0 -204 105.5t-83 271.5zM309 360q0 -117 45 -181t127 -64q143 0 279.5 169t136.5 429q10 74 -50.5 143.5t-146.5 69.5 q-164 0 -277.5 -154t-113.5 -412zM510 1323q0 12 2 18q6 39 41 72t70 33t55.5 -24.5t20.5 -61.5q0 -12 -6.5 -38t-38 -55.5t-70.5 -29.5q-33 0 -53.5 24.5t-20.5 61.5zM881 1323q0 12 4 34.5t39 55.5t70 33q33 0 54 -23.5t21 -60.5q0 -13 -2 -21q-8 -43 -40.5 -73.5 t-71.5 -30.5q-31 0 -52.5 25.5t-21.5 60.5z" />
<glyph unicode="&#xe5;" horiz-adv-x="1103" d="M133 352q0 283 168 490t404 207q66 0 130 -38t97 -102l24 115h168l-192 -1024h-166l37 193l-4 4q-49 -72 -155.5 -147t-223.5 -75q-121 0 -204 105.5t-83 271.5zM309 360q0 -117 45 -181t127 -64q143 0 279.5 169t136.5 429q10 74 -50.5 143.5t-146.5 69.5 q-164 0 -277.5 -154t-113.5 -412zM606 1354q0 82 59.5 143.5t145.5 61.5q84 0 143.5 -59.5t59.5 -145.5q0 -84 -59.5 -143.5t-143.5 -59.5q-82 0 -143.5 59.5t-61.5 143.5zM686 1354q0 -49 39 -86t86 -37q49 0 86 37t37 86t-36 87t-87 38q-49 0 -87 -38t-38 -87z" />
<glyph unicode="&#xe6;" horiz-adv-x="1630" d="M119 340q0 291 168 500t403 209q66 0 130.5 -38t97.5 -102l24 115h168l-20 -98l4 -4q59 55 151 91t195 36q98 0 169.5 -57.5t71.5 -176.5q0 -176 -199.5 -274.5t-484.5 -98.5q0 -158 38 -251t177 -93q72 0 138.5 22.5t134.5 59.5l57 -102q-94 -51 -198.5 -77t-202.5 -26 q-127 0 -208 67t-104 196q-90 -106 -198.5 -184.5t-224.5 -78.5q-121 0 -204 103.5t-83 261.5zM295 360q0 -117 45 -181t127 -64q143 0 279.5 169t136.5 429q10 74 -50.5 143.5t-146.5 69.5q-164 0 -277.5 -154t-113.5 -412zM1022 553q12 -2 31.5 -3t38.5 -1 q178 0 295.5 71.5t117.5 161.5q0 66 -32.5 105t-90.5 39q-106 0 -217.5 -112t-142.5 -261z" />
<glyph unicode="&#xe7;" horiz-adv-x="872" d="M133 422q0 209 158 418t467 209q137 0 223 -82l-74 -99q-20 16 -84.5 37t-109.5 21q-152 0 -278 -140.5t-126 -351.5q0 -123 52.5 -227.5t197.5 -104.5q59 0 112.5 19.5t119.5 58.5l57 -102q-172 -102 -328 -103q-215 0 -301 139.5t-86 307.5zM186 -449l55 87 q41 -2 68 -3q94 0 131 26t37 69q0 66 -172 65l127 225h96l-74 -137q66 0 116 -32.5t50 -96.5q0 -78 -77.5 -143.5t-247.5 -65.5q-49 0 -109 6z" />
<glyph unicode="&#xe8;" horiz-adv-x="948" d="M135 356q0 248 180.5 470.5t438.5 222.5q98 0 169.5 -57.5t71.5 -176.5q0 -174 -205.5 -277.5t-478.5 -103.5q0 -150 39 -243t176 -93q72 0 138.5 22.5t134.5 59.5l57 -102q-94 -51 -198.5 -77t-202.5 -26q-160 0 -240 101.5t-80 279.5zM336 553q12 -2 31.5 -3t38.5 -1 q178 0 295.5 71.5t117.5 161.5q0 66 -32.5 105t-90.5 39q-106 0 -217.5 -112t-142.5 -261zM449 1458q12 72 76 72q20 0 45.5 -19.5t48.5 -44.5l205 -219l-58 -61l-250 184q-27 23 -53 47q-18 23 -14 41z" />
<glyph unicode="&#xe9;" horiz-adv-x="948" d="M135 356q0 248 180.5 470.5t438.5 222.5q98 0 169.5 -57.5t71.5 -176.5q0 -174 -205.5 -277.5t-478.5 -103.5q0 -150 39 -243t176 -93q72 0 138.5 22.5t134.5 59.5l57 -102q-94 -51 -198.5 -77t-202.5 -26q-160 0 -240 101.5t-80 279.5zM336 553q12 -2 31.5 -3t38.5 -1 q178 0 295.5 71.5t117.5 161.5q0 66 -32.5 105t-90.5 39q-106 0 -217.5 -112t-142.5 -261zM527 1239l327 260q33 25 60.5 44.5t60.5 19.5q14 0 28.5 -22.5t10.5 -41.5q-6 -31 -39 -57.5t-55 -40.5l-346 -230z" />
<glyph unicode="&#xea;" horiz-adv-x="948" d="M135 356q0 248 180.5 470.5t438.5 222.5q98 0 169.5 -57.5t71.5 -176.5q0 -174 -205.5 -277.5t-478.5 -103.5q0 -150 39 -243t176 -93q72 0 138.5 22.5t134.5 59.5l57 -102q-94 -51 -198.5 -77t-202.5 -26q-160 0 -240 101.5t-80 279.5zM336 553q12 -2 31.5 -3t38.5 -1 q178 0 295.5 71.5t117.5 161.5q0 66 -32.5 105t-90.5 39q-106 0 -217.5 -112t-142.5 -261zM380 1171l289 312h119l172 -312h-109l-145 199l-219 -199h-107z" />
<glyph unicode="&#xeb;" horiz-adv-x="948" d="M135 356q0 248 180.5 470.5t438.5 222.5q98 0 169.5 -57.5t71.5 -176.5q0 -174 -205.5 -277.5t-478.5 -103.5q0 -150 39 -243t176 -93q72 0 138.5 22.5t134.5 59.5l57 -102q-94 -51 -198.5 -77t-202.5 -26q-160 0 -240 101.5t-80 279.5zM336 553q12 -2 31.5 -3t38.5 -1 q178 0 295.5 71.5t117.5 161.5q0 66 -32.5 105t-90.5 39q-106 0 -217.5 -112t-142.5 -261zM432 1323q0 12 2 18q6 39 41 72t70 33t55.5 -24.5t20.5 -61.5q0 -12 -6.5 -38t-38 -55.5t-70.5 -29.5q-33 0 -53.5 24.5t-20.5 61.5zM803 1323q0 12 4 34.5t39 55.5t70 33 q33 0 54 -23.5t21 -60.5q0 -13 -2 -21q-8 -43 -40.5 -73.5t-71.5 -30.5q-31 0 -52.5 25.5t-21.5 60.5z" />
<glyph unicode="&#xec;" horiz-adv-x="460" d="M125 0l190 1024h166l-190 -1024h-166zM205 1458q12 72 76 72q20 0 45.5 -19.5t48.5 -44.5l205 -219l-58 -61l-250 184q-27 23 -53 47q-18 23 -14 41z" />
<glyph unicode="&#xed;" horiz-adv-x="460" d="M125 0l190 1024h166l-190 -1024h-166zM283 1239l327 260q33 25 60.5 44.5t60.5 19.5q14 0 28.5 -22.5t10.5 -41.5q-6 -31 -39 -57.5t-55 -40.5l-346 -230z" />
<glyph unicode="&#xee;" horiz-adv-x="460" d="M116 1171l289 312h119l172 -312h-109l-145 199l-219 -199h-107zM125 0l190 1024h166l-190 -1024h-166z" />
<glyph unicode="&#xef;" horiz-adv-x="460" d="M125 0l190 1024h166l-190 -1024h-166zM188 1323q0 12 2 18q6 39 41 72t70 33t55.5 -24.5t20.5 -61.5q0 -12 -6.5 -38t-38 -55.5t-70.5 -29.5q-33 0 -53.5 24.5t-20.5 61.5zM559 1323q0 12 4 34.5t39 55.5t70 33q33 0 54 -23.5t21 -60.5q0 -13 -2 -21q-8 -43 -40.5 -73.5 t-71.5 -30.5q-31 0 -52.5 25.5t-21.5 60.5z" />
<glyph unicode="&#xf1;" horiz-adv-x="1138" d="M125 0l192 1024h160l-51 -246l4 -4q86 119 192.5 197t270.5 78q90 0 155.5 -58.5t65.5 -150.5q0 -39 -4 -71t-23 -122l-129 -647h-165l129 625q8 31 14 75.5t6 85.5q0 127 -143 127q-127 0 -264.5 -158.5t-174.5 -361.5l-71 -393h-164zM448 1225q49 86 117 139t135 53 q29 0 48.5 -7t73.5 -40t84 -49t52 -16q37 0 69 30.5t68 85.5l74 -57q-66 -86 -119 -131t-110 -45q-35 0 -57.5 11t-64.5 42t-66.5 45t-75.5 14t-81 -35.5t-69 -93.5z" />
<glyph unicode="&#xf2;" horiz-adv-x="1062" d="M133 426q0 244 152.5 433.5t400.5 189.5q160 0 270.5 -123t110.5 -324q0 -250 -148.5 -438.5t-369.5 -188.5q-203 0 -309.5 138.5t-106.5 312.5zM309 426q0 -109 52.5 -218.5t191.5 -109.5q145 0 241.5 149.5t96.5 350.5q0 156 -57.5 242t-163.5 86q-164 0 -262.5 -151.5 t-98.5 -348.5zM506 1458q12 72 76 72q20 0 45.5 -19.5t48.5 -44.5l205 -219l-58 -61l-250 184q-27 23 -53 47q-18 23 -14 41z" />
<glyph unicode="&#xf3;" horiz-adv-x="1062" d="M133 426q0 244 152.5 433.5t400.5 189.5q160 0 270.5 -123t110.5 -324q0 -250 -148.5 -438.5t-369.5 -188.5q-203 0 -309.5 138.5t-106.5 312.5zM309 426q0 -109 52.5 -218.5t191.5 -109.5q145 0 241.5 149.5t96.5 350.5q0 156 -57.5 242t-163.5 86q-164 0 -262.5 -151.5 t-98.5 -348.5zM584 1239l327 260q33 25 60.5 44.5t60.5 19.5q14 0 28.5 -22.5t10.5 -41.5q-6 -31 -39 -57.5t-55 -40.5l-346 -230z" />
<glyph unicode="&#xf4;" horiz-adv-x="1062" d="M133 426q0 244 152.5 433.5t400.5 189.5q160 0 270.5 -123t110.5 -324q0 -250 -148.5 -438.5t-369.5 -188.5q-203 0 -309.5 138.5t-106.5 312.5zM309 426q0 -109 52.5 -218.5t191.5 -109.5q145 0 241.5 149.5t96.5 350.5q0 156 -57.5 242t-163.5 86q-164 0 -262.5 -151.5 t-98.5 -348.5zM417 1171l289 312h119l172 -312h-109l-145 199l-219 -199h-107z" />
<glyph unicode="&#xf5;" horiz-adv-x="1062" d="M133 426q0 244 152.5 433.5t400.5 189.5q160 0 270.5 -123t110.5 -324q0 -250 -148.5 -438.5t-369.5 -188.5q-203 0 -309.5 138.5t-106.5 312.5zM309 426q0 -109 52.5 -218.5t191.5 -109.5q145 0 241.5 149.5t96.5 350.5q0 156 -57.5 242t-163.5 86q-164 0 -262.5 -151.5 t-98.5 -348.5zM368 1225q49 86 117 139t135 53q29 0 48.5 -7t73.5 -40t84 -49t52 -16q37 0 69 30.5t68 85.5l74 -57q-66 -86 -119 -131t-110 -45q-35 0 -57.5 11t-64.5 42t-66.5 45t-75.5 14t-81 -35.5t-69 -93.5z" />
<glyph unicode="&#xf6;" horiz-adv-x="1062" d="M133 426q0 244 152.5 433.5t400.5 189.5q160 0 270.5 -123t110.5 -324q0 -250 -148.5 -438.5t-369.5 -188.5q-203 0 -309.5 138.5t-106.5 312.5zM309 426q0 -109 52.5 -218.5t191.5 -109.5q145 0 241.5 149.5t96.5 350.5q0 156 -57.5 242t-163.5 86q-164 0 -262.5 -151.5 t-98.5 -348.5zM469 1323q0 12 2 18q6 39 41 72t70 33t55.5 -24.5t20.5 -61.5q0 -12 -6.5 -38t-38 -55.5t-70.5 -29.5q-33 0 -53.5 24.5t-20.5 61.5zM840 1323q0 12 4 34.5t39 55.5t70 33q33 0 54 -23.5t21 -60.5q0 -13 -2 -21q-8 -43 -40.5 -73.5t-71.5 -30.5 q-31 0 -52.5 25.5t-21.5 60.5z" />
<glyph unicode="&#xf7;" horiz-adv-x="1251" d="M170 451v135h1032v-135h-1032zM555 143q0 53 39 92t92 39t92 -38.5t39 -92.5q0 -49 -39 -90t-90 -41q-53 0 -93 38t-40 93zM555 893q0 53 39 92t92 39t92 -39t39 -92q0 -49 -39 -90t-90 -41q-53 0 -93 38t-40 93z" />
<glyph unicode="&#xf8;" horiz-adv-x="1062" d="M41 -20l168 176q-37 55 -56.5 129.5t-19.5 140.5q0 266 166 444.5t387 178.5q154 0 262 -115l146 151l82 -57l-168 -174q59 -100 59 -252q0 -254 -155.5 -440.5t-362.5 -186.5q-90 0 -158.5 28t-122.5 79l-157 -164zM309 426q0 -29 4 -64.5t19 -76.5l512 538 q-27 45 -70 74t-104 29q-164 0 -262.5 -151.5t-98.5 -348.5zM373 193q31 -45 73.5 -70t106.5 -25q145 0 241.5 149.5t96.5 350.5q0 25 -1 52.5t-11 68.5z" />
<glyph unicode="&#xf9;" horiz-adv-x="1099" d="M152 193q0 88 20 184l129 647h166l-129 -625q-18 -74 -19 -161q0 -127 144 -127q119 0 253 181t171 384l63 348h164l-192 -1024h-160l69 311l-4 4q-59 -158 -193 -249t-274 -91q-90 0 -149 61.5t-59 156.5zM524 1458q12 72 76 72q20 0 45.5 -19.5t48.5 -44.5l205 -219 l-58 -61l-250 184q-27 23 -53 47q-18 23 -14 41z" />
<glyph unicode="&#xfa;" horiz-adv-x="1099" d="M152 193q0 88 20 184l129 647h166l-129 -625q-18 -74 -19 -161q0 -127 144 -127q119 0 253 181t171 384l63 348h164l-192 -1024h-160l69 311l-4 4q-59 -158 -193 -249t-274 -91q-90 0 -149 61.5t-59 156.5zM602 1239l327 260q33 25 60.5 44.5t60.5 19.5q14 0 28.5 -22.5 t10.5 -41.5q-6 -31 -39 -57.5t-55 -40.5l-346 -230z" />
<glyph unicode="&#xfb;" horiz-adv-x="1099" d="M152 193q0 88 20 184l129 647h166l-129 -625q-18 -74 -19 -161q0 -127 144 -127q119 0 253 181t171 384l63 348h164l-192 -1024h-160l69 311l-4 4q-59 -158 -193 -249t-274 -91q-90 0 -149 61.5t-59 156.5zM436 1171l289 312h119l172 -312h-109l-145 199l-219 -199h-107z " />
<glyph unicode="&#xfc;" horiz-adv-x="1099" d="M152 193q0 88 20 184l129 647h166l-129 -625q-18 -74 -19 -161q0 -127 144 -127q119 0 253 181t171 384l63 348h164l-192 -1024h-160l69 311l-4 4q-59 -158 -193 -249t-274 -91q-90 0 -149 61.5t-59 156.5zM487 1323q0 12 2 18q6 39 41 72t70 33t55.5 -24.5t20.5 -61.5 q0 -12 -6.5 -38t-38 -55.5t-70.5 -29.5q-33 0 -53.5 24.5t-20.5 61.5zM858 1323q0 12 4 34.5t39 55.5t70 33q33 0 54 -23.5t21 -60.5q0 -13 -2 -21q-8 -43 -40.5 -73.5t-71.5 -30.5q-31 0 -52.5 25.5t-21.5 60.5z" />
<glyph unicode="&#xfd;" horiz-adv-x="948" d="M86 -442l270 483l-186 975l176 28q23 -135 50.5 -298.5t43 -266t37.5 -266.5q45 80 133 234.5t193.5 336t152.5 260.5l134 -57q-152 -250 -308.5 -512t-297 -506.5t-263.5 -480.5zM527 1239l327 260q33 25 60.5 44.5t60.5 19.5q14 0 28.5 -22.5t10.5 -41.5 q-6 -31 -39 -57.5t-55 -40.5l-346 -230z" />
<glyph unicode="&#xfe;" horiz-adv-x="1099" d="M10 -512l377 2017h166l-133 -702l4 -4q68 109 169 179.5t216 70.5q152 0 223.5 -112t71.5 -282q0 -233 -156.5 -456.5t-404.5 -223.5q-156 0 -258 107l-109 -594h-166zM313 213q41 -68 102.5 -91.5t151.5 -23.5q117 0 239 162t122 408q0 129 -52.5 185t-136.5 56 q-131 0 -258 -183t-168 -513z" />
<glyph unicode="&#xff;" horiz-adv-x="948" d="M86 -442l270 483l-186 975l176 28q23 -135 50.5 -298.5t43 -266t37.5 -266.5q45 80 133 234.5t193.5 336t152.5 260.5l134 -57q-152 -250 -308.5 -512t-297 -506.5t-263.5 -480.5zM432 1323q0 12 2 18q6 39 41 72t70 33t55.5 -24.5t20.5 -61.5q0 -12 -6.5 -38t-38 -55.5 t-70.5 -29.5q-33 0 -53.5 24.5t-20.5 61.5zM803 1323q0 12 4 34.5t39 55.5t70 33q33 0 54 -23.5t21 -60.5q0 -13 -2 -21q-8 -43 -40.5 -73.5t-71.5 -30.5q-31 0 -52.5 25.5t-21.5 60.5z" />
<glyph unicode="&#x152;" horiz-adv-x="1820" d="M197 598q0 313 210.5 586.5t585.5 273.5q98 0 158.5 -6t112.5 -18h637l-25 -134h-457l-88 -477h447l-25 -133h-448l-105 -557h537l-25 -133h-717q-47 -8 -125.5 -16.5t-140.5 -8.5q-270 0 -401 175.5t-131 447.5zM393 614q0 -211 86 -352t271 -141q113 0 168 13t112 44 l203 1092q-43 20 -98.5 31.5t-163.5 11.5q-211 0 -342 -129t-183.5 -290t-52.5 -280z" />
<glyph unicode="&#x153;" horiz-adv-x="1669" d="M133 426q0 244 152.5 433.5t400.5 189.5q117 0 205 -62.5t139 -175.5q90 111 207 174.5t252 63.5q98 0 170 -57.5t72 -176.5q0 -176 -200 -274.5t-484 -98.5q0 -158 37.5 -251t177.5 -93q72 0 138 22.5t134 59.5l57 -102q-94 -51 -198.5 -77t-202.5 -26q-100 0 -176 54.5 t-103 130.5q-76 -84 -160.5 -134.5t-201.5 -50.5q-203 0 -309.5 138.5t-106.5 312.5zM309 426q0 -109 52.5 -218.5t191.5 -109.5q145 0 241.5 149.5t96.5 350.5q0 156 -57.5 242t-163.5 86q-164 0 -262.5 -151.5t-98.5 -348.5zM1071 553q12 -2 31.5 -3t38.5 -1 q178 0 295.5 71.5t117.5 161.5q0 66 -32.5 105t-89.5 39q-106 0 -218 -112t-143 -261z" />
<glyph unicode="&#x178;" horiz-adv-x="1062" d="M272 1430l201 24q47 -168 93 -349t85 -347q72 111 141.5 215t173 254.5t156.5 226.5l144 -53l-564 -774l-116 -627h-178l116 627zM520 1733q0 12 2 18q6 39 41 72t70 33t55.5 -24.5t20.5 -61.5q0 -12 -6.5 -38t-38 -55.5t-70.5 -29.5q-33 0 -53.5 24.5t-20.5 61.5z M891 1733q0 12 4 34.5t39 55.5t70 33q33 0 54 -23.5t21 -60.5q0 -13 -2 -21q-8 -43 -40.5 -73.5t-71.5 -30.5q-31 0 -52.5 25.5t-21.5 60.5z" />
<glyph unicode="&#x2000;" horiz-adv-x="986" />
<glyph unicode="&#x2001;" horiz-adv-x="1973" />
<glyph unicode="&#x2002;" horiz-adv-x="986" />
<glyph unicode="&#x2003;" horiz-adv-x="1973" />
<glyph unicode="&#x2004;" horiz-adv-x="657" />
<glyph unicode="&#x2005;" horiz-adv-x="493" />
<glyph unicode="&#x2006;" horiz-adv-x="328" />
<glyph unicode="&#x2007;" horiz-adv-x="328" />
<glyph unicode="&#x2008;" horiz-adv-x="246" />
<glyph unicode="&#x2009;" horiz-adv-x="394" />
<glyph unicode="&#x200a;" horiz-adv-x="109" />
<glyph unicode="&#x2010;" horiz-adv-x="681" d="M154 403l30 168h459l-31 -168h-458z" />
<glyph unicode="&#x2011;" horiz-adv-x="681" d="M154 403l30 168h459l-31 -168h-458z" />
<glyph unicode="&#x2012;" horiz-adv-x="681" d="M154 403l30 168h459l-31 -168h-458z" />
<glyph unicode="&#x2013;" horiz-adv-x="1024" d="M57 424l23 127h1046l-22 -127h-1047z" />
<glyph unicode="&#x2014;" horiz-adv-x="2048" d="M57 424l23 127h2070l-22 -127h-2071z" />
<glyph unicode="&#x2018;" horiz-adv-x="569" d="M291 981q0 33 18.5 77t50.5 93l246 354l90 -43l-176 -352q-100 -201 -182 -201q-53 0 -47 72z" />
<glyph unicode="&#x2019;" horiz-adv-x="569" d="M326 952l176 353q100 201 182 200q53 0 47 -71q0 -33 -17.5 -77t-51.5 -93l-246 -355z" />
<glyph unicode="&#x201a;" horiz-adv-x="569" d="M-10 -319l188 360q59 117 92 154.5t84 37.5q68 0 68 -71q-10 -49 -23.5 -77t-42.5 -67l-274 -383z" />
<glyph unicode="&#x201c;" horiz-adv-x="1024" d="M338 981q0 33 18.5 77t51.5 93l245 354l90 -43l-176 -352q-100 -201 -182 -201q-53 0 -47 72zM700 981q0 33 18.5 77t51.5 93l246 354l90 -43l-176 -352q-100 -201 -182 -201q-53 0 -48 72z" />
<glyph unicode="&#x201d;" horiz-adv-x="1024" d="M338 952l176 353q100 201 182 200q53 0 47 -71q0 -33 -17 -77t-52 -93l-246 -355zM700 952l177 353q100 201 182 200q53 0 47 -71q0 -33 -17.5 -77t-52.5 -93l-245 -355z" />
<glyph unicode="&#x201e;" horiz-adv-x="1024" d="M8 -319l189 360q59 117 92 154.5t84 37.5q68 0 67 -71q-10 -49 -23.5 -77t-41.5 -67l-275 -383zM360 -319l189 360q59 117 92 154.5t84 37.5q68 0 68 -71q-10 -49 -23.5 -77t-42.5 -67l-274 -383z" />
<glyph unicode="&#x2022;" horiz-adv-x="1024" d="M246 717q0 152 103.5 255t254.5 103q150 0 254.5 -104.5t104.5 -253.5q0 -150 -104.5 -254.5t-254.5 -104.5q-152 0 -255 103.5t-103 255.5z" />
<glyph unicode="&#x2026;" horiz-adv-x="2048" d="M221 80q0 57 44 107.5t100 50.5q43 0 68.5 -34t25.5 -73q0 -61 -45 -108.5t-97 -47.5q-43 0 -69.5 33t-26.5 72zM903 80q0 57 44 107.5t100 50.5q43 0 68.5 -34t25.5 -73q0 -61 -45 -108.5t-97 -47.5q-43 0 -69.5 33t-26.5 72zM1585 80q0 57 44 107.5t100 50.5 q43 0 68.5 -34t25.5 -73q0 -61 -45 -108.5t-97 -47.5q-43 0 -69.5 33t-26.5 72z" />
<glyph unicode="&#x202f;" horiz-adv-x="394" />
<glyph unicode="&#x2039;" horiz-adv-x="569" d="M135 481l404 377l51 -57l-285 -312l195 -303l-70 -69z" />
<glyph unicode="&#x203a;" horiz-adv-x="569" d="M106 174l285 311l-194 303l69 70l295 -364l-403 -377z" />
<glyph unicode="&#x205f;" horiz-adv-x="493" />
<glyph unicode="&#x2122;" horiz-adv-x="1896" d="M244 1339l20 95h699l-21 -95h-276l-152 -733h-143l151 733h-278zM913 606l172 828h166l183 -621l467 621h151l-172 -828h-143l127 611l-459 -611h-68l-178 611h-2l-127 -611h-117z" />
<glyph unicode="&#x25fc;" horiz-adv-x="1044" d="M0 0v1044h1044v-1044h-1044z" />
</font>
</defs>
</svg>
