<?xml version="1.0" standalone="no"?>
<!DOCTYPE svg PUBLIC "-//W3C//DTD SVG 1.1//EN" "http://www.w3.org/Graphics/SVG/1.1/DTD/svg11.dtd" >
<svg xmlns="http://www.w3.org/2000/svg">
<metadata></metadata>
<defs>
<font id="stonesans-boldregular" horiz-adv-x="1290" >
<font-face units-per-em="2048" ascent="1638" descent="-410" />
<missing-glyph horiz-adv-x="645" />
<glyph horiz-adv-x="0" />
<glyph unicode="&#xd;" horiz-adv-x="645" />
<glyph unicode=" "  horiz-adv-x="645" />
<glyph unicode="&#x09;" horiz-adv-x="645" />
<glyph unicode="&#xa0;" horiz-adv-x="645" />
<glyph unicode="!" horiz-adv-x="757" d="M162 784v721h432v-721l-94 -329h-246zM186 166q0 78 56.5 134t134.5 56q76 0 133 -57t57 -133q0 -78 -56 -134.5t-134 -56.5q-74 0 -132.5 56.5t-58.5 134.5z" />
<glyph unicode="&#x22;" horiz-adv-x="860" d="M115 1384q0 51 24.5 86t89.5 35q63 0 88 -33.5t25 -85.5v-26q-4 -14 -4 -21l-64 -417q-4 -39 -13 -51.5t-32 -12.5q-33 0 -38 24.5t-7 39.5l-65 417q-4 25 -4 45zM516 1384q0 51 24.5 86t90.5 35q63 0 87.5 -33.5t24.5 -85.5v-26q-4 -14 -4 -21l-63 -417 q-4 -39 -13.5 -51.5t-31.5 -12.5q-33 0 -38 24.5t-7 39.5l-66 417q-4 25 -4 45z" />
<glyph unicode="#" d="M141 399v224h211l33 213h-188v223h221l49 375h160l-52 -375h250l54 375h159l-53 -375h162v-223h-193l-28 -213h170v-224h-201l-51 -399h-158l51 399h-252l-61 -399h-158l58 399h-183zM514 623h252l31 213h-250z" />
<glyph unicode="$" d="M117 147l145 220q51 -45 106.5 -81t118.5 -46l99 378q-109 82 -175.5 134.5t-106.5 106.5t-59.5 111.5t-19.5 123.5q0 152 126 258t376 106l72 -4l14 62h143l-24 -84q61 -16 123.5 -47t105.5 -70l-127 -164q-51 33 -83.5 51.5t-71.5 28.5l-88 -334q170 -121 196.5 -143.5 t75.5 -82t78.5 -128t29.5 -146.5q0 -168 -151.5 -301t-382.5 -133q-20 0 -39.5 1t-44.5 7l-49 -186h-135l51 203q-90 23 -160 60.5t-143 98.5zM586 1124q0 -45 19.5 -75.5t66.5 -77.5l73 272q-72 0 -115.5 -32.5t-43.5 -86.5zM623 233q61 0 114.5 45.5t53.5 98.5 q0 45 -23 82t-66 80z" />
<glyph unicode="%" horiz-adv-x="2238" d="M80 1028q0 168 115.5 299t336.5 131q219 0 335 -131t116 -297q0 -209 -124 -335t-327 -126q-201 0 -326.5 126t-125.5 333zM401 1026q0 -135 35 -203.5t96 -68.5q129 0 130 272q0 119 -35 183.5t-95 64.5q-59 0 -95 -64.5t-36 -183.5zM657 0l748 1434h170l-746 -1434 h-172zM1255 434q0 168 116 299t337 131q219 0 335 -131t116 -297q0 -209 -124 -335t-327 -126q-201 0 -327 126t-126 333zM1577 432q0 -135 35 -203.5t96 -68.5q129 0 129 272q0 119 -35 183.5t-94 64.5t-95 -64.5t-36 -183.5z" />
<glyph unicode="&#x26;" horiz-adv-x="1630" d="M115 442q0 135 69.5 239.5t173.5 158.5q-57 59 -100 130.5t-43 157.5q0 139 111.5 234.5t283.5 95.5q104 0 185.5 -25.5t150.5 -68.5l-108 -234q-43 29 -81 44.5t-71 15.5q-31 0 -55.5 -24.5t-24.5 -53.5q0 -53 37 -92t139 -133l330 -314q6 33 10 61t4 52q0 51 -13 97 t-50 98h-178l84 178h637l-84 -178h-164q33 -68 33 -176q0 -88 -21.5 -170t-60.5 -140l260 -235l-264 -185l-189 175q-117 -102 -224.5 -138.5t-227.5 -36.5q-281 0 -415 145.5t-134 321.5zM522 432q0 -90 61.5 -138t135.5 -48q61 0 108 13t91 58l-334 314q-31 -43 -46.5 -84 t-15.5 -115z" />
<glyph unicode="'" horiz-adv-x="491" d="M131 1384q0 51 24.5 86t90.5 35q63 0 87.5 -33.5t24.5 -85.5v-26q-4 -14 -4 -21l-63 -417q-4 -39 -13.5 -51.5t-31.5 -12.5q-33 0 -38 24.5t-7 39.5l-66 417q-4 25 -4 45z" />
<glyph unicode="(" horiz-adv-x="909" d="M143 567q0 291 130 531.5t374 406.5l139 -114q-106 -92 -211.5 -333t-105.5 -493q0 -260 109.5 -498.5t300.5 -398.5l-150 -139q-285 199 -435.5 446.5t-150.5 591.5z" />
<glyph unicode=")" horiz-adv-x="909" d="M31 1366l149 139q285 -199 435.5 -446.5t150.5 -591.5q0 -291 -130 -531.5t-374 -406.5l-139 115q106 92 211.5 332.5t105.5 492.5q0 260 -109.5 498.5t-299.5 398.5z" />
<glyph unicode="*" horiz-adv-x="909" d="M66 1065l86 250l237 -148l-65 267h262l-66 -267l238 148l86 -250l-283 -23l213 -174l-213 -163l-106 260l-107 -260l-213 163l213 174z" />
<glyph unicode="+" d="M129 420v196h418v420h196v-420h418v-196h-418v-420h-196v420h-418z" />
<glyph unicode="," horiz-adv-x="645" d="M16 -264l127 356q47 135 80 175t111 40q63 0 99 -38t36 -93t-33 -102l-264 -404z" />
<glyph unicode="-" horiz-adv-x="716" d="M86 393v189h510v-189h-510z" />
<glyph unicode="." horiz-adv-x="645" d="M131 166q0 78 56.5 134t134.5 56q76 0 133 -57t57 -133q0 -78 -56.5 -134.5t-133.5 -56.5q-74 0 -132.5 56.5t-58.5 134.5z" />
<glyph unicode="/" horiz-adv-x="1175" d="M59 -221l834 1726h221l-833 -1726h-222z" />
<glyph unicode="0" d="M49 741q0 281 153.5 499t442.5 218t442.5 -218t153.5 -495q0 -350 -165 -560t-431 -210q-262 0 -429 210t-167 556zM469 737q0 -244 46 -366.5t130 -122.5q82 0 129 123.5t47 365.5q0 217 -47 333t-129 116q-80 0 -128 -118t-48 -331z" />
<glyph unicode="1" d="M172 1303l391 155h371v-1458h-432v1204l-281 -114z" />
<glyph unicode="2" d="M78 197l196 180q219 199 348.5 367.5t129.5 299.5q0 53 -45 100.5t-115 47.5q-72 0 -152 -36t-174 -101l-139 205q92 84 233.5 141t329.5 57q211 0 366.5 -93t155.5 -280q0 -125 -69.5 -245.5t-276.5 -335.5l-198 -209h559v-295h-1147z" />
<glyph unicode="3" d="M123 53l100 209q63 -31 129 -48t127 -17q106 0 175 58t69 146q0 139 -136 197.5t-319 58.5v189q164 0 272.5 55t108.5 172q0 90 -59.5 127t-126.5 37q-57 0 -112.5 -13.5t-125.5 -35.5l-86 176q66 35 202 64.5t257 29.5q186 0 341 -80t155 -248q0 -127 -100.5 -222 t-207.5 -124q141 -25 266.5 -110.5t125.5 -265.5q0 -170 -168 -301.5t-467 -131.5q-123 0 -217.5 15.5t-202.5 62.5z" />
<glyph unicode="4" d="M0 319v185l735 930h350v-879h175v-236h-175v-319h-423v319h-662zM311 555h351v469z" />
<glyph unicode="5" d="M68 102l118 242q94 -47 164 -73.5t148 -26.5q125 0 181 63.5t56 130.5q0 109 -131 189t-395 80l174 727h797l-64 -267h-481l-49 -209q315 -37 457.5 -173t142.5 -322q0 -223 -181.5 -355.5t-437.5 -132.5q-133 0 -270 34t-229 93z" />
<glyph unicode="6" d="M29 512q0 375 326.5 641t770.5 305v-217q-182 -18 -354 -133t-223 -248q78 16 110.5 19.5t92.5 3.5q199 0 354.5 -109.5t155.5 -320.5q0 -168 -170 -323t-445 -155q-276 0 -447 149.5t-171 387.5zM461 438q0 -127 55 -197.5t139 -70.5q78 0 128.5 79t50.5 197 q0 106 -47.5 179t-131.5 73q-92 0 -143 -65.5t-51 -194.5z" />
<glyph unicode="7" d="M125 1167v267h1104v-154l-699 -1300l-380 92l628 1095h-653z" />
<glyph unicode="8" d="M33 381q0 137 67.5 220t212.5 179q-96 57 -150 125t-54 201q0 156 152.5 254t402.5 98q207 0 358.5 -92t151.5 -248q0 -86 -88.5 -191.5t-163.5 -140.5q117 -53 225 -152t108 -245q0 -186 -175 -300t-441 -114q-270 0 -438 113t-168 293zM465 397q0 -98 50 -162.5 t132 -64.5q74 0 125 69t51 126q0 111 -57 167t-160 111q-61 -41 -101 -102.5t-40 -143.5zM494 1118q0 -86 57 -141l96 -68q68 39 104.5 84t36.5 125q0 57 -40.5 109.5t-108.5 52.5q-66 0 -105.5 -52.5t-39.5 -109.5z" />
<glyph unicode="9" d="M29 975q0 162 146.5 322.5t463.5 160.5q299 0 461 -156.5t162 -379.5q0 -354 -332 -632t-766 -315v218q180 18 353 133.5t224 246.5q-82 -16 -112.5 -19t-89.5 -3q-219 0 -364.5 116.5t-145.5 307.5zM461 987q0 -106 47 -179t131 -73q92 0 141 65.5t49 194.5 q0 127 -57 198t-137 71q-76 0 -125 -80t-49 -197z" />
<glyph unicode=":" horiz-adv-x="645" d="M133 166q0 78 56.5 134t134.5 56q76 0 133 -57t57 -133q0 -78 -56.5 -134.5t-133.5 -56.5q-74 0 -132.5 56.5t-58.5 134.5zM133 872q0 78 56.5 134.5t134.5 56.5q76 0 133 -57.5t57 -133.5q0 -78 -56.5 -134t-133.5 -56q-74 0 -132.5 56t-58.5 134z" />
<glyph unicode=";" horiz-adv-x="645" d="M6 -264l127 356q47 135 80 175t111 40q63 0 99 -38t36 -93t-33 -102l-264 -404zM133 872q0 78 56.5 134.5t134.5 56.5q76 0 133 -57.5t57 -133.5q0 -78 -56.5 -134t-133.5 -56q-74 0 -132.5 56t-58.5 134z" />
<glyph unicode="&#x3c;" d="M123 463v110l1042 480v-191l-749 -344l749 -344v-190z" />
<glyph unicode="=" d="M129 219v197h1032v-197h-1032zM129 621v196h1032v-196h-1032z" />
<glyph unicode="&#x3e;" d="M123 -16v190l747 344l-747 344v191l1042 -480v-110z" />
<glyph unicode="?" horiz-adv-x="1175" d="M104 1309q80 88 195 142t297 54q188 0 330.5 -87t142.5 -242q0 -104 -107.5 -238.5t-201.5 -249.5q-41 -63 -60.5 -116.5t-25.5 -116.5h-312q-2 12 -2 26.5v20.5q0 72 26 139.5t89.5 176t102 181t38.5 144.5q0 66 -46 98.5t-107 32.5q-57 0 -100.5 -30t-114.5 -99z M305 166q0 78 56.5 134t134.5 56q76 0 133 -57t57 -133q0 -78 -56.5 -134.5t-133.5 -56.5q-74 0 -132.5 56.5t-58.5 134.5z" />
<glyph unicode="@" horiz-adv-x="1781" d="M82 684q0 344 255 569.5t578 225.5q373 0 576 -185.5t203 -484.5q0 -164 -103.5 -337t-363.5 -173q-125 0 -186.5 70.5t-41.5 99.5l5 -4q-41 -39 -80 -76q-96 -68 -222 -67q-76 0 -144.5 67.5t-68.5 202.5q0 244 122 373t280 129q96 0 140 -30t69 -83l22 86h189 l-109 -483q-8 -33 -8 -64q0 -68 51 -67q84 0 138.5 112.5t54.5 261.5q0 213 -128 326t-380 113q-260 0 -415 -187.5t-155 -402.5q0 -256 160 -372t365 -116q100 0 189 14.5t175 41.5l82 -178q-115 -41 -229.5 -66t-251.5 -25q-297 0 -532.5 185.5t-235.5 523.5zM750 639 q0 -66 25.5 -93.5t60.5 -27.5q78 0 130 88t60 187q0 55 -20.5 88.5t-65.5 33.5q-66 0 -128 -81.5t-62 -194.5z" />
<glyph unicode="A" horiz-adv-x="1519" d="M14 0l584 1434h363l544 -1434h-458l-113 342h-445l-137 -342h-338zM563 569h301q-45 162 -76.5 277t-62.5 235q-43 -145 -83 -268t-79 -244z" />
<glyph unicode="B" horiz-adv-x="1368" d="M123 0v1434h637q217 0 345 -85t128 -241q0 -143 -76 -206.5t-205 -123.5q135 -4 254 -101t119 -239q0 -203 -157.5 -320.5t-454.5 -117.5h-590zM555 231h82q115 0 181.5 56.5t66.5 158.5q0 88 -49.5 137.5t-157.5 49.5h-123v-402zM555 864h76q113 0 163 51.5t50 133.5 q0 80 -54.5 116.5t-113.5 36.5h-121v-338z" />
<glyph unicode="C" horiz-adv-x="1366" d="M84 731q0 324 236.5 525.5t607.5 201.5q80 0 186.5 -19.5t179.5 -52.5l-106 -253q-43 12 -120 19t-118 7q-172 0 -293.5 -112.5t-121.5 -331.5q0 -215 125.5 -328t310.5 -113q61 0 123.5 9.5t119.5 23.5l84 -268q-63 -25 -158.5 -44.5t-187.5 -19.5q-369 0 -618.5 206 t-249.5 550z" />
<glyph unicode="D" horiz-adv-x="1558" d="M123 0v1434h557q403 0 599 -193.5t196 -482.5q0 -373 -231.5 -565.5t-579.5 -192.5h-541zM555 268h111q180 0 272 132t92 356q0 188 -100.5 298.5t-249.5 110.5h-125v-897z" />
<glyph unicode="E" horiz-adv-x="1138" d="M123 0v1434h870v-269h-438v-282h428v-269h-428v-346h526v-268h-958z" />
<glyph unicode="F" horiz-adv-x="1062" d="M123 0v1434h870v-269h-438v-356h430v-268h-430v-541h-432z" />
<glyph unicode="G" horiz-adv-x="1531" d="M84 731q0 324 237.5 525.5t606.5 201.5q80 0 186.5 -19.5t179.5 -52.5l-106 -253q-43 12 -120 19t-118 7q-170 0 -292.5 -112.5t-122.5 -331.5q0 -209 120.5 -325t253.5 -116q31 0 64 11v370h432v-606q-123 -37 -239.5 -55.5t-211.5 -18.5q-371 0 -620.5 206t-249.5 550z " />
<glyph unicode="H" horiz-adv-x="1552" d="M123 0v1434h432v-508h442v497h433v-1423h-433v657h-442v-657h-432z" />
<glyph unicode="I" horiz-adv-x="677" d="M123 0v1434h432v-1434h-432z" />
<glyph unicode="J" horiz-adv-x="677" d="M-14 -141q41 18 60.5 32.5t34.5 42t28.5 95t13.5 157.5v1248h432v-1217q0 -272 -148.5 -439t-420.5 -167v248z" />
<glyph unicode="K" horiz-adv-x="1445" d="M123 0v1434h432v-592l360 612l375 -76l-368 -571l503 -750l-448 -77l-418 716l-4 -696h-432z" />
<glyph unicode="L" horiz-adv-x="1138" d="M123 0v1434h432v-1166h524v-268h-956z" />
<glyph unicode="M" horiz-adv-x="1984" d="M123 0v1434h586q49 -137 99 -278.5t96 -283t97 -321.5q63 219 94 316.5t193 566.5h574v-1434h-432v1004q-49 -164 -104.5 -329t-119 -341t-121.5 -334h-272q-84 227 -137 373.5t-97 274.5t-112 356l-4 -1004h-340z" />
<glyph unicode="N" horiz-adv-x="1521" d="M123 0v1434h313q178 -217 278.5 -343t196 -255t144.5 -224l4 822h340v-1434h-289q-188 227 -282.5 343t-195 250t-165.5 247l-4 -840h-340z" />
<glyph unicode="O" horiz-adv-x="1593" d="M84 733q0 305 202.5 515t510.5 210q305 0 508.5 -210t203.5 -515q0 -328 -194.5 -543t-517.5 -215q-326 0 -519.5 214t-193.5 544zM535 733q0 -217 61 -338t201 -121q137 0 199.5 121t62.5 338q0 199 -64.5 312.5t-197.5 113.5t-197.5 -112.5t-64.5 -313.5z" />
<glyph unicode="P" horiz-adv-x="1327" d="M123 0v1434h594q274 0 424.5 -104.5t150.5 -309.5q0 -197 -162.5 -351.5t-429.5 -154.5h-77v252l59 6q66 12 131.5 65.5t65.5 157.5q0 90 -59.5 130t-147.5 40h-117v-1165h-432z" />
<glyph unicode="Q" horiz-adv-x="1593" d="M84 733q0 305 202.5 515t510.5 210q305 0 508.5 -210t203.5 -515q0 -258 -78.5 -390t-220.5 -257l449 -180l-150 -246l-632 315h-80q-322 0 -517.5 218t-195.5 540zM535 733q0 -217 61 -338t201 -121q137 0 199.5 123t62.5 336q0 199 -64.5 312.5t-197.5 113.5 t-197.5 -112.5t-64.5 -313.5z" />
<glyph unicode="R" horiz-adv-x="1366" d="M123 0v1434h639q252 0 386 -101.5t134 -281.5q0 -156 -65.5 -257.5t-176.5 -156.5l318 -614l-463 -48l-227 568h-113v-543h-432zM555 813h123q80 0 126 54.5t46 121.5q0 98 -50 137t-130 39h-115v-352z" />
<glyph unicode="S" horiz-adv-x="1140" d="M78 106l131 238q57 -45 116.5 -72.5t129.5 -27.5q72 0 126 36.5t54 112.5q0 59 -26.5 91t-181.5 168t-218.5 206t-63.5 215q0 168 146.5 276.5t355.5 108.5q119 0 220.5 -31.5t154.5 -64.5l-111 -225q-88 53 -211 53q-59 0 -93 -25.5t-34 -62.5q0 -55 107.5 -143.5 t197 -172.5t137.5 -177t48 -212q0 -141 -125 -281.5t-410 -140.5q-133 0 -249.5 32t-200.5 99z" />
<glyph unicode="T" horiz-adv-x="1292" d="M16 1165v269h1260v-269h-414v-1165h-432v1165h-414z" />
<glyph unicode="U" horiz-adv-x="1478" d="M117 557v877h432v-750q0 -213 45 -311.5t176 -98.5q109 0 167 106.5t58 309.5v744h373v-867q0 -301 -174 -446.5t-444 -145.5q-297 0 -465 137.5t-168 444.5z" />
<glyph unicode="V" horiz-adv-x="1480" d="M0 1413l457 41q88 -287 164.5 -547t146.5 -530q70 244 123 415t106.5 330.5t110.5 331.5l367 -41l-553 -1413h-406z" />
<glyph unicode="W" horiz-adv-x="2240" d="M16 1413l439 41q33 -162 67.5 -331t62 -322.5t64.5 -370.5q70 244 151 489.5t171 514.5h358q70 -197 119 -338.5t107.5 -322.5t105.5 -343q45 270 61.5 364.5t45 250t77.5 409.5l379 -41l-342 -1413h-481q-55 154 -102.5 289t-93.5 281.5t-87 289.5 q-55 -209 -119.5 -415.5t-140.5 -444.5h-483z" />
<glyph unicode="X" horiz-adv-x="1515" d="M74 31l465 741l-363 641l442 41l168 -371l205 371l369 -41l-389 -606l471 -776l-453 -51l-254 487l-282 -487z" />
<glyph unicode="Y" horiz-adv-x="1400" d="M49 1413l465 41q70 -176 123 -322.5t98 -306.5q61 168 123 312.5t141 316.5l344 -41l-440 -856v-557h-432v557z" />
<glyph unicode="Z" horiz-adv-x="1400" d="M90 0v145l653 1020h-501v269h1034v-144l-639 -1022h674v-268h-1221z" />
<glyph unicode="[" horiz-adv-x="833" d="M199 -395v1900h604v-178h-277v-1528h277v-194h-604z" />
<glyph unicode="\" horiz-adv-x="1214" d="M115 1505h223l762 -1505h-223z" />
<glyph unicode="]" horiz-adv-x="833" d="M31 -201h276v1528h-276v178h604v-1900h-604v194z" />
<glyph unicode="^" d="M145 686l375 748h246l379 -748h-195l-307 606l-305 -606h-193z" />
<glyph unicode="_" horiz-adv-x="1024" d="M0 -205h1024v-102h-1024v102z" />
<glyph unicode="`" horiz-adv-x="757" d="M10 1470q0 96 113 97q16 0 44 -16.5t56 -39.5l264 -227l-90 -113l-327 183q-18 10 -39 45t-21 71z" />
<glyph unicode="a" horiz-adv-x="1212" d="M74 281q0 162 94 252t311 143l236 57q-20 43 -68.5 73t-99.5 30q-82 0 -145.5 -28t-125.5 -83l-112 184q113 76 227.5 108t229.5 32q217 0 353 -94.5t136 -333.5v-371q0 -78 7 -135.5t28 -114.5h-426q-18 41 -19 111l-57 -31q-66 -35 -131 -68q-82 -37 -141 -37 q-113 0 -205 87.5t-92 218.5zM444 336q0 -49 33 -84t74 -35q63 0 112.5 90t49.5 279l-117 -45q-68 -23 -110 -78t-42 -127z" />
<glyph unicode="b" horiz-adv-x="1366" d="M123 0v1505h409v-594q55 59 138.5 98.5t179.5 39.5q193 0 324 -133.5t131 -399.5q0 -205 -128 -373t-356 -168q-88 0 -158.5 36t-130.5 102v-113h-409zM532 506q0 -139 42 -231.5t122 -92.5t127 89t47 241q0 150 -45 233.5t-120 83.5q-84 0 -128.5 -88t-44.5 -235z" />
<glyph unicode="c" horiz-adv-x="1058" d="M61 496q0 250 181.5 401.5t451.5 151.5q80 0 164 -22.5t160 -68.5l-107 -208q-84 36 -167 36h-5q-109 0 -177 -68.5t-68 -209.5q0 -139 76.5 -204.5t164.5 -65.5q43 0 86 9t78 23l102 -217q-76 -39 -162.5 -58.5t-168.5 -19.5q-268 0 -438.5 142.5t-170.5 378.5z" />
<glyph unicode="d" horiz-adv-x="1363" d="M61 524q0 190 119 357.5t352 167.5q96 0 173 -35t122 -94l4 585h410v-1505h-410v123q-68 -63 -141.5 -105.5t-171.5 -42.5q-223 0 -340 163t-117 386zM494 512q0 -147 48 -238.5t126 -91.5t120.5 94.5t42.5 229.5q0 147 -44 235t-128 88q-74 0 -119.5 -85t-45.5 -232z " />
<glyph unicode="e" horiz-adv-x="1171" d="M61 532q0 209 150.5 363t425.5 154q225 0 352 -135.5t127 -366.5v-51q-4 -23 -4 -33h-620q0 -117 71.5 -180.5t167.5 -63.5q74 0 144.5 21.5t123.5 52.5l113 -209q-129 -61 -254 -85t-242 -24q-221 0 -388 167t-167 390zM496 637h272q0 129 -33 185.5t-108 56.5 q-131 0 -131 -242z" />
<glyph unicode="f" horiz-adv-x="872" d="M16 836v188h164v102q0 182 132 280.5t313 98.5q63 0 137 -9t151 -38l-55 -201q-31 12 -74 18.5t-69 6.5q-49 0 -87 -36t-38 -89v-133h246v-188h-246v-836h-410v836h-164z" />
<glyph unicode="g" horiz-adv-x="1363" d="M61 524q0 190 119 357.5t352 167.5q94 0 172 -34t123 -91l4 100h410v-848q0 -383 -176 -535.5t-475 -152.5q-111 0 -220.5 23.5t-224.5 64.5l60 238q53 -33 143 -57.5t193 -24.5q113 0 201.5 67.5t88.5 198.5v129q-66 -66 -139.5 -109t-173.5 -43q-223 0 -340 163 t-117 386zM494 512q0 -147 48 -238.5t126 -91.5t120.5 94.5t42.5 229.5q0 147 -44 235t-128 88q-74 0 -119.5 -85t-45.5 -232z" />
<glyph unicode="h" horiz-adv-x="1359" d="M123 0v1505h405v-596q63 70 146.5 105t195.5 35q367 0 367 -390v-659h-410v643q0 57 -33.5 103.5t-97.5 46.5q-164 0 -164 -195v-598h-409z" />
<glyph unicode="i" horiz-adv-x="655" d="M111 1305q0 84 65.5 147.5t149.5 63.5q86 0 152.5 -62.5t66.5 -148.5q0 -90 -66.5 -152.5t-154.5 -62.5q-82 0 -147.5 63.5t-65.5 151.5zM123 0v1024h409v-1024h-409z" />
<glyph unicode="j" horiz-adv-x="655" d="M-16 -395q35 6 69.5 30.5t50.5 55.5q6 23 12.5 100.5t6.5 126.5v1106h409v-1098q0 -252 -124.5 -345t-423.5 -93v117zM111 1305q0 84 65.5 147.5t149.5 63.5q86 0 152.5 -62.5t66.5 -148.5q0 -90 -66.5 -152.5t-154.5 -62.5q-82 0 -147.5 63.5t-65.5 151.5z" />
<glyph unicode="k" horiz-adv-x="1288" d="M123 0v1505h409v-868h29l287 407l315 -102l-278 -358l358 -498l-387 -106l-319 532l-5 -512h-409z" />
<glyph unicode="l" horiz-adv-x="655" d="M123 0v1505h409v-1505h-409z" />
<glyph unicode="m" horiz-adv-x="2027" d="M123 0v1024h405v-115q45 66 142.5 103t218.5 37q88 0 167 -31t115 -109q53 61 142.5 100.5t199.5 39.5q391 0 392 -392v-657h-410v645q0 59 -34 103.5t-87 44.5q-84 0 -119.5 -46.5t-35.5 -148.5v-598h-410v645q0 55 -30.5 101.5t-90.5 46.5q-84 0 -120 -44t-36 -149 v-600h-409z" />
<glyph unicode="n" horiz-adv-x="1359" d="M123 0v1024h405v-115q63 70 146.5 105t195.5 35q367 0 367 -390v-659h-410v643q0 57 -33.5 103.5t-97.5 46.5q-164 0 -164 -195v-598h-409z" />
<glyph unicode="o" horiz-adv-x="1300" d="M61 524q0 240 174.5 382.5t413.5 142.5q240 0 415 -142.5t175 -382.5t-164 -394.5t-426 -154.5q-260 0 -424 154.5t-164 394.5zM477 524q0 -152 38 -259t134 -107q92 0 133 111.5t41 254.5q0 137 -41 239.5t-133 102.5q-90 0 -131 -102.5t-41 -239.5z" />
<glyph unicode="p" horiz-adv-x="1363" d="M123 -512v1536h409v-113q55 59 138.5 98.5t179.5 39.5q190 0 321.5 -134.5t131.5 -398.5q0 -205 -128 -373t-354 -168q-88 0 -158.5 36t-130.5 102v-625h-409zM530 506q0 -139 42 -231.5t122 -92.5q78 0 125 90t47 240q0 147 -45 232t-119 85q-84 0 -128 -88t-44 -235z " />
<glyph unicode="q" horiz-adv-x="1363" d="M61 524q0 190 119 357.5t352 167.5q96 0 173 -35t122 -94l4 104h410v-1536h-410v635q-68 -63 -141.5 -105.5t-171.5 -42.5q-223 0 -340 163t-117 386zM494 512q0 -147 48 -238.5t126 -91.5t120.5 94.5t42.5 229.5q0 147 -44 235t-128 88q-74 0 -119.5 -85t-45.5 -232z " />
<glyph unicode="r" horiz-adv-x="948" d="M123 0v1024h409v-264l35 82q49 119 93.5 163t119.5 44q63 0 106.5 -18.5t96.5 -59.5l-127 -299q-20 6 -47 13t-70 7q-88 0 -147.5 -55t-59.5 -199v-438h-409z" />
<glyph unicode="s" horiz-adv-x="948" d="M70 72l86 209q53 -31 116.5 -61t104.5 -30q96 0 96 89q0 47 -60.5 91t-140 97t-119.5 119.5t-40 150.5q0 125 105.5 218.5t277.5 93.5q102 0 184 -17.5t162 -54.5l-86 -184q-47 25 -85 36t-67 11q-84 0 -84 -74q0 -57 87 -117.5t149.5 -105.5t92.5 -111.5t30 -120.5 q-2 -25 -2 -28q0 -96 -115 -202t-307 -106q-111 0 -210.5 21.5t-174.5 75.5z" />
<glyph unicode="t" horiz-adv-x="948" d="M39 836v188h143v246l410 61v-307h268v-188h-268v-392q0 -135 43 -192t98 -57q31 0 55.5 7t59.5 21l49 -182q-74 -31 -170 -48.5t-188 -17.5q-188 0 -272.5 82t-84.5 246v533h-143z" />
<glyph unicode="u" horiz-adv-x="1318" d="M102 365v659h410v-623q0 -59 33 -105t98 -46q70 0 106.5 52t36.5 138v584h410v-1024h-405v141q-68 -82 -154 -124t-195 -42q-164 0 -252 98.5t-88 291.5z" />
<glyph unicode="v" horiz-adv-x="1140" d="M10 995l412 49q70 -231 104.5 -353t73.5 -300q49 174 97 322.5t114 330.5l319 -51l-438 -993h-297z" />
<glyph unicode="w" horiz-adv-x="1824" d="M8 985l404 59q43 -147 88 -313t80 -332q53 184 92 299t116 326h308q66 -188 111.5 -327.5t84.5 -297.5q43 172 85 304.5t110 340.5l330 -38l-381 -1006h-381q-47 147 -87 283.5t-77 294.5q-45 -168 -78 -263.5t-111 -314.5h-356z" />
<glyph unicode="x" horiz-adv-x="1228" d="M31 27l370 493l-313 473l426 51l145 -258l175 258l311 -51l-334 -440l387 -522l-434 -51l-186 290l-220 -290z" />
<glyph unicode="y" horiz-adv-x="1138" d="M-14 -260h71q106 0 181 57.5t127 274.5l-355 923l412 49q70 -231 104.5 -353t73.5 -300q49 174 97 322.5t114 330.5l319 -51l-495 -1120q-80 -178 -193.5 -281.5t-306.5 -103.5h-149v252z" />
<glyph unicode="z" horiz-adv-x="1097" d="M57 0v106l471 695h-370v223h852v-127l-424 -664h454v-233h-983z" />
<glyph unicode="{" horiz-adv-x="872" d="M168 479l2 131q90 18 123 72.5t33 167.5v276q0 201 109.5 290t355.5 89v-155q-82 -12 -126 -50t-44 -129v-288q0 -123 -29 -197t-113 -141q84 -68 111.5 -140.5t27.5 -197.5v-289q0 -88 44.5 -127t125.5 -51v-156q-242 0 -353 89t-111 290v277q0 115 -31 167t-125 72z " />
<glyph unicode="|" horiz-adv-x="872" d="M338 0v1505h197v-1505h-197z" />
<glyph unicode="}" horiz-adv-x="872" d="M82 1350v155q242 0 353.5 -89t111.5 -290v-276q0 -115 30.5 -167t124.5 -73l3 -131q-90 -18 -123 -72.5t-33 -166.5v-277q0 -201 -109.5 -290t-355.5 -89v156q82 12 126 50t44 128v289q0 123 28.5 197.5t110.5 140.5q-84 68 -112.5 139.5t-28.5 198.5v288q0 88 -44 127 t-126 52z" />
<glyph unicode="~" d="M88 424q80 143 151.5 210.5t176.5 67.5q45 0 97 -14t149 -63q41 -16 107.5 -50t92.5 -34q80 0 129 57q45 74 64 100l147 -75q-80 -145 -145.5 -213t-161.5 -68q-72 0 -116 19.5t-105.5 51t-120.5 61.5t-115 30q-82 0 -143 -74q-51 -82 -64 -96z" />
<glyph unicode="&#xa1;" horiz-adv-x="757" d="M162 240l94 329h246l92 -329v-721h-432v721zM186 858q0 78 56.5 134.5t134.5 56.5q76 0 133 -57.5t57 -133.5q0 -78 -56 -134t-134 -56q-74 0 -132.5 56t-58.5 134z" />
<glyph unicode="&#xa2;" d="M123 516q0 250 185.5 391.5t471.5 141.5l31 145l190 -35l-28 -139q31 -8 57.5 -14.5t65.5 -22.5l-90 -217l-76 29l-109 -553l47 -4q18 0 60.5 9t79.5 25l88 -231q-68 -33 -155 -47t-179 -14l6 -5l-41 -204l-190 41l36 188q-205 49 -327.5 192.5t-122.5 323.5zM524 537 q0 -74 28 -131.5t79 -98.5l102 496q-104 -31 -156.5 -113t-52.5 -153z" />
<glyph unicode="&#xa3;" d="M0 0v197q61 18 121.5 66t73 120t22.5 125t35 164h-211v194h217l29 144q27 197 181.5 322.5t393.5 125.5q158 0 237 -40t150 -107l-135 -140q-27 25 -64.5 41.5t-88.5 16.5q-82 0 -154 -49.5t-86 -141.5l-31 -172h307v-192h-315l-12 -101q0 -78 -39 -164.5t-84 -107.5 q113 -20 208 -32.5t181 -12.5q72 0 116 10t87 33l118 -221q-78 -49 -146.5 -73.5t-223.5 -24.5q-154 0 -384.5 10t-502.5 10z" />
<glyph unicode="&#xa4;" d="M80 305l135 135q-35 43 -56.5 115t-21.5 160q0 84 23.5 160.5t64.5 111.5l-139 137l145 150l136 -135q41 35 118.5 58.5t157.5 23.5q88 0 162 -21.5t115 -56.5l133 131l145 -144l-129 -133q37 -39 61.5 -118.5t24.5 -163.5q0 -86 -22.5 -160t-61.5 -111l139 -137 l-149 -151l-137 135q-39 -39 -115 -62.5t-166 -23.5q-184 0 -281 86l-131 -131zM352 715q0 -125 85 -210t206 -85q127 0 212 85t85 210q0 121 -85 206t-212 85q-119 0 -205 -84t-86 -207z" />
<glyph unicode="&#xa5;" d="M-14 1403l417 51l269 -623l311 623l322 -29l-301 -561h229v-180h-322l-63 -127v-22h385v-181h-385v-354h-432v354h-383v181h383v22l-64 127h-319v180h227z" />
<glyph unicode="&#xa6;" horiz-adv-x="872" d="M338 0v602h197v-602h-197zM338 903v602h197v-602h-197z" />
<glyph unicode="&#xa7;" horiz-adv-x="1327" d="M100 600q0 113 71 184.5t175 128.5q-61 41 -84.5 97.5t-23.5 117.5q0 141 108.5 235.5t302.5 94.5q152 0 250 -33.5t156 -95.5l-129 -192q-63 43 -105.5 63.5t-79.5 20.5q-35 0 -56 -23.5t-21 -56.5q0 -53 69.5 -98.5t151.5 -96.5q156 -111 249 -193.5t93 -217.5 q0 -90 -87 -183.5t-196 -115.5q45 -33 67.5 -94t22.5 -124q0 -133 -119.5 -227t-308.5 -94q-121 0 -244.5 42t-175.5 93l78 227q51 -41 126 -68.5t118 -27.5q47 0 72.5 16.5t25.5 59.5q0 51 -80 108.5t-168 120t-173 133t-85 199.5zM469 647q0 -88 107.5 -151.5 t175.5 -100.5q37 -10 71.5 27t34.5 92t-58.5 102.5t-226.5 163.5q-37 -8 -70.5 -46t-33.5 -87z" />
<glyph unicode="&#xa8;" horiz-adv-x="1024" d="M129 1223q0 53 41 94t92 41q55 0 95 -40t40 -95q0 -53 -40 -93t-95 -40q-53 0 -93 40t-40 93zM625 1223q0 53 41 94t92 41q55 0 95 -40t40 -95q0 -53 -40 -93t-95 -40q-53 0 -93 40t-40 93z" />
<glyph unicode="&#xa9;" horiz-adv-x="1630" d="M74 717q0 305 218 523t523 218t523 -218t218 -523t-218 -523.5t-523 -218.5t-523 218.5t-218 523.5zM229 717q0 -242 172 -420t414 -178q240 0 413 177t173 421q0 242 -172 420t-414 178q-240 0 -413 -177t-173 -421zM391 717q0 188 145.5 299.5t368.5 111.5 q37 0 101.5 -13t115.5 -42l-73 -160q-37 10 -71 15.5t-58 5.5q-84 0 -153 -55.5t-69 -171.5q0 -113 68 -166.5t143 -53.5q66 0 152 25l65 -152q-123 -72 -254 -71q-182 0 -331.5 116.5t-149.5 311.5z" />
<glyph unicode="&#xaa;" horiz-adv-x="819" d="M39 647v107h739v-107h-739zM39 997q0 74 64.5 137.5t215.5 98.5l148 33q-10 31 -44 44t-79 13t-86 -13.5t-78 -39.5l-78 104q80 47 162 65.5t156 18.5q156 0 247 -58.5t91 -211.5v-209q0 -43 4 -81t16 -69h-319q-4 20 -4 93l-54 -37q-39 -31 -80.5 -50.5t-84.5 -19.5 q-72 0 -134.5 52.5t-62.5 129.5zM295 1040q0 -23 27.5 -44t54.5 -21q49 0 66.5 42t17.5 161l-66 -25q-39 -14 -69.5 -45t-30.5 -68z" />
<glyph unicode="&#xab;" horiz-adv-x="1138" d="M23 481l370 377l160 -57l-205 -312l234 -303l-156 -69zM516 481l371 377l160 -57l-205 -312l233 -303l-155 -69z" />
<glyph unicode="&#xac;" d="M129 621v196h1032v-586h-196v390h-836z" />
<glyph unicode="&#xad;" horiz-adv-x="716" d="M86 393v189h510v-189h-510z" />
<glyph unicode="&#xae;" horiz-adv-x="1630" d="M74 717q0 305 218 523t523 218t523 -218t218 -523t-218 -523.5t-523 -218.5t-523 218.5t-218 523.5zM229 717q0 -242 172 -420t414 -178q240 0 413 177t173 421q0 242 -172 420t-414 178q-240 0 -413 -177t-173 -421zM473 348v793h408q158 0 239.5 -57.5t81.5 -157.5 q0 -88 -39 -144.5t-102 -83.5l178 -340l-311 -22l-117 305h-49v-293h-289zM762 809h74q31 0 55 24.5t24 51.5q0 49 -26.5 68.5t-69.5 19.5h-57v-164z" />
<glyph unicode="&#xb0;" horiz-adv-x="796" d="M104 1163q0 119 86 207t209 88q121 0 207 -86t86 -209q0 -121 -86 -207t-207 -86q-119 0 -207 86t-88 207zM254 1163q0 -57 45 -100t100 -43q57 0 100.5 43t43.5 100t-42 101.5t-102 44.5q-59 0 -102 -43.5t-43 -102.5z" />
<glyph unicode="&#xb1;" d="M129 0v197h1032v-197h-1032zM129 694v197h418v420h196v-420h418v-197h-418v-420h-196v420h-418z" />
<glyph unicode="&#xb2;" horiz-adv-x="985" d="M90 717l109 84q127 96 222 206.5t95 196.5q0 29 -24.5 51.5t-65.5 22.5q-82 0 -215 -80l-96 143q66 51 160 84t227 33q145 0 251.5 -53t106.5 -170q0 -78 -44 -148.5t-179 -199.5l-105 -105h338v-198h-778z" />
<glyph unicode="&#xb3;" horiz-adv-x="985" d="M152 602l75 152q18 -12 72.5 -25.5t87.5 -13.5q70 0 110 31.5t40 87.5q0 72 -88.5 104.5t-206.5 32.5v125q104 0 174.5 28.5t70.5 87.5q0 61 -33.5 80t-80.5 19q-39 0 -76 -9.5t-61 -21.5l-70 127q41 18 126 34.5t177 16.5q145 0 247.5 -43t102.5 -153 q0 -76 -63.5 -132.5t-124.5 -74.5q123 -25 182 -81t59 -147q0 -106 -106.5 -183t-325.5 -77q-135 0 -288 35z" />
<glyph unicode="&#xb4;" horiz-adv-x="757" d="M205 1276l295 270q33 27 60.5 40t64.5 13q39 0 64.5 -22.5t25.5 -56.5q0 -41 -20.5 -73t-55.5 -54l-344 -222z" />
<glyph unicode="&#xb5;" horiz-adv-x="1327" d="M113 -483v1507h409v-623q0 -57 34 -104t101 -47q145 0 146 190v584h409v-1024h-405v141q-76 -90 -148.5 -128t-150.5 -38q-37 0 -79 22.5t-58 47.5l-4 -4q51 -242 61 -306.5t10 -160.5z" />
<glyph unicode="&#xb6;" horiz-adv-x="1366" d="M61 1004q0 197 123 313.5t394 116.5h684v-1780h-279v1581h-127v-1581h-278v921q-270 0 -393.5 113t-123.5 316zM410 999q0 -92 58 -156.5t110 -64.5v457q-76 0 -122 -75t-46 -161z" />
<glyph unicode="&#xb8;" horiz-adv-x="696" d="M82 -485l55 135q49 -18 90 -19q49 0 67.5 16.5t18.5 45.5q0 31 -46 46t-103 15l121 266h170l-68 -139q59 0 110.5 -43t51.5 -119q0 -74 -95.5 -140t-299.5 -66z" />
<glyph unicode="&#xb9;" horiz-adv-x="985" d="M143 1366l254 92h283v-874h-324v706l-182 -69z" />
<glyph unicode="&#xba;" horiz-adv-x="909" d="M55 647v107h797v-107h-797zM55 1145q0 143 118 228t280 85t280.5 -85t118.5 -228t-111.5 -236.5t-287.5 -93.5t-287 92.5t-111 237.5zM346 1145q0 -86 23.5 -149.5t83.5 -63.5q59 0 83.5 63.5t24.5 149.5q0 80 -24.5 138t-83.5 58t-83 -57t-24 -139z" />
<glyph unicode="&#xbb;" horiz-adv-x="1138" d="M63 788l156 70l404 -364l-371 -377l-160 57l205 311zM557 788l156 70l403 -364l-371 -377l-159 57l205 311z" />
<glyph unicode="&#xbc;" horiz-adv-x="2009" d="M31 1366l254 92h282v-874h-323v706l-183 -69zM483 0l748 1434h201l-746 -1434h-203zM1133 176v127l477 557h270v-526h113v-158h-113v-176h-317v176h-430zM1352 334h211v264z" />
<glyph unicode="&#xbd;" horiz-adv-x="2009" d="M20 1366l254 92h283v-874h-324v706l-182 -69zM453 0l747 1434h201l-746 -1434h-202zM1192 133l108 84q127 96 222.5 207t95.5 197q0 29 -24.5 51t-65.5 22q-82 0 -215 -80l-96 144q86 53 175 84.5t197 31.5q158 0 265.5 -52t107.5 -171q0 -78 -44 -148.5t-179 -199.5 l-105 -104h338v-199h-778z" />
<glyph unicode="&#xbe;" horiz-adv-x="2009" d="M80 602l76 152q18 -12 72.5 -25.5t86.5 -13.5q70 0 110 31.5t40 87.5q0 72 -88 104.5t-207 32.5v125q104 0 175 28.5t71 87.5q0 61 -34 80t-81 19q-39 0 -76 -9.5t-61 -21.5l-70 127q41 18 126 34.5t177 16.5q145 0 248 -43t103 -153q0 -76 -63.5 -132.5t-125.5 -74.5 q123 -25 182.5 -81t59.5 -147q0 -106 -106.5 -183t-325.5 -77q-135 0 -289 35zM575 0l748 1434h201l-746 -1434h-203zM1122 176v127l477 557h271v-526h112v-158h-112v-176h-318v176h-430zM1341 334h211v264z" />
<glyph unicode="&#xbf;" horiz-adv-x="1175" d="M104 -152q0 104 107.5 238.5t202.5 249.5q41 63 60.5 116.5t25.5 116.5h311q2 -12 2 -24.5v-22.5q0 -72 -25.5 -139.5t-89 -176t-102.5 -181t-39 -144.5q0 -66 46 -98.5t108 -32.5q57 0 100 30t115 99l143 -164q-80 -88 -194.5 -142t-296.5 -54q-188 0 -331 87t-143 242z M487 858q0 78 56.5 134.5t134.5 56.5q76 0 133 -57.5t57 -133.5q0 -78 -56 -134t-134 -56q-74 0 -132.5 56t-58.5 134z" />
<glyph unicode="&#xc0;" horiz-adv-x="1519" d="M14 0l584 1434h363l544 -1434h-458l-113 342h-445l-137 -342h-338zM391 1880q0 96 113 97q16 0 44 -16.5t56 -39.5l264 -227l-90 -113l-327 183q-18 10 -39 45t-21 71zM563 569h301q-45 162 -76.5 277t-62.5 235q-43 -145 -83 -268t-79 -244z" />
<glyph unicode="&#xc1;" horiz-adv-x="1519" d="M14 0l584 1434h363l544 -1434h-458l-113 342h-445l-137 -342h-338zM563 569h301q-45 162 -76.5 277t-62.5 235q-43 -145 -83 -268t-79 -244zM635 1686l295 270q33 27 60.5 40t64.5 13q39 0 64.5 -22.5t25.5 -56.5q0 -41 -20.5 -73t-55.5 -54l-344 -222z" />
<glyph unicode="&#xc2;" horiz-adv-x="1519" d="M14 0l584 1434h363l544 -1434h-458l-113 342h-445l-137 -342h-338zM391 1581l256 312h225l256 -312h-155l-213 152l-216 -152h-153zM563 569h301q-45 162 -76.5 277t-62.5 235q-43 -145 -83 -268t-79 -244z" />
<glyph unicode="&#xc3;" horiz-adv-x="1519" d="M14 0l584 1434h363l544 -1434h-458l-113 342h-445l-137 -342h-338zM426 1581q41 256 225 256q49 0 88 -12q37 -16 74 -31q49 -27 81.5 -42t61.5 -15q41 0 67.5 36t33.5 75h120q0 -115 -61.5 -191t-142.5 -76q-49 0 -83 9.5t-116 38.5q-45 20 -79 33.5t-56 13.5 q-41 0 -65.5 -29t-24.5 -66h-123zM563 569h301q-45 162 -76.5 277t-62.5 235q-43 -145 -83 -268t-79 -244z" />
<glyph unicode="&#xc4;" horiz-adv-x="1519" d="M14 0l584 1434h363l544 -1434h-458l-113 342h-445l-137 -342h-338zM408 1633q0 53 41 94t92 41q55 0 95 -40t40 -95q0 -53 -40 -93t-95 -40q-53 0 -93 40t-40 93zM563 569h301q-45 162 -76.5 277t-62.5 235q-43 -145 -83 -268t-79 -244zM904 1633q0 53 41 94t92 41 q55 0 95 -40t40 -95q0 -53 -40 -93t-95 -40q-53 0 -93 40t-40 93z" />
<glyph unicode="&#xc5;" horiz-adv-x="1519" d="M14 0l584 1434h363l544 -1434h-458l-113 342h-445l-137 -342h-338zM563 569h301q-45 162 -76.5 277t-62.5 235q-43 -145 -83 -268t-79 -244zM594 1764q0 84 61.5 145.5t147.5 61.5q84 0 143.5 -61.5t59.5 -145.5t-59.5 -143.5t-147.5 -59.5q-80 0 -142.5 60.5 t-62.5 142.5zM713 1766q0 -35 25.5 -64.5t60.5 -29.5t61.5 28.5t26.5 65.5t-24.5 65.5t-63.5 28.5q-37 0 -61.5 -26.5t-24.5 -67.5z" />
<glyph unicode="&#xc6;" horiz-adv-x="1992" d="M14 0l770 1434h1063v-269h-438v-282h428v-269h-428v-346h526v-268h-958v342h-459l-184 -342h-320zM639 569h338v623z" />
<glyph unicode="&#xc7;" horiz-adv-x="1366" d="M84 731q0 324 236.5 525.5t607.5 201.5q80 0 186.5 -19.5t179.5 -52.5l-106 -253q-43 12 -120 19t-118 7q-172 0 -293.5 -112.5t-121.5 -331.5q0 -215 125.5 -328t310.5 -113q61 0 123.5 9.5t119.5 23.5l84 -268q-63 -25 -158.5 -44.5t-187.5 -19.5q-369 0 -618.5 206 t-249.5 550zM418 -485l55 135q49 -18 90 -19q49 0 67.5 16.5t18.5 45.5q0 31 -46 46t-103 15l121 266h170l-68 -139q59 0 110.5 -43t51.5 -119q0 -74 -95.5 -140t-299.5 -66z" />
<glyph unicode="&#xc8;" horiz-adv-x="1138" d="M123 0v1434h870v-269h-438v-282h428v-269h-428v-346h526v-268h-958zM200 1880q0 96 113 97q16 0 44 -16.5t56 -39.5l264 -227l-90 -113l-327 183q-18 10 -39 45t-21 71z" />
<glyph unicode="&#xc9;" horiz-adv-x="1138" d="M123 0v1434h870v-269h-438v-282h428v-269h-428v-346h526v-268h-958zM445 1686l295 270q33 27 60.5 40t64.5 13q39 0 64.5 -22.5t25.5 -56.5q0 -41 -20.5 -73t-55.5 -54l-344 -222z" />
<glyph unicode="&#xca;" horiz-adv-x="1138" d="M123 0v1434h870v-269h-438v-282h428v-269h-428v-346h526v-268h-958zM201 1581l256 312h225l256 -312h-155l-213 152l-216 -152h-153z" />
<glyph unicode="&#xcb;" horiz-adv-x="1138" d="M123 0v1434h870v-269h-438v-282h428v-269h-428v-346h526v-268h-958zM217 1633q0 53 41 94t92 41q55 0 95 -40t40 -95q0 -53 -40 -93t-95 -40q-53 0 -93 40t-40 93zM713 1633q0 53 41 94t92 41q55 0 95 -40t40 -95q0 -53 -40 -93t-95 -40q-53 0 -93 40t-40 93z" />
<glyph unicode="&#xcc;" horiz-adv-x="677" d="M-29 1880q0 96 113 97q16 0 44 -16.5t56 -39.5l264 -227l-90 -113l-327 183q-18 10 -39 45t-21 71zM123 0v1434h432v-1434h-432z" />
<glyph unicode="&#xcd;" horiz-adv-x="677" d="M123 0v1434h432v-1434h-432zM215 1686l295 270q33 27 60.5 40t64.5 13q39 0 64.5 -22.5t25.5 -56.5q0 -41 -20.5 -73t-55.5 -54l-344 -222z" />
<glyph unicode="&#xce;" horiz-adv-x="677" d="M-31 1581l256 312h225l256 -312h-155l-213 152l-216 -152h-153zM123 0v1434h432v-1434h-432z" />
<glyph unicode="&#xcf;" horiz-adv-x="677" d="M-12 1633q0 53 41 94t92 41q55 0 95 -40t40 -95q0 -53 -40 -93t-95 -40q-53 0 -93 40t-40 93zM123 0v1434h432v-1434h-432zM484 1633q0 53 41 94t92 41q55 0 95 -40t40 -95q0 -53 -40 -93t-95 -40q-53 0 -93 40t-40 93z" />
<glyph unicode="&#xd0;" horiz-adv-x="1554" d="M-33 643v209h156v582h557q403 0 599 -193.5t196 -482.5q0 -373 -231.5 -565.5t-579.5 -192.5h-541v643h-156zM555 268h111q180 0 272 132t92 356q0 188 -100.5 298.5t-249.5 110.5h-125v-313h131v-209h-131v-375z" />
<glyph unicode="&#xd1;" horiz-adv-x="1521" d="M123 0v1434h313q178 -217 278.5 -343t196 -255t144.5 -224l4 822h340v-1434h-289q-188 227 -282.5 343t-195 250t-165.5 247l-4 -840h-340zM426 1581q41 256 225 256q49 0 88 -12q37 -16 74 -31q49 -27 81.5 -42t61.5 -15q41 0 67.5 36t33.5 75h120q0 -115 -61.5 -191 t-142.5 -76q-49 0 -83 9.5t-116 38.5q-45 20 -79 33.5t-56 13.5q-41 0 -65.5 -29t-24.5 -66h-123z" />
<glyph unicode="&#xd2;" horiz-adv-x="1593" d="M84 733q0 305 202.5 515t510.5 210q305 0 508.5 -210t203.5 -515q0 -328 -194.5 -543t-517.5 -215q-326 0 -519.5 214t-193.5 544zM428 1880q0 96 113 97q16 0 44 -16.5t56 -39.5l264 -227l-90 -113l-327 183q-18 10 -39 45t-21 71zM535 733q0 -217 61 -338t201 -121 q137 0 199.5 121t62.5 338q0 199 -64.5 312.5t-197.5 113.5t-197.5 -112.5t-64.5 -313.5z" />
<glyph unicode="&#xd3;" horiz-adv-x="1593" d="M84 733q0 305 202.5 515t510.5 210q305 0 508.5 -210t203.5 -515q0 -328 -194.5 -543t-517.5 -215q-326 0 -519.5 214t-193.5 544zM535 733q0 -217 61 -338t201 -121q137 0 199.5 121t62.5 338q0 199 -64.5 312.5t-197.5 113.5t-197.5 -112.5t-64.5 -313.5zM672 1686 l295 270q33 27 60.5 40t64.5 13q39 0 64.5 -22.5t25.5 -56.5q0 -41 -20.5 -73t-55.5 -54l-344 -222z" />
<glyph unicode="&#xd4;" horiz-adv-x="1593" d="M84 733q0 305 202.5 515t510.5 210q305 0 508.5 -210t203.5 -515q0 -328 -194.5 -543t-517.5 -215q-326 0 -519.5 214t-193.5 544zM428 1581l256 312h225l256 -312h-155l-213 152l-216 -152h-153zM535 733q0 -217 61 -338t201 -121q137 0 199.5 121t62.5 338 q0 199 -64.5 312.5t-197.5 113.5t-197.5 -112.5t-64.5 -313.5z" />
<glyph unicode="&#xd5;" horiz-adv-x="1593" d="M84 733q0 305 202.5 515t510.5 210q305 0 508.5 -210t203.5 -515q0 -328 -194.5 -543t-517.5 -215q-326 0 -519.5 214t-193.5 544zM463 1581q41 256 225 256q49 0 88 -12q37 -16 74 -31q49 -27 81.5 -42t61.5 -15q41 0 67.5 36t33.5 75h120q0 -115 -61.5 -191t-142.5 -76 q-49 0 -83 9.5t-116 38.5q-45 20 -79 33.5t-56 13.5q-41 0 -65.5 -29t-24.5 -66h-123zM535 733q0 -217 61 -338t201 -121q137 0 199.5 121t62.5 338q0 199 -64.5 312.5t-197.5 113.5t-197.5 -112.5t-64.5 -313.5z" />
<glyph unicode="&#xd6;" horiz-adv-x="1593" d="M84 733q0 305 202.5 515t510.5 210q305 0 508.5 -210t203.5 -515q0 -328 -194.5 -543t-517.5 -215q-326 0 -519.5 214t-193.5 544zM444 1633q0 53 41 94t92 41q55 0 95 -40t40 -95q0 -53 -40 -93t-95 -40q-53 0 -93 40t-40 93zM535 733q0 -217 61 -338t201 -121 q137 0 199.5 121t62.5 338q0 199 -64.5 312.5t-197.5 113.5t-197.5 -112.5t-64.5 -313.5zM940 1633q0 53 41 94t92 41q55 0 95 -40t40 -95q0 -53 -40 -93t-95 -40q-53 0 -93 40t-40 93z" />
<glyph unicode="&#xd7;" d="M209 223l295 295l-295 295l139 139l295 -295l295 295l139 -139l-295 -295l295 -295l-139 -139l-295 295l-295 -295z" />
<glyph unicode="&#xd8;" horiz-adv-x="1593" d="M6 96l197 193q-119 188 -119 444q0 305 202.5 515t510.5 210q129 0 244.5 -42t207.5 -118l185 181l155 -142l-200 -190q121 -188 120 -414q0 -328 -194.5 -543t-517.5 -215q-139 0 -254 40t-207 120l-178 -170zM535 733q0 -74 6 -115l452 429q-63 113 -196 112 q-133 0 -197.5 -112.5t-64.5 -313.5zM600 393q61 -119 197 -119q137 0 199.5 121t62.5 338l-6 88z" />
<glyph unicode="&#xd9;" horiz-adv-x="1478" d="M117 557v877h432v-750q0 -213 45 -311.5t176 -98.5q109 0 167 106.5t58 309.5v744h373v-867q0 -301 -174 -446.5t-444 -145.5q-297 0 -465 137.5t-168 444.5zM370 1880q0 96 113 97q16 0 44 -16.5t56 -39.5l264 -227l-90 -113l-327 183q-18 10 -39 45t-21 71z" />
<glyph unicode="&#xda;" horiz-adv-x="1478" d="M117 557v877h432v-750q0 -213 45 -311.5t176 -98.5q109 0 167 106.5t58 309.5v744h373v-867q0 -301 -174 -446.5t-444 -145.5q-297 0 -465 137.5t-168 444.5zM615 1686l295 270q33 27 60.5 40t64.5 13q39 0 64.5 -22.5t25.5 -56.5q0 -41 -20.5 -73t-55.5 -54l-344 -222z " />
<glyph unicode="&#xdb;" horiz-adv-x="1478" d="M117 557v877h432v-750q0 -213 45 -311.5t176 -98.5q109 0 167 106.5t58 309.5v744h373v-867q0 -301 -174 -446.5t-444 -145.5q-297 0 -465 137.5t-168 444.5zM371 1581l256 312h225l256 -312h-155l-213 152l-216 -152h-153z" />
<glyph unicode="&#xdc;" horiz-adv-x="1478" d="M117 557v877h432v-750q0 -213 45 -311.5t176 -98.5q109 0 167 106.5t58 309.5v744h373v-867q0 -301 -174 -446.5t-444 -145.5q-297 0 -465 137.5t-168 444.5zM387 1633q0 53 41 94t92 41q55 0 95 -40t40 -95q0 -53 -40 -93t-95 -40q-53 0 -93 40t-40 93zM883 1633 q0 53 41 94t92 41q55 0 95 -40t40 -95q0 -53 -40 -93t-95 -40q-53 0 -93 40t-40 93z" />
<glyph unicode="&#xdd;" horiz-adv-x="1400" d="M49 1413l465 41q70 -176 123 -322.5t98 -306.5q61 168 123 312.5t141 316.5l344 -41l-440 -856v-557h-432v557zM576 1686l295 270q33 27 60.5 40t64.5 13q39 0 64.5 -22.5t25.5 -56.5q0 -41 -20.5 -73t-55.5 -54l-344 -222z" />
<glyph unicode="&#xde;" horiz-adv-x="1366" d="M123 0v1434h432v-230h113q315 0 467.5 -120.5t152.5 -338.5q0 -199 -162.5 -351t-449.5 -152h-121v-242h-432zM555 463q131 0 216 65.5t85 216.5q0 117 -74.5 172.5t-210.5 55.5h-16v-510z" />
<glyph unicode="&#xdf;" horiz-adv-x="1486" d="M123 0v1063q0 197 150.5 319.5t437.5 122.5q199 0 349 -95t150 -228q0 -74 -70.5 -208t-70.5 -163q0 -80 41 -119t148.5 -116.5t137 -144t29.5 -120.5q-2 -25 -2 -28q0 -96 -114.5 -202t-307.5 -106q-111 0 -210 21.5t-175 75.5l86 209q53 -31 117 -61t105 -30 q96 0 96 89q0 47 -60.5 91t-140.5 97t-118.5 120.5t-38.5 149.5q0 74 94 199t94 199q0 82 -38 115.5t-99 33.5q-88 0 -134.5 -84t-46.5 -225v-975h-409z" />
<glyph unicode="&#xe0;" horiz-adv-x="1212" d="M74 281q0 162 94 252t311 143l236 57q-20 43 -68.5 73t-99.5 30q-82 0 -145.5 -28t-125.5 -83l-112 184q113 76 227.5 108t229.5 32q217 0 353 -94.5t136 -333.5v-371q0 -78 7 -135.5t28 -114.5h-426q-18 41 -19 111l-57 -31q-66 -35 -131 -68q-82 -37 -141 -37 q-113 0 -205 87.5t-92 218.5zM237 1470q0 96 113 97q16 0 44 -16.5t56 -39.5l264 -227l-90 -113l-327 183q-18 10 -39 45t-21 71zM444 336q0 -49 33 -84t74 -35q63 0 112.5 90t49.5 279l-117 -45q-68 -23 -110 -78t-42 -127z" />
<glyph unicode="&#xe1;" horiz-adv-x="1212" d="M74 281q0 162 94 252t311 143l236 57q-20 43 -68.5 73t-99.5 30q-82 0 -145.5 -28t-125.5 -83l-112 184q113 76 227.5 108t229.5 32q217 0 353 -94.5t136 -333.5v-371q0 -78 7 -135.5t28 -114.5h-426q-18 41 -19 111l-57 -31q-66 -35 -131 -68q-82 -37 -141 -37 q-113 0 -205 87.5t-92 218.5zM432 1276l295 270q33 27 60.5 40t64.5 13q39 0 64.5 -22.5t25.5 -56.5q0 -41 -20.5 -73t-55.5 -54l-344 -222zM444 336q0 -49 33 -84t74 -35q63 0 112.5 90t49.5 279l-117 -45q-68 -23 -110 -78t-42 -127z" />
<glyph unicode="&#xe2;" horiz-adv-x="1212" d="M74 281q0 162 94 252t311 143l236 57q-20 43 -68.5 73t-99.5 30q-82 0 -145.5 -28t-125.5 -83l-112 184q113 76 227.5 108t229.5 32q217 0 353 -94.5t136 -333.5v-371q0 -78 7 -135.5t28 -114.5h-426q-18 41 -19 111l-57 -31q-66 -35 -131 -68q-82 -37 -141 -37 q-113 0 -205 87.5t-92 218.5zM238 1171l256 312h225l256 -312h-155l-213 152l-216 -152h-153zM444 336q0 -49 33 -84t74 -35q63 0 112.5 90t49.5 279l-117 -45q-68 -23 -110 -78t-42 -127z" />
<glyph unicode="&#xe3;" horiz-adv-x="1212" d="M74 281q0 162 94 252t311 143l236 57q-20 43 -68.5 73t-99.5 30q-82 0 -145.5 -28t-125.5 -83l-112 184q113 76 227.5 108t229.5 32q217 0 353 -94.5t136 -333.5v-371q0 -78 7 -135.5t28 -114.5h-426q-18 41 -19 111l-57 -31q-66 -35 -131 -68q-82 -37 -141 -37 q-113 0 -205 87.5t-92 218.5zM232 1171q41 256 225 256q49 0 88 -12q37 -16 74 -31q49 -27 81.5 -42t61.5 -15q41 0 67.5 36t33.5 75h120q0 -115 -61.5 -191t-142.5 -76q-49 0 -83 9.5t-116 38.5q-45 20 -79 33.5t-56 13.5q-41 0 -65.5 -29t-24.5 -66h-123zM444 336 q0 -49 33 -84t74 -35q63 0 112.5 90t49.5 279l-117 -45q-68 -23 -110 -78t-42 -127z" />
<glyph unicode="&#xe4;" horiz-adv-x="1212" d="M74 281q0 162 94 252t311 143l236 57q-20 43 -68.5 73t-99.5 30q-82 0 -145.5 -28t-125.5 -83l-112 184q113 76 227.5 108t229.5 32q217 0 353 -94.5t136 -333.5v-371q0 -78 7 -135.5t28 -114.5h-426q-18 41 -19 111l-57 -31q-66 -35 -131 -68q-82 -37 -141 -37 q-113 0 -205 87.5t-92 218.5zM223 1223q0 53 41 94t92 41q55 0 95 -40t40 -95q0 -53 -40 -93t-95 -40q-53 0 -93 40t-40 93zM444 336q0 -49 33 -84t74 -35q63 0 112.5 90t49.5 279l-117 -45q-68 -23 -110 -78t-42 -127zM719 1223q0 53 41 94t92 41q55 0 95 -40t40 -95 q0 -53 -40 -93t-95 -40q-53 0 -93 40t-40 93z" />
<glyph unicode="&#xe5;" horiz-adv-x="1212" d="M74 281q0 162 94 252t311 143l236 57q-20 43 -68.5 73t-99.5 30q-82 0 -145.5 -28t-125.5 -83l-112 184q113 76 227.5 108t229.5 32q217 0 353 -94.5t136 -333.5v-371q0 -78 7 -135.5t28 -114.5h-426q-18 41 -19 111l-57 -31q-66 -35 -131 -68q-82 -37 -141 -37 q-113 0 -205 87.5t-92 218.5zM399 1354q0 84 61.5 145.5t147.5 61.5q84 0 143.5 -61.5t59.5 -145.5t-59.5 -143.5t-147.5 -59.5q-80 0 -142.5 60.5t-62.5 142.5zM444 336q0 -49 33 -84t74 -35q63 0 112.5 90t49.5 279l-117 -45q-68 -23 -110 -78t-42 -127zM518 1356 q0 -35 25.5 -64.5t60.5 -29.5t61.5 28.5t26.5 65.5t-24.5 65.5t-63.5 28.5q-37 0 -61.5 -26.5t-24.5 -67.5z" />
<glyph unicode="&#xe6;" horiz-adv-x="1816" d="M74 281q0 162 94 252t311 143l236 57q-20 43 -68.5 73t-99.5 30q-82 0 -145.5 -28t-125.5 -83l-112 184q113 76 227.5 108t229.5 32q102 0 184 -17.5t147 -64.5q137 82 330 82q225 0 352 -135.5t127 -366.5v-51q-4 -23 -4 -33h-620q0 -117 71.5 -180.5t167.5 -63.5 q74 0 144.5 21.5t124.5 52.5l112 -209q-129 -61 -254 -85t-241 -24q-121 0 -238 59.5t-178 170.5l-203 -125q-66 -35 -131 -68q-82 -37 -141 -37q-113 0 -205 87.5t-92 218.5zM444 336q0 -49 33 -84t74 -35q63 0 112.5 90t49.5 279l-117 -45q-68 -23 -110 -78t-42 -127z M1141 637h272q0 129 -32.5 185.5t-108.5 56.5q-131 0 -131 -242z" />
<glyph unicode="&#xe7;" horiz-adv-x="1058" d="M61 496q0 250 181.5 401.5t451.5 151.5q80 0 164 -22.5t160 -68.5l-107 -208q-86 37 -172 36q-109 0 -177 -68.5t-68 -209.5q0 -139 76.5 -204.5t164.5 -65.5q43 0 86 9t78 23l102 -217q-76 -39 -162.5 -58.5t-168.5 -19.5q-268 0 -438.5 142.5t-170.5 378.5zM264 -485 l55 135q49 -18 90 -19q49 0 67.5 16.5t18.5 45.5q0 31 -46 46t-103 15l121 266h170l-68 -139q59 0 110.5 -43t51.5 -119q0 -74 -95.5 -140t-299.5 -66z" />
<glyph unicode="&#xe8;" horiz-adv-x="1171" d="M61 532q0 209 150.5 363t425.5 154q225 0 352 -135.5t127 -366.5v-51q-4 -23 -4 -33h-620q0 -117 71.5 -180.5t167.5 -63.5q74 0 144.5 21.5t123.5 52.5l113 -209q-129 -61 -254 -85t-242 -24q-221 0 -388 167t-167 390zM217 1470q0 96 113 97q16 0 44 -16.5t56 -39.5 l264 -227l-90 -113l-327 183q-18 10 -39 45t-21 71zM496 637h272q0 129 -33 185.5t-108 56.5q-131 0 -131 -242z" />
<glyph unicode="&#xe9;" horiz-adv-x="1171" d="M61 532q0 209 150.5 363t425.5 154q225 0 352 -135.5t127 -366.5v-51q-4 -23 -4 -33h-620q0 -117 71.5 -180.5t167.5 -63.5q74 0 144.5 21.5t123.5 52.5l113 -209q-129 -61 -254 -85t-242 -24q-221 0 -388 167t-167 390zM412 1276l295 270q33 27 60.5 40t64.5 13 q39 0 64.5 -22.5t25.5 -56.5q0 -41 -20.5 -73t-55.5 -54l-344 -222zM496 637h272q0 129 -33 185.5t-108 56.5q-131 0 -131 -242z" />
<glyph unicode="&#xea;" horiz-adv-x="1171" d="M61 532q0 209 150.5 363t425.5 154q225 0 352 -135.5t127 -366.5v-51q-4 -23 -4 -33h-620q0 -117 71.5 -180.5t167.5 -63.5q74 0 144.5 21.5t123.5 52.5l113 -209q-129 -61 -254 -85t-242 -24q-221 0 -388 167t-167 390zM217 1171l256 312h225l256 -312h-155l-213 152 l-216 -152h-153zM496 637h272q0 129 -33 185.5t-108 56.5q-131 0 -131 -242z" />
<glyph unicode="&#xeb;" horiz-adv-x="1171" d="M61 532q0 209 150.5 363t425.5 154q225 0 352 -135.5t127 -366.5v-51q-4 -23 -4 -33h-620q0 -117 71.5 -180.5t167.5 -63.5q74 0 144.5 21.5t123.5 52.5l113 -209q-129 -61 -254 -85t-242 -24q-221 0 -388 167t-167 390zM203 1223q0 53 41 94t92 41q55 0 95 -40t40 -95 q0 -53 -40 -93t-95 -40q-53 0 -93 40t-40 93zM496 637h272q0 129 -33 185.5t-108 56.5q-131 0 -131 -242zM699 1223q0 53 41 94t92 41q55 0 95 -40t40 -95q0 -53 -40 -93t-95 -40q-53 0 -93 40t-40 93z" />
<glyph unicode="&#xec;" horiz-adv-x="655" d="M-41 1470q0 96 113 97q16 0 44 -16.5t56 -39.5l264 -227l-90 -113l-327 183q-18 10 -39 45t-21 71zM123 0v1024h409v-1024h-409z" />
<glyph unicode="&#xed;" horiz-adv-x="655" d="M123 0v1024h409v-1024h-409zM154 1276l295 270q33 27 60.5 40t64.5 13q39 0 64.5 -22.5t25.5 -56.5q0 -41 -20.5 -73t-55.5 -54l-344 -222z" />
<glyph unicode="&#xee;" horiz-adv-x="655" d="M-41 1171l256 312h225l256 -312h-155l-213 152l-216 -152h-153zM123 0v1024h409v-1024h-409z" />
<glyph unicode="&#xef;" horiz-adv-x="655" d="M-55 1223q0 53 41 94t92 41q55 0 95 -40t40 -95q0 -53 -40 -93t-95 -40q-53 0 -93 40t-40 93zM123 0v1024h409v-1024h-409zM441 1223q0 53 41 94t92 41q55 0 95 -40t40 -95q0 -53 -40 -93t-95 -40q-53 0 -93 40t-40 93z" />
<glyph unicode="&#xf1;" horiz-adv-x="1359" d="M123 0v1024h405v-115q63 70 146.5 105t195.5 35q367 0 367 -390v-659h-410v643q0 57 -33.5 103.5t-97.5 46.5q-164 0 -164 -195v-598h-409zM305 1171q41 256 225 256q49 0 88 -12q37 -16 74 -31q49 -27 81.5 -42t61.5 -15q41 0 67.5 36t33.5 75h120q0 -115 -61.5 -191 t-142.5 -76q-49 0 -83 9.5t-116 38.5q-45 20 -79 33.5t-56 13.5q-41 0 -65.5 -29t-24.5 -66h-123z" />
<glyph unicode="&#xf2;" horiz-adv-x="1300" d="M61 524q0 240 174.5 382.5t413.5 142.5q240 0 415 -142.5t175 -382.5t-164 -394.5t-426 -154.5q-260 0 -424 154.5t-164 394.5zM282 1470q0 96 113 97q16 0 44 -16.5t56 -39.5l264 -227l-90 -113l-327 183q-18 10 -39 45t-21 71zM477 524q0 -152 38 -259t134 -107 q92 0 133 111.5t41 254.5q0 137 -41 239.5t-133 102.5q-90 0 -131 -102.5t-41 -239.5z" />
<glyph unicode="&#xf3;" horiz-adv-x="1300" d="M61 524q0 240 174.5 382.5t413.5 142.5q240 0 415 -142.5t175 -382.5t-164 -394.5t-426 -154.5q-260 0 -424 154.5t-164 394.5zM477 524q0 -152 38 -259t134 -107q92 0 133 111.5t41 254.5q0 137 -41 239.5t-133 102.5q-90 0 -131 -102.5t-41 -239.5zM477 1276l295 270 q33 27 60.5 40t64.5 13q39 0 64.5 -22.5t25.5 -56.5q0 -41 -20.5 -73t-55.5 -54l-344 -222z" />
<glyph unicode="&#xf4;" horiz-adv-x="1300" d="M61 524q0 240 174.5 382.5t413.5 142.5q240 0 415 -142.5t175 -382.5t-164 -394.5t-426 -154.5q-260 0 -424 154.5t-164 394.5zM281 1171l256 312h225l256 -312h-155l-213 152l-216 -152h-153zM477 524q0 -152 38 -259t134 -107q92 0 133 111.5t41 254.5q0 137 -41 239.5 t-133 102.5q-90 0 -131 -102.5t-41 -239.5z" />
<glyph unicode="&#xf5;" horiz-adv-x="1300" d="M61 524q0 240 174.5 382.5t413.5 142.5q240 0 415 -142.5t175 -382.5t-164 -394.5t-426 -154.5q-260 0 -424 154.5t-164 394.5zM275 1171q41 256 225 256q49 0 88 -12q37 -16 74 -31q49 -27 81.5 -42t61.5 -15q41 0 67.5 36t33.5 75h120q0 -115 -61.5 -191t-142.5 -76 q-49 0 -83 9.5t-116 38.5q-45 20 -79 33.5t-56 13.5q-41 0 -65.5 -29t-24.5 -66h-123zM477 524q0 -152 38 -259t134 -107q92 0 133 111.5t41 254.5q0 137 -41 239.5t-133 102.5q-90 0 -131 -102.5t-41 -239.5z" />
<glyph unicode="&#xf6;" horiz-adv-x="1300" d="M61 524q0 240 174.5 382.5t413.5 142.5q240 0 415 -142.5t175 -382.5t-164 -394.5t-426 -154.5q-260 0 -424 154.5t-164 394.5zM268 1223q0 53 41 94t92 41q55 0 95 -40t40 -95q0 -53 -40 -93t-95 -40q-53 0 -93 40t-40 93zM477 524q0 -152 38 -259t134 -107 q92 0 133 111.5t41 254.5q0 137 -41 239.5t-133 102.5q-90 0 -131 -102.5t-41 -239.5zM764 1223q0 53 41 94t92 41q55 0 95 -40t40 -95q0 -53 -40 -93t-95 -40q-53 0 -93 40t-40 93z" />
<glyph unicode="&#xf7;" d="M129 420v196h1032v-196h-1032zM455 53q0 78 56 134.5t134 56.5q76 0 133.5 -57.5t57.5 -133.5q0 -78 -56.5 -134t-134.5 -56q-74 0 -132 56t-58 134zM455 983q0 78 56 134.5t134 56.5q76 0 133.5 -57.5t57.5 -133.5q0 -78 -56.5 -134t-134.5 -56q-74 0 -132 56t-58 134z " />
<glyph unicode="&#xf8;" horiz-adv-x="1300" d="M33 117l119 98q-90 131 -91 309q0 240 174.5 382.5t413.5 142.5q207 0 367 -107l141 119l135 -139l-139 -117q86 -121 86 -281q0 -240 -164 -394.5t-426 -154.5q-104 0 -194 26t-162 77l-129 -111zM477 496l314 254q-27 53 -61 84.5t-81 31.5q-92 0 -132 -105.5 t-40 -264.5zM512 270q31 -55 61.5 -83.5t75.5 -28.5q98 0 136 107.5t38 258.5z" />
<glyph unicode="&#xf9;" horiz-adv-x="1318" d="M102 365v659h410v-623q0 -59 33 -105t98 -46q70 0 106.5 52t36.5 138v584h410v-1024h-405v141q-68 -82 -154 -124t-195 -42q-164 0 -252 98.5t-88 291.5zM291 1470q0 96 113 97q16 0 44 -16.5t56 -39.5l264 -227l-90 -113l-327 183q-18 10 -39 45t-21 71z" />
<glyph unicode="&#xfa;" horiz-adv-x="1318" d="M102 365v659h410v-623q0 -59 33 -105t98 -46q70 0 106.5 52t36.5 138v584h410v-1024h-405v141q-68 -82 -154 -124t-195 -42q-164 0 -252 98.5t-88 291.5zM486 1276l295 270q33 27 60.5 40t64.5 13q39 0 64.5 -22.5t25.5 -56.5q0 -41 -20.5 -73t-55.5 -54l-344 -222z" />
<glyph unicode="&#xfb;" horiz-adv-x="1318" d="M102 365v659h410v-623q0 -59 33 -105t98 -46q70 0 106.5 52t36.5 138v584h410v-1024h-405v141q-68 -82 -154 -124t-195 -42q-164 0 -252 98.5t-88 291.5zM291 1171l256 312h225l256 -312h-155l-213 152l-216 -152h-153z" />
<glyph unicode="&#xfc;" horiz-adv-x="1318" d="M102 365v659h410v-623q0 -59 33 -105t98 -46q70 0 106.5 52t36.5 138v584h410v-1024h-405v141q-68 -82 -154 -124t-195 -42q-164 0 -252 98.5t-88 291.5zM276 1223q0 53 41 94t92 41q55 0 95 -40t40 -95q0 -53 -40 -93t-95 -40q-53 0 -93 40t-40 93zM772 1223q0 53 41 94 t92 41q55 0 95 -40t40 -95q0 -53 -40 -93t-95 -40q-53 0 -93 40t-40 93z" />
<glyph unicode="&#xfd;" horiz-adv-x="1138" d="M-14 -260h71q106 0 181 57.5t127 274.5l-355 923l412 49q70 -231 104.5 -353t73.5 -300q49 174 97 322.5t114 330.5l319 -51l-495 -1120q-80 -178 -193.5 -281.5t-306.5 -103.5h-149v252zM395 1276l295 270q33 27 60.5 40t64.5 13q39 0 64.5 -22.5t25.5 -56.5 q0 -41 -20.5 -73t-55.5 -54l-344 -222z" />
<glyph unicode="&#xfe;" horiz-adv-x="1366" d="M123 -512v2017h409v-594q53 59 138.5 98.5t179.5 39.5q193 0 324 -133.5t131 -399.5q0 -205 -128 -373t-356 -168q-88 0 -158.5 36t-130.5 102v-625h-409zM530 506q0 -135 39 -229.5t125 -94.5q80 0 127 89t47 241q0 150 -45 233.5t-121 83.5q-84 0 -128 -88t-44 -235z " />
<glyph unicode="&#xff;" horiz-adv-x="1138" d="M-14 -260h71q106 0 181 57.5t127 274.5l-355 923l412 49q70 -231 104.5 -353t73.5 -300q49 174 97 322.5t114 330.5l319 -51l-495 -1120q-80 -178 -193.5 -281.5t-306.5 -103.5h-149v252zM186 1223q0 53 41 94t92 41q55 0 95 -40t40 -95q0 -53 -40 -93t-95 -40 q-53 0 -93 40t-40 93zM682 1223q0 53 41 94t92 41q55 0 95 -40t40 -95q0 -53 -40 -93t-95 -40q-53 0 -93 40t-40 93z" />
<glyph unicode="&#x152;" horiz-adv-x="2084" d="M84 733q0 303 196.5 514t491.5 211q68 0 138.5 -6t156.5 -18h872v-269h-438v-282h428v-269h-428v-346h527v-268h-961q-78 -10 -152.5 -17.5t-142.5 -7.5q-313 0 -500.5 214t-187.5 544zM539 733q0 -221 67.5 -340t235.5 -119q45 0 112.5 14.5t114.5 47.5v774 q-78 33 -128 41t-99 8q-158 0 -230.5 -112.5t-72.5 -313.5z" />
<glyph unicode="&#x153;" horiz-adv-x="1992" d="M61 524q0 240 185.5 382.5t445.5 142.5q225 0 395 -109q68 49 163.5 79t207.5 30q225 0 352 -135.5t127 -366.5v-51q-4 -23 -4 -33h-620q0 -117 71.5 -180.5t167.5 -63.5q74 0 144.5 21.5t124.5 52.5l112 -209q-129 -61 -254 -85t-241 -24q-98 0 -184.5 39t-166.5 129 q-84 -78 -187 -123t-208 -45q-301 0 -466 152t-165 397zM500 524q0 -145 45 -254.5t147 -109.5t146.5 108.5t44.5 255.5q0 141 -44 241.5t-147 100.5q-100 0 -146 -102.5t-46 -239.5zM1317 637h272q0 129 -32.5 185.5t-108.5 56.5q-131 0 -131 -242z" />
<glyph unicode="&#x178;" horiz-adv-x="1400" d="M49 1413l465 41q70 -176 123 -322.5t98 -306.5q61 168 123 312.5t141 316.5l344 -41l-440 -856v-557h-432v557zM348 1633q0 53 41 94t92 41q55 0 95 -40t40 -95q0 -53 -40 -93t-95 -40q-53 0 -93 40t-40 93zM844 1633q0 53 41 94t92 41q55 0 95 -40t40 -95q0 -53 -40 -93 t-95 -40q-53 0 -93 40t-40 93z" />
<glyph unicode="&#x2000;" horiz-adv-x="1004" />
<glyph unicode="&#x2001;" horiz-adv-x="2009" />
<glyph unicode="&#x2002;" horiz-adv-x="1004" />
<glyph unicode="&#x2003;" horiz-adv-x="2009" />
<glyph unicode="&#x2004;" horiz-adv-x="669" />
<glyph unicode="&#x2005;" horiz-adv-x="502" />
<glyph unicode="&#x2006;" horiz-adv-x="334" />
<glyph unicode="&#x2007;" horiz-adv-x="334" />
<glyph unicode="&#x2008;" horiz-adv-x="251" />
<glyph unicode="&#x2009;" horiz-adv-x="401" />
<glyph unicode="&#x200a;" horiz-adv-x="111" />
<glyph unicode="&#x2010;" horiz-adv-x="716" d="M86 393v189h510v-189h-510z" />
<glyph unicode="&#x2011;" horiz-adv-x="716" d="M86 393v189h510v-189h-510z" />
<glyph unicode="&#x2012;" horiz-adv-x="716" d="M86 393v189h510v-189h-510z" />
<glyph unicode="&#x2013;" horiz-adv-x="1024" d="M0 389v197h1024v-197h-1024z" />
<glyph unicode="&#x2014;" horiz-adv-x="2048" d="M0 389v197h2048v-197h-2048z" />
<glyph unicode="&#x2018;" horiz-adv-x="655" d="M119 1010q0 29 10 62.5t37 78.5l209 354l141 -51l-102 -340q-31 -100 -76 -151.5t-125 -51.5q-37 0 -65.5 25t-28.5 74z" />
<glyph unicode="&#x2019;" horiz-adv-x="655" d="M139 963l103 340q31 100 75.5 151t124.5 51q37 0 66 -24.5t29 -73.5q0 -29 -10.5 -62.5t-37.5 -78.5l-208 -355z" />
<glyph unicode="&#x201a;" horiz-adv-x="614" d="M72 -281l102 340q31 100 76 151.5t125 51.5q37 0 65.5 -24.5t28.5 -73.5q0 -29 -10 -62.5t-37 -78.5l-209 -355z" />
<glyph unicode="&#x201c;" horiz-adv-x="1126" d="M106 1010q0 29 10.5 62.5t37.5 78.5l208 354l142 -51l-103 -340q-31 -100 -75.5 -151.5t-124.5 -51.5q-37 0 -66 25t-29 74zM604 1010q0 29 10.5 62.5t36.5 78.5l209 354l141 -51l-102 -340q-31 -100 -76 -151.5t-125 -51.5q-37 0 -65.5 25t-28.5 74z" />
<glyph unicode="&#x201d;" horiz-adv-x="1126" d="M125 963l102 340q31 100 76 151t125 51q37 0 65.5 -24.5t28.5 -73.5q0 -29 -10 -62.5t-37 -78.5l-209 -355zM623 963l102 340q31 100 76 151t125 51q37 0 65.5 -24.5t28.5 -73.5q0 -29 -10.5 -62.5t-36.5 -78.5l-209 -355z" />
<glyph unicode="&#x201e;" horiz-adv-x="1126" d="M98 -281l103 340q31 100 76 151.5t124 51.5q37 0 66 -24.5t29 -73.5q0 -29 -10.5 -62.5t-36.5 -78.5l-209 -355zM569 -281l103 340q31 100 76 151.5t124 51.5q37 0 66 -24.5t29 -73.5q0 -29 -10.5 -62.5t-36.5 -78.5l-209 -355z" />
<glyph unicode="&#x2022;" horiz-adv-x="1062" d="M172 717q0 152 103.5 255t254.5 103q150 0 254.5 -104.5t104.5 -253.5q0 -150 -104.5 -254.5t-254.5 -104.5q-152 0 -255 103.5t-103 255.5z" />
<glyph unicode="&#x2026;" horiz-adv-x="2048" d="M152 166q0 78 56 134t134 56q76 0 133 -57t57 -133q0 -78 -56 -134.5t-134 -56.5q-74 0 -132 56.5t-58 134.5zM834 166q0 78 56 134t134 56q76 0 133 -57t57 -133q0 -78 -56 -134.5t-134 -56.5q-74 0 -132 56.5t-58 134.5zM1516 166q0 78 56 134t134 56q76 0 133 -57 t57 -133q0 -78 -56 -134.5t-134 -56.5q-74 0 -132 56.5t-58 134.5z" />
<glyph unicode="&#x202f;" horiz-adv-x="401" />
<glyph unicode="&#x2039;" horiz-adv-x="720" d="M49 481l371 377l160 -57l-205 -312l233 -303l-155 -69z" />
<glyph unicode="&#x203a;" horiz-adv-x="720" d="M113 788l155 70l404 -364l-371 -377l-160 57l205 311z" />
<glyph unicode="&#x205f;" horiz-adv-x="502" />
<glyph unicode="&#x2122;" horiz-adv-x="2123" d="M70 1257v177h790v-177h-244v-651h-303v651h-243zM963 606v828h417l136 -426l120 426h416v-828h-303v520l-170 -520h-199l-178 520h-2v-520h-237z" />
<glyph unicode="&#x25fc;" horiz-adv-x="1044" d="M0 0v1044h1044v-1044h-1044z" />
</font>
</defs>
</svg>
