<?xml version="1.0" encoding="utf-8"?>
<!-- Generator: Adobe Illustrator 16.0.0, SVG Export Plug-In . SVG Version: 6.00 Build 0)  -->
<!DOCTYPE svg PUBLIC "-//W3C//DTD SVG 1.1//EN" "http://www.w3.org/Graphics/SVG/1.1/DTD/svg11.dtd">
<svg version="1.1" id="Capa_1" xmlns="http://www.w3.org/2000/svg" xmlns:xlink="http://www.w3.org/1999/xlink" x="0px" y="0px"
	 width="52px" height="52px" viewBox="0 0 52 52" style="enable-background:new 0 0 52 52;" xml:space="preserve">
<style type="text/css">
<![CDATA[
	.st0{clip-path:url(#SVGID_96_);mask:url(#SVGID_97_);fill:url(#SVGID_99_);}
	.st1{clip-path:url(#SVGID_136_);fill:#003366;}
	.st2{clip-path:url(#SVGID_89_);mask:url(#SVGID_90_);fill:url(#SVGID_92_);}
	.st3{fill-rule:evenodd;clip-rule:evenodd;fill:#D6D6D6;}
	.st4{opacity:0.6;fill:#FFFFFF;}
	.st5{clip-path:url(#SVGID_158_);fill:url(#SVGID_160_);}
	.st6{clip-path:url(#SVGID_62_);fill:url(#SVGID_64_);}
	.st7{clip-path:url(#SVGID_8_);mask:url(#SVGID_9_);fill:url(#SVGID_11_);}
	.st8{fill:none;stroke:#00CCCC;stroke-miterlimit:10;}
	.st9{clip-path:url(#SVGID_75_);mask:url(#SVGID_76_);fill:url(#SVGID_78_);}
	.st10{clip-path:url(#SVGID_187_);fill:#FFFFFF;}
	.st11{clip-path:url(#SVGID_172_);fill:url(#SVGID_174_);}
	.st12{clip-path:url(#SVGID_163_);fill:#003366;}
	.st13{clip-path:url(#SVGID_89_);fill:url(#SVGID_91_);}
	.st14{fill:#E6E6E6;}
	.st15{filter:url(#Adobe_OpacityMaskFilter);}
	.st16{clip-path:url(#SVGID_131_);fill:#003366;}
	.st17{fill:none;stroke:#FFFFFF;stroke-width:2;stroke-miterlimit:10;}
	.st18{fill:#808080;}
	.st19{clip-path:url(#SVGID_80_);fill:#003366;}
	.st20{clip-path:url(#SVGID_43_);fill:#003366;}
	.st21{opacity:0.75;}
	.st22{opacity:0.53;fill:#FFFFFF;}
	.st23{clip-path:url(#SVGID_87_);fill:#003366;}
	.st24{fill-rule:evenodd;clip-rule:evenodd;fill:#7B7B7B;}
	.st25{fill:#00CCCC;stroke:#003366;stroke-width:3;stroke-miterlimit:10;}
	.st26{clip-path:url(#SVGID_143_);fill:#003366;}
	.st27{fill-rule:evenodd;clip-rule:evenodd;fill:#ABABAB;}
	.st28{fill:#1D8BBC;}
	.st29{clip-path:url(#SVGID_75_);fill:url(#SVGID_77_);}
	.st30{clip-path:url(#SVGID_187_);fill:#003366;}
	.st31{fill-rule:evenodd;clip-rule:evenodd;fill:#111111;}
	.st32{fill:none;stroke:#808080;stroke-width:3;stroke-miterlimit:10;}
	.st33{clip-path:url(#SVGID_96_);fill:url(#SVGID_98_);}
	.st34{filter:url(#Adobe_OpacityMaskFilter_10_);}
	.st35{filter:url(#Adobe_OpacityMaskFilter_11_);}
	.st36{filter:url(#Adobe_OpacityMaskFilter_12_);}
	.st37{filter:url(#Adobe_OpacityMaskFilter_13_);}
	.st38{filter:url(#Adobe_OpacityMaskFilter_14_);}
	.st39{filter:url(#Adobe_OpacityMaskFilter_15_);}
	.st40{filter:url(#Adobe_OpacityMaskFilter_16_);}
	.st41{clip-path:url(#SVGID_170_);fill:#003366;}
	.st42{clip-path:url(#SVGID_192_);fill:#003366;}
	.st43{fill:none;stroke:#003366;stroke-width:2;stroke-miterlimit:10;}
	.st44{clip-path:url(#SVGID_177_);fill:#003366;}
	.st45{fill:url(#);}
	.st46{clip-path:url(#SVGID_67_);fill:#003366;}
	.st47{fill-rule:evenodd;clip-rule:evenodd;fill:#4D4D4D;}
	.st48{opacity:0.49;fill:url(#);}
	.st49{fill-rule:evenodd;clip-rule:evenodd;fill:#E8E8E8;}
	.st50{fill:none;stroke:#00CCCC;stroke-width:3;stroke-miterlimit:10;}
	.st51{clip-path:url(#SVGID_101_);fill:#003366;}
	.st52{clip-path:url(#SVGID_24_);mask:url(#SVGID_25_);fill:url(#SVGID_27_);}
	.st53{clip-path:url(#SVGID_13_);fill:#003366;}
	.st54{display:inline;opacity:0.49;fill:url(#);}
	.st55{clip-path:url(#SVGID_94_);fill:#003366;}
	.st56{clip-path:url(#SVGID_82_);fill:url(#SVGID_84_);}
	.st57{clip-path:url(#SVGID_8_);fill:url(#SVGID_10_);}
	.st58{fill:url(#SVGID_125_);}
	.st59{fill:url(#SVGID_126_);}
	.st60{fill:url(#SVGID_127_);}
	.st61{fill:url(#SVGID_132_);}
	.st62{fill:url(#SVGID_133_);}
	.st63{fill:url(#SVGID_134_);}
	.st64{fill:url(#SVGID_188_);}
	.st65{fill:url(#SVGID_189_);}
	.st66{fill:url(#SVGID_190_);}
	.st67{clip-path:url(#SVGID_2_);}
	.st68{clip-path:url(#SVGID_4_);}
	.st69{clip-path:url(#SVGID_6_);}
	.st70{fill:#FFFFFF;stroke:#003366;stroke-width:3;stroke-miterlimit:10;}
	.st71{clip-path:url(#SVGID_17_);fill:url(#SVGID_19_);}
	.st72{fill:#00CCCC;stroke:#00CCCC;stroke-width:3;stroke-miterlimit:10;}
	.st73{fill:#C5C7C9;}
	.st74{clip-path:url(#SVGID_82_);mask:url(#SVGID_83_);fill:url(#SVGID_85_);}
	.st75{clip-path:url(#SVGID_38_);fill:url(#SVGID_40_);}
	.st76{clip-path:url(#SVGID_109_);mask:url(#SVGID_110_);fill:url(#SVGID_112_);}
	.st77{clip-path:url(#SVGID_53_);fill:url(#SVGID_55_);}
	.st78{fill:#999999;}
	.st79{fill:#FDFDFD;}
	.st80{clip-path:url(#SVGID_138_);mask:url(#SVGID_139_);fill:url(#SVGID_141_);}
	.st81{clip-path:url(#SVGID_165_);fill:url(#SVGID_167_);}
	.st82{display:none;fill:none;}
	.st83{fill:#FFFFFF;}
	.st84{fill:none;stroke:#00CCCC;stroke-width:2;stroke-miterlimit:10;}
	.st85{fill-rule:evenodd;clip-rule:evenodd;fill:#F4F4F4;}
	.st86{opacity:0.6;fill:url(#SVGID_50_);}
	.st87{opacity:0.6;fill:url(#SVGID_51_);}
	.st88{clip-path:url(#SVGID_129_);fill:#FFFFFF;}
	.st89{display:inline;}
	.st90{clip-path:url(#SVGID_24_);fill:url(#SVGID_26_);}
	.st91{clip-path:url(#SVGID_120_);fill:#00CCCC;}
	.st92{opacity:0.6;fill:url(#SVGID_123_);}
	.st93{opacity:0.6;fill:url(#SVGID_124_);}
	.st94{opacity:0.6;fill:url(#SVGID_184_);}
	.st95{opacity:0.6;fill:url(#SVGID_185_);}
	.st96{fill:none;stroke:#003366;stroke-miterlimit:10;}
	.st97{fill-rule:evenodd;clip-rule:evenodd;fill:#939393;}
	.st98{fill-rule:evenodd;clip-rule:evenodd;fill:#C2C2C2;}
	.st99{clip-path:url(#SVGID_62_);mask:url(#SVGID_63_);fill:url(#SVGID_65_);}
	.st100{clip-path:url(#SVGID_151_);mask:url(#SVGID_152_);fill:url(#SVGID_154_);}
	.st101{clip-path:url(#SVGID_158_);mask:url(#SVGID_159_);fill:url(#SVGID_161_);}
	.st102{clip-path:url(#SVGID_105_);}
	.st103{clip-path:url(#SVGID_114_);}
	.st104{clip-path:url(#SVGID_116_);}
	.st105{clip-path:url(#SVGID_145_);}
	.st106{clip-path:url(#SVGID_147_);}
	.st107{clip-path:url(#SVGID_181_);}
	.st108{clip-path:url(#SVGID_22_);fill:#003366;}
	.st109{clip-path:url(#SVGID_151_);fill:url(#SVGID_153_);}
	.st110{fill:#003366;}
	.st111{fill:#00A5A8;}
	.st112{fill-rule:evenodd;clip-rule:evenodd;fill:#FDFDFD;}
	.st113{fill:#00CCCC;}
	.st114{clip-path:url(#SVGID_29_);fill:#003366;}
	.st115{fill-rule:evenodd;clip-rule:evenodd;fill:#FEFEFE;}
	.st116{fill-rule:evenodd;clip-rule:evenodd;fill:#646464;}
	.st117{clip-path:url(#SVGID_122_);fill:#00CCCC;}
	.st118{clip-path:url(#SVGID_165_);mask:url(#SVGID_166_);fill:url(#SVGID_168_);}
	.st119{clip-path:url(#SVGID_129_);fill:#003366;}
	.st120{clip-path:url(#SVGID_31_);fill:url(#SVGID_33_);}
	.st121{opacity:0.54;fill:#FFFFFF;}
	.st122{clip-path:url(#SVGID_109_);fill:url(#SVGID_111_);}
	.st123{clip-path:url(#SVGID_31_);mask:url(#SVGID_32_);fill:url(#SVGID_34_);}
	.st124{fill-rule:evenodd;clip-rule:evenodd;fill:#313131;}
	.st125{display:none;}
	.st126{clip-path:url(#SVGID_15_);}
	.st127{clip-path:url(#SVGID_47_);}
	.st128{clip-path:url(#SVGID_58_);}
	.st129{clip-path:url(#SVGID_69_);}
	.st130{clip-path:url(#SVGID_71_);}
	.st131{clip-path:url(#SVGID_38_);mask:url(#SVGID_39_);fill:url(#SVGID_41_);}
	.st132{clip-path:url(#SVGID_156_);fill:#003366;}
	.st133{clip-path:url(#SVGID_138_);fill:url(#SVGID_140_);}
	.st134{clip-path:url(#SVGID_172_);mask:url(#SVGID_173_);fill:url(#SVGID_175_);}
	.st135{fill-rule:evenodd;clip-rule:evenodd;fill:none;stroke:#003366;stroke-width:4;stroke-miterlimit:10;}
	.st136{clip-path:url(#SVGID_17_);mask:url(#SVGID_18_);fill:url(#SVGID_20_);}
	.st137{clip-path:url(#SVGID_53_);mask:url(#SVGID_54_);fill:url(#SVGID_56_);}
	.st138{clip-path:url(#SVGID_36_);fill:#003366;}
	.st139{clip-path:url(#SVGID_131_);fill:#FFFFFF;}
	.st140{filter:url(#Adobe_OpacityMaskFilter_1_);}
	.st141{filter:url(#Adobe_OpacityMaskFilter_2_);}
	.st142{filter:url(#Adobe_OpacityMaskFilter_3_);}
	.st143{filter:url(#Adobe_OpacityMaskFilter_4_);}
	.st144{filter:url(#Adobe_OpacityMaskFilter_5_);}
	.st145{filter:url(#Adobe_OpacityMaskFilter_6_);}
	.st146{filter:url(#Adobe_OpacityMaskFilter_7_);}
	.st147{filter:url(#Adobe_OpacityMaskFilter_8_);}
	.st148{filter:url(#Adobe_OpacityMaskFilter_9_);}
]]>
</style>
<g>
	<g>
		<g>
			<g>
				<path class="st110" d="M26.299,3.766l17.555,15.267H8.718L26.299,3.766z M37.416,41.921H15.212V36.12
					c0-0.795-0.599-1.611-1.795-2.448c-1.195-0.833-2.068-1.541-2.621-2.134c-0.552-0.584-0.827-1.683-0.827-3.286
					c0-2.217,0.721-4.027,2.161-5.447c1.442-1.409,3.378-2.118,5.807-2.118h16.81c2.457,0,4.409,0.707,5.854,2.114
					c1.444,1.41,2.169,3.226,2.169,5.452c0,1.621-0.277,2.72-0.835,3.294c-0.556,0.574-1.447,1.279-2.676,2.114
					s-1.842,1.656-1.842,2.46V41.921z M42.769,46.479h-32.8v-2.904h32.8V46.479z M18.062,39.013h16.449v-3.122
					c0-0.659-0.618-1.231-1.849-1.712s-2.19-1.014-2.878-1.604c-0.688-0.586-1.029-1.738-1.029-3.453
					c0-1.085,0.425-2.034,1.28-2.859c0.854-0.824,1.907-1.236,3.16-1.236c1.255,0,2.214,0.365,2.884,1.097
					c0.669,0.732,1.002,1.614,1.002,2.651c0,0.558-0.123,0.979-0.375,1.27c-0.25,0.293-0.564,0.439-0.944,0.439
					c-0.372,0-0.72-0.132-1.043-0.396c-0.326-0.265-0.488-0.583-0.488-0.965c0-1.097-0.415-1.648-1.251-1.648
					c-0.88,0-1.321,0.662-1.321,1.984c0,0.796,0.369,1.477,1.105,2.047c0.738,0.57,1.626,0.853,2.663,0.853
					c0.807,0,1.548-0.183,2.226-0.542c0.676-0.362,1.215-0.868,1.613-1.522c0.397-0.652,0.596-1.367,0.596-2.146
					c0-1.27-0.431-2.344-1.291-3.229c-0.863-0.887-1.911-1.327-3.144-1.327H17.312c-1.233,0-2.301,0.445-3.2,1.335
					c-0.898,0.89-1.347,1.959-1.347,3.22c0,1.198,0.445,2.197,1.339,3.004c0.892,0.801,1.959,1.205,3.199,1.205
					c1.092,0,1.99-0.279,2.7-0.837c0.706-0.562,1.062-1.25,1.062-2.063c0-1.322-0.439-1.984-1.317-1.984
					c-0.907,0-1.36,0.551-1.36,1.648c0,0.391-0.145,0.714-0.438,0.974c-0.29,0.26-0.616,0.388-0.977,0.388
					c-0.916,0-1.373-0.568-1.373-1.709c0-1.001,0.356-1.873,1.064-2.622c0.708-0.752,1.667-1.126,2.87-1.126
					c1.289,0,2.331,0.402,3.128,1.209c0.799,0.807,1.198,1.767,1.198,2.887c0,1.356-0.262,2.378-0.787,3.069
					c-0.522,0.695-1.151,1.196-1.884,1.497s-1.437,0.603-2.114,0.9c-0.675,0.302-1.014,0.737-1.014,1.303V39.013z"/>
			</g>
			<rect x="25" y="22" class="st110" width="2" height="17"/>
		</g>
		<path class="st43" d="M51,43.541C51,47.66,47.659,51,43.541,51H8.459C4.341,51,1,47.66,1,43.541V8.459C1,4.34,4.341,1,8.459,1
			h35.082C47.659,1,51,4.34,51,8.459V43.541z"/>
	</g>
</g>
</svg>
