<?xml version="1.0" encoding="utf-8"?>
<!-- Generator: Adobe Illustrator 16.0.0, SVG Export Plug-In . SVG Version: 6.00 Build 0)  -->
<!DOCTYPE svg PUBLIC "-//W3C//DTD SVG 1.1//EN" "http://www.w3.org/Graphics/SVG/1.1/DTD/svg11.dtd">
<svg version="1.1" id="Capa_1" xmlns="http://www.w3.org/2000/svg" xmlns:xlink="http://www.w3.org/1999/xlink" x="0px" y="0px"
	 width="52px" height="52px" viewBox="0 0 52 52" style="enable-background:new 0 0 52 52;" xml:space="preserve">
<style type="text/css">
<![CDATA[
	.st0{clip-path:url(#SVGID_96_);mask:url(#SVGID_97_);fill:url(#SVGID_99_);}
	.st1{clip-path:url(#SVGID_136_);fill:#003366;}
	.st2{clip-path:url(#SVGID_89_);mask:url(#SVGID_90_);fill:url(#SVGID_92_);}
	.st3{fill-rule:evenodd;clip-rule:evenodd;fill:#D6D6D6;}
	.st4{opacity:0.6;fill:#FFFFFF;}
	.st5{clip-path:url(#SVGID_158_);fill:url(#SVGID_160_);}
	.st6{clip-path:url(#SVGID_62_);fill:url(#SVGID_64_);}
	.st7{clip-path:url(#SVGID_8_);mask:url(#SVGID_9_);fill:url(#SVGID_11_);}
	.st8{fill:none;stroke:#00CCCC;stroke-miterlimit:10;}
	.st9{clip-path:url(#SVGID_75_);mask:url(#SVGID_76_);fill:url(#SVGID_78_);}
	.st10{clip-path:url(#SVGID_187_);fill:#FFFFFF;}
	.st11{clip-path:url(#SVGID_172_);fill:url(#SVGID_174_);}
	.st12{clip-path:url(#SVGID_163_);fill:#003366;}
	.st13{clip-path:url(#SVGID_89_);fill:url(#SVGID_91_);}
	.st14{fill:#E6E6E6;}
	.st15{filter:url(#Adobe_OpacityMaskFilter);}
	.st16{clip-path:url(#SVGID_131_);fill:#003366;}
	.st17{fill:none;stroke:#FFFFFF;stroke-width:2;stroke-miterlimit:10;}
	.st18{fill:#808080;}
	.st19{clip-path:url(#SVGID_80_);fill:#003366;}
	.st20{clip-path:url(#SVGID_43_);fill:#003366;}
	.st21{opacity:0.75;}
	.st22{opacity:0.53;fill:#FFFFFF;}
	.st23{clip-path:url(#SVGID_87_);fill:#003366;}
	.st24{fill-rule:evenodd;clip-rule:evenodd;fill:#7B7B7B;}
	.st25{fill:#00CCCC;stroke:#003366;stroke-width:3;stroke-miterlimit:10;}
	.st26{clip-path:url(#SVGID_143_);fill:#003366;}
	.st27{fill-rule:evenodd;clip-rule:evenodd;fill:#ABABAB;}
	.st28{fill:#1D8BBC;}
	.st29{clip-path:url(#SVGID_75_);fill:url(#SVGID_77_);}
	.st30{clip-path:url(#SVGID_187_);fill:#003366;}
	.st31{fill-rule:evenodd;clip-rule:evenodd;fill:#111111;}
	.st32{fill:none;stroke:#808080;stroke-width:3;stroke-miterlimit:10;}
	.st33{clip-path:url(#SVGID_96_);fill:url(#SVGID_98_);}
	.st34{filter:url(#Adobe_OpacityMaskFilter_10_);}
	.st35{filter:url(#Adobe_OpacityMaskFilter_11_);}
	.st36{filter:url(#Adobe_OpacityMaskFilter_12_);}
	.st37{filter:url(#Adobe_OpacityMaskFilter_13_);}
	.st38{filter:url(#Adobe_OpacityMaskFilter_14_);}
	.st39{filter:url(#Adobe_OpacityMaskFilter_15_);}
	.st40{filter:url(#Adobe_OpacityMaskFilter_16_);}
	.st41{clip-path:url(#SVGID_170_);fill:#003366;}
	.st42{clip-path:url(#SVGID_192_);fill:#003366;}
	.st43{fill:none;stroke:#003366;stroke-width:2;stroke-miterlimit:10;}
	.st44{clip-path:url(#SVGID_177_);fill:#003366;}
	.st45{fill:url(#);}
	.st46{clip-path:url(#SVGID_67_);fill:#003366;}
	.st47{fill-rule:evenodd;clip-rule:evenodd;fill:#4D4D4D;}
	.st48{opacity:0.49;fill:url(#);}
	.st49{fill-rule:evenodd;clip-rule:evenodd;fill:#E8E8E8;}
	.st50{fill:none;stroke:#00CCCC;stroke-width:3;stroke-miterlimit:10;}
	.st51{clip-path:url(#SVGID_101_);fill:#003366;}
	.st52{clip-path:url(#SVGID_24_);mask:url(#SVGID_25_);fill:url(#SVGID_27_);}
	.st53{clip-path:url(#SVGID_13_);fill:#003366;}
	.st54{display:inline;opacity:0.49;fill:url(#);}
	.st55{clip-path:url(#SVGID_94_);fill:#003366;}
	.st56{clip-path:url(#SVGID_82_);fill:url(#SVGID_84_);}
	.st57{clip-path:url(#SVGID_8_);fill:url(#SVGID_10_);}
	.st58{fill:url(#SVGID_125_);}
	.st59{fill:url(#SVGID_126_);}
	.st60{fill:url(#SVGID_127_);}
	.st61{fill:url(#SVGID_132_);}
	.st62{fill:url(#SVGID_133_);}
	.st63{fill:url(#SVGID_134_);}
	.st64{fill:url(#SVGID_188_);}
	.st65{fill:url(#SVGID_189_);}
	.st66{fill:url(#SVGID_190_);}
	.st67{clip-path:url(#SVGID_2_);}
	.st68{clip-path:url(#SVGID_4_);}
	.st69{clip-path:url(#SVGID_6_);}
	.st70{fill:#FFFFFF;stroke:#003366;stroke-width:3;stroke-miterlimit:10;}
	.st71{clip-path:url(#SVGID_17_);fill:url(#SVGID_19_);}
	.st72{fill:#00CCCC;stroke:#00CCCC;stroke-width:3;stroke-miterlimit:10;}
	.st73{fill:#C5C7C9;}
	.st74{clip-path:url(#SVGID_82_);mask:url(#SVGID_83_);fill:url(#SVGID_85_);}
	.st75{clip-path:url(#SVGID_38_);fill:url(#SVGID_40_);}
	.st76{clip-path:url(#SVGID_109_);mask:url(#SVGID_110_);fill:url(#SVGID_112_);}
	.st77{clip-path:url(#SVGID_53_);fill:url(#SVGID_55_);}
	.st78{fill:#999999;}
	.st79{fill:#FDFDFD;}
	.st80{clip-path:url(#SVGID_138_);mask:url(#SVGID_139_);fill:url(#SVGID_141_);}
	.st81{clip-path:url(#SVGID_165_);fill:url(#SVGID_167_);}
	.st82{display:none;fill:none;}
	.st83{fill:#FFFFFF;}
	.st84{fill:none;stroke:#00CCCC;stroke-width:2;stroke-miterlimit:10;}
	.st85{fill-rule:evenodd;clip-rule:evenodd;fill:#F4F4F4;}
	.st86{opacity:0.6;fill:url(#SVGID_50_);}
	.st87{opacity:0.6;fill:url(#SVGID_51_);}
	.st88{clip-path:url(#SVGID_129_);fill:#FFFFFF;}
	.st89{display:inline;}
	.st90{clip-path:url(#SVGID_24_);fill:url(#SVGID_26_);}
	.st91{clip-path:url(#SVGID_120_);fill:#00CCCC;}
	.st92{opacity:0.6;fill:url(#SVGID_123_);}
	.st93{opacity:0.6;fill:url(#SVGID_124_);}
	.st94{opacity:0.6;fill:url(#SVGID_184_);}
	.st95{opacity:0.6;fill:url(#SVGID_185_);}
	.st96{fill:none;stroke:#003366;stroke-miterlimit:10;}
	.st97{fill-rule:evenodd;clip-rule:evenodd;fill:#939393;}
	.st98{fill-rule:evenodd;clip-rule:evenodd;fill:#C2C2C2;}
	.st99{clip-path:url(#SVGID_62_);mask:url(#SVGID_63_);fill:url(#SVGID_65_);}
	.st100{clip-path:url(#SVGID_151_);mask:url(#SVGID_152_);fill:url(#SVGID_154_);}
	.st101{clip-path:url(#SVGID_158_);mask:url(#SVGID_159_);fill:url(#SVGID_161_);}
	.st102{clip-path:url(#SVGID_105_);}
	.st103{clip-path:url(#SVGID_114_);}
	.st104{clip-path:url(#SVGID_116_);}
	.st105{clip-path:url(#SVGID_145_);}
	.st106{clip-path:url(#SVGID_147_);}
	.st107{clip-path:url(#SVGID_181_);}
	.st108{clip-path:url(#SVGID_22_);fill:#003366;}
	.st109{clip-path:url(#SVGID_151_);fill:url(#SVGID_153_);}
	.st110{fill:#003366;}
	.st111{fill:#00A5A8;}
	.st112{fill-rule:evenodd;clip-rule:evenodd;fill:#FDFDFD;}
	.st113{fill:#00CCCC;}
	.st114{clip-path:url(#SVGID_29_);fill:#003366;}
	.st115{fill-rule:evenodd;clip-rule:evenodd;fill:#FEFEFE;}
	.st116{fill-rule:evenodd;clip-rule:evenodd;fill:#646464;}
	.st117{clip-path:url(#SVGID_122_);fill:#00CCCC;}
	.st118{clip-path:url(#SVGID_165_);mask:url(#SVGID_166_);fill:url(#SVGID_168_);}
	.st119{clip-path:url(#SVGID_129_);fill:#003366;}
	.st120{clip-path:url(#SVGID_31_);fill:url(#SVGID_33_);}
	.st121{opacity:0.54;fill:#FFFFFF;}
	.st122{clip-path:url(#SVGID_109_);fill:url(#SVGID_111_);}
	.st123{clip-path:url(#SVGID_31_);mask:url(#SVGID_32_);fill:url(#SVGID_34_);}
	.st124{fill-rule:evenodd;clip-rule:evenodd;fill:#313131;}
	.st125{display:none;}
	.st126{clip-path:url(#SVGID_15_);}
	.st127{clip-path:url(#SVGID_47_);}
	.st128{clip-path:url(#SVGID_58_);}
	.st129{clip-path:url(#SVGID_69_);}
	.st130{clip-path:url(#SVGID_71_);}
	.st131{clip-path:url(#SVGID_38_);mask:url(#SVGID_39_);fill:url(#SVGID_41_);}
	.st132{clip-path:url(#SVGID_156_);fill:#003366;}
	.st133{clip-path:url(#SVGID_138_);fill:url(#SVGID_140_);}
	.st134{clip-path:url(#SVGID_172_);mask:url(#SVGID_173_);fill:url(#SVGID_175_);}
	.st135{fill-rule:evenodd;clip-rule:evenodd;fill:none;stroke:#003366;stroke-width:4;stroke-miterlimit:10;}
	.st136{clip-path:url(#SVGID_17_);mask:url(#SVGID_18_);fill:url(#SVGID_20_);}
	.st137{clip-path:url(#SVGID_53_);mask:url(#SVGID_54_);fill:url(#SVGID_56_);}
	.st138{clip-path:url(#SVGID_36_);fill:#003366;}
	.st139{clip-path:url(#SVGID_131_);fill:#FFFFFF;}
	.st140{filter:url(#Adobe_OpacityMaskFilter_1_);}
	.st141{filter:url(#Adobe_OpacityMaskFilter_2_);}
	.st142{filter:url(#Adobe_OpacityMaskFilter_3_);}
	.st143{filter:url(#Adobe_OpacityMaskFilter_4_);}
	.st144{filter:url(#Adobe_OpacityMaskFilter_5_);}
	.st145{filter:url(#Adobe_OpacityMaskFilter_6_);}
	.st146{filter:url(#Adobe_OpacityMaskFilter_7_);}
	.st147{filter:url(#Adobe_OpacityMaskFilter_8_);}
	.st148{filter:url(#Adobe_OpacityMaskFilter_9_);}
]]>
</style>
<g>
	<path class="st43" d="M51,43.541C51,47.66,47.659,51,43.541,51H8.459C4.341,51,1,47.66,1,43.541V8.459C1,4.34,4.341,1,8.459,1
		h35.082C47.659,1,51,4.34,51,8.459V43.541z"/>
	<g>
		<path class="st110" d="M15.186,15.929h10.646c0.55,0,0.998-0.444,0.998-0.997c0-0.55-0.448-0.998-0.998-0.998H15.186
			c-0.551,0-0.996,0.448-0.996,0.998C14.189,15.485,14.635,15.929,15.186,15.929L15.186,15.929z M15.186,15.929"/>
		<path class="st110" d="M15.186,20.854H29.69c0.552,0,0.998-0.451,0.998-1c0-0.549-0.446-0.998-0.998-0.998H15.186
			c-0.551,0-0.996,0.449-0.996,0.998C14.189,20.403,14.635,20.854,15.186,20.854L15.186,20.854z M15.186,20.854"/>
		<path class="st110" d="M11.138,8.863H33.74v15.646c0.394,0.113,0.732,0.283,1.009,0.438c0.468-0.261,1.111-0.569,1.905-0.569
			c0.027,0,0.054,0.001,0.081,0.001V8.863c0-1.654-1.342-2.994-2.995-2.994H11.138c-1.654,0-2.994,1.34-2.994,2.994v33.361
			c0,1.655,1.34,2.995,2.994,2.995h18.131v-2.995H11.138V8.863z M11.138,8.863"/>
		<path class="st110" d="M41.344,31.916c-0.225-0.197-0.477-0.422-0.531-0.593c-0.063-0.188,0.008-0.516,0.077-0.832
			c0.106-0.499,0.227-1.06-0.08-1.483c-0.311-0.425-0.887-0.485-1.396-0.537c-0.304-0.03-0.648-0.066-0.804-0.178
			c-0.152-0.109-0.289-0.422-0.411-0.701c-0.207-0.471-0.44-1.007-0.949-1.172c-0.093-0.03-0.193-0.044-0.294-0.044
			c-0.391,0-0.763,0.215-1.123,0.423c-0.285,0.166-0.579,0.337-0.783,0.337s-0.498-0.172-0.782-0.337
			c-0.362-0.208-0.734-0.423-1.123-0.423c-0.103,0-0.203,0.014-0.296,0.044c-0.507,0.165-0.741,0.701-0.949,1.172
			c-0.121,0.278-0.259,0.592-0.409,0.701c-0.155,0.112-0.5,0.148-0.808,0.178c-0.507,0.052-1.083,0.112-1.395,0.537
			c-0.306,0.423-0.186,0.985-0.079,1.483c0.069,0.316,0.14,0.644,0.078,0.832c-0.055,0.171-0.308,0.396-0.531,0.593
			c-0.388,0.345-0.827,0.737-0.827,1.279c0,0.54,0.439,0.932,0.827,1.275c0.224,0.198,0.477,0.427,0.531,0.595
			c0.062,0.189-0.009,0.516-0.078,0.832c-0.106,0.498-0.227,1.06,0.079,1.483c0.312,0.425,0.888,0.485,1.395,0.537
			c0.308,0.03,0.652,0.064,0.808,0.178c0.15,0.109,0.288,0.422,0.409,0.702c0.208,0.47,0.442,1.005,0.949,1.17
			c0.093,0.029,0.193,0.044,0.296,0.044c0.388,0,0.761-0.212,1.123-0.426c0.284-0.164,0.578-0.336,0.782-0.336
			s0.498,0.172,0.783,0.336c0.36,0.214,0.733,0.426,1.123,0.426c0.101,0,0.201-0.016,0.296-0.044c0.507-0.165,0.74-0.701,0.947-1.17
			c0.122-0.28,0.259-0.593,0.411-0.702c0.155-0.114,0.5-0.148,0.804-0.178c0.51-0.052,1.086-0.112,1.396-0.537
			c0.307-0.424,0.187-0.985,0.08-1.483c-0.069-0.316-0.14-0.642-0.077-0.832c0.055-0.168,0.307-0.396,0.531-0.595
			c0.386-0.343,0.827-0.735,0.827-1.275C42.171,32.652,41.729,32.26,41.344,31.916L41.344,31.916z M35.049,35.784
			c-1.432,0-2.592-1.159-2.592-2.589c0-1.433,1.16-2.592,2.592-2.592s2.593,1.159,2.593,2.592
			C37.642,34.625,36.48,35.784,35.049,35.784L35.049,35.784z M35.049,35.784"/>
		<path class="st110" d="M37.483,40.69c-0.17,0.055-0.348,0.082-0.528,0.082c-0.595,0-1.099-0.294-1.506-0.528
			c-0.114-0.066-0.293-0.169-0.4-0.217c-0.107,0.048-0.285,0.151-0.4,0.217c-0.406,0.234-0.91,0.528-1.505,0.528
			c-0.183,0-0.359-0.027-0.53-0.082c-0.501-0.161-0.82-0.505-1.05-0.872v8.202c0,0.164,0.097,0.312,0.244,0.376
			c0.149,0.067,0.321,0.037,0.442-0.075l2.799-2.571l2.799,2.571c0.076,0.072,0.177,0.109,0.277,0.109
			c0.057,0,0.11-0.01,0.165-0.034c0.146-0.065,0.244-0.213,0.244-0.376v-8.206C38.305,40.182,37.98,40.529,37.483,40.69
			L37.483,40.69z M37.483,40.69"/>
	</g>
</g>
</svg>
