<?xml version="1.0" encoding="utf-8"?>
<!-- Generator: Adobe Illustrator 16.0.0, SVG Export Plug-In . SVG Version: 6.00 Build 0)  -->
<!DOCTYPE svg PUBLIC "-//W3C//DTD SVG 1.1//EN" "http://www.w3.org/Graphics/SVG/1.1/DTD/svg11.dtd">
<svg version="1.1" id="Capa_1" xmlns="http://www.w3.org/2000/svg" xmlns:xlink="http://www.w3.org/1999/xlink" x="0px" y="0px"
	 width="52px" height="52px" viewBox="0 0 52 52" style="enable-background:new 0 0 52 52;" xml:space="preserve">
<style type="text/css">
<![CDATA[
	.st0{clip-path:url(#SVGID_96_);mask:url(#SVGID_97_);fill:url(#SVGID_99_);}
	.st1{clip-path:url(#SVGID_136_);fill:#003366;}
	.st2{clip-path:url(#SVGID_89_);mask:url(#SVGID_90_);fill:url(#SVGID_92_);}
	.st3{fill-rule:evenodd;clip-rule:evenodd;fill:#D6D6D6;}
	.st4{opacity:0.6;fill:#FFFFFF;}
	.st5{clip-path:url(#SVGID_158_);fill:url(#SVGID_160_);}
	.st6{clip-path:url(#SVGID_62_);fill:url(#SVGID_64_);}
	.st7{clip-path:url(#SVGID_8_);mask:url(#SVGID_9_);fill:url(#SVGID_11_);}
	.st8{fill:none;stroke:#00CCCC;stroke-miterlimit:10;}
	.st9{clip-path:url(#SVGID_75_);mask:url(#SVGID_76_);fill:url(#SVGID_78_);}
	.st10{clip-path:url(#SVGID_187_);fill:#FFFFFF;}
	.st11{clip-path:url(#SVGID_172_);fill:url(#SVGID_174_);}
	.st12{clip-path:url(#SVGID_163_);fill:#003366;}
	.st13{clip-path:url(#SVGID_89_);fill:url(#SVGID_91_);}
	.st14{fill:#E6E6E6;}
	.st15{filter:url(#Adobe_OpacityMaskFilter);}
	.st16{clip-path:url(#SVGID_131_);fill:#003366;}
	.st17{fill:none;stroke:#FFFFFF;stroke-width:2;stroke-miterlimit:10;}
	.st18{fill:#808080;}
	.st19{clip-path:url(#SVGID_80_);fill:#003366;}
	.st20{clip-path:url(#SVGID_43_);fill:#003366;}
	.st21{opacity:0.75;}
	.st22{opacity:0.53;fill:#FFFFFF;}
	.st23{clip-path:url(#SVGID_87_);fill:#003366;}
	.st24{fill-rule:evenodd;clip-rule:evenodd;fill:#7B7B7B;}
	.st25{fill:#00CCCC;stroke:#003366;stroke-width:3;stroke-miterlimit:10;}
	.st26{clip-path:url(#SVGID_143_);fill:#003366;}
	.st27{fill-rule:evenodd;clip-rule:evenodd;fill:#ABABAB;}
	.st28{fill:#1D8BBC;}
	.st29{clip-path:url(#SVGID_75_);fill:url(#SVGID_77_);}
	.st30{clip-path:url(#SVGID_187_);fill:#003366;}
	.st31{fill-rule:evenodd;clip-rule:evenodd;fill:#111111;}
	.st32{fill:none;stroke:#808080;stroke-width:3;stroke-miterlimit:10;}
	.st33{clip-path:url(#SVGID_96_);fill:url(#SVGID_98_);}
	.st34{filter:url(#Adobe_OpacityMaskFilter_10_);}
	.st35{filter:url(#Adobe_OpacityMaskFilter_11_);}
	.st36{filter:url(#Adobe_OpacityMaskFilter_12_);}
	.st37{filter:url(#Adobe_OpacityMaskFilter_13_);}
	.st38{filter:url(#Adobe_OpacityMaskFilter_14_);}
	.st39{filter:url(#Adobe_OpacityMaskFilter_15_);}
	.st40{filter:url(#Adobe_OpacityMaskFilter_16_);}
	.st41{clip-path:url(#SVGID_170_);fill:#003366;}
	.st42{clip-path:url(#SVGID_192_);fill:#003366;}
	.st43{fill:none;stroke:#003366;stroke-width:2;stroke-miterlimit:10;}
	.st44{clip-path:url(#SVGID_177_);fill:#003366;}
	.st45{fill:url(#);}
	.st46{clip-path:url(#SVGID_67_);fill:#003366;}
	.st47{fill-rule:evenodd;clip-rule:evenodd;fill:#4D4D4D;}
	.st48{opacity:0.49;fill:url(#);}
	.st49{fill-rule:evenodd;clip-rule:evenodd;fill:#E8E8E8;}
	.st50{fill:none;stroke:#00CCCC;stroke-width:3;stroke-miterlimit:10;}
	.st51{clip-path:url(#SVGID_101_);fill:#003366;}
	.st52{clip-path:url(#SVGID_24_);mask:url(#SVGID_25_);fill:url(#SVGID_27_);}
	.st53{clip-path:url(#SVGID_13_);fill:#003366;}
	.st54{display:inline;opacity:0.49;fill:url(#);}
	.st55{clip-path:url(#SVGID_94_);fill:#003366;}
	.st56{clip-path:url(#SVGID_82_);fill:url(#SVGID_84_);}
	.st57{clip-path:url(#SVGID_8_);fill:url(#SVGID_10_);}
	.st58{fill:url(#SVGID_125_);}
	.st59{fill:url(#SVGID_126_);}
	.st60{fill:url(#SVGID_127_);}
	.st61{fill:url(#SVGID_132_);}
	.st62{fill:url(#SVGID_133_);}
	.st63{fill:url(#SVGID_134_);}
	.st64{fill:url(#SVGID_188_);}
	.st65{fill:url(#SVGID_189_);}
	.st66{fill:url(#SVGID_190_);}
	.st67{clip-path:url(#SVGID_2_);}
	.st68{clip-path:url(#SVGID_4_);}
	.st69{clip-path:url(#SVGID_6_);}
	.st70{fill:#FFFFFF;stroke:#003366;stroke-width:3;stroke-miterlimit:10;}
	.st71{clip-path:url(#SVGID_17_);fill:url(#SVGID_19_);}
	.st72{fill:#00CCCC;stroke:#00CCCC;stroke-width:3;stroke-miterlimit:10;}
	.st73{fill:#C5C7C9;}
	.st74{clip-path:url(#SVGID_82_);mask:url(#SVGID_83_);fill:url(#SVGID_85_);}
	.st75{clip-path:url(#SVGID_38_);fill:url(#SVGID_40_);}
	.st76{clip-path:url(#SVGID_109_);mask:url(#SVGID_110_);fill:url(#SVGID_112_);}
	.st77{clip-path:url(#SVGID_53_);fill:url(#SVGID_55_);}
	.st78{fill:#999999;}
	.st79{fill:#FDFDFD;}
	.st80{clip-path:url(#SVGID_138_);mask:url(#SVGID_139_);fill:url(#SVGID_141_);}
	.st81{clip-path:url(#SVGID_165_);fill:url(#SVGID_167_);}
	.st82{display:none;fill:none;}
	.st83{fill:#FFFFFF;}
	.st84{fill:none;stroke:#00CCCC;stroke-width:2;stroke-miterlimit:10;}
	.st85{fill-rule:evenodd;clip-rule:evenodd;fill:#F4F4F4;}
	.st86{opacity:0.6;fill:url(#SVGID_50_);}
	.st87{opacity:0.6;fill:url(#SVGID_51_);}
	.st88{clip-path:url(#SVGID_129_);fill:#FFFFFF;}
	.st89{display:inline;}
	.st90{clip-path:url(#SVGID_24_);fill:url(#SVGID_26_);}
	.st91{clip-path:url(#SVGID_120_);fill:#00CCCC;}
	.st92{opacity:0.6;fill:url(#SVGID_123_);}
	.st93{opacity:0.6;fill:url(#SVGID_124_);}
	.st94{opacity:0.6;fill:url(#SVGID_184_);}
	.st95{opacity:0.6;fill:url(#SVGID_185_);}
	.st96{fill:none;stroke:#003366;stroke-miterlimit:10;}
	.st97{fill-rule:evenodd;clip-rule:evenodd;fill:#939393;}
	.st98{fill-rule:evenodd;clip-rule:evenodd;fill:#C2C2C2;}
	.st99{clip-path:url(#SVGID_62_);mask:url(#SVGID_63_);fill:url(#SVGID_65_);}
	.st100{clip-path:url(#SVGID_151_);mask:url(#SVGID_152_);fill:url(#SVGID_154_);}
	.st101{clip-path:url(#SVGID_158_);mask:url(#SVGID_159_);fill:url(#SVGID_161_);}
	.st102{clip-path:url(#SVGID_105_);}
	.st103{clip-path:url(#SVGID_114_);}
	.st104{clip-path:url(#SVGID_116_);}
	.st105{clip-path:url(#SVGID_145_);}
	.st106{clip-path:url(#SVGID_147_);}
	.st107{clip-path:url(#SVGID_181_);}
	.st108{clip-path:url(#SVGID_22_);fill:#003366;}
	.st109{clip-path:url(#SVGID_151_);fill:url(#SVGID_153_);}
	.st110{fill:#003366;}
	.st111{fill:#00A5A8;}
	.st112{fill-rule:evenodd;clip-rule:evenodd;fill:#FDFDFD;}
	.st113{fill:#00CCCC;}
	.st114{clip-path:url(#SVGID_29_);fill:#003366;}
	.st115{fill-rule:evenodd;clip-rule:evenodd;fill:#FEFEFE;}
	.st116{fill-rule:evenodd;clip-rule:evenodd;fill:#646464;}
	.st117{clip-path:url(#SVGID_122_);fill:#00CCCC;}
	.st118{clip-path:url(#SVGID_165_);mask:url(#SVGID_166_);fill:url(#SVGID_168_);}
	.st119{clip-path:url(#SVGID_129_);fill:#003366;}
	.st120{clip-path:url(#SVGID_31_);fill:url(#SVGID_33_);}
	.st121{opacity:0.54;fill:#FFFFFF;}
	.st122{clip-path:url(#SVGID_109_);fill:url(#SVGID_111_);}
	.st123{clip-path:url(#SVGID_31_);mask:url(#SVGID_32_);fill:url(#SVGID_34_);}
	.st124{fill-rule:evenodd;clip-rule:evenodd;fill:#313131;}
	.st125{display:none;}
	.st126{clip-path:url(#SVGID_15_);}
	.st127{clip-path:url(#SVGID_47_);}
	.st128{clip-path:url(#SVGID_58_);}
	.st129{clip-path:url(#SVGID_69_);}
	.st130{clip-path:url(#SVGID_71_);}
	.st131{clip-path:url(#SVGID_38_);mask:url(#SVGID_39_);fill:url(#SVGID_41_);}
	.st132{clip-path:url(#SVGID_156_);fill:#003366;}
	.st133{clip-path:url(#SVGID_138_);fill:url(#SVGID_140_);}
	.st134{clip-path:url(#SVGID_172_);mask:url(#SVGID_173_);fill:url(#SVGID_175_);}
	.st135{fill-rule:evenodd;clip-rule:evenodd;fill:none;stroke:#003366;stroke-width:4;stroke-miterlimit:10;}
	.st136{clip-path:url(#SVGID_17_);mask:url(#SVGID_18_);fill:url(#SVGID_20_);}
	.st137{clip-path:url(#SVGID_53_);mask:url(#SVGID_54_);fill:url(#SVGID_56_);}
	.st138{clip-path:url(#SVGID_36_);fill:#003366;}
	.st139{clip-path:url(#SVGID_131_);fill:#FFFFFF;}
	.st140{filter:url(#Adobe_OpacityMaskFilter_1_);}
	.st141{filter:url(#Adobe_OpacityMaskFilter_2_);}
	.st142{filter:url(#Adobe_OpacityMaskFilter_3_);}
	.st143{filter:url(#Adobe_OpacityMaskFilter_4_);}
	.st144{filter:url(#Adobe_OpacityMaskFilter_5_);}
	.st145{filter:url(#Adobe_OpacityMaskFilter_6_);}
	.st146{filter:url(#Adobe_OpacityMaskFilter_7_);}
	.st147{filter:url(#Adobe_OpacityMaskFilter_8_);}
	.st148{filter:url(#Adobe_OpacityMaskFilter_9_);}
]]>
</style>
<g>
	<path class="st43" d="M51,43.541C51,47.66,47.659,51,43.541,51H8.459C4.341,51,1,47.66,1,43.541V8.459C1,4.34,4.341,1,8.459,1
		h35.082C47.659,1,51,4.34,51,8.459V43.541z"/>
	<g>
		<g>
			<path class="st110" d="M44.792,25.183c-1.446,0-2.614,1.169-2.614,2.614c0,1.449,1.168,2.618,2.614,2.618
				s2.613-1.169,2.613-2.618C47.405,26.352,46.238,25.183,44.792,25.183L44.792,25.183z M7.208,25.183
				c-1.446,0-2.612,1.169-2.612,2.614c0,1.449,1.166,2.618,2.612,2.618c1.443,0,2.612-1.169,2.612-2.618
				C9.82,26.352,8.651,25.183,7.208,25.183L7.208,25.183z M37.02,20.429c-2.154,0-3.894,1.752-3.894,3.894
				c0,2.14,1.739,3.892,3.894,3.892c2.141,0,3.894-1.752,3.894-3.892C40.913,22.181,39.16,20.429,37.02,20.429L37.02,20.429z
				 M49.089,44.094h-4.436v-8.165c0-1.403-0.404-2.707-1.072-3.834c0.391-0.11,0.794-0.194,1.211-0.194
				c2.363,0,4.297,1.935,4.297,4.297V44.094z M14.982,20.429c-2.143,0-3.896,1.752-3.896,3.894c0,2.14,1.753,3.892,3.896,3.892
				c2.14,0,3.89-1.752,3.89-3.892C18.872,22.181,17.122,20.429,14.982,20.429L14.982,20.429z M7.208,31.901
				c0.432,0,0.822,0.083,1.211,0.194c-0.669,1.127-1.071,2.432-1.071,3.834v8.165H2.911v-7.896
				C2.911,33.835,4.845,31.901,7.208,31.901L7.208,31.901z M25.991,12.654c-3.166,0-5.74,2.588-5.74,5.76
				c0,3.169,2.574,5.754,5.74,5.754c3.173,0,5.759-2.585,5.759-5.754C31.75,15.242,29.164,12.654,25.991,12.654L25.991,12.654z
				 M43.235,47.125h-6.787V34.71c0-1.697-0.457-3.297-1.181-4.716c0.556-0.162,1.14-0.277,1.752-0.277
				c3.421,0,6.216,2.783,6.216,6.212V47.125z M15.552,34.71v12.416H8.768V35.929c0-3.429,2.795-6.212,6.229-6.212
				c0.607,0,1.183,0.115,1.738,0.277C16.012,31.413,15.552,33.013,15.552,34.71L15.552,34.71z M16.982,50.724h18.035V34.71
				c0-4.966-4.046-9.015-9.026-9.015c-4.976,0-9.009,4.049-9.009,9.015V50.724z M16.982,50.724"/>
		</g>
	</g>
</g>
</svg>
