<?xml version="1.0" standalone="no"?>
<!DOCTYPE svg PUBLIC "-//W3C//DTD SVG 20010904//EN"
 "http://www.w3.org/TR/2001/REC-SVG-20010904/DTD/svg10.dtd">
<svg version="1.0" xmlns="http://www.w3.org/2000/svg"
 width="50.000000pt" height="50.000000pt" viewBox="0 0 50.000000 50.000000"
 preserveAspectRatio="xMidYMid meet">
<metadata>
Created by potrace 1.13, written by Peter Selinger 2001-2015
</metadata>
<g transform="translate(0.000000,50.000000) scale(0.100000,-0.100000)"
fill="#000000" stroke="none">
<path d="M25 475 c-25 -24 -25 -25 -25 -225 0 -270 -20 -250 250 -250 270 0
250 -20 250 250 0 270 20 250 -250 250 -200 0 -201 0 -225 -25z m435 -15 c19
-19 20 -33 20 -210 0 -177 -1 -191 -20 -210 -19 -19 -33 -20 -210 -20 -177 0
-191 1 -210 20 -19 19 -20 33 -20 210 0 177 1 191 20 210 19 19 33 20 210 20
177 0 191 -1 210 -20z"/>
<path d="M170 395 c-41 -35 -76 -69 -78 -75 -3 -7 52 -10 162 -10 91 0 166 3
165 8 -1 10 -156 142 -166 142 -4 -1 -42 -30 -83 -65z"/>
<path d="M117 283 c-30 -34 -31 -70 -4 -95 16 -15 27 -37 29 -58 l3 -35 108
-3 107 -3 0 34 c0 23 8 41 25 57 31 29 33 72 5 100 -18 18 -33 20 -138 20
-101 0 -121 -3 -135 -17z"/>
</g>
</svg>
