<?xml version="1.0" standalone="no"?>
<!DOCTYPE svg PUBLIC "-//W3C//DTD SVG 20010904//EN"
 "http://www.w3.org/TR/2001/REC-SVG-20010904/DTD/svg10.dtd">
<svg version="1.0" xmlns="http://www.w3.org/2000/svg"
 width="50.000000pt" height="50.000000pt" viewBox="0 0 50.000000 50.000000"
 preserveAspectRatio="xMidYMid meet">
<metadata>
Created by potrace 1.13, written by Peter Selinger 2001-2015
</metadata>
<g transform="translate(0.000000,50.000000) scale(0.100000,-0.100000)"
fill="#000000" stroke="none">
<path d="M25 475 c-25 -24 -25 -25 -25 -225 0 -270 -20 -250 250 -250 270 0
250 -20 250 250 0 270 20 250 -250 250 -200 0 -201 0 -225 -25z m435 -15 c19
-19 20 -33 20 -210 0 -177 -1 -191 -20 -210 -19 -19 -33 -20 -210 -20 -177 0
-191 1 -210 20 -19 19 -20 33 -20 210 0 177 1 191 20 210 19 19 33 20 210 20
177 0 191 -1 210 -20z"/>
<path d="M93 443 c-10 -3 -13 -51 -13 -188 0 -157 2 -184 16 -189 9 -3 54 -6
100 -6 77 0 84 2 84 20 0 18 -7 20 -85 20 l-85 0 0 155 0 155 105 0 105 0 0
-76 c0 -66 2 -75 18 -72 14 3 17 16 20 79 4 107 1 109 -141 108 -62 0 -118 -3
-124 -6z"/>
<path d="M297 235 c-24 -17 -27 -82 -6 -99 11 -8 14 -24 11 -59 -4 -47 -3 -48
16 -36 17 10 23 10 36 0 14 -12 16 -8 16 38 0 28 5 51 10 51 17 0 32 50 20 65
-5 6 -7 14 -4 18 7 7 -35 31 -61 33 -11 2 -28 -4 -38 -11z"/>
</g>
</svg>
