<?xml version="1.0" standalone="no"?>
<!DOCTYPE svg PUBLIC "-//W3C//DTD SVG 20010904//EN"
 "http://www.w3.org/TR/2001/REC-SVG-20010904/DTD/svg10.dtd">
<svg version="1.0" xmlns="http://www.w3.org/2000/svg"
 width="50.000000pt" height="50.000000pt" viewBox="0 0 50.000000 50.000000"
 preserveAspectRatio="xMidYMid meet">
<metadata>
Created by potrace 1.13, written by Peter Selinger 2001-2015
</metadata>
<g transform="translate(0.000000,50.000000) scale(0.100000,-0.100000)"
fill="#000000" stroke="none">
<path d="M26 474 l-26 -27 0 -197 0 -197 26 -27 27 -26 189 0 c191 0 218 4
245 39 9 11 12 74 13 212 l0 196 -26 27 -27 26 -197 0 -197 0 -27 -26z m426
-21 c16 -14 18 -35 18 -201 0 -159 -2 -188 -17 -204 -14 -16 -35 -18 -201 -18
-159 0 -188 2 -204 17 -16 14 -18 35 -18 201 0 159 2 188 17 204 14 16 35 18
201 18 159 0 188 -2 204 -17z"/>
<path d="M165 350 c-49 -38 -91 -74 -93 -80 -5 -14 18 -41 29 -34 5 3 9 -35 9
-85 l0 -91 150 0 150 0 0 91 c0 54 4 88 9 84 6 -3 15 4 21 16 10 19 8 25 -24
51 -31 26 -36 35 -36 74 0 40 -2 44 -25 44 -20 0 -25 -5 -25 -26 l0 -26 -34
26 c-19 14 -36 26 -38 26 -2 0 -43 -32 -93 -70z m150 -41 l55 -41 0 -89 0 -89
-30 0 c-30 0 -30 1 -30 55 l0 55 -50 0 -50 0 0 -55 0 -55 -35 0 -35 0 0 84 0
85 58 45 c31 25 58 45 60 46 2 0 27 -19 57 -41z"/>
</g>
</svg>
