<?xml version="1.0" standalone="no"?>
<!DOCTYPE svg PUBLIC "-//W3C//DTD SVG 20010904//EN"
 "http://www.w3.org/TR/2001/REC-SVG-20010904/DTD/svg10.dtd">
<svg version="1.0" xmlns="http://www.w3.org/2000/svg"
 width="50.000000pt" height="50.000000pt" viewBox="0 0 50.000000 50.000000"
 preserveAspectRatio="xMidYMid meet">
<metadata>
Created by potrace 1.13, written by Peter Selinger 2001-2015
</metadata>
<g transform="translate(0.000000,50.000000) scale(0.100000,-0.100000)"
fill="#000000" stroke="none">
<path d="M25 475 c-25 -24 -25 -25 -25 -225 0 -270 -20 -250 250 -250 270 0
250 -20 250 250 0 270 20 250 -250 250 -200 0 -201 0 -225 -25z m435 -15 c19
-19 20 -33 20 -210 0 -177 -1 -191 -20 -210 -19 -19 -33 -20 -210 -20 -177 0
-191 1 -210 20 -19 19 -20 33 -20 210 0 177 1 191 20 210 19 19 33 20 210 20
177 0 191 -1 210 -20z"/>
<path d="M69 413 c-13 -32 -5 -331 9 -345 5 -5 87 -7 183 -6 l174 3 0 185 0
185 -178 3 -177 2 -11 -27z m351 -158 l0 -165 -165 0 -165 0 0 165 0 165 165
0 165 0 0 -165z"/>
<path d="M110 340 l0 -50 145 0 145 0 0 50 0 50 -145 0 -145 0 0 -50z"/>
</g>
</svg>
