<?xml version="1.0" standalone="no"?>
<!DOCTYPE svg PUBLIC "-//W3C//DTD SVG 20010904//EN"
 "http://www.w3.org/TR/2001/REC-SVG-20010904/DTD/svg10.dtd">
<svg version="1.0" xmlns="http://www.w3.org/2000/svg"
 width="50.000000pt" height="50.000000pt" viewBox="0 0 50.000000 50.000000"
 preserveAspectRatio="xMidYMid meet">
<metadata>
Created by potrace 1.13, written by Peter Selinger 2001-2015
</metadata>
<g transform="translate(0.000000,50.000000) scale(0.100000,-0.100000)"
fill="#000000" stroke="none">
<path d="M25 475 c-25 -24 -25 -25 -25 -225 0 -270 -20 -250 250 -250 270 0
250 -20 250 250 0 270 20 250 -250 250 -200 0 -201 0 -225 -25z m435 -15 c19
-19 20 -33 20 -210 0 -177 -1 -191 -20 -210 -19 -19 -33 -20 -210 -20 -177 0
-191 1 -210 20 -19 19 -20 33 -20 210 0 177 1 191 20 210 19 19 33 20 210 20
177 0 191 -1 210 -20z"/>
<path d="M243 420 c-35 -16 -43 -16 -43 -5 0 12 -14 15 -60 15 l-60 0 0 -179
c0 -197 -2 -191 63 -191 55 0 56 3 59 175 l3 159 65 -158 c35 -86 67 -159 72
-162 13 -8 109 38 105 50 -81 205 -132 316 -146 316 -9 0 -35 -9 -58 -20z"/>
</g>
</svg>
