<?xml version="1.0" encoding="utf-8"?>
<!-- Generator: Adobe Illustrator 16.0.0, SVG Export Plug-In . SVG Version: 6.00 Build 0)  -->
<!DOCTYPE svg PUBLIC "-//W3C//DTD SVG 1.1//EN" "http://www.w3.org/Graphics/SVG/1.1/DTD/svg11.dtd">
<svg version="1.1" id="Capa_1" xmlns="http://www.w3.org/2000/svg" xmlns:xlink="http://www.w3.org/1999/xlink" x="0px" y="0px"
	 width="52px" height="52px" viewBox="0 0 52 52" style="enable-background:new 0 0 52 52;" xml:space="preserve">
<style type="text/css">
<![CDATA[
	.st0{clip-path:url(#SVGID_96_);mask:url(#SVGID_97_);fill:url(#SVGID_99_);}
	.st1{clip-path:url(#SVGID_136_);fill:#FFFFFF;}
	.st2{clip-path:url(#SVGID_89_);mask:url(#SVGID_90_);fill:url(#SVGID_92_);}
	.st3{fill-rule:evenodd;clip-rule:evenodd;fill:#D6D6D6;}
	.st4{opacity:0.6;fill:#FFFFFF;}
	.st5{clip-path:url(#SVGID_158_);fill:url(#SVGID_160_);}
	.st6{clip-path:url(#SVGID_62_);fill:url(#SVGID_64_);}
	.st7{clip-path:url(#SVGID_8_);mask:url(#SVGID_9_);fill:url(#SVGID_11_);}
	.st8{fill:none;stroke:#00CCCC;stroke-miterlimit:10;}
	.st9{clip-path:url(#SVGID_75_);mask:url(#SVGID_76_);fill:url(#SVGID_78_);}
	.st10{clip-path:url(#SVGID_187_);fill:#FFFFFF;}
	.st11{clip-path:url(#SVGID_172_);fill:url(#SVGID_174_);}
	.st12{clip-path:url(#SVGID_163_);fill:#FFFFFF;}
	.st13{clip-path:url(#SVGID_89_);fill:url(#SVGID_91_);}
	.st14{fill:#E6E6E6;}
	.st15{filter:url(#Adobe_OpacityMaskFilter);}
	.st16{clip-path:url(#SVGID_131_);fill:#FFFFFF;}
	.st17{fill:none;stroke:#FFFFFF;stroke-width:2;stroke-miterlimit:10;}
	.st18{fill:#808080;}
	.st19{clip-path:url(#SVGID_80_);fill:#FFFFFF;}
	.st20{clip-path:url(#SVGID_43_);fill:#FFFFFF;}
	.st21{opacity:0.75;}
	.st22{opacity:0.53;fill:#FFFFFF;}
	.st23{clip-path:url(#SVGID_87_);fill:#FFFFFF;}
	.st24{fill-rule:evenodd;clip-rule:evenodd;fill:#7B7B7B;}
	.st25{fill:#00CCCC;stroke:#FFFFFF;stroke-width:3;stroke-miterlimit:10;}
	.st26{clip-path:url(#SVGID_143_);fill:#FFFFFF;}
	.st27{fill-rule:evenodd;clip-rule:evenodd;fill:#ABABAB;}
	.st28{fill:#1D8BBC;}
	.st29{clip-path:url(#SVGID_75_);fill:url(#SVGID_77_);}
	.st30{clip-path:url(#SVGID_187_);fill:#FFFFFF;}
	.st31{fill-rule:evenodd;clip-rule:evenodd;fill:#111111;}
	.st32{fill:none;stroke:#808080;stroke-width:3;stroke-miterlimit:10;}
	.st33{clip-path:url(#SVGID_96_);fill:url(#SVGID_98_);}
	.st34{filter:url(#Adobe_OpacityMaskFilter_10_);}
	.st35{filter:url(#Adobe_OpacityMaskFilter_11_);}
	.st36{filter:url(#Adobe_OpacityMaskFilter_12_);}
	.st37{filter:url(#Adobe_OpacityMaskFilter_13_);}
	.st38{filter:url(#Adobe_OpacityMaskFilter_14_);}
	.st39{filter:url(#Adobe_OpacityMaskFilter_15_);}
	.st40{filter:url(#Adobe_OpacityMaskFilter_16_);}
	.st41{clip-path:url(#SVGID_170_);fill:#FFFFFF;}
	.st42{clip-path:url(#SVGID_192_);fill:#FFFFFF;}
	.st43{fill:none;stroke:#FFFFFF;stroke-width:2;stroke-miterlimit:10;}
	.st44{clip-path:url(#SVGID_177_);fill:#FFFFFF;}
	.st45{fill:url(#);}
	.st46{clip-path:url(#SVGID_67_);fill:#FFFFFF;}
	.st47{fill-rule:evenodd;clip-rule:evenodd;fill:#4D4D4D;}
	.st48{opacity:0.49;fill:url(#);}
	.st49{fill-rule:evenodd;clip-rule:evenodd;fill:#E8E8E8;}
	.st50{fill:none;stroke:#00CCCC;stroke-width:3;stroke-miterlimit:10;}
	.st51{clip-path:url(#SVGID_101_);fill:#FFFFFF;}
	.st52{clip-path:url(#SVGID_24_);mask:url(#SVGID_25_);fill:url(#SVGID_27_);}
	.st53{clip-path:url(#SVGID_13_);fill:#FFFFFF;}
	.st54{display:inline;opacity:0.49;fill:url(#);}
	.st55{clip-path:url(#SVGID_94_);fill:#FFFFFF;}
	.st56{clip-path:url(#SVGID_82_);fill:url(#SVGID_84_);}
	.st57{clip-path:url(#SVGID_8_);fill:url(#SVGID_10_);}
	.st58{fill:url(#SVGID_125_);}
	.st59{fill:url(#SVGID_126_);}
	.st60{fill:url(#SVGID_127_);}
	.st61{fill:url(#SVGID_132_);}
	.st62{fill:url(#SVGID_133_);}
	.st63{fill:url(#SVGID_134_);}
	.st64{fill:url(#SVGID_188_);}
	.st65{fill:url(#SVGID_189_);}
	.st66{fill:url(#SVGID_190_);}
	.st67{clip-path:url(#SVGID_2_);}
	.st68{clip-path:url(#SVGID_4_);}
	.st69{clip-path:url(#SVGID_6_);}
	.st70{fill:#FFFFFF;stroke:#FFFFFF;stroke-width:3;stroke-miterlimit:10;}
	.st71{clip-path:url(#SVGID_17_);fill:url(#SVGID_19_);}
	.st72{fill:#00CCCC;stroke:#00CCCC;stroke-width:3;stroke-miterlimit:10;}
	.st73{fill:#C5C7C9;}
	.st74{clip-path:url(#SVGID_82_);mask:url(#SVGID_83_);fill:url(#SVGID_85_);}
	.st75{clip-path:url(#SVGID_38_);fill:url(#SVGID_40_);}
	.st76{clip-path:url(#SVGID_109_);mask:url(#SVGID_110_);fill:url(#SVGID_112_);}
	.st77{clip-path:url(#SVGID_53_);fill:url(#SVGID_55_);}
	.st78{fill:#999999;}
	.st79{fill:#FDFDFD;}
	.st80{clip-path:url(#SVGID_138_);mask:url(#SVGID_139_);fill:url(#SVGID_141_);}
	.st81{clip-path:url(#SVGID_165_);fill:url(#SVGID_167_);}
	.st82{display:none;fill:none;}
	.st83{fill:#FFFFFF;}
	.st84{fill:none;stroke:#00CCCC;stroke-width:2;stroke-miterlimit:10;}
	.st85{fill-rule:evenodd;clip-rule:evenodd;fill:#F4F4F4;}
	.st86{opacity:0.6;fill:url(#SVGID_50_);}
	.st87{opacity:0.6;fill:url(#SVGID_51_);}
	.st88{clip-path:url(#SVGID_129_);fill:#FFFFFF;}
	.st89{display:inline;}
	.st90{clip-path:url(#SVGID_24_);fill:url(#SVGID_26_);}
	.st91{clip-path:url(#SVGID_120_);fill:#00CCCC;}
	.st92{opacity:0.6;fill:url(#SVGID_123_);}
	.st93{opacity:0.6;fill:url(#SVGID_124_);}
	.st94{opacity:0.6;fill:url(#SVGID_184_);}
	.st95{opacity:0.6;fill:url(#SVGID_185_);}
	.st96{fill:none;stroke:#FFFFFF;stroke-miterlimit:10;}
	.st97{fill-rule:evenodd;clip-rule:evenodd;fill:#939393;}
	.st98{fill-rule:evenodd;clip-rule:evenodd;fill:#C2C2C2;}
	.st99{clip-path:url(#SVGID_62_);mask:url(#SVGID_63_);fill:url(#SVGID_65_);}
	.st100{clip-path:url(#SVGID_151_);mask:url(#SVGID_152_);fill:url(#SVGID_154_);}
	.st101{clip-path:url(#SVGID_158_);mask:url(#SVGID_159_);fill:url(#SVGID_161_);}
	.st102{clip-path:url(#SVGID_105_);}
	.st103{clip-path:url(#SVGID_114_);}
	.st104{clip-path:url(#SVGID_116_);}
	.st105{clip-path:url(#SVGID_145_);}
	.st106{clip-path:url(#SVGID_147_);}
	.st107{clip-path:url(#SVGID_181_);}
	.st108{clip-path:url(#SVGID_22_);fill:#FFFFFF;}
	.st109{clip-path:url(#SVGID_151_);fill:url(#SVGID_153_);}
	.st110{fill:#FFFFFF;}
	.st111{fill:#00A5A8;}
	.st112{fill-rule:evenodd;clip-rule:evenodd;fill:#FDFDFD;}
	.st113{fill:#00CCCC;}
	.st114{clip-path:url(#SVGID_29_);fill:#FFFFFF;}
	.st115{fill-rule:evenodd;clip-rule:evenodd;fill:#FEFEFE;}
	.st116{fill-rule:evenodd;clip-rule:evenodd;fill:#646464;}
	.st117{clip-path:url(#SVGID_122_);fill:#00CCCC;}
	.st118{clip-path:url(#SVGID_165_);mask:url(#SVGID_166_);fill:url(#SVGID_168_);}
	.st119{clip-path:url(#SVGID_129_);fill:#FFFFFF;}
	.st120{clip-path:url(#SVGID_31_);fill:url(#SVGID_33_);}
	.st121{opacity:0.54;fill:#FFFFFF;}
	.st122{clip-path:url(#SVGID_109_);fill:url(#SVGID_111_);}
	.st123{clip-path:url(#SVGID_31_);mask:url(#SVGID_32_);fill:url(#SVGID_34_);}
	.st124{fill-rule:evenodd;clip-rule:evenodd;fill:#313131;}
	.st125{display:none;}
	.st126{clip-path:url(#SVGID_15_);}
	.st127{clip-path:url(#SVGID_47_);}
	.st128{clip-path:url(#SVGID_58_);}
	.st129{clip-path:url(#SVGID_69_);}
	.st130{clip-path:url(#SVGID_71_);}
	.st131{clip-path:url(#SVGID_38_);mask:url(#SVGID_39_);fill:url(#SVGID_41_);}
	.st132{clip-path:url(#SVGID_156_);fill:#FFFFFF;}
	.st133{clip-path:url(#SVGID_138_);fill:url(#SVGID_140_);}
	.st134{clip-path:url(#SVGID_172_);mask:url(#SVGID_173_);fill:url(#SVGID_175_);}
	.st135{fill-rule:evenodd;clip-rule:evenodd;fill:none;stroke:#FFFFFF;stroke-width:4;stroke-miterlimit:10;}
	.st136{clip-path:url(#SVGID_17_);mask:url(#SVGID_18_);fill:url(#SVGID_20_);}
	.st137{clip-path:url(#SVGID_53_);mask:url(#SVGID_54_);fill:url(#SVGID_56_);}
	.st138{clip-path:url(#SVGID_36_);fill:#FFFFFF;}
	.st139{clip-path:url(#SVGID_131_);fill:#FFFFFF;}
	.st140{filter:url(#Adobe_OpacityMaskFilter_1_);}
	.st141{filter:url(#Adobe_OpacityMaskFilter_2_);}
	.st142{filter:url(#Adobe_OpacityMaskFilter_3_);}
	.st143{filter:url(#Adobe_OpacityMaskFilter_4_);}
	.st144{filter:url(#Adobe_OpacityMaskFilter_5_);}
	.st145{filter:url(#Adobe_OpacityMaskFilter_6_);}
	.st146{filter:url(#Adobe_OpacityMaskFilter_7_);}
	.st147{filter:url(#Adobe_OpacityMaskFilter_8_);}
	.st148{filter:url(#Adobe_OpacityMaskFilter_9_);}
]]>
</style>
<g>
	<g>
		<path class="st43" d="M51,43.541C51,47.66,47.506,51,43.433,51H8.741C4.668,51,1,47.66,1,43.541V8.459C1,4.34,4.668,1,8.741,1
			h34.691C47.506,1,51,4.34,51,8.459V43.541z"/>
		<g>
			<path class="st110" d="M24.558,26.566c0,0.289-0.234,0.525-0.521,0.525H12.504c-0.286,0-0.521-0.237-0.521-0.525v-1.084
				c0-0.29,0.234-0.527,0.521-0.527h11.532c0.287,0,0.521,0.237,0.521,0.527V26.566z M24.558,26.566"/>
			<path class="st110" d="M40.841,26.566c0,0.289-0.234,0.525-0.521,0.525H28.788c-0.287,0-0.522-0.237-0.522-0.525v-1.084
				c0-0.29,0.235-0.527,0.522-0.527h11.531c0.287,0,0.521,0.237,0.521,0.527V26.566z M40.841,26.566"/>
			<path class="st110" d="M24.558,32.379c0,0.289-0.234,0.525-0.521,0.525H12.504c-0.286,0-0.521-0.237-0.521-0.525v-1.084
				c0-0.29,0.234-0.527,0.521-0.527h11.532c0.287,0,0.521,0.237,0.521,0.527V32.379z M24.558,32.379"/>
			<path class="st110" d="M40.841,32.379c0,0.289-0.234,0.525-0.521,0.525H28.788c-0.287,0-0.522-0.237-0.522-0.525v-1.084
				c0-0.29,0.235-0.527,0.522-0.527h11.531c0.287,0,0.521,0.237,0.521,0.527V32.379z M40.841,32.379"/>
			<path class="st110" d="M24.558,38.19c0,0.29-0.234,0.527-0.521,0.527H12.504c-0.286,0-0.521-0.237-0.521-0.527v-1.083
				c0-0.289,0.234-0.527,0.521-0.527h11.532c0.287,0,0.521,0.238,0.521,0.527V38.19z M24.558,38.19"/>
			<g>
				<defs>
					<rect id="SVGID_191_" x="0.809" y="6.614" width="45.129" height="38.858"/>
				</defs>
				<clipPath id="SVGID_2_">
					<use xlink:href="#SVGID_191_"  style="overflow:visible;"/>
				</clipPath>
				<path style="clip-path:url(#SVGID_2_);fill:#FFFFFF;" d="M40.841,38.19c0,0.29-0.234,0.527-0.521,0.527H28.788
					c-0.287,0-0.522-0.237-0.522-0.527v-1.083c0-0.289,0.235-0.527,0.522-0.527h11.531c0.287,0,0.521,0.238,0.521,0.527V38.19z
					 M40.841,38.19"/>
				<path style="clip-path:url(#SVGID_2_);fill:#FFFFFF;" d="M43.313,6.614H9.602c-1.409,0-2.557,1.158-2.557,2.583
					c0,0-0.363,16.597-0.014,22.572c0.194,0.991,0.052,1.898-0.125,2.924c-0.146,0.841,0.15,2.121,0.13,3.017
					c-0.045,1.907,0.055,3.83,0.002,5.739c0.125,0.349,0.279,0.638,0.494,0.797c0.464,0.646,1.219,1.07,2.069,1.07h33.712
					c1.409,0,2.557-1.161,2.557-2.583V9.197C45.87,7.771,44.723,6.614,43.313,6.614z M43.977,42.732
					c0,0.368-0.297,0.667-0.663,0.667H9.602c-0.366,0-0.663-0.3-0.663-0.667V9.197c0-0.363,0.302-0.669,0.663-0.669h33.712
					c0.36,0,0.663,0.306,0.663,0.669V42.732z"/>
				<path style="clip-path:url(#SVGID_2_);fill:#FFFFFF;" d="M8.938,9.197"/>
			</g>
			<path class="st110" d="M40.657,11.568H12.166c-0.257,0-0.467,0.212-0.467,0.473v9.053c0,0.261,0.21,0.473,0.467,0.473h28.491
				c0.258,0,0.466-0.211,0.466-0.473v-9.053C41.123,11.781,40.915,11.568,40.657,11.568L40.657,11.568z M20.838,19.199
				c0,0.24-0.193,0.435-0.429,0.435h-0.182c-0.208,0-0.449-0.135-0.559-0.313l-1.526-2.47c-0.086-0.137-0.219-0.358-0.302-0.493
				c-0.02-0.035-0.313-0.514-0.61-1.071c-0.025-0.061-0.056-0.035-0.054,0.006c0.014,0.425,0.034,1.103,0.034,1.703v2.203
				c0,0.24-0.193,0.435-0.429,0.435h-0.131c-0.236,0-0.429-0.195-0.429-0.435v-5.253c0-0.238,0.192-0.434,0.429-0.434h0.241
				c0.207,0,0.448,0.135,0.56,0.312l1.542,2.464c0.086,0.133,0.221,0.356,0.302,0.493c0.016,0.03,0.295,0.508,0.56,0.998
				c0.016,0.029,0.051,0.06,0.047-0.006c-0.021-0.427-0.053-1.073-0.053-1.676v-2.151c0-0.238,0.192-0.434,0.429-0.434h0.131
				c0.235,0,0.429,0.195,0.429,0.434V19.199z M25.38,19.199c0,0.24-0.19,0.435-0.428,0.435H22.28c-0.235,0-0.429-0.195-0.429-0.435
				v-5.253c0-0.238,0.193-0.434,0.429-0.434h2.545c0.234,0,0.427,0.195,0.427,0.434V14c0,0.238-0.192,0.432-0.427,0.432h-1.801
				c-0.079,0-0.143,0.066-0.143,0.145v1.265c0,0.079,0.063,0.144,0.143,0.144h1.671c0.235,0,0.429,0.195,0.429,0.432v0.049
				c0,0.239-0.193,0.431-0.429,0.431h-1.671c-0.079,0-0.143,0.064-0.143,0.145v1.525c0,0.079,0.063,0.144,0.143,0.144h1.928
				c0.237,0,0.428,0.194,0.428,0.432V19.199z M32.859,13.974l-1.479,5.275c-0.061,0.215-0.279,0.385-0.501,0.385h-0.209
				c-0.222,0-0.438-0.172-0.49-0.392l-0.592-2.476c-0.037-0.153-0.097-0.408-0.132-0.564c-0.008-0.027-0.106-0.465-0.194-0.931
				c-0.073,0.326-0.183,0.793-0.305,1.221l-0.744,2.756c-0.06,0.215-0.278,0.386-0.498,0.386h-0.209
				c-0.222,0-0.438-0.172-0.494-0.389l-1.322-5.272c-0.029-0.117-0.007-0.234,0.062-0.323c0.064-0.088,0.173-0.138,0.292-0.138
				h0.216c0.225,0,0.439,0.172,0.488,0.393l0.556,2.389c0.037,0.155,0.096,0.409,0.129,0.562c0,0.01,0.083,0.366,0.193,0.899
				c0.046,0.159,0.08,0.06,0.1-0.026c0.079-0.345,0.184-0.787,0.282-1.167l0.697-2.661c0.058-0.217,0.273-0.388,0.495-0.388h0.208
				c0.224,0,0.439,0.172,0.491,0.392l0.568,2.398c0.036,0.154,0.096,0.407,0.132,0.563c0.006,0.027,0.102,0.445,0.193,0.908
				c0.01,0.049,0.025,0.132,0.054,0.035c0.081-0.362,0.183-0.802,0.292-1.245l0.688-2.663c0.057-0.217,0.275-0.388,0.497-0.388h0.19
				c0.119,0,0.227,0.051,0.292,0.139C32.872,13.74,32.893,13.857,32.859,13.974L32.859,13.974z M34.698,19.718
				c-0.576,0-1.232-0.263-1.26-0.275c-0.213-0.085-0.33-0.336-0.265-0.559c0,0,0.094-0.344,0.136-0.455
				c0.022-0.059,0.077-0.047,0.077-0.047l0.104,0.067c0.361,0.224,0.832,0.358,1.26,0.358c0.655,0,1.063-0.326,1.063-0.851
				c0-0.403-0.163-0.702-0.995-1.025c-1.101-0.395-1.614-0.96-1.614-1.786c0-1.016,0.826-1.727,2.008-1.727
				c0.707,0,1.147,0.19,1.345,0.303l0.035,0.02c0,0,0.065,0.047,0.043,0.112c-0.032,0.092-0.128,0.38-0.128,0.38
				c-0.056,0.167-0.2,0.274-0.369,0.274c-0.06,0-0.119-0.015-0.176-0.041c-0.002-0.001-0.299-0.139-0.775-0.139
				c-0.697,0-0.944,0.392-0.944,0.731c0,0.434,0.257,0.676,1.055,0.988c1.097,0.428,1.563,0.979,1.563,1.848
				C36.86,18.736,36.295,19.718,34.698,19.718L34.698,19.718z M34.698,19.718"/>
		</g>
	</g>
</g>
</svg>
